# Blender 5.2.2 LTS
# www.blender.org
o Baseboard
v -2.000000 0.000000 0.000000
v 2.000000 0.000000 0.000000
v -2.000000 -0.000000 -0.330000
v 2.000000 -0.000000 -0.330000
v -2.000000 0.025000 -0.350000
v 2.000000 0.025000 -0.350000
v -2.000000 0.050000 -0.330000
v 2.000000 0.050000 -0.330000
v -2.000000 0.060000 -0.300000
v 2.000000 0.060000 -0.300000
v -2.000000 0.360000 -0.300000
v 2.000000 0.360000 -0.300000
v -2.000000 0.388000 -0.288541
v 2.000000 0.388000 -0.288541
v -2.000000 0.416000 -0.258541
v 2.000000 0.416000 -0.258541
v -2.000000 0.444000 -0.221459
v 2.000000 0.444000 -0.221459
v -2.000000 0.472000 -0.191459
v 2.000000 0.472000 -0.191459
v -2.000000 0.500000 -0.180000
v 2.000000 0.500000 -0.180000
v -2.000000 0.500000 -0.000000
v 2.000000 0.500000 -0.000000
vn -0.0000 -1.0000 -0.0000
vn -0.0000 -0.6247 -0.7809
vn -0.0000 0.8203 -0.5720
vn -0.0000 0.6247 -0.7809
vn -0.0000 0.9487 -0.3162
vn -0.0000 0.1930 -0.9812
vn -0.0000 -0.0000 -1.0000
vn -0.0000 0.5681 -0.8230
vn -0.0000 0.7656 -0.6433
vn -0.0000 0.3788 -0.9255
vn -0.0000 1.0000 -0.0000
vn -0.0000 -0.0000 1.0000
vn -1.0000 -0.0000 -0.0000
vn 1.0000 -0.0000 -0.0000
vt 0.207870 0.000632
vt 0.125474 0.999368
vt 0.125474 0.000632
vt 0.212863 0.000632
vt 0.207870 0.999368
vt 0.387596 0.999368
vt 0.394912 0.000632
vt 0.394911 0.999368
vt 0.378539 0.999368
vt 0.386333 0.000632
vt 0.386333 0.999368
vt 0.230298 0.999368
vt 0.302692 0.000632
vt 0.302692 0.999368
vt 0.222807 0.999368
vt 0.230298 0.000632
vt 0.214127 0.999368
vt 0.222807 0.000632
vt 0.367017 0.999368
vt 0.377276 0.000632
vt 0.377276 0.999368
vt 0.357073 0.999368
vt 0.365753 0.000632
vt 0.365753 0.999368
vt 0.349581 0.999368
vt 0.357073 0.000632
vt 0.303955 0.999368
vt 0.348318 0.000632
vt 0.348318 0.999368
vt 0.000632 0.999368
vt 0.000632 0.000632
vt 0.451470 0.014614
vt 0.471080 0.110493
vt 0.396175 0.125474
vt 0.408659 0.236598
vt 0.428270 0.140719
vt 0.483564 0.126737
vt 0.212863 0.999368
vt 0.387596 0.000632
vt 0.378539 0.000632
vt 0.214127 0.000632
vt 0.367017 0.000632
vt 0.349582 0.000632
vt 0.303955 0.000632
vt 0.396175 0.000632
vt 0.441118 0.000632
vt 0.443979 0.007623
vt 0.483564 0.119232
vt 0.478571 0.125474
vt 0.478571 0.112990
vt 0.468219 0.028596
vt 0.471080 0.035587
vt 0.460728 0.021605
vt 0.483564 0.251579
vt 0.401169 0.251579
vt 0.396175 0.245337
vt 0.401169 0.239095
vt 0.408659 0.161693
vt 0.411520 0.154702
vt 0.435760 0.133728
vt 0.438621 0.126737
vt 0.419011 0.147711
s 1
f 3/1/1 2/2/1 1/3/1
f 5/4/2 4/5/2 3/1/2
f 7/6/3 6/7/4 5/8/4
f 9/9/5 8/10/3 7/11/3
f 11/12/6 10/13/7 9/14/7
f 13/15/8 12/16/6 11/12/6
f 15/17/9 14/18/8 13/15/8
f 17/19/9 16/20/9 15/21/9
f 19/22/8 18/23/9 17/24/9
f 21/25/10 20/26/8 19/22/8
f 23/27/11 22/28/11 21/29/11
f 1/3/12 24/30/12 23/31/12
f 17/32/13 9/33/13 1/34/13
f 10/35/14 18/36/14 24/37/14
f 3/1/1 4/5/1 2/2/1
f 5/4/2 6/38/2 4/5/2
f 7/6/3 8/39/3 6/7/4
f 9/9/5 10/40/5 8/10/3
f 11/12/6 12/16/6 10/13/7
f 13/15/8 14/18/8 12/16/6
f 15/17/9 16/41/9 14/18/8
f 17/19/9 18/42/9 16/20/9
f 19/22/8 20/26/8 18/23/9
f 21/25/10 22/43/10 20/26/8
f 23/27/11 24/44/11 22/28/11
f 1/3/12 2/2/12 24/30/12
f 1/34/13 23/45/13 21/46/13
f 1/34/13 21/46/13 19/47/13
f 5/48/13 3/49/13 1/34/13
f 9/33/13 7/50/13 5/48/13
f 13/51/13 11/52/13 9/33/13
f 17/32/13 15/53/13 13/51/13
f 1/34/13 19/47/13 17/32/13
f 9/33/13 5/48/13 1/34/13
f 17/32/13 13/51/13 9/33/13
f 24/37/14 2/54/14 4/55/14
f 4/55/14 6/56/14 8/57/14
f 10/35/14 12/58/14 14/59/14
f 4/55/14 8/57/14 10/35/14
f 20/60/14 22/61/14 24/37/14
f 14/59/14 16/62/14 18/36/14
f 18/36/14 20/60/14 24/37/14
f 24/37/14 4/55/14 10/35/14
f 10/35/14 14/59/14 18/36/14
