# Blender 5.2.2 LTS
# www.blender.org
o Cornice
v -2.000000 0.000000 0.000000
v 2.000000 0.000000 0.000000
v -2.000000 -0.000000 -0.040000
v 2.000000 -0.000000 -0.040000
v -2.000000 0.030000 -0.040000
v 2.000000 0.030000 -0.040000
v -2.000000 0.072920 -0.043267
v 2.000000 0.072920 -0.043267
v -2.000000 0.114190 -0.052940
v 2.000000 0.114190 -0.052940
v -2.000000 0.152225 -0.068650
v 2.000000 0.152225 -0.068650
v -2.000000 0.185563 -0.089792
v 2.000000 0.185563 -0.089792
v -2.000000 0.212923 -0.115553
v 2.000000 0.212923 -0.115553
v -2.000000 0.233253 -0.144944
v 2.000000 0.233253 -0.144944
v -2.000000 0.245773 -0.176835
v 2.000000 0.245773 -0.176835
v -2.000000 0.250000 -0.210000
v 2.000000 0.250000 -0.210000
v -2.000000 0.270000 -0.240000
v 2.000000 0.270000 -0.240000
v -2.000000 0.320000 -0.240000
v 2.000000 0.320000 -0.240000
v -2.000000 0.320000 -0.000000
v 2.000000 0.320000 -0.000000
vn -0.0000 -1.0000 -0.0000
vn -0.0000 -0.0380 -0.9993
vn -0.0000 -0.0000 -1.0000
vn -0.0000 -0.1525 -0.9883
vn -0.0000 -0.3060 -0.9520
vn -0.0000 -0.4604 -0.8877
vn -0.0000 -0.6133 -0.7898
vn -0.0000 -0.7582 -0.6521
vn -0.0000 -0.8825 -0.4703
vn -0.0000 -0.9688 -0.2478
vn -0.0000 -0.9368 -0.3498
vn -0.0000 -0.8321 -0.5547
vn -0.0000 1.0000 -0.0000
vn -0.0000 -0.0000 1.0000
vn -1.0000 -0.0000 -0.0000
vn 1.0000 -0.0000 -0.0000
vn -0.0000 -0.8320 -0.5547
vt 0.246203 0.999483
vt 0.256054 0.000517
vt 0.256054 0.999483
vt 0.190300 0.999483
vt 0.197720 0.000517
vt 0.197720 0.999483
vt 0.179572 0.999483
vt 0.190300 0.000517
vt 0.169030 0.999483
vt 0.179572 0.000517
vt 0.159078 0.999483
vt 0.169030 0.000517
vt 0.150100 0.999483
vt 0.159078 0.000517
vt 0.142441 0.999483
vt 0.150100 0.000517
vt 0.223688 0.999483
vt 0.231769 0.000517
vt 0.231768 0.999483
vt 0.215315 0.999483
vt 0.223688 0.000517
vt 0.206972 0.999483
vt 0.215315 0.000517
vt 0.198754 0.999483
vt 0.206972 0.000517
vt 0.232803 0.999483
vt 0.245169 0.000517
vt 0.245169 0.999483
vt 0.081468 0.999483
vt 0.141407 0.000517
vt 0.141406 0.999483
vt 0.080434 0.000517
vt 0.000517 0.999483
vt 0.000517 0.000517
vt 0.257088 0.000517
vt 0.279513 0.034091
vt 0.274233 0.042417
vt 0.299882 0.123369
vt 0.294602 0.115043
vt 0.317026 0.081468
vt 0.246203 0.000517
vt 0.142441 0.000517
vt 0.198754 0.000517
vt 0.232803 0.000517
vt 0.081469 0.000517
vt 0.080434 0.999483
vt 0.317026 0.000517
vt 0.317026 0.013004
vt 0.309534 0.017999
vt 0.301251 0.019055
vt 0.267078 0.080434
vt 0.257088 0.080434
vt 0.267078 0.072942
vt 0.293287 0.022181
vt 0.285947 0.027259
vt 0.267894 0.062223
vt 0.270310 0.051916
vt 0.317026 0.161386
vt 0.307037 0.161386
vt 0.307037 0.153893
vt 0.257088 0.093955
vt 0.257088 0.081468
vt 0.272863 0.100006
vt 0.264581 0.098950
vt 0.306221 0.143175
vt 0.303805 0.132868
vt 0.280828 0.103133
vt 0.288168 0.108210
s 1
f 3/1/1 2/2/1 1/3/1
f 5/4/2 4/5/3 3/6/3
f 7/7/4 6/8/2 5/4/2
f 9/9/5 8/10/4 7/7/4
f 11/11/6 10/12/5 9/9/5
f 13/13/7 12/14/6 11/11/6
f 15/15/8 14/16/7 13/13/7
f 17/17/9 16/18/8 15/19/8
f 19/20/10 18/21/9 17/17/9
f 21/22/11 20/23/10 19/20/10
f 23/24/12 22/25/11 21/22/11
f 25/26/3 24/27/3 23/28/3
f 27/29/13 26/30/13 25/31/13
f 1/32/14 28/33/14 27/34/14
f 27/35/15 13/36/15 11/37/15
f 12/38/16 14/39/16 28/40/16
f 3/1/1 4/41/1 2/2/1
f 5/4/2 6/8/2 4/5/3
f 7/7/4 8/10/4 6/8/2
f 9/9/5 10/12/5 8/10/4
f 11/11/6 12/14/6 10/12/5
f 13/13/7 14/16/7 12/14/6
f 15/15/8 16/42/8 14/16/7
f 17/17/9 18/21/9 16/18/8
f 19/20/10 20/23/10 18/21/9
f 21/22/11 22/25/11 20/23/10
f 23/24/12 24/43/17 22/25/11
f 25/26/3 26/44/3 24/27/3
f 27/29/13 28/45/13 26/30/13
f 1/32/14 2/46/14 28/33/14
f 27/35/15 25/47/15 23/48/15
f 23/48/15 21/49/15 19/50/15
f 27/35/15 23/48/15 19/50/15
f 3/51/15 1/52/15 27/35/15
f 5/53/15 3/51/15 27/35/15
f 27/35/15 19/50/15 17/54/15
f 27/35/15 17/54/15 15/55/15
f 7/56/15 5/53/15 27/35/15
f 9/57/15 7/56/15 27/35/15
f 27/35/15 15/55/15 13/36/15
f 11/37/15 9/57/15 27/35/15
f 28/40/16 2/58/16 4/59/16
f 28/40/16 4/59/16 6/60/16
f 24/61/16 26/62/16 28/40/16
f 20/63/16 22/64/16 24/61/16
f 20/63/16 24/61/16 28/40/16
f 28/40/16 6/60/16 8/65/16
f 28/40/16 8/65/16 10/66/16
f 18/67/16 20/63/16 28/40/16
f 16/68/16 18/67/16 28/40/16
f 28/40/16 10/66/16 12/38/16
f 14/39/16 16/68/16 28/40/16
