# Blender 5.2.2 LTS
# www.blender.org
o DadoRail
v -2.000000 0.000000 0.000000
v 2.000000 0.000000 0.000000
v -2.000000 -0.000000 -0.120000
v 2.000000 -0.000000 -0.120000
v -2.000000 0.040000 -0.160000
v 2.000000 0.040000 -0.160000
v -2.000000 -0.000000 -0.220000
v 2.000000 -0.000000 -0.220000
v -2.000000 0.007612 -0.258268
v 2.000000 0.007612 -0.258268
v -2.000000 0.029289 -0.290711
v 2.000000 0.029289 -0.290711
v -2.000000 0.061732 -0.312388
v 2.000000 0.061732 -0.312388
v -2.000000 0.100000 -0.320000
v 2.000000 0.100000 -0.320000
v -2.000000 0.138268 -0.312388
v 2.000000 0.138268 -0.312388
v -2.000000 0.170711 -0.290711
v 2.000000 0.170711 -0.290711
v -2.000000 0.192388 -0.258268
v 2.000000 0.192388 -0.258268
v -2.000000 0.200000 -0.220000
v 2.000000 0.200000 -0.220000
v -2.000000 0.200000 -0.000000
v 2.000000 0.200000 -0.000000
vn -0.0000 -1.0000 -0.0000
vn -0.0000 -0.7071 -0.7071
vn -0.0000 -0.8321 0.5547
vn -0.0000 -0.9239 -0.3827
vn -0.0000 -0.9808 -0.1951
vn -0.0000 -0.3827 -0.9239
vn -0.0000 -0.0000 -1.0000
vn -0.0000 0.3827 -0.9239
vn -0.0000 0.7071 -0.7071
vn -0.0000 0.9239 -0.3827
vn -0.0000 0.9952 -0.0980
vn -0.0000 1.0000 -0.0000
vn -0.0000 -0.0000 1.0000
vn -1.0000 -0.0000 -0.0000
vn 1.0000 -0.0000 -0.0000
vt 0.194345 0.999493
vt 0.224171 0.000506
vt 0.224171 0.999493
vt 0.225184 0.999493
vt 0.236930 0.000506
vt 0.236930 0.999493
vt 0.179399 0.999493
vt 0.193332 0.000506
vt 0.193332 0.999493
vt 0.169701 0.999493
vt 0.179399 0.000506
vt 0.161107 0.999493
vt 0.169701 0.000506
vt 0.151091 0.999493
vt 0.160094 0.000506
vt 0.160094 0.999493
vt 0.141347 0.999493
vt 0.151091 0.000506
vt 0.132344 0.999493
vt 0.141347 0.000506
vt 0.125453 0.999493
vt 0.132344 0.000506
vt 0.064884 0.999493
vt 0.073478 0.000506
vt 0.073478 0.999493
vt 0.055186 0.999493
vt 0.064884 0.000506
vt 0.000506 0.999493
vt 0.055186 0.000506
vt 0.124440 0.000506
vt 0.074491 0.999493
vt 0.074491 0.000506
vt 0.245258 0.007821
vt 0.277903 0.040466
vt 0.287893 0.080425
vt 0.285992 0.145940
vt 0.253361 0.159456
vt 0.237943 0.081438
vt 0.194345 0.000506
vt 0.225184 0.000506
vt 0.161107 0.000506
vt 0.125453 0.000506
vt 0.000507 0.000506
vt 0.124440 0.999494
vt 0.237943 0.080425
vt 0.237943 0.025481
vt 0.239844 0.015924
vt 0.253361 0.002408
vt 0.262918 0.000506
vt 0.272475 0.002408
vt 0.280578 0.007821
vt 0.285992 0.015924
vt 0.287893 0.025481
vt 0.287893 0.050456
vt 0.287893 0.081438
vt 0.287893 0.111408
vt 0.277903 0.121398
vt 0.287893 0.136383
vt 0.239844 0.145940
vt 0.237943 0.136383
vt 0.245258 0.154042
vt 0.272475 0.159456
vt 0.262918 0.161357
vt 0.280578 0.154042
s 1
f 3/1/1 2/2/1 1/3/1
f 5/4/2 4/5/2 3/6/2
f 7/7/3 6/8/3 5/9/3
f 9/10/4 8/11/5 7/7/5
f 11/12/2 10/13/4 9/10/4
f 13/14/6 12/15/2 11/16/2
f 15/17/7 14/18/6 13/14/6
f 17/19/8 16/20/7 15/17/7
f 19/21/9 18/22/8 17/19/8
f 21/23/10 20/24/9 19/25/9
f 23/26/11 22/27/10 21/23/10
f 25/28/12 24/29/11 23/26/11
f 1/30/13 26/31/13 25/32/13
f 19/33/14 5/34/14 1/35/14
f 10/36/15 18/37/15 26/38/15
f 3/1/1 4/39/1 2/2/1
f 5/4/2 6/40/2 4/5/2
f 7/7/3 8/11/3 6/8/3
f 9/10/4 10/13/4 8/11/5
f 11/12/2 12/41/2 10/13/4
f 13/14/6 14/18/6 12/15/2
f 15/17/7 16/20/7 14/18/6
f 17/19/8 18/22/8 16/20/7
f 19/21/9 20/42/9 18/22/8
f 21/23/10 22/27/10 20/24/9
f 23/26/11 24/29/11 22/27/10
f 25/28/12 26/43/12 24/29/11
f 1/30/13 2/44/13 26/31/13
f 1/35/14 25/45/14 23/46/14
f 23/46/14 21/47/14 19/33/14
f 19/33/14 17/48/14 15/49/14
f 15/49/14 13/50/14 11/51/14
f 11/51/14 9/52/14 7/53/14
f 5/34/14 3/54/14 1/35/14
f 11/51/14 7/53/14 5/34/14
f 19/33/14 15/49/14 11/51/14
f 1/35/14 23/46/14 19/33/14
f 19/33/14 11/51/14 5/34/14
f 26/38/15 2/55/15 4/56/15
f 6/57/15 8/58/15 10/36/15
f 26/38/15 4/56/15 6/57/15
f 22/59/15 24/60/15 26/38/15
f 18/37/15 20/61/15 22/59/15
f 14/62/15 16/63/15 18/37/15
f 10/36/15 12/64/15 14/62/15
f 26/38/15 6/57/15 10/36/15
f 18/37/15 22/59/15 26/38/15
f 10/36/15 14/62/15 18/37/15
