# Blender 5.2.2 LTS
# www.blender.org
o DoorCasing
v -1.875000 -0.000000 -0.270000
v -1.875000 9.950000 -0.270000
v -1.940000 -0.000000 -0.200000
v -1.940000 9.950000 -0.200000
v -2.040000 -0.000000 -0.200000
v -2.040000 9.950000 -0.200000
v -2.080000 -0.000000 -0.240000
v -2.080000 9.950000 -0.240000
v -2.160000 -0.000000 -0.240000
v -2.160000 9.950000 -0.240000
v -2.200000 -0.000000 -0.200000
v -2.200000 9.950000 -0.200000
v -2.270000 -0.000000 -0.200000
v -2.270000 9.950000 -0.200000
v -2.325000 -0.000000 -0.140000
v -2.325000 9.950000 -0.140000
v -2.325000 0.000000 0.030000
v -2.325000 9.950000 0.030000
v -1.875000 0.000000 0.030000
v -1.875000 9.950000 0.030000
v -2.355000 9.950000 0.005000
v -2.355000 9.974999 0.030000
v -2.380000 9.974999 0.005000
v -2.355000 9.957321 0.022677
v -2.369433 9.960565 0.019433
v -2.372677 9.974998 0.022677
v -2.372677 9.957321 0.005000
v -2.355000 10.485000 0.030000
v -2.355000 10.509999 0.005000
v -2.380000 10.485000 0.005000
v -2.355000 10.502678 0.022677
v -2.369433 10.499434 0.019433
v -2.372677 10.502678 0.005000
v -2.372677 10.485001 0.022677
v -2.355000 9.950000 -0.265000
v -2.380000 9.974999 -0.265000
v -2.355000 9.974999 -0.290000
v -2.372677 9.957321 -0.265000
v -2.369433 9.960565 -0.279434
v -2.372677 9.974998 -0.282678
v -2.355000 9.957321 -0.282678
v -2.355000 10.509999 -0.265000
v -2.355000 10.485000 -0.290000
v -2.380000 10.485000 -0.265000
v -2.355000 10.502678 -0.282678
v -2.369433 10.499434 -0.279434
v -2.372677 10.485001 -0.282678
v -2.372677 10.502678 -0.265000
v -1.845000 9.950000 0.005000
v -1.820000 9.974999 0.005000
v -1.845000 9.974999 0.030000
v -1.827322 9.957321 0.005000
v -1.830566 9.960565 0.019433
v -1.827322 9.974998 0.022677
v -1.845000 9.957321 0.022677
v -1.845000 10.509999 0.005000
v -1.845000 10.485000 0.030000
v -1.820000 10.485000 0.005000
v -1.845000 10.502678 0.022677
v -1.830566 10.499434 0.019433
v -1.827322 10.485001 0.022677
v -1.827322 10.502678 0.005000
v -1.845000 9.950000 -0.265000
v -1.845000 9.974999 -0.290000
v -1.820000 9.974999 -0.265000
v -1.845000 9.957321 -0.282678
v -1.830566 9.960565 -0.279434
v -1.827322 9.974998 -0.282678
v -1.827322 9.957321 -0.265000
v -1.845000 10.509999 -0.265000
v -1.820000 10.485000 -0.265000
v -1.845000 10.485000 -0.290000
v -1.827322 10.502678 -0.265000
v -1.830566 10.499434 -0.279434
v -1.827322 10.485001 -0.282678
v -1.845000 10.502678 -0.282678
v -2.100000 10.230000 -0.290000
v -1.900000 10.230000 -0.290000
v -1.906815 10.178236 -0.290000
v -1.926795 10.129999 -0.290000
v -1.958579 10.088578 -0.290000
v -2.000000 10.056794 -0.290000
v -2.048236 10.036815 -0.290000
v -2.100000 10.030000 -0.290000
v -2.151764 10.036815 -0.290000
v -2.200000 10.056794 -0.290000
v -2.241421 10.088578 -0.290000
v -2.273205 10.129999 -0.290000
v -2.293185 10.178236 -0.290000
v -2.300000 10.230000 -0.290000
v -2.293185 10.281763 -0.290000
v -2.273205 10.330000 -0.290000
v -2.241421 10.371421 -0.290000
v -2.200000 10.403205 -0.290000
v -2.151764 10.423184 -0.290000
v -2.100000 10.429999 -0.290000
v -2.048236 10.423184 -0.290000
v -2.000000 10.403205 -0.290000
v -1.958579 10.371421 -0.290000
v -1.926795 10.330000 -0.290000
v -1.906815 10.281763 -0.290000
v -1.890000 10.230000 -0.320000
v -1.897156 10.175648 -0.320000
v -1.918135 10.125000 -0.320000
v -1.951507 10.081507 -0.320000
v -1.995000 10.048134 -0.320000
v -2.045648 10.027155 -0.320000
v -2.100000 10.020000 -0.320000
v -2.154352 10.027155 -0.320000
v -2.205000 10.048134 -0.320000
v -2.248492 10.081507 -0.320000
v -2.281865 10.125000 -0.320000
v -2.302844 10.175648 -0.320000
v -2.310000 10.230000 -0.320000
v -2.302844 10.284351 -0.320000
v -2.281865 10.334999 -0.320000
v -2.248492 10.378492 -0.320000
v -2.205000 10.411865 -0.320000
v -2.154352 10.432844 -0.320000
v -2.100000 10.440000 -0.320000
v -2.045648 10.432844 -0.320000
v -1.995000 10.411865 -0.320000
v -1.951507 10.378492 -0.320000
v -1.918135 10.334999 -0.320000
v -1.897156 10.284351 -0.320000
v -1.950000 10.230000 -0.360000
v -1.955111 10.191176 -0.360000
v -1.970096 10.155000 -0.360000
v -1.993934 10.123934 -0.360000
v -2.025000 10.100096 -0.360000
v -2.061177 10.085111 -0.360000
v -2.100000 10.080000 -0.360000
v -2.138823 10.085111 -0.360000
v -2.175000 10.100096 -0.360000
v -2.206066 10.123934 -0.360000
v -2.229904 10.155000 -0.360000
v -2.244889 10.191176 -0.360000
v -2.250000 10.230000 -0.360000
v -2.244889 10.268823 -0.360000
v -2.229904 10.304999 -0.360000
v -2.206066 10.336065 -0.360000
v -2.175000 10.359903 -0.360000
v -2.138823 10.374888 -0.360000
v -2.100000 10.379999 -0.360000
v -2.061177 10.374888 -0.360000
v -2.025000 10.359903 -0.360000
v -1.993934 10.336065 -0.360000
v -1.970096 10.304999 -0.360000
v -1.955111 10.268823 -0.360000
v -2.030000 10.230000 -0.380000
v -2.032385 10.211883 -0.380000
v -2.039378 10.195000 -0.380000
v -2.050503 10.180502 -0.380000
v -2.065000 10.169377 -0.380000
v -2.081882 10.162385 -0.380000
v -2.100000 10.160000 -0.380000
v -2.118117 10.162385 -0.380000
v -2.135000 10.169377 -0.380000
v -2.149497 10.180502 -0.380000
v -2.160622 10.195000 -0.380000
v -2.167615 10.211883 -0.380000
v -2.170000 10.230000 -0.380000
v -2.167615 10.248116 -0.380000
v -2.160622 10.264999 -0.380000
v -2.149497 10.279497 -0.380000
v -2.135000 10.290622 -0.380000
v -2.118117 10.297614 -0.380000
v -2.100000 10.299999 -0.380000
v -2.081882 10.297614 -0.380000
v -2.065000 10.290622 -0.380000
v -2.050503 10.279497 -0.380000
v -2.039378 10.264999 -0.380000
v -2.032385 10.248116 -0.380000
v -2.100000 10.230000 -0.390000
v 1.875000 0.000000 0.030000
v 1.875000 9.950000 0.030000
v 2.325000 0.000000 0.030000
v 2.325000 9.950000 0.030000
v 2.325000 -0.000000 -0.140000
v 2.325000 9.950000 -0.140000
v 2.270000 -0.000000 -0.200000
v 2.270000 9.950000 -0.200000
v 2.200000 -0.000000 -0.200000
v 2.200000 9.950000 -0.200000
v 2.160000 -0.000000 -0.240000
v 2.160000 9.950000 -0.240000
v 2.080000 -0.000000 -0.240000
v 2.080000 9.950000 -0.240000
v 2.040000 -0.000000 -0.200000
v 2.040000 9.950000 -0.200000
v 1.940000 -0.000000 -0.200000
v 1.940000 9.950000 -0.200000
v 1.875000 -0.000000 -0.270000
v 1.875000 9.950000 -0.270000
v 1.845000 9.950000 0.005000
v 1.845000 9.974999 0.030000
v 1.820000 9.974999 0.005000
v 1.845000 9.957321 0.022677
v 1.830566 9.960565 0.019433
v 1.827322 9.974998 0.022677
v 1.827322 9.957321 0.005000
v 1.845000 10.485000 0.030000
v 1.845000 10.509999 0.005000
v 1.820000 10.485000 0.005000
v 1.845000 10.502678 0.022677
v 1.830566 10.499434 0.019433
v 1.827322 10.502678 0.005000
v 1.827322 10.485001 0.022677
v 1.845000 9.950000 -0.265000
v 1.820000 9.974999 -0.265000
v 1.845000 9.974999 -0.290000
v 1.827322 9.957321 -0.265000
v 1.830566 9.960565 -0.279434
v 1.827322 9.974998 -0.282678
v 1.845000 9.957321 -0.282678
v 1.845000 10.509999 -0.265000
v 1.845000 10.485000 -0.290000
v 1.820000 10.485000 -0.265000
v 1.845000 10.502678 -0.282678
v 1.830566 10.499434 -0.279434
v 1.827322 10.485001 -0.282678
v 1.827322 10.502678 -0.265000
v 2.355000 9.950000 0.005000
v 2.380000 9.974999 0.005000
v 2.355000 9.974999 0.030000
v 2.372677 9.957321 0.005000
v 2.369433 9.960565 0.019433
v 2.372677 9.974998 0.022677
v 2.355000 9.957321 0.022677
v 2.355000 10.509999 0.005000
v 2.355000 10.485000 0.030000
v 2.380000 10.485000 0.005000
v 2.355000 10.502678 0.022677
v 2.369433 10.499434 0.019433
v 2.372677 10.485001 0.022677
v 2.372677 10.502678 0.005000
v 2.355000 9.950000 -0.265000
v 2.355000 9.974999 -0.290000
v 2.380000 9.974999 -0.265000
v 2.355000 9.957321 -0.282678
v 2.369433 9.960565 -0.279434
v 2.372677 9.974998 -0.282678
v 2.372677 9.957321 -0.265000
v 2.355000 10.509999 -0.265000
v 2.380000 10.485000 -0.265000
v 2.355000 10.485000 -0.290000
v 2.372677 10.502678 -0.265000
v 2.369433 10.499434 -0.279434
v 2.372677 10.485001 -0.282678
v 2.355000 10.502678 -0.282678
v 2.100000 10.230000 -0.290000
v 2.300000 10.230000 -0.290000
v 2.293185 10.178236 -0.290000
v 2.273205 10.129999 -0.290000
v 2.241421 10.088578 -0.290000
v 2.200000 10.056794 -0.290000
v 2.151764 10.036815 -0.290000
v 2.100000 10.030000 -0.290000
v 2.048236 10.036815 -0.290000
v 2.000000 10.056794 -0.290000
v 1.958579 10.088578 -0.290000
v 1.926795 10.129999 -0.290000
v 1.906815 10.178236 -0.290000
v 1.900000 10.230000 -0.290000
v 1.906815 10.281763 -0.290000
v 1.926795 10.330000 -0.290000
v 1.958579 10.371421 -0.290000
v 2.000000 10.403205 -0.290000
v 2.048236 10.423184 -0.290000
v 2.100000 10.429999 -0.290000
v 2.151764 10.423184 -0.290000
v 2.200000 10.403205 -0.290000
v 2.241421 10.371421 -0.290000
v 2.273205 10.330000 -0.290000
v 2.293185 10.281763 -0.290000
v 2.310000 10.230000 -0.320000
v 2.302844 10.175648 -0.320000
v 2.281865 10.125000 -0.320000
v 2.248492 10.081507 -0.320000
v 2.205000 10.048134 -0.320000
v 2.154352 10.027155 -0.320000
v 2.100000 10.020000 -0.320000
v 2.045648 10.027155 -0.320000
v 1.995000 10.048134 -0.320000
v 1.951507 10.081507 -0.320000
v 1.918135 10.125000 -0.320000
v 1.897156 10.175648 -0.320000
v 1.890000 10.230000 -0.320000
v 1.897156 10.284351 -0.320000
v 1.918135 10.334999 -0.320000
v 1.951507 10.378492 -0.320000
v 1.995000 10.411865 -0.320000
v 2.045648 10.432844 -0.320000
v 2.100000 10.440000 -0.320000
v 2.154352 10.432844 -0.320000
v 2.205000 10.411865 -0.320000
v 2.248492 10.378492 -0.320000
v 2.281865 10.334999 -0.320000
v 2.302844 10.284351 -0.320000
v 2.250000 10.230000 -0.360000
v 2.244889 10.191176 -0.360000
v 2.229904 10.155000 -0.360000
v 2.206066 10.123934 -0.360000
v 2.175000 10.100096 -0.360000
v 2.138823 10.085111 -0.360000
v 2.100000 10.080000 -0.360000
v 2.061177 10.085111 -0.360000
v 2.025000 10.100096 -0.360000
v 1.993934 10.123934 -0.360000
v 1.970096 10.155000 -0.360000
v 1.955111 10.191176 -0.360000
v 1.950000 10.230000 -0.360000
v 1.955111 10.268823 -0.360000
v 1.970096 10.304999 -0.360000
v 1.993934 10.336065 -0.360000
v 2.025000 10.359903 -0.360000
v 2.061177 10.374888 -0.360000
v 2.100000 10.379999 -0.360000
v 2.138823 10.374888 -0.360000
v 2.175000 10.359903 -0.360000
v 2.206066 10.336065 -0.360000
v 2.229904 10.304999 -0.360000
v 2.244889 10.268823 -0.360000
v 2.170000 10.230000 -0.380000
v 2.167615 10.211883 -0.380000
v 2.160622 10.195000 -0.380000
v 2.149497 10.180502 -0.380000
v 2.135000 10.169377 -0.380000
v 2.118117 10.162385 -0.380000
v 2.100000 10.160000 -0.380000
v 2.081882 10.162385 -0.380000
v 2.065000 10.169377 -0.380000
v 2.050503 10.180502 -0.380000
v 2.039378 10.195000 -0.380000
v 2.032385 10.211883 -0.380000
v 2.030000 10.230000 -0.380000
v 2.032385 10.248116 -0.380000
v 2.039378 10.264999 -0.380000
v 2.050503 10.279497 -0.380000
v 2.065000 10.290622 -0.380000
v 2.081882 10.297614 -0.380000
v 2.100000 10.299999 -0.380000
v 2.118117 10.297614 -0.380000
v 2.135000 10.290622 -0.380000
v 2.149497 10.279497 -0.380000
v 2.160622 10.264999 -0.380000
v 2.167615 10.248116 -0.380000
v 2.100000 10.230000 -0.390000
v -1.820000 10.455000 0.030000
v 1.820000 10.455000 0.030000
v -1.820000 10.004999 0.030000
v 1.820000 10.004999 0.030000
v -1.820000 10.004999 -0.140000
v 1.820000 10.004999 -0.140000
v -1.820000 10.059999 -0.200000
v 1.820000 10.059999 -0.200000
v -1.820000 10.129999 -0.200000
v 1.820000 10.129999 -0.200000
v -1.820000 10.169999 -0.240000
v 1.820000 10.169999 -0.240000
v -1.820000 10.250000 -0.240000
v 1.820000 10.250000 -0.240000
v -1.820000 10.290000 -0.200000
v 1.820000 10.290000 -0.200000
v -1.820000 10.389999 -0.200000
v 1.820000 10.389999 -0.200000
v -1.820000 10.455000 -0.270000
v 1.820000 10.455000 -0.270000
vn -0.7328 -0.0000 -0.6805
vn -0.0000 -0.0000 -1.0000
vn 0.7071 -0.0000 -0.7071
vn -0.7071 -0.0000 -0.7071
vn -0.7372 -0.0000 -0.6757
vn -1.0000 -0.0000 -0.0000
vn -0.0000 -0.0000 1.0000
vn 1.0000 -0.0000 -0.0000
vn -0.0000 -1.0000 -0.0000
vn -0.0000 1.0000 -0.0000
vn -0.1794 -0.9673 0.1794
vn -0.3250 -0.8881 0.3250
vn -0.3790 -0.9152 0.1368
vn -0.1794 -0.1794 0.9673
vn -0.3251 -0.3251 0.8881
vn -0.1368 -0.3791 0.9152
vn -0.9673 -0.1794 0.1794
vn -0.8881 -0.3251 0.3251
vn -0.9152 -0.1369 0.3791
vn -0.1794 0.1794 0.9673
vn -0.3250 0.3250 0.8881
vn -0.3791 0.1369 0.9152
vn -0.1794 0.9673 0.1794
vn -0.3250 0.8881 0.3249
vn -0.1368 0.9152 0.3790
vn -0.9673 0.1794 0.1794
vn -0.8881 0.3251 0.3250
vn -0.9152 0.3791 0.1369
vn -0.1794 -0.9673 -0.1794
vn -0.3250 -0.8881 -0.3250
vn -0.1368 -0.9152 -0.3791
vn -0.9673 -0.1794 -0.1794
vn -0.8881 -0.3251 -0.3250
vn -0.9152 -0.3791 -0.1369
vn -0.1794 -0.1794 -0.9673
vn -0.3251 -0.3251 -0.8881
vn -0.3791 -0.1369 -0.9152
vn -0.1794 0.9673 -0.1794
vn -0.3250 0.8881 -0.3249
vn -0.3790 0.9152 -0.1368
vn -0.1794 0.1794 -0.9673
vn -0.3250 0.3251 -0.8881
vn -0.1368 0.3791 -0.9152
vn -0.9673 0.1794 -0.1794
vn -0.8881 0.3251 -0.3250
vn -0.9152 0.1369 -0.3791
vn 0.1794 -0.9673 0.1793
vn 0.3250 -0.8881 0.3249
vn 0.1368 -0.9152 0.3790
vn 0.9673 -0.1794 0.1794
vn 0.8881 -0.3251 0.3250
vn 0.9152 -0.3791 0.1369
vn 0.1794 -0.1794 0.9673
vn 0.3250 -0.3250 0.8881
vn 0.3791 -0.1369 0.9152
vn 0.1794 0.9673 0.1793
vn 0.3250 0.8881 0.3249
vn 0.3790 0.9152 0.1368
vn 0.1794 0.1794 0.9673
vn 0.3250 0.3250 0.8881
vn 0.1368 0.3791 0.9152
vn 0.9673 0.1794 0.1794
vn 0.8881 0.3250 0.3250
vn 0.9152 0.1369 0.3790
vn 0.1794 -0.9673 -0.1793
vn 0.3250 -0.8881 -0.3249
vn 0.3790 -0.9152 -0.1368
vn 0.1794 -0.1794 -0.9673
vn 0.3250 -0.3250 -0.8881
vn 0.1368 -0.3790 -0.9152
vn 0.9673 -0.1794 -0.1794
vn 0.8881 -0.3250 -0.3250
vn 0.9152 -0.1369 -0.3791
vn 0.1794 0.9673 -0.1793
vn 0.3250 0.8881 -0.3249
vn 0.1368 0.9152 -0.3790
vn 0.9673 0.1794 -0.1794
vn 0.8881 0.3250 -0.3250
vn 0.9152 0.3791 -0.1369
vn 0.1794 0.1794 -0.9673
vn 0.3250 0.3250 -0.8881
vn 0.3791 0.1369 -0.9152
vn -0.3790 -0.9152 -0.1368
vn -0.9152 -0.3791 0.1369
vn -0.3791 -0.1369 0.9152
vn -0.9152 0.1368 0.3791
vn -0.3790 0.9152 0.1368
vn -0.9152 0.3791 -0.1369
vn -0.3791 0.1369 -0.9152
vn -0.9152 -0.1368 -0.3791
vn 0.1368 -0.9152 -0.3790
vn -0.1368 -0.3791 -0.9152
vn -0.1368 0.9152 -0.3790
vn 0.9152 0.1369 -0.3790
vn 0.3791 -0.1369 -0.9152
vn 0.3790 -0.9152 0.1368
vn 0.9152 -0.3791 -0.1369
vn 0.3790 0.9152 -0.1368
vn 0.9152 0.3791 0.1369
vn 0.3791 0.1369 0.9152
vn 0.9152 -0.1369 0.3791
vn -0.1368 -0.9152 0.3791
vn 0.1368 0.9152 0.3790
vn -0.1368 0.3791 0.9152
vn 0.9164 -0.2455 0.3162
vn 0.9487 -0.0000 0.3162
vn 0.8216 -0.4743 0.3162
vn 0.6708 -0.6708 0.3162
vn 0.4743 -0.8216 0.3162
vn 0.2455 -0.9164 0.3163
vn -0.0000 -0.9487 0.3163
vn 0.2455 -0.9163 0.3163
vn -0.2455 -0.9164 0.3162
vn -0.4743 -0.8216 0.3163
vn -0.2455 -0.9164 0.3163
vn -0.6708 -0.6708 0.3162
vn -0.8216 -0.4743 0.3162
vn -0.9164 -0.2455 0.3162
vn -0.9487 -0.0000 0.3162
vn -0.9164 0.2455 0.3162
vn -0.8216 0.4743 0.3162
vn -0.6708 0.6708 0.3162
vn -0.4743 0.8216 0.3163
vn -0.2455 0.9164 0.3163
vn -0.2455 0.9164 0.3162
vn -0.0000 0.9487 0.3162
vn 0.2455 0.9164 0.3162
vn 0.4743 0.8216 0.3162
vn 0.2455 0.9163 0.3163
vn 0.6708 0.6708 0.3162
vn 0.8216 0.4743 0.3162
vn 0.9164 0.2455 0.3162
vn 0.5358 -0.1436 -0.8320
vn 0.4163 -0.0000 -0.9092
vn 0.5547 -0.0000 -0.8320
vn 0.4804 -0.2774 -0.8320
vn 0.4021 -0.1078 -0.9092
vn 0.3922 -0.3922 -0.8321
vn 0.3605 -0.2082 -0.9092
vn 0.2082 -0.3605 -0.9092
vn 0.2944 -0.2944 -0.9092
vn 0.2773 -0.4804 -0.8321
vn 0.1077 -0.4021 -0.9092
vn 0.1436 -0.5358 -0.8321
vn -0.0000 -0.4163 -0.9092
vn -0.0000 -0.5547 -0.8321
vn -0.1077 -0.4021 -0.9092
vn -0.2773 -0.4804 -0.8321
vn -0.1436 -0.5358 -0.8320
vn -0.3922 -0.3922 -0.8321
vn -0.2082 -0.3605 -0.9092
vn -0.4804 -0.2773 -0.8321
vn -0.2944 -0.2944 -0.9092
vn -0.4021 -0.1077 -0.9092
vn -0.3605 -0.2082 -0.9092
vn -0.5358 -0.1436 -0.8321
vn -0.4163 -0.0000 -0.9092
vn -0.5358 0.1436 -0.8320
vn -0.5547 -0.0000 -0.8321
vn -0.4804 0.2773 -0.8321
vn -0.4021 0.1077 -0.9092
vn -0.2944 0.2944 -0.9092
vn -0.3605 0.2082 -0.9092
vn -0.3922 0.3922 -0.8321
vn -0.2082 0.3605 -0.9092
vn -0.1436 0.5358 -0.8321
vn -0.2773 0.4804 -0.8321
vn -0.0000 0.5547 -0.8321
vn -0.1077 0.4021 -0.9092
vn 0.1436 0.5358 -0.8321
vn -0.0000 0.4163 -0.9092
vn 0.2773 0.4804 -0.8321
vn 0.1077 0.4021 -0.9092
vn 0.3922 0.3922 -0.8321
vn 0.2082 0.3605 -0.9092
vn 0.4804 0.2773 -0.8321
vn 0.2944 0.2944 -0.9092
vn 0.4021 0.1077 -0.9092
vn 0.3605 0.2082 -0.9092
vn 0.5358 0.1436 -0.8320
vn 0.1964 -0.0000 -0.9805
vn 0.1701 -0.0982 -0.9805
vn 0.1897 -0.0508 -0.9805
vn 0.1389 -0.1389 -0.9805
vn 0.0982 -0.1701 -0.9805
vn 0.0508 -0.1897 -0.9805
vn -0.0508 -0.1897 -0.9805
vn -0.0000 -0.1964 -0.9805
vn -0.0982 -0.1701 -0.9805
vn -0.1701 -0.0982 -0.9805
vn -0.1388 -0.1388 -0.9805
vn -0.1897 -0.0508 -0.9805
vn -0.1897 0.0508 -0.9805
vn -0.1964 -0.0000 -0.9805
vn -0.1701 0.0982 -0.9805
vn -0.0982 0.1701 -0.9805
vn -0.1389 0.1389 -0.9805
vn -0.0508 0.1897 -0.9805
vn 0.0508 0.1897 -0.9805
vn -0.0000 0.1964 -0.9805
vn 0.0982 0.1701 -0.9805
vn 0.1389 0.1389 -0.9805
vn 0.1701 0.0982 -0.9805
vn 0.1897 0.0508 -0.9805
vn 0.7372 -0.0000 -0.6757
vn 0.7328 -0.0000 -0.6805
vn -0.1794 -0.9673 0.1793
vn -0.3250 -0.8881 0.3249
vn -0.3250 -0.3250 0.8881
vn -0.1368 -0.3790 0.9152
vn -0.8881 -0.3250 0.3251
vn -0.1794 0.9673 0.1793
vn -0.8881 0.3250 0.3250
vn -0.1794 -0.9673 -0.1793
vn -0.3250 -0.8881 -0.3249
vn -0.1368 -0.9152 -0.3790
vn -0.8881 -0.3250 -0.3250
vn -0.3250 -0.3250 -0.8881
vn -0.1794 0.9673 -0.1793
vn -0.3250 0.3250 -0.8881
vn -0.8881 0.3250 -0.3250
vn -0.9152 0.1369 -0.3790
vn 0.1794 -0.9673 0.1794
vn 0.3250 -0.8881 0.3250
vn 0.1368 -0.9152 0.3791
vn 0.8881 -0.3250 0.3251
vn 0.3251 -0.3251 0.8881
vn 0.1794 0.9673 0.1794
vn 0.3250 0.3251 0.8881
vn 0.8881 0.3250 0.3251
vn 0.9152 0.1369 0.3791
vn 0.1794 -0.9673 -0.1794
vn 0.3250 -0.8881 -0.3250
vn 0.3251 -0.3251 -0.8881
vn 0.1368 -0.3791 -0.9152
vn 0.8881 -0.3251 -0.3250
vn 0.9152 -0.1368 -0.3791
vn 0.1794 0.9673 -0.1794
vn 0.8881 0.3251 -0.3250
vn 0.3250 0.3251 -0.8881
vn -0.9152 0.1369 0.3790
vn -0.9152 -0.1369 -0.3791
vn 0.1368 -0.9152 -0.3791
vn 0.1368 0.3791 -0.9152
vn 0.9152 0.1369 -0.3791
vn 0.9152 -0.1368 0.3791
vn -0.1368 -0.9152 0.3789
vn 0.1368 -0.3791 0.9152
vn -0.2455 -0.9163 0.3163
vn -0.4743 -0.8216 0.3162
vn -0.4743 0.8216 0.3162
vn -0.2455 0.9163 0.3163
vn 0.4743 0.8216 0.3163
vn 0.2455 0.9164 0.3163
vn 0.5358 -0.1436 -0.8321
vn 0.5547 -0.0000 -0.8321
vn 0.4804 -0.2773 -0.8321
vn 0.4021 -0.1077 -0.9092
vn 0.1436 -0.5358 -0.8320
vn -0.1436 -0.5358 -0.8321
vn -0.4804 -0.2774 -0.8320
vn -0.5547 -0.0000 -0.8320
vn -0.5358 -0.1436 -0.8320
vn -0.3605 0.2081 -0.9092
vn 0.1388 -0.1388 -0.9805
vn -0.1389 -0.1388 -0.9805
vn 0.1389 0.1388 -0.9805
vn -0.0000 -0.7371 -0.6757
vn -0.0000 -0.7071 -0.7071
vn -0.0000 0.7071 -0.7071
vn -0.0000 -0.7328 -0.6805
vn 0.1368 -0.3790 0.9152
vn -0.1368 -0.3790 -0.9152
vt 0.134640 0.998841
vt 0.141157 0.001159
vt 0.141157 0.998841
vt 0.124613 0.998841
vt 0.134640 0.001159
vt 0.120602 0.001159
vt 0.124613 0.001159
vt 0.112580 0.998841
vt 0.120602 0.998841
vt 0.108570 0.998841
vt 0.112580 0.001159
vt 0.101551 0.998841
vt 0.108570 0.001159
vt 0.096036 0.998841
vt 0.101551 0.001159
vt 0.223180 0.998841
vt 0.240151 0.001159
vt 0.240151 0.998841
vt 0.048597 0.998841
vt 0.093719 0.001159
vt 0.093719 0.998841
vt 0.272331 0.964834
vt 0.242468 0.002095
vt 0.272331 0.001159
vt 0.478530 0.425457
vt 0.455569 0.442002
vt 0.455569 0.431975
vt 0.479915 0.313458
vt 0.479915 0.297962
vt 0.485887 0.285668
vt 0.442067 0.173931
vt 0.440527 0.172484
vt 0.441999 0.172158
vt 0.460798 0.421367
vt 0.462245 0.422815
vt 0.460798 0.423140
vt 0.442067 0.054069
vt 0.440527 0.055516
vt 0.440234 0.054069
vt 0.460798 0.370230
vt 0.462245 0.368783
vt 0.462570 0.370230
vt 0.468782 0.230682
vt 0.470346 0.229511
vt 0.470630 0.230815
vt 0.442067 0.002931
vt 0.440527 0.001484
vt 0.441999 0.001159
vt 0.469022 0.173931
vt 0.470364 0.172484
vt 0.470718 0.173931
vt 0.469022 0.054069
vt 0.470364 0.055516
vt 0.468953 0.055841
vt 0.295660 0.478368
vt 0.294213 0.479815
vt 0.293888 0.478368
vt 0.441905 0.231524
vt 0.440596 0.230444
vt 0.441994 0.230001
vt 0.295660 0.427230
vt 0.294213 0.425783
vt 0.295660 0.425457
vt 0.469022 0.002931
vt 0.470364 0.001484
vt 0.470718 0.002931
vt 0.442067 0.225068
vt 0.440527 0.226516
vt 0.440234 0.225068
vt 0.379435 0.476375
vt 0.381000 0.478001
vt 0.379524 0.478276
vt 0.409660 0.421367
vt 0.408213 0.422815
vt 0.407888 0.421368
vt 0.468782 0.280076
vt 0.470346 0.281701
vt 0.468870 0.281977
vt 0.409660 0.370230
vt 0.408213 0.368783
vt 0.409660 0.368457
vt 0.379435 0.426981
vt 0.381000 0.425810
vt 0.381283 0.427114
vt 0.469022 0.225068
vt 0.470364 0.226516
vt 0.468953 0.226841
vt 0.346798 0.478368
vt 0.348245 0.479815
vt 0.346798 0.480140
vt 0.352559 0.477218
vt 0.351250 0.478933
vt 0.350888 0.477462
vt 0.441905 0.280919
vt 0.440596 0.282634
vt 0.440234 0.281163
vt 0.352559 0.427824
vt 0.351250 0.426743
vt 0.352647 0.426300
vt 0.346798 0.427230
vt 0.348245 0.425783
vt 0.348570 0.427230
vt 0.468953 0.172158
vt 0.441999 0.055841
vt 0.462570 0.421368
vt 0.440234 0.002931
vt 0.468870 0.229158
vt 0.468953 0.001159
vt 0.293888 0.427230
vt 0.470718 0.054069
vt 0.470718 0.225068
vt 0.295660 0.480140
vt 0.440234 0.231768
vt 0.350888 0.428067
vt 0.348570 0.478368
vt 0.441999 0.226841
vt 0.352647 0.479119
vt 0.441994 0.282820
vt 0.379524 0.425457
vt 0.407888 0.370230
vt 0.381283 0.476509
vt 0.440234 0.173931
vt 0.470630 0.280210
vt 0.460798 0.368457
vt 0.492918 0.035959
vt 0.490300 0.016077
vt 0.495535 0.016077
vt 0.485243 0.017432
vt 0.480710 0.020049
vt 0.477008 0.023751
vt 0.474390 0.028285
vt 0.473035 0.033341
vt 0.473035 0.038576
vt 0.474390 0.043633
vt 0.477008 0.048167
vt 0.480709 0.051869
vt 0.485243 0.054486
vt 0.490300 0.055841
vt 0.495535 0.055841
vt 0.500592 0.054487
vt 0.505126 0.051869
vt 0.508827 0.048167
vt 0.511445 0.043633
vt 0.512800 0.038577
vt 0.512800 0.033342
vt 0.511445 0.028285
vt 0.508828 0.023751
vt 0.505126 0.020049
vt 0.500592 0.017432
vt 0.476139 0.154355
vt 0.473119 0.148905
vt 0.476219 0.149166
vt 0.473119 0.159805
vt 0.473035 0.154354
vt 0.476219 0.159547
vt 0.473363 0.164887
vt 0.476822 0.168546
vt 0.476451 0.164387
vt 0.485468 0.352021
vt 0.488291 0.357394
vt 0.485221 0.356855
vt 0.485595 0.346831
vt 0.488550 0.352318
vt 0.485595 0.341641
vt 0.488684 0.346869
vt 0.485468 0.336802
vt 0.488684 0.341419
vt 0.488291 0.331974
vt 0.488550 0.336339
vt 0.479267 0.361044
vt 0.482641 0.357392
vt 0.482328 0.361753
vt 0.479752 0.352054
vt 0.479565 0.356890
vt 0.479816 0.346864
vt 0.482837 0.352313
vt 0.482837 0.341414
vt 0.482904 0.346864
vt 0.479752 0.341673
vt 0.482641 0.336335
vt 0.479267 0.332683
vt 0.479565 0.336837
vt 0.476950 0.332796
vt 0.473436 0.335320
vt 0.473891 0.331974
vt 0.476516 0.335982
vt 0.473114 0.339680
vt 0.476209 0.340135
vt 0.472947 0.344758
vt 0.476051 0.350161
vt 0.476051 0.344971
vt 0.473114 0.355656
vt 0.472947 0.350207
vt 0.476516 0.360187
vt 0.476209 0.355350
vt 0.473891 0.365095
vt 0.473436 0.360734
vt 0.476451 0.144333
vt 0.473752 0.139476
vt 0.476822 0.140186
vt 0.473363 0.143831
vt 0.456644 0.501831
vt 0.452102 0.495736
vt 0.458067 0.496521
vt 0.453896 0.506591
vt 0.451086 0.499528
vt 0.450009 0.510478
vt 0.449123 0.502929
vt 0.442946 0.507668
vt 0.446346 0.505705
vt 0.445248 0.513226
vt 0.439153 0.508684
vt 0.439939 0.514649
vt 0.435227 0.508684
vt 0.434442 0.514649
vt 0.431434 0.507668
vt 0.424372 0.510478
vt 0.429132 0.513226
vt 0.420485 0.506591
vt 0.428034 0.505705
vt 0.417736 0.501831
vt 0.425258 0.502929
vt 0.422278 0.495736
vt 0.423295 0.499528
vt 0.416314 0.496521
vt 0.422278 0.491810
vt 0.417736 0.485715
vt 0.416314 0.491024
vt 0.420485 0.480954
vt 0.423295 0.488017
vt 0.428034 0.481840
vt 0.425258 0.484617
vt 0.424372 0.477067
vt 0.431434 0.479877
vt 0.434442 0.472896
vt 0.429132 0.474319
vt 0.439939 0.472896
vt 0.435227 0.478861
vt 0.445248 0.474319
vt 0.439153 0.478861
vt 0.450009 0.477067
vt 0.442946 0.479877
vt 0.453896 0.480954
vt 0.446346 0.481840
vt 0.456644 0.485715
vt 0.449123 0.484617
vt 0.452102 0.491809
vt 0.451086 0.488017
vt 0.458067 0.491024
vt 0.444149 0.494689
vt 0.442759 0.498045
vt 0.443675 0.496459
vt 0.441463 0.499341
vt 0.439876 0.500257
vt 0.438106 0.500731
vt 0.434504 0.500257
vt 0.436274 0.500731
vt 0.432917 0.499341
vt 0.430706 0.496459
vt 0.431622 0.498045
vt 0.430231 0.494689
vt 0.430706 0.491087
vt 0.430231 0.492857
vt 0.431622 0.489500
vt 0.434504 0.487288
vt 0.432917 0.488204
vt 0.436274 0.486814
vt 0.439876 0.487288
vt 0.438106 0.486814
vt 0.441463 0.488204
vt 0.442759 0.489500
vt 0.443675 0.491087
vt 0.444149 0.492857
vt 0.437190 0.493773
vt 0.001159 0.998841
vt 0.046280 0.001159
vt 0.046280 0.998841
vt 0.274648 0.965365
vt 0.291571 0.001159
vt 0.291571 0.964834
vt 0.183081 0.998841
vt 0.188596 0.001159
vt 0.188596 0.998841
vt 0.176062 0.998841
vt 0.183081 0.001159
vt 0.172051 0.001159
vt 0.176062 0.001159
vt 0.164030 0.998841
vt 0.172051 0.998841
vt 0.160019 0.998841
vt 0.164030 0.001159
vt 0.149992 0.998841
vt 0.160019 0.001159
vt 0.143474 0.998841
vt 0.149992 0.001159
vt 0.220863 0.998841
vt 0.190913 0.001159
vt 0.220863 0.001159
vt 0.471876 0.397034
vt 0.471876 0.380991
vt 0.477865 0.368457
vt 0.502824 0.229158
vt 0.479417 0.245131
vt 0.479721 0.235451
vt 0.468885 0.168069
vt 0.470425 0.169516
vt 0.468953 0.169841
vt 0.346798 0.421368
vt 0.348245 0.422815
vt 0.346798 0.423140
vt 0.442067 0.111069
vt 0.440527 0.112516
vt 0.440234 0.111069
vt 0.346798 0.370230
vt 0.348245 0.368783
vt 0.348570 0.370230
vt 0.468782 0.286661
vt 0.470346 0.285490
vt 0.470630 0.286794
vt 0.442067 0.059931
vt 0.440527 0.058484
vt 0.441999 0.058159
vt 0.441930 0.168069
vt 0.440588 0.169516
vt 0.440234 0.168069
vt 0.469022 0.111069
vt 0.470364 0.112516
vt 0.468953 0.112841
vt 0.352660 0.421368
vt 0.351213 0.422815
vt 0.350888 0.421368
vt 0.441905 0.287503
vt 0.440596 0.286423
vt 0.441994 0.285980
vt 0.352660 0.370230
vt 0.351213 0.368783
vt 0.352660 0.368457
vt 0.469022 0.059931
vt 0.470364 0.058484
vt 0.470718 0.059931
vt 0.468885 0.116931
vt 0.470425 0.115484
vt 0.470718 0.116931
vt 0.412148 0.476375
vt 0.413713 0.478001
vt 0.412237 0.478276
vt 0.295660 0.421368
vt 0.294213 0.422815
vt 0.293888 0.421368
vt 0.468782 0.336055
vt 0.470346 0.337680
vt 0.468870 0.337956
vt 0.295660 0.370230
vt 0.294213 0.368783
vt 0.295660 0.368457
vt 0.412148 0.426981
vt 0.413713 0.425810
vt 0.413996 0.427114
vt 0.441930 0.116931
vt 0.440588 0.115484
vt 0.441999 0.115159
vt 0.403798 0.421368
vt 0.405245 0.422815
vt 0.403798 0.423140
vt 0.385272 0.477218
vt 0.383963 0.478933
vt 0.383601 0.477462
vt 0.441905 0.336898
vt 0.440596 0.338613
vt 0.440234 0.337142
vt 0.385272 0.427824
vt 0.383963 0.426743
vt 0.385360 0.426300
vt 0.403798 0.370230
vt 0.405245 0.368783
vt 0.405570 0.370230
vt 0.441999 0.169841
vt 0.441999 0.112841
vt 0.348570 0.421368
vt 0.440234 0.059931
vt 0.468870 0.285137
vt 0.468953 0.058159
vt 0.350888 0.370230
vt 0.470718 0.111069
vt 0.440234 0.116931
vt 0.440234 0.287747
vt 0.403798 0.368457
vt 0.383601 0.428067
vt 0.405570 0.421368
vt 0.468953 0.115159
vt 0.385360 0.479119
vt 0.441994 0.338799
vt 0.412237 0.425457
vt 0.293888 0.370230
vt 0.413996 0.476509
vt 0.470718 0.168069
vt 0.295660 0.423140
vt 0.470630 0.336189
vt 0.492918 0.192041
vt 0.490300 0.172158
vt 0.495535 0.172158
vt 0.485243 0.173513
vt 0.480710 0.176131
vt 0.477008 0.179833
vt 0.474390 0.184366
vt 0.473035 0.189423
vt 0.473035 0.194658
vt 0.474390 0.199715
vt 0.477008 0.204249
vt 0.480709 0.207951
vt 0.485243 0.210568
vt 0.490300 0.211923
vt 0.495535 0.211923
vt 0.500592 0.210568
vt 0.505126 0.207951
vt 0.508828 0.204249
vt 0.511445 0.199715
vt 0.512800 0.194658
vt 0.512800 0.189423
vt 0.511445 0.184367
vt 0.508828 0.179833
vt 0.505126 0.176131
vt 0.500592 0.173513
vt 0.482322 0.149166
vt 0.479139 0.154354
vt 0.479222 0.148905
vt 0.482243 0.154355
vt 0.479222 0.159805
vt 0.482322 0.159547
vt 0.479467 0.164887
vt 0.482925 0.168546
vt 0.482555 0.164387
vt 0.481094 0.445504
vt 0.483917 0.450877
vt 0.480847 0.450338
vt 0.484310 0.440353
vt 0.484176 0.445801
vt 0.481221 0.440315
vt 0.484310 0.434902
vt 0.481221 0.435124
vt 0.484176 0.429822
vt 0.481094 0.430285
vt 0.483917 0.425457
vt 0.479653 0.128954
vt 0.482417 0.133817
vt 0.479356 0.133107
vt 0.479840 0.124118
vt 0.482729 0.129455
vt 0.479904 0.118927
vt 0.482926 0.124377
vt 0.479840 0.113737
vt 0.482993 0.118927
vt 0.482729 0.108399
vt 0.482926 0.113477
vt 0.479356 0.104747
vt 0.479653 0.108900
vt 0.476605 0.108046
vt 0.473979 0.104038
vt 0.477038 0.104860
vt 0.476298 0.112199
vt 0.473524 0.107384
vt 0.473035 0.116822
vt 0.473202 0.111744
vt 0.476139 0.122224
vt 0.476139 0.117035
vt 0.476298 0.127414
vt 0.473035 0.122271
vt 0.476605 0.132250
vt 0.473202 0.127720
vt 0.473979 0.137159
vt 0.473524 0.132798
vt 0.482555 0.144333
vt 0.479855 0.139476
vt 0.482925 0.140185
vt 0.479467 0.143831
vt 0.500714 0.501831
vt 0.496172 0.495736
vt 0.502137 0.496521
vt 0.497966 0.506591
vt 0.495156 0.499528
vt 0.490416 0.505705
vt 0.493193 0.502929
vt 0.494079 0.510478
vt 0.487016 0.507668
vt 0.489318 0.513226
vt 0.483224 0.508684
vt 0.478512 0.514649
vt 0.484009 0.514649
vt 0.473202 0.513226
vt 0.479297 0.508684
vt 0.472104 0.505705
vt 0.475505 0.507668
vt 0.464555 0.506591
vt 0.468442 0.510478
vt 0.467365 0.499528
vt 0.469328 0.502929
vt 0.461807 0.501831
vt 0.466349 0.495736
vt 0.460384 0.491024
vt 0.460384 0.496521
vt 0.461807 0.485715
vt 0.466349 0.491809
vt 0.464555 0.480954
vt 0.467365 0.488017
vt 0.472104 0.481840
vt 0.469328 0.484617
vt 0.468442 0.477067
vt 0.475505 0.479877
vt 0.478512 0.472896
vt 0.473202 0.474319
vt 0.483224 0.478861
vt 0.479297 0.478861
vt 0.484009 0.472896
vt 0.487016 0.479877
vt 0.489318 0.474319
vt 0.490416 0.481840
vt 0.497966 0.480954
vt 0.494079 0.477067
vt 0.500714 0.485715
vt 0.493193 0.484617
vt 0.496172 0.491809
vt 0.495156 0.488017
vt 0.502137 0.491024
vt 0.487745 0.496459
vt 0.488219 0.494689
vt 0.486829 0.498045
vt 0.483946 0.500257
vt 0.485533 0.499341
vt 0.482177 0.500731
vt 0.478574 0.500257
vt 0.480344 0.500731
vt 0.476988 0.499341
vt 0.475692 0.498045
vt 0.474776 0.496459
vt 0.474302 0.494689
vt 0.474776 0.491087
vt 0.474302 0.492856
vt 0.475692 0.489500
vt 0.478574 0.487288
vt 0.476988 0.488204
vt 0.480344 0.486814
vt 0.483946 0.487288
vt 0.482177 0.486814
vt 0.485533 0.488204
vt 0.486829 0.489500
vt 0.487745 0.491087
vt 0.488219 0.492856
vt 0.481260 0.493773
vt 0.339009 0.001159
vt 0.293888 0.366140
vt 0.293888 0.001159
vt 0.405737 0.001159
vt 0.388765 0.366140
vt 0.388765 0.001159
vt 0.380933 0.366140
vt 0.386448 0.001159
vt 0.386448 0.366140
vt 0.373914 0.366140
vt 0.380933 0.001159
vt 0.369904 0.366140
vt 0.373914 0.001159
vt 0.361882 0.366140
vt 0.369904 0.001159
vt 0.357871 0.366140
vt 0.361882 0.001159
vt 0.347844 0.366140
vt 0.357871 0.001159
vt 0.341327 0.366140
vt 0.347844 0.001159
vt 0.437917 0.001159
vt 0.408054 0.354637
vt 0.408054 0.002095
vt 0.439275 0.442002
vt 0.439275 0.458045
vt 0.433285 0.470579
vt 0.502913 0.058159
vt 0.479506 0.074131
vt 0.479809 0.064451
vt 0.096036 0.001159
vt 0.223180 0.001159
vt 0.048597 0.001159
vt 0.242468 0.965770
vt 0.478530 0.470579
vt 0.461559 0.470579
vt 0.455569 0.465064
vt 0.455569 0.458045
vt 0.451575 0.454034
vt 0.451575 0.446013
vt 0.448580 0.425457
vt 0.502810 0.328721
vt 0.472947 0.329657
vt 0.479915 0.323143
vt 0.475933 0.309709
vt 0.475933 0.301960
vt 0.502810 0.285137
vt 0.479915 0.291182
vt 0.409660 0.423140
vt 0.346798 0.425457
vt 0.473752 0.169254
vt 0.485221 0.332646
vt 0.482328 0.331974
vt 0.476950 0.364340
vt 0.001159 0.001159
vt 0.274648 0.001689
vt 0.143474 0.001159
vt 0.190913 0.998841
vt 0.494837 0.413579
vt 0.464887 0.413579
vt 0.471876 0.407061
vt 0.467882 0.393023
vt 0.467882 0.385002
vt 0.494837 0.368457
vt 0.471876 0.373972
vt 0.501458 0.272720
vt 0.484528 0.272720
vt 0.478719 0.267396
vt 0.478932 0.260620
vt 0.475070 0.256748
vt 0.475312 0.249003
vt 0.472947 0.229158
vt 0.346798 0.368457
vt 0.352660 0.423140
vt 0.479855 0.169254
vt 0.480847 0.426129
vt 0.482417 0.104038
vt 0.477038 0.136403
vt 0.339009 0.366140
vt 0.405737 0.366140
vt 0.341327 0.001159
vt 0.437917 0.353701
vt 0.416314 0.425457
vt 0.446263 0.425457
vt 0.439275 0.431975
vt 0.443268 0.446013
vt 0.443268 0.454034
vt 0.416314 0.470579
vt 0.439275 0.465064
vt 0.501547 0.101721
vt 0.484616 0.101721
vt 0.478808 0.096396
vt 0.479020 0.089620
vt 0.475158 0.085748
vt 0.475401 0.078003
vt 0.473035 0.058159
s 1
f 3/1/1 2/2/1 1/3/1
f 5/4/2 4/5/2 3/1/2
f 5/4/3 8/6/3 6/7/3
f 9/8/2 8/6/2 7/9/2
f 11/10/4 10/11/4 9/8/4
f 13/12/2 12/13/2 11/10/2
f 15/14/5 14/15/5 13/12/5
f 17/16/6 16/17/6 15/18/6
f 19/19/7 18/20/7 17/21/7
f 19/22/8 2/23/8 20/24/8
f 19/25/9 5/26/9 3/27/9
f 6/28/10 12/29/10 16/30/10
f 21/31/11 25/32/12 27/33/13
f 22/34/14 25/35/15 24/36/16
f 23/37/17 25/38/18 26/39/19
f 28/40/20 32/41/21 34/42/22
f 29/43/23 32/44/24 31/45/25
f 30/46/26 32/47/27 33/48/28
f 35/49/29 39/50/30 41/51/31
f 36/52/32 39/53/33 38/54/34
f 37/55/35 39/56/36 40/57/37
f 42/58/38 46/59/39 48/60/40
f 43/61/41 46/62/42 45/63/43
f 44/64/44 46/65/45 47/66/46
f 49/67/47 53/68/48 55/69/49
f 50/70/50 53/71/51 52/72/52
f 51/73/53 53/74/54 54/75/55
f 56/76/56 60/77/57 62/78/58
f 57/79/59 60/80/60 59/81/61
f 58/82/62 60/83/63 61/84/64
f 63/85/65 67/86/66 69/87/67
f 64/88/68 67/89/69 66/90/70
f 65/91/71 67/92/72 68/93/73
f 70/94/74 74/95/75 76/96/76
f 71/97/77 74/98/78 73/99/79
f 72/100/80 74/101/81 75/102/82
f 21/31/11 38/103/83 35/49/29
f 27/104/84 36/52/32 38/54/34
f 28/40/20 26/105/85 22/34/14
f 34/106/86 23/37/17 26/39/19
f 42/58/38 33/107/87 29/43/23
f 48/108/88 30/46/26 33/48/28
f 37/55/35 47/109/89 43/61/41
f 40/110/90 44/64/44 47/66/46
f 63/85/65 41/51/31 66/111/91
f 41/112/92 64/88/68 66/90/70
f 70/94/74 45/113/93 42/58/38
f 45/63/43 72/100/80 43/61/41
f 71/97/77 68/93/73 75/114/94
f 68/115/95 72/100/80 75/102/82
f 63/85/65 52/116/96 49/67/47
f 69/117/97 50/70/50 52/72/52
f 56/76/56 73/118/98 70/94/74
f 62/119/99 71/97/77 73/99/79
f 51/73/53 61/120/100 57/79/59
f 54/121/101 58/82/62 61/84/64
f 49/67/47 24/122/102 21/31/11
f 24/36/16 51/73/53 22/34/14
f 56/76/56 31/45/25 59/123/103
f 31/124/104 57/79/59 59/81/61
f 63/85/65 21/31/11 35/49/29
f 30/46/26 36/52/32 23/37/17
f 57/79/59 22/34/14 51/73/53
f 42/58/38 56/76/56 70/94/74
f 43/61/41 64/88/68 37/55/35
f 71/97/77 50/70/50 65/91/71
f 77/125/7 79/126/7 78/127/7
f 77/125/7 80/128/7 79/126/7
f 77/125/7 81/129/7 80/128/7
f 77/125/7 82/130/7 81/129/7
f 77/125/7 83/131/7 82/130/7
f 77/125/7 84/132/7 83/131/7
f 77/125/7 85/133/7 84/132/7
f 77/125/7 86/134/7 85/133/7
f 77/125/7 87/135/7 86/134/7
f 77/125/7 88/136/7 87/135/7
f 77/125/7 89/137/7 88/136/7
f 77/125/7 90/138/7 89/137/7
f 77/125/7 91/139/7 90/138/7
f 77/125/7 92/140/7 91/139/7
f 77/125/7 93/141/7 92/140/7
f 77/125/7 94/142/7 93/141/7
f 77/125/7 95/143/7 94/142/7
f 77/125/7 96/144/7 95/143/7
f 77/125/7 97/145/7 96/144/7
f 77/125/7 98/146/7 97/145/7
f 77/125/7 99/147/7 98/146/7
f 77/125/7 100/148/7 99/147/7
f 77/125/7 101/149/7 100/148/7
f 77/125/7 78/127/7 101/149/7
f 79/150/105 102/151/106 78/152/106
f 79/150/105 104/153/107 103/154/105
f 80/155/107 105/156/108 104/153/107
f 82/157/109 105/156/108 81/158/108
f 83/159/110 106/160/109 82/161/109
f 84/162/111 107/163/112 83/159/110
f 85/164/113 108/165/111 84/162/111
f 86/166/114 109/167/115 85/164/113
f 86/166/114 111/168/116 110/169/114
f 87/170/116 112/171/117 111/172/116
f 89/173/118 112/171/117 88/174/117
f 90/175/119 113/176/118 89/173/118
f 90/175/119 115/177/120 114/178/119
f 91/179/120 116/180/121 115/177/120
f 93/181/122 116/180/121 92/182/121
f 93/183/122 118/184/123 117/185/122
f 94/186/123 119/187/124 118/184/123
f 95/188/125 120/189/126 119/187/124
f 97/190/127 120/189/126 96/191/126
f 97/190/127 122/192/128 121/193/129
f 99/194/130 122/192/128 98/195/128
f 99/194/130 124/196/131 123/197/130
f 101/198/132 124/199/131 100/200/131
f 78/152/106 125/201/132 101/198/132
f 103/202/133 126/203/134 102/204/135
f 104/205/136 127/206/137 103/202/133
f 105/207/138 128/208/139 104/205/136
f 105/207/138 130/209/140 129/210/141
f 106/211/142 131/212/143 130/209/140
f 107/213/144 132/214/145 131/212/143
f 108/215/146 133/216/147 132/214/145
f 110/217/148 133/216/147 109/218/149
f 111/219/150 134/220/151 110/217/148
f 112/221/152 135/222/153 111/219/150
f 112/221/152 137/223/154 136/224/155
f 113/225/156 138/226/157 137/223/154
f 115/227/158 138/226/157 114/228/159
f 116/229/160 139/230/161 115/227/158
f 116/229/160 141/231/162 140/232/163
f 117/233/164 142/234/165 141/231/162
f 119/235/166 142/234/165 118/236/167
f 120/237/168 143/238/169 119/235/166
f 121/239/170 144/240/171 120/237/168
f 122/241/172 145/242/173 121/239/170
f 123/243/174 146/244/175 122/241/172
f 124/245/176 147/246/177 123/243/174
f 124/245/176 149/247/178 148/248/179
f 125/249/180 126/203/134 149/247/178
f 127/206/137 150/250/181 126/203/134
f 127/206/137 152/251/182 151/252/183
f 128/208/139 153/253/184 152/251/182
f 129/210/141 154/254/185 153/253/184
f 130/209/140 155/255/186 154/254/185
f 132/214/145 155/255/186 131/212/143
f 132/214/145 157/256/187 156/257/188
f 133/216/147 158/258/189 157/256/187
f 135/222/153 158/258/189 134/220/151
f 135/222/153 160/259/190 159/260/191
f 137/223/154 160/259/190 136/224/155
f 138/226/157 161/261/192 137/223/154
f 138/226/157 163/262/193 162/263/194
f 140/232/163 163/262/193 139/230/161
f 141/231/162 164/264/195 140/232/163
f 141/231/162 166/265/196 165/266/197
f 143/238/169 166/265/196 142/234/165
f 144/240/171 167/267/198 143/238/169
f 144/240/171 169/268/199 168/269/200
f 145/242/173 170/270/201 169/268/199
f 147/246/177 170/270/201 146/244/175
f 148/248/179 171/271/202 147/246/177
f 149/247/178 172/272/203 148/248/179
f 126/203/134 173/273/204 149/247/178
f 150/250/181 151/252/183 174/274/2
f 151/252/183 152/251/182 174/274/2
f 152/251/182 153/253/184 174/274/2
f 153/253/184 154/254/185 174/274/2
f 154/254/185 155/255/186 174/274/2
f 155/255/186 156/257/188 174/274/2
f 156/257/188 157/256/187 174/274/2
f 157/256/187 158/258/189 174/274/2
f 158/258/189 159/260/191 174/274/2
f 159/260/191 160/259/190 174/274/2
f 160/259/190 161/261/192 174/274/2
f 161/261/192 162/263/194 174/274/2
f 162/263/194 163/262/193 174/274/2
f 163/262/193 164/264/195 174/274/2
f 164/264/195 165/266/197 174/274/2
f 165/266/197 166/265/196 174/274/2
f 166/265/196 167/267/198 174/274/2
f 167/267/198 168/269/200 174/274/2
f 168/269/200 169/268/199 174/274/2
f 169/268/199 170/270/201 174/274/2
f 170/270/201 171/271/202 174/274/2
f 171/271/202 172/272/203 174/274/2
f 172/272/203 173/273/204 174/274/2
f 173/273/204 150/250/181 174/274/2
f 177/275/7 176/276/7 175/277/7
f 179/278/8 178/279/8 177/280/8
f 181/281/205 180/282/205 179/283/205
f 183/284/2 182/285/2 181/281/2
f 183/284/3 186/286/3 184/287/3
f 187/288/2 186/286/2 185/289/2
f 189/290/4 188/291/4 187/288/4
f 191/292/2 190/293/2 189/290/2
f 193/294/206 192/295/206 191/292/206
f 193/296/6 176/297/6 194/298/6
f 189/299/9 183/300/9 179/301/9
f 176/302/10 190/303/10 192/304/10
f 195/305/207 199/306/208 201/307/13
f 196/308/14 199/309/209 198/310/210
f 197/311/17 199/312/211 200/313/19
f 202/314/20 206/315/21 208/316/22
f 203/317/212 206/318/24 205/319/25
f 204/320/26 206/321/213 207/322/28
f 209/323/214 213/324/215 215/325/216
f 210/326/32 213/327/217 212/328/34
f 211/329/35 213/330/218 214/331/37
f 216/332/219 220/333/39 222/334/40
f 217/335/41 220/336/220 219/337/43
f 218/338/44 220/339/221 221/340/222
f 223/341/223 227/342/224 229/343/225
f 224/344/50 227/345/226 226/346/52
f 225/347/53 227/348/227 228/349/55
f 230/350/228 234/351/57 236/352/58
f 231/353/59 234/354/229 233/355/61
f 232/356/62 234/357/230 235/358/231
f 237/359/232 241/360/233 243/361/67
f 238/362/68 241/363/234 240/364/235
f 239/365/71 241/366/236 242/367/237
f 244/368/238 248/369/75 250/370/76
f 245/371/77 248/372/239 247/373/79
f 246/374/80 248/375/240 249/376/82
f 195/305/207 212/377/83 209/323/214
f 201/378/84 210/326/32 212/328/34
f 196/308/14 208/316/22 200/379/85
f 208/380/241 197/311/17 200/313/19
f 216/332/219 207/381/87 203/317/212
f 222/382/88 204/320/26 207/322/28
f 211/329/35 221/383/89 217/335/41
f 214/384/242 218/338/44 221/340/222
f 209/323/214 240/385/243 237/359/232
f 240/364/235 211/329/35 238/362/68
f 216/332/219 250/370/76 219/386/93
f 250/387/244 217/335/41 219/337/43
f 245/371/77 242/367/237 249/388/245
f 242/389/95 246/374/80 249/376/82
f 237/359/232 226/390/96 223/341/223
f 243/391/97 224/344/50 226/346/52
f 230/350/228 247/392/98 244/368/238
f 236/393/99 245/371/77 247/373/79
f 225/347/53 235/394/100 231/353/59
f 228/395/246 232/356/62 235/358/231
f 195/305/207 229/343/225 198/396/247
f 229/397/248 196/308/14 198/310/210
f 203/317/212 233/398/103 230/350/228
f 233/355/61 202/314/20 231/353/59
f 237/359/232 195/305/207 209/323/214
f 204/320/26 210/326/32 197/311/17
f 231/353/59 196/308/14 225/347/53
f 216/332/219 230/350/228 244/368/238
f 217/335/41 238/362/68 211/329/35
f 245/371/77 224/344/50 239/365/71
f 251/399/7 253/400/7 252/401/7
f 251/399/7 254/402/7 253/400/7
f 251/399/7 255/403/7 254/402/7
f 251/399/7 256/404/7 255/403/7
f 251/399/7 257/405/7 256/404/7
f 251/399/7 258/406/7 257/405/7
f 251/399/7 259/407/7 258/406/7
f 251/399/7 260/408/7 259/407/7
f 251/399/7 261/409/7 260/408/7
f 251/399/7 262/410/7 261/409/7
f 251/399/7 263/411/7 262/410/7
f 251/399/7 264/412/7 263/411/7
f 251/399/7 265/413/7 264/412/7
f 251/399/7 266/414/7 265/413/7
f 251/399/7 267/415/7 266/414/7
f 251/399/7 268/416/7 267/415/7
f 251/399/7 269/417/7 268/416/7
f 251/399/7 270/418/7 269/417/7
f 251/399/7 271/419/7 270/418/7
f 251/399/7 272/420/7 271/419/7
f 251/399/7 273/421/7 272/420/7
f 251/399/7 274/422/7 273/421/7
f 251/399/7 275/423/7 274/422/7
f 251/399/7 252/401/7 275/423/7
f 252/424/106 277/425/105 276/426/106
f 253/427/105 278/428/107 277/425/105
f 254/429/107 279/430/108 278/428/107
f 256/431/109 279/430/108 255/432/108
f 257/433/112 280/434/109 256/435/109
f 257/433/112 282/436/111 281/437/112
f 258/438/111 283/439/249 282/436/111
f 259/440/115 284/441/250 283/439/249
f 260/442/250 285/443/116 284/441/250
f 262/444/117 285/445/116 261/446/116
f 263/447/118 286/448/117 262/444/117
f 264/449/119 287/450/118 263/447/118
f 265/451/120 288/452/119 264/449/119
f 265/451/120 290/453/121 289/454/120
f 267/455/122 290/453/121 266/456/121
f 268/457/251 291/458/122 267/459/122
f 269/460/125 292/461/251 268/457/251
f 269/460/125 294/462/126 293/463/252
f 271/464/127 294/462/126 270/465/126
f 272/466/253 295/467/254 271/464/127
f 273/468/130 296/469/253 272/466/253
f 273/468/130 298/470/131 297/471/130
f 275/472/132 298/473/131 274/474/131
f 252/424/106 299/475/132 275/472/132
f 277/476/255 300/477/134 276/478/256
f 278/479/257 301/480/258 277/476/255
f 278/479/257 303/481/141 302/482/139
f 279/483/138 304/484/140 303/481/141
f 280/485/142 305/486/143 304/484/140
f 282/487/146 305/486/143 281/488/259
f 283/489/260 306/490/145 282/487/146
f 283/489/260 308/491/151 307/492/147
f 285/493/150 308/491/151 284/494/148
f 285/493/150 310/495/155 309/496/153
f 286/497/261 311/498/154 310/495/155
f 288/499/262 311/498/154 287/500/263
f 289/501/158 312/502/157 288/499/262
f 290/503/160 313/504/161 289/501/158
f 290/503/160 315/505/162 314/506/264
f 291/507/164 316/508/165 315/505/162
f 293/509/166 316/508/165 292/510/167
f 293/509/166 318/511/171 317/512/169
f 294/513/168 319/514/173 318/511/171
f 295/515/170 320/516/175 319/514/173
f 297/517/174 320/516/175 296/518/172
f 298/519/176 321/520/177 297/517/174
f 298/519/176 323/521/178 322/522/179
f 299/523/180 300/477/134 323/521/178
f 300/477/134 325/524/183 324/525/181
f 301/480/258 326/526/182 325/524/183
f 303/481/141 326/526/182 302/482/139
f 303/481/141 328/527/185 327/528/265
f 305/486/143 328/527/185 304/484/140
f 306/490/145 329/529/186 305/486/143
f 306/490/145 331/530/187 330/531/188
f 308/491/151 331/530/187 307/492/147
f 309/496/153 332/532/189 308/491/151
f 310/495/155 333/533/266 309/496/153
f 311/498/154 334/534/190 310/495/155
f 312/502/157 335/535/192 311/498/154
f 312/502/157 337/536/193 336/537/194
f 313/504/161 338/538/195 337/536/193
f 315/505/162 338/538/195 314/506/264
f 315/505/162 340/539/196 339/540/197
f 317/512/169 340/539/196 316/508/165
f 318/511/171 341/541/198 317/512/169
f 318/511/171 343/542/199 342/543/200
f 319/514/173 344/544/201 343/542/199
f 321/520/177 344/544/201 320/516/175
f 322/522/179 345/545/267 321/520/177
f 323/521/178 346/546/203 322/522/179
f 300/477/134 347/547/204 323/521/178
f 324/525/181 325/524/183 348/548/2
f 325/524/183 326/526/182 348/548/2
f 326/526/182 327/528/265 348/548/2
f 327/528/265 328/527/185 348/548/2
f 328/527/185 329/529/186 348/548/2
f 329/529/186 330/531/188 348/548/2
f 330/531/188 331/530/187 348/548/2
f 331/530/187 332/532/189 348/548/2
f 332/532/189 333/533/266 348/548/2
f 333/533/266 334/534/190 348/548/2
f 334/534/190 335/535/192 348/548/2
f 335/535/192 336/537/194 348/548/2
f 336/537/194 337/536/193 348/548/2
f 337/536/193 338/538/195 348/548/2
f 338/538/195 339/540/197 348/548/2
f 339/540/197 340/539/196 348/548/2
f 340/539/196 341/541/198 348/548/2
f 341/541/198 342/543/200 348/548/2
f 342/543/200 343/542/199 348/548/2
f 343/542/199 344/544/201 348/548/2
f 344/544/201 345/545/267 348/548/2
f 345/545/267 346/546/203 348/548/2
f 346/546/203 347/547/204 348/548/2
f 347/547/204 324/525/181 348/548/2
f 351/549/7 350/550/7 349/551/7
f 353/552/9 352/553/9 351/554/9
f 355/555/268 354/556/268 353/557/268
f 357/558/2 356/559/2 355/555/2
f 359/560/269 358/561/269 357/558/269
f 361/562/2 360/563/2 359/560/2
f 363/564/270 362/565/270 361/562/270
f 365/566/2 364/567/2 363/564/2
f 367/568/271 366/569/271 365/566/271
f 349/570/10 368/571/10 367/572/10
f 363/573/6 357/574/6 353/575/6
f 350/576/8 364/577/8 366/578/8
f 3/1/1 4/5/1 2/2/1
f 5/4/2 6/7/2 4/5/2
f 5/4/3 7/9/3 8/6/3
f 9/8/2 10/11/2 8/6/2
f 11/10/4 12/13/4 10/11/4
f 13/12/2 14/15/2 12/13/2
f 15/14/5 16/579/5 14/15/5
f 17/16/6 18/580/6 16/17/6
f 19/19/7 20/581/7 18/20/7
f 19/22/8 1/582/8 2/23/8
f 19/25/9 17/583/9 15/584/9
f 15/584/9 13/585/9 11/586/9
f 11/586/9 9/587/9 7/588/9
f 11/586/9 7/588/9 5/26/9
f 19/25/9 15/584/9 11/586/9
f 3/27/9 1/589/9 19/25/9
f 19/25/9 11/586/9 5/26/9
f 20/590/10 2/591/10 4/592/10
f 6/28/10 8/593/10 10/594/10
f 20/590/10 4/592/10 6/28/10
f 16/30/10 18/595/10 20/590/10
f 12/29/10 14/596/10 16/30/10
f 6/28/10 10/594/10 12/29/10
f 16/30/10 20/590/10 6/28/10
f 21/31/11 24/122/102 25/32/12
f 22/34/14 26/105/85 25/35/15
f 23/37/17 27/104/84 25/38/18
f 28/40/20 31/124/104 32/41/21
f 29/43/23 33/107/87 32/44/24
f 30/46/26 34/106/86 32/47/27
f 35/49/29 38/103/83 39/50/30
f 36/52/32 40/110/90 39/53/33
f 37/55/35 41/112/92 39/56/36
f 42/58/38 45/113/93 46/59/39
f 43/61/41 47/109/89 46/62/42
f 44/64/44 48/108/88 46/65/45
f 49/67/47 52/116/96 53/68/48
f 50/70/50 54/121/101 53/71/51
f 51/73/53 55/597/272 53/74/54
f 56/76/56 59/123/103 60/77/57
f 57/79/59 61/120/100 60/80/60
f 58/82/62 62/119/99 60/83/63
f 63/85/65 66/111/91 67/86/66
f 64/88/68 68/115/95 67/89/69
f 65/91/71 69/117/97 67/92/72
f 70/94/74 73/118/98 74/95/75
f 71/97/77 75/114/94 74/98/78
f 72/100/80 76/598/244 74/101/81
f 21/31/11 27/33/13 38/103/83
f 27/104/84 23/37/17 36/52/32
f 28/40/20 34/42/22 26/105/85
f 34/106/86 30/46/26 23/37/17
f 42/58/38 48/60/40 33/107/87
f 48/108/88 44/64/44 30/46/26
f 37/55/35 40/57/37 47/109/89
f 40/110/90 36/52/32 44/64/44
f 63/85/65 35/49/29 41/51/31
f 41/112/92 37/55/35 64/88/68
f 70/94/74 76/96/76 45/113/93
f 45/63/43 76/598/244 72/100/80
f 71/97/77 65/91/71 68/93/73
f 68/115/95 64/88/68 72/100/80
f 63/85/65 69/87/67 52/116/96
f 69/117/97 65/91/71 50/70/50
f 56/76/56 62/78/58 73/118/98
f 62/119/99 58/82/62 71/97/77
f 51/73/53 54/75/55 61/120/100
f 54/121/101 50/70/50 58/82/62
f 49/67/47 55/69/49 24/122/102
f 24/36/16 55/597/272 51/73/53
f 56/76/56 29/43/23 31/45/25
f 31/124/104 28/40/20 57/79/59
f 63/85/65 49/67/47 21/31/11
f 30/46/26 44/64/44 36/52/32
f 57/79/59 28/40/20 22/34/14
f 42/58/38 29/43/23 56/76/56
f 43/61/41 72/100/80 64/88/68
f 71/97/77 58/82/62 50/70/50
f 79/150/105 103/154/105 102/151/106
f 79/150/105 80/155/107 104/153/107
f 80/155/107 81/158/108 105/156/108
f 82/157/109 106/599/109 105/156/108
f 83/159/110 107/163/112 106/160/109
f 84/162/111 108/165/111 107/163/112
f 85/164/113 109/167/115 108/165/111
f 86/166/114 110/169/114 109/167/115
f 86/166/114 87/600/116 111/168/116
f 87/170/116 88/174/117 112/171/117
f 89/173/118 113/176/118 112/171/117
f 90/175/119 114/178/119 113/176/118
f 90/175/119 91/179/120 115/177/120
f 91/179/120 92/182/121 116/180/121
f 93/181/122 117/601/122 116/180/121
f 93/183/122 94/186/123 118/184/123
f 94/186/123 95/188/125 119/187/124
f 95/188/125 96/191/126 120/189/126
f 97/190/127 121/193/129 120/189/126
f 97/190/127 98/195/128 122/192/128
f 99/194/130 123/197/130 122/192/128
f 99/194/130 100/602/131 124/196/131
f 101/198/132 125/201/132 124/199/131
f 78/152/106 102/151/106 125/201/132
f 103/202/133 127/206/137 126/203/134
f 104/205/136 128/208/139 127/206/137
f 105/207/138 129/210/141 128/208/139
f 105/207/138 106/211/142 130/209/140
f 106/211/142 107/213/144 131/212/143
f 107/213/144 108/215/146 132/214/145
f 108/215/146 109/218/149 133/216/147
f 110/217/148 134/220/151 133/216/147
f 111/219/150 135/222/153 134/220/151
f 112/221/152 136/224/155 135/222/153
f 112/221/152 113/225/156 137/223/154
f 113/225/156 114/228/159 138/226/157
f 115/227/158 139/230/161 138/226/157
f 116/229/160 140/232/163 139/230/161
f 116/229/160 117/233/164 141/231/162
f 117/233/164 118/236/167 142/234/165
f 119/235/166 143/238/169 142/234/165
f 120/237/168 144/240/171 143/238/169
f 121/239/170 145/242/173 144/240/171
f 122/241/172 146/244/175 145/242/173
f 123/243/174 147/246/177 146/244/175
f 124/245/176 148/248/179 147/246/177
f 124/245/176 125/249/180 149/247/178
f 125/249/180 102/204/135 126/203/134
f 127/206/137 151/252/183 150/250/181
f 127/206/137 128/208/139 152/251/182
f 128/208/139 129/210/141 153/253/184
f 129/210/141 130/209/140 154/254/185
f 130/209/140 131/212/143 155/255/186
f 132/214/145 156/257/188 155/255/186
f 132/214/145 133/216/147 157/256/187
f 133/216/147 134/220/151 158/258/189
f 135/222/153 159/260/191 158/258/189
f 135/222/153 136/224/155 160/259/190
f 137/223/154 161/261/192 160/259/190
f 138/226/157 162/263/194 161/261/192
f 138/226/157 139/230/161 163/262/193
f 140/232/163 164/264/195 163/262/193
f 141/231/162 165/266/197 164/264/195
f 141/231/162 142/234/165 166/265/196
f 143/238/169 167/267/198 166/265/196
f 144/240/171 168/269/200 167/267/198
f 144/240/171 145/242/173 169/268/199
f 145/242/173 146/244/175 170/270/201
f 147/246/177 171/271/202 170/270/201
f 148/248/179 172/272/203 171/271/202
f 149/247/178 173/273/204 172/272/203
f 126/203/134 150/250/181 173/273/204
f 177/275/7 178/603/7 176/276/7
f 179/278/8 180/604/8 178/279/8
f 181/281/205 182/285/205 180/282/205
f 183/284/2 184/287/2 182/285/2
f 183/284/3 185/289/3 186/286/3
f 187/288/2 188/291/2 186/286/2
f 189/290/4 190/293/4 188/291/4
f 191/292/2 192/295/2 190/293/2
f 193/294/206 194/605/206 192/295/206
f 193/296/6 175/606/6 176/297/6
f 175/607/9 193/608/9 191/609/9
f 189/299/9 187/610/9 185/611/9
f 175/607/9 191/609/9 189/299/9
f 179/301/9 177/612/9 175/607/9
f 183/300/9 181/613/9 179/301/9
f 189/299/9 185/611/9 183/300/9
f 179/301/9 175/607/9 189/299/9
f 176/302/10 178/614/10 180/615/10
f 180/615/10 182/616/10 184/617/10
f 184/617/10 186/618/10 188/619/10
f 184/617/10 188/619/10 190/303/10
f 176/302/10 180/615/10 184/617/10
f 192/304/10 194/620/10 176/302/10
f 176/302/10 184/617/10 190/303/10
f 195/305/207 198/396/247 199/306/208
f 196/308/14 200/379/85 199/309/209
f 197/311/17 201/378/84 199/312/211
f 202/314/20 205/621/104 206/315/21
f 203/317/212 207/381/87 206/318/24
f 204/320/26 208/380/241 206/321/213
f 209/323/214 212/377/83 213/324/215
f 210/326/32 214/384/242 213/327/217
f 211/329/35 215/622/273 213/330/218
f 216/332/219 219/386/93 220/333/39
f 217/335/41 221/383/89 220/336/220
f 218/338/44 222/382/88 220/339/221
f 223/341/223 226/390/96 227/342/224
f 224/344/50 228/395/246 227/345/226
f 225/347/53 229/397/248 227/348/227
f 230/350/228 233/398/103 234/351/57
f 231/353/59 235/394/100 234/354/229
f 232/356/62 236/393/99 234/357/230
f 237/359/232 240/385/243 241/360/233
f 238/362/68 242/389/95 241/363/234
f 239/365/71 243/391/97 241/366/236
f 244/368/238 247/392/98 248/369/75
f 245/371/77 249/388/245 248/372/239
f 246/374/80 250/387/244 248/375/240
f 195/305/207 201/307/13 212/377/83
f 201/378/84 197/311/17 210/326/32
f 196/308/14 202/314/20 208/316/22
f 208/380/241 204/320/26 197/311/17
f 216/332/219 222/334/40 207/381/87
f 222/382/88 218/338/44 204/320/26
f 211/329/35 214/331/37 221/383/89
f 214/384/242 210/326/32 218/338/44
f 209/323/214 215/325/216 240/385/243
f 240/364/235 215/622/273 211/329/35
f 216/332/219 244/368/238 250/370/76
f 250/387/244 246/374/80 217/335/41
f 245/371/77 239/365/71 242/367/237
f 242/389/95 238/362/68 246/374/80
f 237/359/232 243/361/67 226/390/96
f 243/391/97 239/365/71 224/344/50
f 230/350/228 236/352/58 247/392/98
f 236/393/99 232/356/62 245/371/77
f 225/347/53 228/349/55 235/394/100
f 228/395/246 224/344/50 232/356/62
f 195/305/207 223/341/223 229/343/225
f 229/397/248 225/347/53 196/308/14
f 203/317/212 205/319/25 233/398/103
f 233/355/61 205/621/104 202/314/20
f 237/359/232 223/341/223 195/305/207
f 204/320/26 218/338/44 210/326/32
f 231/353/59 202/314/20 196/308/14
f 216/332/219 203/317/212 230/350/228
f 217/335/41 246/374/80 238/362/68
f 245/371/77 232/356/62 224/344/50
f 252/424/106 253/427/105 277/425/105
f 253/427/105 254/429/107 278/428/107
f 254/429/107 255/432/108 279/430/108
f 256/431/109 280/623/109 279/430/108
f 257/433/112 281/437/112 280/434/109
f 257/433/112 258/438/111 282/436/111
f 258/438/111 259/440/115 283/439/249
f 259/440/115 260/442/250 284/441/250
f 260/442/250 261/624/116 285/443/116
f 262/444/117 286/448/117 285/445/116
f 263/447/118 287/450/118 286/448/117
f 264/449/119 288/452/119 287/450/118
f 265/451/120 289/454/120 288/452/119
f 265/451/120 266/456/121 290/453/121
f 267/455/122 291/625/122 290/453/121
f 268/457/251 292/461/251 291/458/122
f 269/460/125 293/463/252 292/461/251
f 269/460/125 270/465/126 294/462/126
f 271/464/127 295/467/254 294/462/126
f 272/466/253 296/469/253 295/467/254
f 273/468/130 297/471/130 296/469/253
f 273/468/130 274/626/131 298/470/131
f 275/472/132 299/475/132 298/473/131
f 252/424/106 276/426/106 299/475/132
f 277/476/255 301/480/258 300/477/134
f 278/479/257 302/482/139 301/480/258
f 278/479/257 279/483/138 303/481/141
f 279/483/138 280/485/142 304/484/140
f 280/485/142 281/488/259 305/486/143
f 282/487/146 306/490/145 305/486/143
f 283/489/260 307/492/147 306/490/145
f 283/489/260 284/494/148 308/491/151
f 285/493/150 309/496/153 308/491/151
f 285/493/150 286/497/261 310/495/155
f 286/497/261 287/500/263 311/498/154
f 288/499/262 312/502/157 311/498/154
f 289/501/158 313/504/161 312/502/157
f 290/503/160 314/506/264 313/504/161
f 290/503/160 291/507/164 315/505/162
f 291/507/164 292/510/167 316/508/165
f 293/509/166 317/512/169 316/508/165
f 293/509/166 294/513/168 318/511/171
f 294/513/168 295/515/170 319/514/173
f 295/515/170 296/518/172 320/516/175
f 297/517/174 321/520/177 320/516/175
f 298/519/176 322/522/179 321/520/177
f 298/519/176 299/523/180 323/521/178
f 299/523/180 276/478/256 300/477/134
f 300/477/134 301/480/258 325/524/183
f 301/480/258 302/482/139 326/526/182
f 303/481/141 327/528/265 326/526/182
f 303/481/141 304/484/140 328/527/185
f 305/486/143 329/529/186 328/527/185
f 306/490/145 330/531/188 329/529/186
f 306/490/145 307/492/147 331/530/187
f 308/491/151 332/532/189 331/530/187
f 309/496/153 333/533/266 332/532/189
f 310/495/155 334/534/190 333/533/266
f 311/498/154 335/535/192 334/534/190
f 312/502/157 336/537/194 335/535/192
f 312/502/157 313/504/161 337/536/193
f 313/504/161 314/506/264 338/538/195
f 315/505/162 339/540/197 338/538/195
f 315/505/162 316/508/165 340/539/196
f 317/512/169 341/541/198 340/539/196
f 318/511/171 342/543/200 341/541/198
f 318/511/171 319/514/173 343/542/199
f 319/514/173 320/516/175 344/544/201
f 321/520/177 345/545/267 344/544/201
f 322/522/179 346/546/203 345/545/267
f 323/521/178 347/547/204 346/546/203
f 300/477/134 324/525/181 347/547/204
f 351/549/7 352/627/7 350/550/7
f 353/552/9 354/628/9 352/553/9
f 355/555/268 356/559/268 354/556/268
f 357/558/2 358/561/2 356/559/2
f 359/560/269 360/563/269 358/561/269
f 361/562/2 362/565/2 360/563/2
f 363/564/270 364/567/270 362/565/270
f 365/566/2 366/569/2 364/567/2
f 367/568/271 368/629/271 366/569/271
f 349/570/10 350/630/10 368/571/10
f 349/631/6 367/632/6 365/633/6
f 363/573/6 361/634/6 359/635/6
f 349/631/6 365/633/6 363/573/6
f 353/575/6 351/636/6 349/631/6
f 357/574/6 355/637/6 353/575/6
f 363/573/6 359/635/6 357/574/6
f 353/575/6 349/631/6 363/573/6
f 350/576/8 352/638/8 354/639/8
f 354/639/8 356/640/8 358/641/8
f 358/641/8 360/642/8 362/643/8
f 358/641/8 362/643/8 364/577/8
f 350/576/8 354/639/8 358/641/8
f 366/578/8 368/644/8 350/576/8
f 350/576/8 358/641/8 364/577/8
