# Blender 5.2.2 LTS
# www.blender.org
o Locker
v -0.970000 0.200000 0.870000
v -0.970000 0.230000 0.900000
v -1.000000 0.230000 0.870000
v -0.970000 0.208787 0.891213
v -0.987321 0.212680 0.887320
v -0.991213 0.230000 0.891213
v -0.991213 0.208787 0.870000
v -0.970000 6.570000 0.900000
v -0.970000 6.600000 0.870000
v -1.000000 6.570000 0.870000
v -0.970000 6.591213 0.891213
v -0.987321 6.587320 0.887320
v -0.991213 6.591213 0.870000
v -0.991213 6.570000 0.891213
v -0.970000 0.200000 -0.870000
v -1.000000 0.230000 -0.870000
v -0.970000 0.230000 -0.900000
v -0.991213 0.208787 -0.870000
v -0.987321 0.212679 -0.887320
v -0.991213 0.230000 -0.891213
v -0.970000 0.208787 -0.891213
v -0.970000 6.600000 -0.870000
v -0.970000 6.570000 -0.900000
v -1.000000 6.570000 -0.870000
v -0.970000 6.591213 -0.891213
v -0.987321 6.587320 -0.887321
v -0.991213 6.570000 -0.891213
v -0.991213 6.591213 -0.870000
v 0.970000 0.200000 0.870000
v 1.000000 0.230000 0.870000
v 0.970000 0.230000 0.900000
v 0.991213 0.208787 0.870000
v 0.987321 0.212680 0.887320
v 0.991213 0.230000 0.891213
v 0.970000 0.208787 0.891213
v 0.970000 6.600000 0.870000
v 0.970000 6.570000 0.900000
v 1.000000 6.570000 0.870000
v 0.970000 6.591213 0.891213
v 0.987321 6.587320 0.887320
v 0.991213 6.570000 0.891213
v 0.991213 6.591213 0.870000
v 0.970000 0.200000 -0.870000
v 0.970000 0.230000 -0.900000
v 1.000000 0.230000 -0.870000
v 0.970000 0.208787 -0.891213
v 0.987321 0.212679 -0.887320
v 0.991213 0.230000 -0.891213
v 0.991213 0.208787 -0.870000
v 0.970000 6.600000 -0.870000
v 1.000000 6.570000 -0.870000
v 0.970000 6.570000 -0.900000
v 0.991213 6.591213 -0.870000
v 0.987321 6.587320 -0.887321
v 0.991213 6.570000 -0.891213
v 0.970000 6.591213 -0.891213
v -0.940000 0.000000 0.860000
v -0.940000 0.010000 0.870000
v -0.950000 0.010000 0.860000
v -0.940000 0.002929 0.867071
v -0.945773 0.004227 0.865774
v -0.947071 0.010000 0.867071
v -0.947071 0.002929 0.860000
v -0.940000 0.190000 0.870000
v -0.940000 0.200000 0.860000
v -0.950000 0.190000 0.860000
v -0.940000 0.197071 0.867071
v -0.945773 0.195774 0.865774
v -0.947071 0.197071 0.860000
v -0.947071 0.190000 0.867071
v -0.940000 -0.000000 -0.820000
v -0.950000 0.010000 -0.820000
v -0.940000 0.010000 -0.830000
v -0.947071 0.002929 -0.820000
v -0.945773 0.004226 -0.825774
v -0.947071 0.010000 -0.827071
v -0.940000 0.002929 -0.827071
v -0.940000 0.200000 -0.820000
v -0.940000 0.190000 -0.830000
v -0.950000 0.190000 -0.820000
v -0.940000 0.197071 -0.827071
v -0.945773 0.195773 -0.825774
v -0.947071 0.190000 -0.827071
v -0.947071 0.197071 -0.820000
v 0.940000 0.000000 0.860000
v 0.950000 0.010000 0.860000
v 0.940000 0.010000 0.870000
v 0.947071 0.002929 0.860000
v 0.945773 0.004227 0.865774
v 0.947071 0.010000 0.867071
v 0.940000 0.002929 0.867071
v 0.940000 0.200000 0.860000
v 0.940000 0.190000 0.870000
v 0.950000 0.190000 0.860000
v 0.940000 0.197071 0.867071
v 0.945773 0.195774 0.865774
v 0.947071 0.190000 0.867071
v 0.947071 0.197071 0.860000
v 0.940000 -0.000000 -0.820000
v 0.940000 0.010000 -0.830000
v 0.950000 0.010000 -0.820000
v 0.940000 0.002929 -0.827071
v 0.945773 0.004226 -0.825774
v 0.947071 0.010000 -0.827071
v 0.947071 0.002929 -0.820000
v 0.940000 0.200000 -0.820000
v 0.950000 0.190000 -0.820000
v 0.940000 0.190000 -0.830000
v 0.947071 0.197071 -0.820000
v 0.945773 0.195773 -0.825774
v 0.947071 0.190000 -0.827071
v 0.940000 0.197071 -0.827071
v -0.873000 0.400000 -0.917000
v -0.873000 0.427000 -0.890000
v -0.900000 0.427000 -0.917000
v -0.873000 0.407908 -0.897908
v -0.888588 0.411412 -0.901412
v -0.892092 0.427000 -0.897908
v -0.892092 0.407908 -0.917000
v -0.873000 6.473000 -0.890000
v -0.873000 6.500000 -0.917000
v -0.900000 6.473000 -0.917000
v -0.873000 6.492092 -0.897908
v -0.888588 6.488588 -0.901412
v -0.892092 6.492092 -0.917000
v -0.892092 6.473000 -0.897908
v -0.873000 0.400000 -0.923000
v -0.900000 0.427000 -0.923000
v -0.873000 0.427000 -0.950000
v -0.892092 0.407908 -0.923000
v -0.888588 0.411412 -0.938588
v -0.892092 0.427000 -0.942092
v -0.873000 0.407908 -0.942092
v -0.873000 6.500000 -0.923000
v -0.873000 6.473000 -0.950000
v -0.900000 6.473000 -0.923000
v -0.873000 6.492092 -0.942092
v -0.888588 6.488588 -0.938589
v -0.892092 6.473000 -0.942092
v -0.892092 6.492092 -0.923000
v 0.873000 0.400000 -0.917000
v 0.900000 0.427000 -0.917000
v 0.873000 0.427000 -0.890000
v 0.892092 0.407908 -0.917000
v 0.888588 0.411412 -0.901412
v 0.892092 0.427000 -0.897908
v 0.873000 0.407908 -0.897908
v 0.873000 6.500000 -0.917000
v 0.873000 6.473000 -0.890000
v 0.900000 6.473000 -0.917000
v 0.873000 6.492092 -0.897908
v 0.888588 6.488588 -0.901412
v 0.892092 6.473000 -0.897908
v 0.892092 6.492092 -0.917000
v 0.873000 0.400000 -0.923000
v 0.873000 0.427000 -0.950000
v 0.900000 0.427000 -0.923000
v 0.873000 0.407908 -0.942092
v 0.888588 0.411412 -0.938588
v 0.892092 0.427000 -0.942092
v 0.892092 0.407908 -0.923000
v 0.873000 6.500000 -0.923000
v 0.900000 6.473000 -0.923000
v 0.873000 6.473000 -0.950000
v 0.892092 6.492092 -0.923000
v 0.888588 6.488588 -0.938589
v 0.892092 6.473000 -0.942092
v 0.873000 6.492092 -0.942092
v -0.480000 5.465000 -0.950000
v -0.480000 5.485000 -0.930000
v -0.500000 5.485000 -0.950000
v -0.480000 5.470859 -0.935858
v -0.491547 5.473454 -0.938453
v -0.494142 5.485001 -0.935858
v -0.494142 5.470859 -0.950000
v -0.480000 5.515000 -0.930000
v -0.480000 5.535000 -0.950000
v -0.500000 5.515000 -0.950000
v -0.480000 5.529141 -0.935858
v -0.491547 5.526546 -0.938453
v -0.494142 5.529141 -0.950000
v -0.494142 5.514999 -0.935858
v -0.480000 5.465000 -0.990000
v -0.500000 5.485000 -0.990000
v -0.480000 5.485000 -1.010000
v -0.494142 5.470859 -0.990000
v -0.491547 5.473454 -1.001547
v -0.494142 5.485001 -1.004142
v -0.480000 5.470859 -1.004142
v -0.480000 5.535000 -0.990000
v -0.480000 5.515000 -1.010000
v -0.500000 5.515000 -0.990000
v -0.480000 5.529141 -1.004142
v -0.491547 5.526546 -1.001547
v -0.494142 5.514999 -1.004142
v -0.494142 5.529141 -0.990000
v 0.480000 5.465000 -0.950000
v 0.500000 5.485000 -0.950000
v 0.480000 5.485000 -0.930000
v 0.494142 5.470859 -0.950000
v 0.491547 5.473454 -0.938453
v 0.494142 5.485001 -0.935858
v 0.480000 5.470859 -0.935858
v 0.480000 5.535000 -0.950000
v 0.480000 5.515000 -0.930000
v 0.500000 5.515000 -0.950000
v 0.480000 5.529141 -0.935858
v 0.491547 5.526546 -0.938453
v 0.494142 5.514999 -0.935858
v 0.494142 5.529141 -0.950000
v 0.480000 5.465000 -0.990000
v 0.480000 5.485000 -1.010000
v 0.500000 5.485000 -0.990000
v 0.480000 5.470859 -1.004142
v 0.491547 5.473454 -1.001547
v 0.494142 5.485001 -1.004142
v 0.494142 5.470859 -0.990000
v 0.480000 5.535000 -0.990000
v 0.500000 5.515000 -0.990000
v 0.480000 5.515000 -1.010000
v 0.494142 5.529141 -0.990000
v 0.491547 5.526546 -1.001547
v 0.494142 5.514999 -1.004142
v 0.480000 5.529141 -1.004142
v -0.480000 5.665000 -0.950000
v -0.480000 5.685000 -0.930000
v -0.500000 5.685000 -0.950000
v -0.480000 5.670858 -0.935858
v -0.491547 5.673453 -0.938453
v -0.494142 5.685000 -0.935858
v -0.494142 5.670858 -0.950000
v -0.480000 5.715000 -0.930000
v -0.480000 5.735000 -0.950000
v -0.500000 5.715000 -0.950000
v -0.480000 5.729142 -0.935858
v -0.491547 5.726547 -0.938453
v -0.494142 5.729142 -0.950000
v -0.494142 5.715000 -0.935858
v -0.480000 5.665000 -0.990000
v -0.500000 5.685000 -0.990000
v -0.480000 5.685000 -1.010000
v -0.494142 5.670858 -0.990000
v -0.491547 5.673453 -1.001547
v -0.494142 5.685000 -1.004142
v -0.480000 5.670858 -1.004142
v -0.480000 5.735000 -0.990000
v -0.480000 5.715000 -1.010000
v -0.500000 5.715000 -0.990000
v -0.480000 5.729142 -1.004142
v -0.491547 5.726547 -1.001547
v -0.494142 5.715000 -1.004142
v -0.494142 5.729142 -0.990000
v 0.480000 5.665000 -0.950000
v 0.500000 5.685000 -0.950000
v 0.480000 5.685000 -0.930000
v 0.494142 5.670858 -0.950000
v 0.491547 5.673453 -0.938453
v 0.494142 5.685000 -0.935858
v 0.480000 5.670858 -0.935858
v 0.480000 5.735000 -0.950000
v 0.480000 5.715000 -0.930000
v 0.500000 5.715000 -0.950000
v 0.480000 5.729142 -0.935858
v 0.491547 5.726547 -0.938453
v 0.494142 5.715000 -0.935858
v 0.494142 5.729142 -0.950000
v 0.480000 5.665000 -0.990000
v 0.480000 5.685000 -1.010000
v 0.500000 5.685000 -0.990000
v 0.480000 5.670858 -1.004142
v 0.491547 5.673453 -1.001547
v 0.494142 5.685000 -1.004142
v 0.494142 5.670858 -0.990000
v 0.480000 5.735000 -0.990000
v 0.500000 5.715000 -0.990000
v 0.480000 5.715000 -1.010000
v 0.494142 5.729142 -0.990000
v 0.491547 5.726547 -1.001547
v 0.494142 5.715000 -1.004142
v 0.480000 5.729142 -1.004142
v -0.480000 5.865000 -0.950000
v -0.480000 5.885000 -0.930000
v -0.500000 5.885000 -0.950000
v -0.480000 5.870858 -0.935858
v -0.491547 5.873453 -0.938453
v -0.494142 5.885000 -0.935858
v -0.494142 5.870858 -0.950000
v -0.480000 5.915000 -0.930000
v -0.480000 5.935000 -0.950000
v -0.500000 5.915000 -0.950000
v -0.480000 5.929142 -0.935858
v -0.491547 5.926547 -0.938453
v -0.494142 5.929142 -0.950000
v -0.494142 5.915000 -0.935858
v -0.480000 5.865000 -0.990000
v -0.500000 5.885000 -0.990000
v -0.480000 5.885000 -1.010000
v -0.494142 5.870858 -0.990000
v -0.491547 5.873453 -1.001547
v -0.494142 5.885000 -1.004142
v -0.480000 5.870858 -1.004142
v -0.480000 5.935000 -0.990000
v -0.480000 5.915000 -1.010000
v -0.500000 5.915000 -0.990000
v -0.480000 5.929142 -1.004142
v -0.491547 5.926547 -1.001547
v -0.494142 5.915000 -1.004142
v -0.494142 5.929142 -0.990000
v 0.480000 5.865000 -0.950000
v 0.500000 5.885000 -0.950000
v 0.480000 5.885000 -0.930000
v 0.494142 5.870858 -0.950000
v 0.491547 5.873453 -0.938453
v 0.494142 5.885000 -0.935858
v 0.480000 5.870858 -0.935858
v 0.480000 5.935000 -0.950000
v 0.480000 5.915000 -0.930000
v 0.500000 5.915000 -0.950000
v 0.480000 5.929142 -0.935858
v 0.491547 5.926547 -0.938453
v 0.494142 5.915000 -0.935858
v 0.494142 5.929142 -0.950000
v 0.480000 5.865000 -0.990000
v 0.480000 5.885000 -1.010000
v 0.500000 5.885000 -0.990000
v 0.480000 5.870858 -1.004142
v 0.491547 5.873453 -1.001547
v 0.494142 5.885000 -1.004142
v 0.494142 5.870858 -0.990000
v 0.480000 5.935000 -0.990000
v 0.500000 5.915000 -0.990000
v 0.480000 5.915000 -1.010000
v 0.494142 5.929142 -0.990000
v 0.491547 5.926547 -1.001547
v 0.494142 5.915000 -1.004142
v 0.480000 5.929142 -1.004142
v -0.480000 6.065000 -0.950000
v -0.480000 6.085000 -0.930000
v -0.500000 6.085000 -0.950000
v -0.480000 6.070858 -0.935858
v -0.491547 6.073453 -0.938453
v -0.494142 6.085000 -0.935858
v -0.494142 6.070858 -0.950000
v -0.480000 6.115000 -0.930000
v -0.480000 6.135000 -0.950000
v -0.500000 6.115000 -0.950000
v -0.480000 6.129142 -0.935858
v -0.491547 6.126547 -0.938453
v -0.494142 6.129142 -0.950000
v -0.494142 6.115000 -0.935858
v -0.480000 6.065000 -0.990000
v -0.500000 6.085000 -0.990000
v -0.480000 6.085000 -1.010000
v -0.494142 6.070858 -0.990000
v -0.491547 6.073453 -1.001547
v -0.494142 6.085000 -1.004142
v -0.480000 6.070858 -1.004142
v -0.480000 6.135000 -0.990000
v -0.480000 6.115000 -1.010000
v -0.500000 6.115000 -0.990000
v -0.480000 6.129142 -1.004142
v -0.491547 6.126547 -1.001547
v -0.494142 6.115000 -1.004142
v -0.494142 6.129142 -0.990000
v 0.480000 6.065000 -0.950000
v 0.500000 6.085000 -0.950000
v 0.480000 6.085000 -0.930000
v 0.494142 6.070858 -0.950000
v 0.491547 6.073453 -0.938453
v 0.494142 6.085000 -0.935858
v 0.480000 6.070858 -0.935858
v 0.480000 6.135000 -0.950000
v 0.480000 6.115000 -0.930000
v 0.500000 6.115000 -0.950000
v 0.480000 6.129142 -0.935858
v 0.491547 6.126547 -0.938453
v 0.494142 6.115000 -0.935858
v 0.494142 6.129142 -0.950000
v 0.480000 6.065000 -0.990000
v 0.480000 6.085000 -1.010000
v 0.500000 6.085000 -0.990000
v 0.480000 6.070858 -1.004142
v 0.491547 6.073453 -1.001547
v 0.494142 6.085000 -1.004142
v 0.494142 6.070858 -0.990000
v 0.480000 6.135000 -0.990000
v 0.500000 6.115000 -0.990000
v 0.480000 6.115000 -1.010000
v 0.494142 6.129142 -0.990000
v 0.491547 6.126547 -1.001547
v 0.494142 6.115000 -1.004142
v 0.480000 6.129142 -1.004142
v -0.480000 6.265000 -0.950000
v -0.480000 6.285000 -0.930000
v -0.500000 6.285000 -0.950000
v -0.480000 6.270858 -0.935858
v -0.491547 6.273453 -0.938453
v -0.494142 6.285000 -0.935858
v -0.494142 6.270858 -0.950000
v -0.480000 6.315000 -0.930000
v -0.480000 6.335000 -0.950000
v -0.500000 6.315000 -0.950000
v -0.480000 6.329142 -0.935858
v -0.491547 6.326547 -0.938453
v -0.494142 6.329142 -0.950000
v -0.494142 6.315000 -0.935858
v -0.480000 6.265000 -0.990000
v -0.500000 6.285000 -0.990000
v -0.480000 6.285000 -1.010000
v -0.494142 6.270858 -0.990000
v -0.491547 6.273453 -1.001547
v -0.494142 6.285000 -1.004142
v -0.480000 6.270858 -1.004142
v -0.480000 6.335000 -0.990000
v -0.480000 6.315000 -1.010000
v -0.500000 6.315000 -0.990000
v -0.480000 6.329142 -1.004142
v -0.491547 6.326547 -1.001547
v -0.494142 6.315000 -1.004142
v -0.494142 6.329142 -0.990000
v 0.480000 6.265000 -0.950000
v 0.500000 6.285000 -0.950000
v 0.480000 6.285000 -0.930000
v 0.494142 6.270858 -0.950000
v 0.491547 6.273453 -0.938453
v 0.494142 6.285000 -0.935858
v 0.480000 6.270858 -0.935858
v 0.480000 6.335000 -0.950000
v 0.480000 6.315000 -0.930000
v 0.500000 6.315000 -0.950000
v 0.480000 6.329142 -0.935858
v 0.491547 6.326547 -0.938453
v 0.494142 6.315000 -0.935858
v 0.494142 6.329142 -0.950000
v 0.480000 6.265000 -0.990000
v 0.480000 6.285000 -1.010000
v 0.500000 6.285000 -0.990000
v 0.480000 6.270858 -1.004142
v 0.491547 6.273453 -1.001547
v 0.494142 6.285000 -1.004142
v 0.494142 6.270858 -0.990000
v 0.480000 6.335000 -0.990000
v 0.500000 6.315000 -0.990000
v 0.480000 6.315000 -1.010000
v 0.494142 6.329142 -0.990000
v 0.491547 6.326547 -1.001547
v 0.494142 6.315000 -1.004142
v 0.480000 6.329142 -1.004142
v 0.630000 2.900000 -0.980000
v 0.630000 2.940000 -0.940000
v 0.590000 2.940000 -0.980000
v 0.630000 2.905344 -0.960026
v 0.610026 2.905344 -0.980000
v 0.610871 2.910535 -0.960872
v 0.610026 2.940000 -0.945344
v 0.630000 2.920027 -0.945344
v 0.610872 2.920872 -0.950535
v 0.595344 2.920027 -0.980000
v 0.595344 2.940000 -0.960026
v 0.600535 2.920872 -0.960872
v 0.630000 3.460000 -0.940000
v 0.630000 3.500000 -0.980000
v 0.590000 3.460000 -0.980000
v 0.630000 3.479974 -0.945344
v 0.610026 3.460000 -0.945344
v 0.610871 3.479129 -0.950535
v 0.610026 3.494656 -0.980000
v 0.630000 3.494656 -0.960026
v 0.610872 3.489465 -0.960872
v 0.595344 3.460000 -0.960026
v 0.595344 3.479974 -0.980000
v 0.600535 3.479129 -0.960872
v 0.630000 2.900000 -1.020000
v 0.590000 2.940000 -1.020000
v 0.630000 2.940000 -1.060000
v 0.610026 2.905344 -1.020000
v 0.630000 2.905344 -1.039974
v 0.610872 2.910535 -1.039129
v 0.595344 2.940000 -1.039974
v 0.595344 2.920027 -1.020000
v 0.600535 2.920872 -1.039129
v 0.630000 2.920027 -1.054656
v 0.610026 2.940000 -1.054656
v 0.610871 2.920872 -1.049465
v 0.630000 3.500000 -1.020000
v 0.630000 3.460000 -1.060000
v 0.590000 3.460000 -1.020000
v 0.630000 3.494656 -1.039974
v 0.610026 3.494656 -1.020000
v 0.610871 3.489465 -1.039129
v 0.610026 3.460000 -1.054656
v 0.630000 3.479974 -1.054656
v 0.610872 3.479129 -1.049465
v 0.595344 3.479974 -1.020000
v 0.595344 3.460000 -1.039974
v 0.600535 3.479129 -1.039129
v 0.670000 2.900000 -0.980000
v 0.710000 2.940000 -0.980000
v 0.670000 2.940000 -0.940000
v 0.689974 2.905344 -0.980000
v 0.670000 2.905344 -0.960026
v 0.689128 2.910535 -0.960872
v 0.704656 2.940000 -0.960026
v 0.704656 2.920027 -0.980000
v 0.699465 2.920872 -0.960872
v 0.670000 2.920027 -0.945344
v 0.689974 2.940000 -0.945344
v 0.689128 2.920872 -0.950535
v 0.670000 3.500000 -0.980000
v 0.670000 3.460000 -0.940000
v 0.710000 3.460000 -0.980000
v 0.670000 3.494656 -0.960026
v 0.689974 3.494656 -0.980000
v 0.689128 3.489465 -0.960872
v 0.689974 3.460000 -0.945344
v 0.670000 3.479974 -0.945344
v 0.689128 3.479129 -0.950535
v 0.704656 3.479974 -0.980000
v 0.704656 3.460000 -0.960026
v 0.699465 3.479129 -0.960872
v 0.670000 2.900000 -1.020000
v 0.670000 2.940000 -1.060000
v 0.710000 2.940000 -1.020000
v 0.670000 2.905344 -1.039974
v 0.689974 2.905344 -1.020000
v 0.689128 2.910535 -1.039129
v 0.689974 2.940000 -1.054656
v 0.670000 2.920027 -1.054656
v 0.689128 2.920872 -1.049465
v 0.704656 2.920027 -1.020000
v 0.704656 2.940000 -1.039974
v 0.699465 2.920872 -1.039129
v 0.670000 3.500000 -1.020000
v 0.710000 3.460000 -1.020000
v 0.670000 3.460000 -1.060000
v 0.689974 3.494656 -1.020000
v 0.670000 3.494656 -1.039974
v 0.689128 3.489465 -1.039129
v 0.704656 3.460000 -1.039974
v 0.704656 3.479974 -1.020000
v 0.699465 3.479129 -1.039129
v 0.670000 3.479974 -1.054656
v 0.689974 3.460000 -1.054656
v 0.689128 3.479129 -1.049465
v -0.240000 4.550000 -0.960000
v -0.240000 4.560000 -0.950000
v -0.250000 4.560000 -0.960000
v -0.240000 4.552929 -0.952929
v -0.245774 4.554227 -0.954227
v -0.247071 4.560000 -0.952929
v -0.247071 4.552929 -0.960000
v -0.240000 4.840000 -0.950000
v -0.240000 4.850000 -0.960000
v -0.250000 4.840000 -0.960000
v -0.240000 4.847070 -0.952929
v -0.245774 4.845773 -0.954227
v -0.247071 4.847070 -0.960000
v -0.247071 4.839999 -0.952929
v -0.240000 4.550000 -0.980000
v -0.250000 4.560000 -0.980000
v -0.240000 4.560000 -0.990000
v -0.247071 4.552929 -0.980000
v -0.245774 4.554227 -0.985774
v -0.247071 4.560000 -0.987071
v -0.240000 4.552929 -0.987071
v -0.240000 4.850000 -0.980000
v -0.240000 4.840000 -0.990000
v -0.250000 4.840000 -0.980000
v -0.240000 4.847070 -0.987071
v -0.245774 4.845773 -0.985774
v -0.247071 4.839999 -0.987071
v -0.247071 4.847070 -0.980000
v 0.240000 4.550000 -0.960000
v 0.250000 4.560000 -0.960000
v 0.240000 4.560000 -0.950000
v 0.247071 4.552929 -0.960000
v 0.245774 4.554227 -0.954227
v 0.247071 4.560000 -0.952929
v 0.240000 4.552929 -0.952929
v 0.240000 4.850000 -0.960000
v 0.240000 4.840000 -0.950000
v 0.250000 4.840000 -0.960000
v 0.240000 4.847070 -0.952929
v 0.245774 4.845773 -0.954227
v 0.247071 4.839999 -0.952929
v 0.247071 4.847070 -0.960000
v 0.240000 4.550000 -0.980000
v 0.240000 4.560000 -0.990000
v 0.250000 4.560000 -0.980000
v 0.240000 4.552929 -0.987071
v 0.245774 4.554227 -0.985774
v 0.247071 4.560000 -0.987071
v 0.247071 4.552929 -0.980000
v 0.240000 4.850000 -0.980000
v 0.250000 4.840000 -0.980000
v 0.240000 4.840000 -0.990000
v 0.247071 4.847070 -0.980000
v 0.245774 4.845773 -0.985774
v 0.247071 4.839999 -0.987071
v 0.240000 4.847070 -0.987071
v -0.870000 0.950000 -0.950000
v -0.879549 0.950000 -0.979389
v -0.904549 0.950000 -0.997553
v -0.935451 0.950000 -0.997553
v -0.960451 0.950000 -0.979389
v -0.970000 0.950000 -0.950000
v -0.960451 0.950000 -0.920611
v -0.935451 0.950000 -0.902447
v -0.904549 0.950000 -0.902447
v -0.879549 0.950000 -0.920611
v -0.870000 1.450000 -0.950000
v -0.879549 1.450000 -0.979389
v -0.904549 1.450000 -0.997553
v -0.935451 1.450000 -0.997553
v -0.960451 1.450000 -0.979389
v -0.970000 1.450000 -0.950000
v -0.960451 1.450000 -0.920611
v -0.935451 1.450000 -0.902447
v -0.904549 1.450000 -0.902447
v -0.879549 1.450000 -0.920611
v -0.870000 5.350000 -0.950000
v -0.879549 5.350000 -0.979389
v -0.904549 5.350000 -0.997553
v -0.935451 5.350000 -0.997553
v -0.960451 5.350000 -0.979389
v -0.970000 5.350000 -0.950000
v -0.960451 5.350000 -0.920611
v -0.935451 5.350000 -0.902447
v -0.904549 5.350000 -0.902447
v -0.879549 5.350000 -0.920611
v -0.870000 5.850000 -0.950000
v -0.879549 5.850000 -0.979389
v -0.904549 5.850000 -0.997553
v -0.935451 5.850000 -0.997553
v -0.960451 5.850000 -0.979389
v -0.970000 5.850000 -0.950000
v -0.960451 5.850000 -0.920611
v -0.935451 5.850000 -0.902447
v -0.904549 5.850000 -0.902447
v -0.879549 5.850000 -0.920611
vn -0.1794 -0.9673 0.1794
vn -0.3251 -0.8881 0.3251
vn -0.3791 -0.9152 0.1369
vn -0.1794 -0.1794 0.9673
vn -0.3251 -0.3251 0.8881
vn -0.1369 -0.3791 0.9152
vn -0.9673 -0.1794 0.1794
vn -0.8881 -0.3251 0.3251
vn -0.9152 -0.1369 0.3791
vn -0.1794 0.1794 0.9673
vn -0.3251 0.3251 0.8881
vn -0.3791 0.1369 0.9152
vn -0.1794 0.9673 0.1794
vn -0.3251 0.8881 0.3251
vn -0.1369 0.9152 0.3791
vn -0.9673 0.1794 0.1794
vn -0.8881 0.3251 0.3251
vn -0.9152 0.3791 0.1369
vn -0.1794 -0.9673 -0.1794
vn -0.3251 -0.8881 -0.3251
vn -0.1369 -0.9152 -0.3791
vn -0.9673 -0.1794 -0.1794
vn -0.8881 -0.3251 -0.3251
vn -0.9152 -0.3791 -0.1369
vn -0.1794 -0.1794 -0.9673
vn -0.3251 -0.3251 -0.8881
vn -0.3791 -0.1369 -0.9152
vn -0.1794 0.9673 -0.1794
vn -0.3251 0.8881 -0.3251
vn -0.3791 0.9152 -0.1369
vn -0.1794 0.1794 -0.9673
vn -0.3251 0.3251 -0.8881
vn -0.1369 0.3791 -0.9152
vn -0.9673 0.1794 -0.1794
vn -0.8881 0.3251 -0.3251
vn -0.9152 0.1369 -0.3791
vn 0.1794 -0.9673 0.1794
vn 0.3251 -0.8881 0.3251
vn 0.1369 -0.9152 0.3791
vn 0.9673 -0.1794 0.1794
vn 0.8881 -0.3251 0.3251
vn 0.9152 -0.3791 0.1369
vn 0.1794 -0.1794 0.9673
vn 0.3251 -0.3251 0.8881
vn 0.3791 -0.1369 0.9152
vn 0.1794 0.9673 0.1794
vn 0.3251 0.8881 0.3251
vn 0.3791 0.9152 0.1369
vn 0.1794 0.1794 0.9673
vn 0.3251 0.3251 0.8881
vn 0.1369 0.3791 0.9152
vn 0.9673 0.1794 0.1794
vn 0.8881 0.3251 0.3251
vn 0.9152 0.1369 0.3791
vn 0.1794 -0.9673 -0.1794
vn 0.3251 -0.8881 -0.3251
vn 0.3791 -0.9152 -0.1369
vn 0.1794 -0.1794 -0.9673
vn 0.3251 -0.3251 -0.8881
vn 0.1369 -0.3791 -0.9152
vn 0.9673 -0.1794 -0.1794
vn 0.8881 -0.3251 -0.3251
vn 0.9152 -0.1369 -0.3791
vn 0.1794 0.9673 -0.1794
vn 0.3251 0.8881 -0.3251
vn 0.1369 0.9152 -0.3791
vn 0.9673 0.1794 -0.1794
vn 0.8881 0.3251 -0.3251
vn 0.9152 0.3791 -0.1369
vn 0.1794 0.1794 -0.9673
vn 0.3251 0.3251 -0.8881
vn 0.3791 0.1369 -0.9152
vn -0.3791 -0.9152 -0.1369
vn -0.9152 -0.3791 0.1369
vn -0.3791 -0.1369 0.9152
vn -0.9152 0.1369 0.3791
vn -0.3791 0.9152 0.1369
vn -0.9152 0.3791 -0.1369
vn -0.3791 0.1369 -0.9152
vn -0.9152 -0.1369 -0.3791
vn 0.1369 -0.9152 -0.3791
vn -0.1369 -0.3791 -0.9152
vn -0.1369 0.9152 -0.3791
vn 0.1369 0.3791 -0.9152
vn 0.9152 0.1369 -0.3791
vn 0.3791 -0.9152 0.1369
vn 0.9152 -0.3791 -0.1369
vn 0.3791 0.9152 -0.1369
vn 0.9152 0.3791 0.1369
vn 0.3791 0.1369 0.9152
vn 0.9152 -0.1369 0.3791
vn -0.1369 -0.9152 0.3791
vn 0.1369 -0.3791 0.9152
vn 0.1369 0.9152 0.3791
vn -0.1369 0.3791 0.9152
vn 0.3250 -0.3251 0.8881
vn 0.3250 -0.3251 -0.8881
vn 0.3791 -0.1369 -0.9152
vn 0.1368 -0.3791 0.9152
vn -0.3791 -0.9152 0.1368
vn -0.1368 -0.3791 0.9152
vn -0.3791 0.9152 -0.1368
vn -0.1368 0.3791 -0.9152
vn 0.3791 0.9152 0.1368
vn 0.1368 0.3791 0.9152
vn 0.3791 -0.9152 -0.1368
vn 0.1368 -0.3791 -0.9152
vn -0.3791 -0.9152 -0.1368
vn -0.3791 0.9152 0.1368
vn -0.1368 -0.3791 -0.9152
vn 0.1368 0.3791 -0.9152
vn 0.3791 -0.9152 0.1368
vn 0.3791 0.9152 -0.1368
vn -0.1368 0.3791 0.9152
vn -0.3250 -0.3251 -0.8881
vn -0.3250 0.3251 -0.8881
vn 0.3250 0.3251 -0.8881
vn -0.3251 -0.8881 0.3250
vn -0.3250 0.3251 0.8881
vn -0.3251 0.8881 0.3250
vn -0.3251 -0.8881 -0.3250
vn -0.3251 0.8881 -0.3250
vn 0.3251 -0.8881 0.3250
vn 0.3251 0.8881 0.3250
vn 0.3250 0.3251 0.8881
vn 0.3251 -0.8881 -0.3250
vn 0.3251 0.8881 -0.3250
vn -0.3250 -0.3251 0.8881
vn -0.1368 0.9152 0.3791
vn 0.1368 -0.9152 0.3791
vn -0.1369 0.9152 -0.3790
vn -0.1368 -0.9152 0.3791
vn 0.1368 0.9152 0.3790
vn -0.1216 -0.8623 0.4916
vn -0.4916 -0.8623 0.1216
vn -0.1280 -0.9835 0.1280
vn -0.4488 -0.4488 0.7727
vn -0.4488 -0.7727 0.4488
vn -0.4916 -0.1216 0.8623
vn -0.1216 -0.4916 0.8623
vn -0.1280 -0.1280 0.9835
vn -0.8623 -0.1216 0.4916
vn -0.8623 -0.4916 0.1216
vn -0.9835 -0.1280 0.1280
vn -0.7727 -0.4489 0.4488
vn -0.1216 0.4916 0.8623
vn -0.4916 0.1216 0.8623
vn -0.1280 0.1280 0.9835
vn -0.4488 0.7727 0.4488
vn -0.4488 0.4489 0.7727
vn -0.4916 0.8623 0.1216
vn -0.1216 0.8623 0.4916
vn -0.1280 0.9835 0.1280
vn -0.8623 0.4916 0.1216
vn -0.8623 0.1216 0.4916
vn -0.9835 0.1280 0.1280
vn -0.7727 0.4489 0.4488
vn -0.4916 -0.8623 -0.1216
vn -0.1216 -0.8623 -0.4916
vn -0.1280 -0.9835 -0.1280
vn -0.8623 -0.4916 -0.1216
vn -0.4489 -0.7727 -0.4488
vn -0.8623 -0.1216 -0.4916
vn -0.9835 -0.1280 -0.1280
vn -0.4488 -0.4488 -0.7727
vn -0.7727 -0.4488 -0.4488
vn -0.1216 -0.4916 -0.8623
vn -0.4916 -0.1216 -0.8623
vn -0.1280 -0.1280 -0.9835
vn -0.1216 0.8623 -0.4916
vn -0.4916 0.8623 -0.1216
vn -0.1280 0.9835 -0.1280
vn -0.4488 0.4488 -0.7727
vn -0.4488 0.7727 -0.4489
vn -0.4916 0.1216 -0.8623
vn -0.1216 0.4916 -0.8623
vn -0.1280 0.1280 -0.9835
vn -0.8623 0.1216 -0.4916
vn -0.8623 0.4916 -0.1216
vn -0.9835 0.1280 -0.1280
vn -0.7727 0.4489 -0.4488
vn 0.4916 -0.8623 0.1216
vn 0.1216 -0.8623 0.4916
vn 0.1280 -0.9835 0.1280
vn 0.8623 -0.4916 0.1216
vn 0.4488 -0.7727 0.4488
vn 0.8623 -0.1216 0.4916
vn 0.9835 -0.1280 0.1280
vn 0.4916 -0.1216 0.8623
vn 0.7727 -0.4488 0.4488
vn 0.1216 -0.4916 0.8623
vn 0.1280 -0.1280 0.9835
vn 0.4488 -0.4488 0.7727
vn 0.1216 0.8623 0.4916
vn 0.4916 0.8623 0.1216
vn 0.1280 0.9835 0.1280
vn 0.4488 0.4488 0.7727
vn 0.4488 0.7727 0.4488
vn 0.4916 0.1216 0.8623
vn 0.1216 0.4916 0.8623
vn 0.1280 0.1280 0.9835
vn 0.8623 0.1216 0.4916
vn 0.8623 0.4916 0.1216
vn 0.9835 0.1280 0.1280
vn 0.7727 0.4488 0.4488
vn 0.1216 -0.8623 -0.4916
vn 0.4916 -0.8623 -0.1216
vn 0.1280 -0.9835 -0.1280
vn 0.4488 -0.4488 -0.7727
vn 0.4489 -0.7727 -0.4488
vn 0.4916 -0.1216 -0.8623
vn 0.1216 -0.4916 -0.8623
vn 0.1280 -0.1280 -0.9835
vn 0.8623 -0.1216 -0.4916
vn 0.8623 -0.4916 -0.1216
vn 0.9835 -0.1280 -0.1280
vn 0.7727 -0.4488 -0.4488
vn 0.4916 0.8623 -0.1216
vn 0.1216 0.8623 -0.4916
vn 0.1280 0.9835 -0.1280
vn 0.7727 0.4488 -0.4488
vn 0.4488 0.7727 -0.4488
vn 0.8623 0.1216 -0.4916
vn 0.8623 0.4916 -0.1216
vn 0.9835 0.1280 -0.1280
vn 0.4916 0.1216 -0.8623
vn 0.1216 0.4916 -0.8623
vn 0.1280 0.1280 -0.9835
vn 0.4488 0.4489 -0.7727
vn -0.3251 -0.8880 0.3251
vn -0.3792 -0.9152 0.1369
vn -0.3791 0.1368 0.9152
vn -0.3251 0.8880 0.3251
vn -0.3251 -0.8880 -0.3251
vn -0.9152 -0.3791 -0.1368
vn -0.3791 -0.1368 -0.9152
vn -0.3251 0.8880 -0.3251
vn -0.3792 0.9151 -0.1369
vn 0.3251 -0.8880 0.3251
vn 0.9152 -0.3791 0.1368
vn 0.3791 -0.1368 0.9152
vn 0.3251 0.8880 0.3251
vn 0.3792 0.9151 0.1369
vn 0.3251 -0.8880 -0.3251
vn 0.3792 -0.9152 -0.1369
vn 0.9152 -0.1368 -0.3791
vn 0.3251 0.8880 -0.3251
vn 0.3791 0.1368 -0.9152
vn -0.3792 -0.9152 -0.1369
vn -0.3791 -0.1368 0.9152
vn -0.3792 0.9151 0.1369
vn -0.3791 0.1368 -0.9152
vn -0.9152 -0.1368 -0.3791
vn 0.1369 -0.9151 -0.3792
vn 0.3791 -0.1368 -0.9152
vn 0.3792 -0.9152 0.1369
vn 0.3792 0.9151 -0.1369
vn 0.3791 0.1368 0.9152
vn -0.1369 -0.9151 0.3792
vn 0.9511 -0.0000 -0.3090
vn 0.5878 -0.0000 -0.8090
vn -0.0000 -0.0000 -1.0000
vn -0.5878 -0.0000 -0.8090
vn -0.9511 -0.0000 -0.3090
vn -0.9511 -0.0000 0.3090
vn -0.5878 -0.0000 0.8090
vn -0.0000 -0.0000 1.0000
vn 0.5878 -0.0000 0.8090
vn 0.9511 -0.0000 0.3090
vn -0.0000 -1.0000 -0.0000
vn -0.0000 1.0000 -0.0000
vt 0.820903 0.622100
vt 0.819174 0.620185
vt 0.820903 0.619866
vt 0.198497 0.637640
vt 0.200227 0.639369
vt 0.198497 0.639758
vt 0.595013 0.629910
vt 0.593284 0.631414
vt 0.592895 0.629769
vt 0.198497 0.004596
vt 0.200227 0.002867
vt 0.200616 0.004596
vt 0.811401 0.812981
vt 0.813131 0.814711
vt 0.811401 0.815099
vt 0.595013 0.005035
vt 0.593284 0.003125
vt 0.595013 0.002804
vt 0.994641 0.622100
vt 0.996370 0.620185
vt 0.996759 0.621955
vt 0.768751 0.629910
vt 0.770480 0.631414
vt 0.768751 0.631860
vt 0.208565 0.637640
vt 0.206835 0.639369
vt 0.206447 0.637640
vt 0.811401 0.639244
vt 0.813131 0.637514
vt 0.813520 0.639244
vt 0.208565 0.004596
vt 0.206835 0.002867
vt 0.208565 0.002478
vt 0.768751 0.005035
vt 0.770480 0.003125
vt 0.770869 0.004894
vt 0.820903 0.813155
vt 0.819174 0.814652
vt 0.818785 0.813010
vt 0.585512 0.637640
vt 0.587241 0.639369
vt 0.585512 0.639758
vt 0.004790 0.637640
vt 0.003061 0.639369
vt 0.002672 0.637640
vt 0.617694 0.812981
vt 0.615965 0.814711
vt 0.615576 0.812981
vt 0.004790 0.004596
vt 0.003061 0.002867
vt 0.004790 0.002478
vt 0.585512 0.004596
vt 0.587241 0.002867
vt 0.587630 0.004596
vt 0.994641 0.813155
vt 0.996370 0.814652
vt 0.994641 0.815099
vt 0.402272 0.637640
vt 0.404002 0.639369
vt 0.402272 0.639758
vt 0.411774 0.637640
vt 0.410045 0.639369
vt 0.409656 0.637640
vt 0.617694 0.639244
vt 0.615965 0.637514
vt 0.617694 0.637125
vt 0.411774 0.004596
vt 0.410045 0.002867
vt 0.411774 0.002478
vt 0.402272 0.004596
vt 0.404002 0.002867
vt 0.404390 0.004596
vt 0.994641 0.619866
vt 0.595013 0.631860
vt 0.200616 0.637640
vt 0.592895 0.004894
vt 0.813520 0.812981
vt 0.768751 0.002804
vt 0.206447 0.004596
vt 0.770869 0.629769
vt 0.996759 0.813010
vt 0.208565 0.639758
vt 0.811401 0.637125
vt 0.402272 0.002478
vt 0.409656 0.004596
vt 0.820903 0.815099
vt 0.411774 0.639758
vt 0.615576 0.639244
vt 0.585512 0.002478
vt 0.002672 0.004596
vt 0.587630 0.637640
vt 0.818785 0.621955
vt 0.004790 0.639758
vt 0.617694 0.815099
vt 0.198497 0.002478
vt 0.812545 0.989734
vt 0.811906 0.990311
vt 0.811800 0.989734
vt 0.198592 0.846969
vt 0.198015 0.846393
vt 0.198592 0.846263
vt 0.171476 0.872438
vt 0.172052 0.871936
vt 0.172182 0.872485
vt 0.198592 0.864942
vt 0.198015 0.865518
vt 0.197886 0.864942
vt 0.804915 0.988155
vt 0.805492 0.988731
vt 0.804915 0.988861
vt 0.171476 0.890179
vt 0.172052 0.890815
vt 0.171476 0.890922
vt 0.812545 0.821988
vt 0.811906 0.821411
vt 0.812496 0.821282
vt 0.003729 0.872438
vt 0.003153 0.871936
vt 0.003729 0.871788
vt 0.192011 0.846969
vt 0.192588 0.846393
vt 0.192717 0.846969
vt 0.804915 0.820408
vt 0.805492 0.819831
vt 0.805621 0.820408
vt 0.192011 0.864942
vt 0.192588 0.865518
vt 0.192011 0.865648
vt 0.003729 0.890179
vt 0.003153 0.890815
vt 0.003023 0.890225
vt 0.997690 0.989734
vt 0.998189 0.990311
vt 0.997642 0.990440
vt 0.393903 0.865925
vt 0.393326 0.865348
vt 0.393903 0.865219
vt 0.386308 0.846969
vt 0.386885 0.846393
vt 0.387014 0.846969
vt 0.617199 0.988155
vt 0.616622 0.988731
vt 0.616493 0.988155
vt 0.386308 0.864942
vt 0.386885 0.865518
vt 0.386308 0.865648
vt 0.393903 0.883898
vt 0.393326 0.884474
vt 0.393197 0.883898
vt 0.997690 0.821988
vt 0.998189 0.821411
vt 0.998339 0.821988
vt 0.004295 0.846969
vt 0.003718 0.846393
vt 0.004295 0.846263
vt 0.561649 0.865925
vt 0.562226 0.865348
vt 0.562355 0.865925
vt 0.617199 0.820408
vt 0.616622 0.819831
vt 0.617199 0.819702
vt 0.561649 0.883898
vt 0.562226 0.884474
vt 0.561649 0.884604
vt 0.004295 0.864942
vt 0.003718 0.865518
vt 0.003589 0.864942
vt 0.811800 0.821988
vt 0.197886 0.846969
vt 0.172182 0.890225
vt 0.805621 0.988155
vt 0.003729 0.890922
vt 0.192717 0.864942
vt 0.003023 0.872485
vt 0.997642 0.821282
vt 0.192011 0.846263
vt 0.804915 0.819702
vt 0.004295 0.865648
vt 0.562355 0.883898
vt 0.003589 0.846969
vt 0.998339 0.989734
vt 0.616493 0.820408
vt 0.393903 0.884604
vt 0.387014 0.864942
vt 0.393197 0.865925
vt 0.812496 0.990440
vt 0.386308 0.846263
vt 0.617199 0.988861
vt 0.198592 0.865648
vt 0.393395 0.857423
vt 0.391672 0.858980
vt 0.391385 0.857423
vt 0.607838 0.646754
vt 0.609395 0.645198
vt 0.609745 0.646754
vt 0.600091 0.840047
vt 0.601445 0.841603
vt 0.599965 0.841953
vt 0.004150 0.646754
vt 0.002594 0.645198
vt 0.004150 0.644848
vt 0.569927 0.847945
vt 0.571483 0.849502
vt 0.569927 0.849852
vt 0.004193 0.840047
vt 0.002474 0.841603
vt 0.002185 0.840047
vt 0.393395 0.856824
vt 0.391672 0.855268
vt 0.393265 0.854918
vt 0.600091 0.839448
vt 0.601445 0.837891
vt 0.601847 0.839448
vt 0.776286 0.612577
vt 0.774729 0.614134
vt 0.774379 0.612577
vt 0.569927 0.847346
vt 0.571483 0.845790
vt 0.571833 0.847346
vt 0.776286 0.008889
vt 0.774729 0.007333
vt 0.776286 0.006983
vt 0.004193 0.839448
vt 0.002474 0.837891
vt 0.004067 0.837541
vt 0.565344 0.857423
vt 0.566691 0.858980
vt 0.565214 0.859329
vt 0.607838 0.829970
vt 0.609395 0.828413
vt 0.609745 0.829970
vt 0.607838 0.821091
vt 0.609395 0.822648
vt 0.607838 0.822997
vt 0.395590 0.847945
vt 0.394034 0.849502
vt 0.393684 0.847945
vt 0.004150 0.821091
vt 0.002594 0.822648
vt 0.002244 0.821091
vt 0.004150 0.829970
vt 0.002594 0.828413
vt 0.004150 0.828064
vt 0.565344 0.856824
vt 0.566691 0.855268
vt 0.567094 0.856824
vt 0.950622 0.612577
vt 0.952179 0.614134
vt 0.950622 0.614484
vt 0.607838 0.830569
vt 0.609395 0.832126
vt 0.607838 0.832475
vt 0.395590 0.847346
vt 0.394034 0.845790
vt 0.395590 0.845440
vt 0.004150 0.830569
vt 0.002594 0.832126
vt 0.002244 0.830569
vt 0.950622 0.008889
vt 0.952179 0.007333
vt 0.952529 0.008889
vt 0.391385 0.856824
vt 0.601847 0.840047
vt 0.607838 0.644848
vt 0.004067 0.841953
vt 0.571833 0.847945
vt 0.002185 0.839448
vt 0.774379 0.008889
vt 0.599965 0.837541
vt 0.565214 0.854918
vt 0.776286 0.614484
vt 0.569927 0.845440
vt 0.950622 0.006983
vt 0.004150 0.832475
vt 0.952529 0.612577
vt 0.567094 0.857423
vt 0.609745 0.830569
vt 0.393684 0.847346
vt 0.002244 0.829970
vt 0.004150 0.822997
vt 0.607838 0.828064
vt 0.393265 0.859330
vt 0.609745 0.821091
vt 0.395590 0.849852
vt 0.002244 0.646754
vt 0.003679 0.924263
vt 0.002403 0.925416
vt 0.002190 0.924263
vt 0.212344 0.911789
vt 0.211191 0.910636
vt 0.212344 0.910377
vt 0.409409 0.946378
vt 0.410412 0.947531
vt 0.409315 0.947790
vt 0.212344 0.914785
vt 0.211191 0.915938
vt 0.210932 0.914785
vt 0.379284 0.876873
vt 0.380436 0.878026
vt 0.379284 0.878285
vt 0.406452 0.946378
vt 0.405179 0.947531
vt 0.404965 0.946378
vt 0.003679 0.920269
vt 0.002403 0.919116
vt 0.003583 0.918857
vt 0.409409 0.942384
vt 0.410412 0.941231
vt 0.410709 0.942384
vt 0.412456 0.918108
vt 0.413609 0.916955
vt 0.413868 0.918108
vt 0.379284 0.872879
vt 0.380436 0.871726
vt 0.380696 0.872879
vt 0.412456 0.921103
vt 0.413609 0.922256
vt 0.412456 0.922515
vt 0.406452 0.942384
vt 0.405179 0.941231
vt 0.406358 0.940972
vt 0.098222 0.924263
vt 0.099220 0.925416
vt 0.098125 0.925675
vt 0.300301 0.936065
vt 0.301454 0.934912
vt 0.301713 0.936065
vt 0.308199 0.911789
vt 0.309352 0.910636
vt 0.309611 0.911789
vt 0.283428 0.876873
vt 0.282275 0.878026
vt 0.282016 0.876873
vt 0.308199 0.914785
vt 0.309352 0.915938
vt 0.308199 0.916197
vt 0.297306 0.936065
vt 0.296153 0.934912
vt 0.297306 0.934653
vt 0.098222 0.920269
vt 0.099220 0.919116
vt 0.099518 0.920269
vt 0.316601 0.918108
vt 0.315448 0.916955
vt 0.316601 0.916696
vt 0.300301 0.940059
vt 0.301454 0.941212
vt 0.300301 0.941471
vt 0.283428 0.872879
vt 0.282275 0.871726
vt 0.283428 0.871467
vt 0.297306 0.940059
vt 0.296153 0.941212
vt 0.295894 0.940059
vt 0.316601 0.921103
vt 0.315448 0.922256
vt 0.315189 0.921103
vt 0.002190 0.920269
vt 0.210932 0.911789
vt 0.406358 0.947790
vt 0.380696 0.876873
vt 0.404965 0.942384
vt 0.413868 0.921103
vt 0.409315 0.940972
vt 0.098125 0.918857
vt 0.412456 0.916696
vt 0.379284 0.871467
vt 0.316601 0.922515
vt 0.297306 0.941471
vt 0.315189 0.918108
vt 0.099518 0.924263
vt 0.301713 0.940059
vt 0.282016 0.872879
vt 0.309611 0.914785
vt 0.300301 0.934653
vt 0.003583 0.925675
vt 0.308199 0.910377
vt 0.283428 0.878285
vt 0.212344 0.916197
vt 0.420707 0.921103
vt 0.419430 0.922256
vt 0.419217 0.921103
vt 0.491942 0.892833
vt 0.490789 0.891681
vt 0.491942 0.891421
vt 0.202475 0.940059
vt 0.203478 0.941212
vt 0.202381 0.941471
vt 0.491942 0.895829
vt 0.490789 0.896982
vt 0.490530 0.895829
vt 0.275027 0.889510
vt 0.276180 0.890663
vt 0.275027 0.890922
vt 0.199518 0.940059
vt 0.198245 0.941212
vt 0.198030 0.940059
vt 0.420707 0.917109
vt 0.419430 0.915956
vt 0.420610 0.915697
vt 0.202475 0.936065
vt 0.203478 0.934912
vt 0.203775 0.936065
vt 0.104424 0.895993
vt 0.105577 0.894840
vt 0.105837 0.895993
vt 0.275027 0.885516
vt 0.276180 0.884363
vt 0.276439 0.885516
vt 0.104424 0.898988
vt 0.105577 0.900141
vt 0.104424 0.900400
vt 0.199518 0.936065
vt 0.198245 0.934912
vt 0.199424 0.934653
vt 0.515249 0.921103
vt 0.516247 0.922256
vt 0.515153 0.922515
vt 0.813687 0.626454
vt 0.814840 0.625301
vt 0.815099 0.626454
vt 0.587797 0.892833
vt 0.588950 0.891681
vt 0.589209 0.892833
vt 0.179171 0.889510
vt 0.178018 0.890663
vt 0.177759 0.889510
vt 0.587797 0.895829
vt 0.588950 0.896982
vt 0.587797 0.897241
vt 0.810692 0.626454
vt 0.809539 0.625301
vt 0.810692 0.625042
vt 0.515249 0.917109
vt 0.516247 0.915956
vt 0.516545 0.917109
vt 0.008569 0.895993
vt 0.007416 0.894840
vt 0.008569 0.894581
vt 0.813687 0.630448
vt 0.814840 0.631601
vt 0.813687 0.631860
vt 0.179171 0.885516
vt 0.178018 0.884363
vt 0.179171 0.884104
vt 0.810692 0.630448
vt 0.809539 0.631601
vt 0.809280 0.630448
vt 0.008569 0.898988
vt 0.007416 0.900141
vt 0.007157 0.898988
vt 0.419217 0.917109
vt 0.490530 0.892833
vt 0.199424 0.941471
vt 0.276439 0.889510
vt 0.198030 0.936065
vt 0.105837 0.898988
vt 0.202381 0.934653
vt 0.515153 0.915697
vt 0.104424 0.894581
vt 0.275027 0.884104
vt 0.008569 0.900400
vt 0.810692 0.631860
vt 0.007157 0.895993
vt 0.516545 0.921103
vt 0.815099 0.630448
vt 0.177759 0.885516
vt 0.589209 0.895829
vt 0.813687 0.625042
vt 0.420610 0.922515
vt 0.587797 0.891421
vt 0.179171 0.890922
vt 0.491942 0.897241
vt 0.106356 0.927422
vt 0.105080 0.928575
vt 0.104867 0.927422
vt 0.112826 0.899152
vt 0.111673 0.897999
vt 0.112826 0.897740
vt 0.387294 0.946378
vt 0.388297 0.947531
vt 0.387200 0.947790
vt 0.112826 0.902148
vt 0.111673 0.903300
vt 0.111414 0.902148
vt 0.379284 0.889510
vt 0.380436 0.890663
vt 0.379284 0.890922
vt 0.384337 0.946378
vt 0.383064 0.947531
vt 0.382849 0.946378
vt 0.106356 0.923428
vt 0.105080 0.922275
vt 0.106260 0.922016
vt 0.387294 0.942384
vt 0.388297 0.941231
vt 0.388594 0.942384
vt 0.312938 0.899152
vt 0.314091 0.897999
vt 0.314350 0.899152
vt 0.379284 0.885516
vt 0.380436 0.884363
vt 0.380696 0.885516
vt 0.312938 0.902148
vt 0.314091 0.903301
vt 0.312938 0.903560
vt 0.384337 0.942384
vt 0.383064 0.941231
vt 0.384243 0.940972
vt 0.200899 0.927422
vt 0.201897 0.928575
vt 0.200802 0.928834
vt 0.572001 0.866561
vt 0.573154 0.865408
vt 0.573413 0.866561
vt 0.208681 0.899152
vt 0.209834 0.897999
vt 0.210093 0.899152
vt 0.283428 0.889510
vt 0.282275 0.890663
vt 0.282016 0.889510
vt 0.208681 0.902148
vt 0.209834 0.903300
vt 0.208681 0.903560
vt 0.569005 0.866561
vt 0.567852 0.865408
vt 0.569005 0.865148
vt 0.200899 0.923428
vt 0.201897 0.922275
vt 0.202195 0.923428
vt 0.217083 0.899152
vt 0.215930 0.897999
vt 0.217083 0.897740
vt 0.572001 0.870555
vt 0.573154 0.871707
vt 0.572001 0.871967
vt 0.283428 0.885516
vt 0.282275 0.884363
vt 0.283428 0.884104
vt 0.569005 0.870555
vt 0.567852 0.871707
vt 0.567593 0.870555
vt 0.217083 0.902148
vt 0.215930 0.903301
vt 0.215671 0.902148
vt 0.104867 0.923428
vt 0.111414 0.899152
vt 0.384243 0.947790
vt 0.380696 0.889510
vt 0.382849 0.942384
vt 0.314350 0.902148
vt 0.387200 0.940972
vt 0.200802 0.922016
vt 0.312938 0.897740
vt 0.379284 0.884104
vt 0.217083 0.903560
vt 0.569005 0.871967
vt 0.215671 0.899152
vt 0.202195 0.927422
vt 0.573413 0.870555
vt 0.282016 0.885516
vt 0.210093 0.902148
vt 0.572001 0.865148
vt 0.106260 0.928834
vt 0.208681 0.897740
vt 0.283428 0.890922
vt 0.112826 0.903560
vt 0.209034 0.927422
vt 0.207757 0.928575
vt 0.207544 0.927422
vt 0.321340 0.905471
vt 0.320187 0.904318
vt 0.321340 0.904059
vt 0.376236 0.946378
vt 0.377239 0.947531
vt 0.376142 0.947790
vt 0.321340 0.908466
vt 0.320187 0.909619
vt 0.319928 0.908466
vt 0.483540 0.895829
vt 0.484693 0.896982
vt 0.483540 0.897241
vt 0.373279 0.946378
vt 0.372006 0.947531
vt 0.371792 0.946378
vt 0.209034 0.923428
vt 0.207757 0.922275
vt 0.208937 0.922016
vt 0.376236 0.942384
vt 0.377239 0.941231
vt 0.377536 0.942384
vt 0.521452 0.905471
vt 0.522605 0.904318
vt 0.522864 0.905471
vt 0.483540 0.891835
vt 0.484693 0.890682
vt 0.484952 0.891835
vt 0.521452 0.908466
vt 0.522605 0.909619
vt 0.521452 0.909878
vt 0.373279 0.942384
vt 0.372006 0.941231
vt 0.373186 0.940972
vt 0.303576 0.927422
vt 0.304574 0.928575
vt 0.303480 0.928834
vt 0.572001 0.879198
vt 0.573154 0.878045
vt 0.573413 0.879198
vt 0.417195 0.905471
vt 0.418348 0.904318
vt 0.418607 0.905471
vt 0.387685 0.895829
vt 0.386532 0.896982
vt 0.386273 0.895829
vt 0.417195 0.908466
vt 0.418348 0.909619
vt 0.417195 0.909878
vt 0.569005 0.879198
vt 0.567852 0.878045
vt 0.569005 0.877786
vt 0.303576 0.923428
vt 0.304574 0.922275
vt 0.304872 0.923428
vt 0.425597 0.905471
vt 0.424444 0.904318
vt 0.425597 0.904059
vt 0.572001 0.883192
vt 0.573154 0.884345
vt 0.572001 0.884604
vt 0.387685 0.891835
vt 0.386532 0.890682
vt 0.387685 0.890423
vt 0.569005 0.883192
vt 0.567852 0.884345
vt 0.567593 0.883192
vt 0.425597 0.908466
vt 0.424444 0.909619
vt 0.424185 0.908466
vt 0.207544 0.923428
vt 0.319928 0.905471
vt 0.373186 0.947790
vt 0.484952 0.895829
vt 0.371792 0.942384
vt 0.522864 0.908466
vt 0.376142 0.940972
vt 0.303480 0.922016
vt 0.521452 0.904059
vt 0.483540 0.890423
vt 0.425597 0.909878
vt 0.569005 0.884604
vt 0.424185 0.905471
vt 0.304872 0.927422
vt 0.573413 0.883192
vt 0.386273 0.891835
vt 0.418607 0.908466
vt 0.572001 0.877786
vt 0.208937 0.928834
vt 0.417195 0.904059
vt 0.387685 0.897241
vt 0.321340 0.909878
vt 0.311711 0.933740
vt 0.310434 0.934893
vt 0.310222 0.933740
vt 0.003830 0.908630
vt 0.002677 0.907477
vt 0.003830 0.907218
vt 0.398351 0.946378
vt 0.399354 0.947531
vt 0.398257 0.947790
vt 0.003830 0.911625
vt 0.002677 0.912778
vt 0.002418 0.911625
vt 0.275027 0.876873
vt 0.276180 0.878026
vt 0.275027 0.878285
vt 0.395394 0.946378
vt 0.394121 0.947531
vt 0.393907 0.946378
vt 0.311711 0.929747
vt 0.310434 0.928594
vt 0.311614 0.928334
vt 0.398351 0.942384
vt 0.399354 0.941231
vt 0.399651 0.942384
vt 0.203942 0.911789
vt 0.205095 0.910636
vt 0.205354 0.911789
vt 0.275027 0.872879
vt 0.276180 0.871726
vt 0.276439 0.872879
vt 0.203942 0.914785
vt 0.205095 0.915938
vt 0.203942 0.916197
vt 0.395394 0.942384
vt 0.394121 0.941231
vt 0.395301 0.940972
vt 0.406253 0.933740
vt 0.407251 0.934893
vt 0.406157 0.935152
vt 0.597275 0.882357
vt 0.598428 0.881204
vt 0.598687 0.882357
vt 0.099686 0.908630
vt 0.100839 0.907477
vt 0.101098 0.908630
vt 0.179171 0.876873
vt 0.178018 0.878026
vt 0.177759 0.876873
vt 0.099686 0.911625
vt 0.100838 0.912778
vt 0.099686 0.913037
vt 0.594280 0.882357
vt 0.593127 0.881204
vt 0.594280 0.880945
vt 0.406253 0.929747
vt 0.407251 0.928594
vt 0.407550 0.929747
vt 0.108087 0.911789
vt 0.106934 0.910636
vt 0.108087 0.910377
vt 0.597275 0.886351
vt 0.598428 0.887504
vt 0.597275 0.887763
vt 0.179171 0.872879
vt 0.178018 0.871726
vt 0.179171 0.871467
vt 0.594280 0.886351
vt 0.593127 0.887504
vt 0.592868 0.886351
vt 0.108087 0.914785
vt 0.106934 0.915938
vt 0.106675 0.914785
vt 0.310222 0.929747
vt 0.002418 0.908630
vt 0.395301 0.947790
vt 0.276439 0.876873
vt 0.393907 0.942384
vt 0.205354 0.914785
vt 0.398257 0.940972
vt 0.406157 0.928334
vt 0.203942 0.910377
vt 0.275027 0.871467
vt 0.108087 0.916197
vt 0.594280 0.887763
vt 0.106675 0.911789
vt 0.407550 0.933740
vt 0.598687 0.886351
vt 0.177759 0.872879
vt 0.101098 0.911625
vt 0.597275 0.880945
vt 0.311614 0.935152
vt 0.099686 0.907218
vt 0.179171 0.878285
vt 0.003830 0.913037
vt 0.783011 0.619252
vt 0.784978 0.621246
vt 0.782923 0.621246
vt 0.785150 0.618304
vt 0.784980 0.619336
vt 0.576271 0.919385
vt 0.578265 0.921380
vt 0.576271 0.921380
vt 0.576271 0.917919
vt 0.578181 0.919470
vt 0.470736 0.934851
vt 0.468767 0.936846
vt 0.468852 0.934851
vt 0.786168 0.619336
vt 0.786665 0.621246
vt 0.522355 0.921380
vt 0.524350 0.919385
vt 0.524350 0.921380
vt 0.795008 0.619366
vt 0.793098 0.620916
vt 0.793098 0.619884
vt 0.793013 0.622826
vt 0.795008 0.620832
vt 0.795008 0.622826
vt 0.415547 0.934851
vt 0.414363 0.936761
vt 0.413865 0.934851
vt 0.417515 0.936846
vt 0.417601 0.934851
vt 0.415382 0.937794
vt 0.415547 0.936761
vt 0.784978 0.625240
vt 0.783011 0.627235
vt 0.782923 0.625240
vt 0.786666 0.625240
vt 0.784980 0.627150
vt 0.468767 0.928863
vt 0.470736 0.930857
vt 0.468852 0.930857
vt 0.582590 0.913037
vt 0.584500 0.911487
vt 0.584500 0.912519
vt 0.584584 0.909577
vt 0.582590 0.911571
vt 0.582590 0.909577
vt 0.785150 0.628182
vt 0.783253 0.628701
vt 0.786168 0.627150
vt 0.795008 0.628814
vt 0.793013 0.626820
vt 0.795008 0.626820
vt 0.793098 0.629762
vt 0.793098 0.628730
vt 0.530668 0.911571
vt 0.528674 0.909577
vt 0.530668 0.909577
vt 0.417515 0.928863
vt 0.415382 0.927915
vt 0.417281 0.927397
vt 0.415547 0.930857
vt 0.417601 0.930857
vt 0.413865 0.930857
vt 0.415547 0.928948
vt 0.414363 0.928948
vt 0.777104 0.621246
vt 0.779071 0.619252
vt 0.778983 0.621246
vt 0.609389 0.902094
vt 0.611271 0.903095
vt 0.609347 0.903560
vt 0.611439 0.900157
vt 0.609445 0.900101
vt 0.612904 0.900198
vt 0.611300 0.902064
vt 0.578265 0.925374
vt 0.576271 0.927368
vt 0.576271 0.925374
vt 0.579213 0.927284
vt 0.578181 0.927284
vt 0.612332 0.902093
vt 0.799002 0.620832
vt 0.800996 0.622826
vt 0.799002 0.622826
vt 0.800912 0.619884
vt 0.800912 0.620916
vt 0.524350 0.927368
vt 0.522355 0.925374
vt 0.524350 0.925374
vt 0.524350 0.928834
vt 0.522440 0.927284
vt 0.610967 0.846206
vt 0.612904 0.848256
vt 0.610910 0.848200
vt 0.802462 0.622826
vt 0.801944 0.620916
vt 0.779071 0.627235
vt 0.777104 0.625240
vt 0.778983 0.625240
vt 0.586050 0.905583
vt 0.584500 0.903673
vt 0.585532 0.903673
vt 0.582590 0.903589
vt 0.584584 0.905583
vt 0.582590 0.905583
vt 0.582590 0.902123
vt 0.605396 0.901981
vt 0.603459 0.899932
vt 0.605453 0.899988
vt 0.603460 0.902875
vt 0.603490 0.901843
vt 0.584500 0.902641
vt 0.800996 0.626820
vt 0.799002 0.628814
vt 0.799002 0.626820
vt 0.801944 0.628730
vt 0.800912 0.628730
vt 0.604925 0.848031
vt 0.606974 0.846093
vt 0.606918 0.848087
vt 0.603459 0.847989
vt 0.605063 0.846124
vt 0.528674 0.905583
vt 0.530668 0.903589
vt 0.530668 0.905583
vt 0.800912 0.629762
vt 0.799002 0.630280
vt 0.530668 0.913037
vt 0.586050 0.909577
vt 0.795008 0.630280
vt 0.530668 0.902123
vt 0.605355 0.903447
vt 0.802462 0.626820
vt 0.579731 0.925374
vt 0.579731 0.921380
vt 0.799002 0.619366
vt 0.957724 0.065815
vt 0.957148 0.065177
vt 0.957724 0.065071
vt 0.058783 0.934923
vt 0.058206 0.934346
vt 0.058783 0.934217
vt 0.589666 0.874476
vt 0.589089 0.874977
vt 0.588960 0.874429
vt 0.058783 0.962880
vt 0.058206 0.963457
vt 0.058077 0.962880
vt 0.957724 0.057741
vt 0.957148 0.058317
vt 0.957018 0.057741
vt 0.589666 0.846879
vt 0.589089 0.846242
vt 0.589666 0.846135
vt 0.959721 0.065815
vt 0.960298 0.065177
vt 0.960427 0.065767
vt 0.591663 0.874476
vt 0.592239 0.874977
vt 0.591663 0.875126
vt 0.051422 0.931763
vt 0.051999 0.931187
vt 0.052128 0.931763
vt 0.959721 0.057741
vt 0.960298 0.058317
vt 0.959721 0.058447
vt 0.051422 0.959721
vt 0.051999 0.960298
vt 0.051422 0.960427
vt 0.591663 0.846879
vt 0.592239 0.846242
vt 0.592369 0.846832
vt 0.957724 0.113087
vt 0.957148 0.113586
vt 0.957018 0.113038
vt 0.582185 0.877579
vt 0.582761 0.878156
vt 0.582185 0.878285
vt 0.106710 0.934923
vt 0.107287 0.934346
vt 0.107416 0.934923
vt 0.957724 0.009813
vt 0.957148 0.009237
vt 0.957724 0.009107
vt 0.106710 0.962880
vt 0.107287 0.963457
vt 0.106710 0.963586
vt 0.582185 0.849622
vt 0.582761 0.849045
vt 0.582891 0.849622
vt 0.959721 0.113087
vt 0.960298 0.113586
vt 0.959721 0.113735
vt 0.003495 0.931763
vt 0.002918 0.931187
vt 0.003495 0.931057
vt 0.580188 0.877579
vt 0.579611 0.878156
vt 0.579482 0.877579
vt 0.959721 0.009813
vt 0.960298 0.009237
vt 0.960427 0.009813
vt 0.580188 0.849622
vt 0.579611 0.849045
vt 0.580188 0.848916
vt 0.003495 0.959721
vt 0.002918 0.960298
vt 0.002789 0.959721
vt 0.959721 0.065071
vt 0.589666 0.875126
vt 0.058077 0.934923
vt 0.588960 0.846832
vt 0.957724 0.058447
vt 0.591663 0.846135
vt 0.052128 0.959721
vt 0.592369 0.874429
vt 0.960427 0.113038
vt 0.960427 0.057741
vt 0.579482 0.849622
vt 0.002789 0.931763
vt 0.957724 0.113735
vt 0.580188 0.878285
vt 0.959721 0.009107
vt 0.582185 0.848916
vt 0.107416 0.962880
vt 0.957018 0.065767
vt 0.957018 0.009813
vt 0.364899 0.944631
vt 0.314975 0.941696
vt 0.364899 0.941696
vt 0.162704 0.935889
vt 0.112779 0.933393
vt 0.162704 0.933393
vt 0.162704 0.938975
vt 0.112779 0.935889
vt 0.162704 0.941471
vt 0.112779 0.938975
vt 0.594173 0.950949
vt 0.597108 0.901516
vt 0.597108 0.950796
vt 0.591239 0.950796
vt 0.594173 0.901669
vt 0.259063 0.935889
vt 0.209138 0.933393
vt 0.259062 0.933393
vt 0.259063 0.938975
vt 0.209138 0.935889
vt 0.259062 0.941471
vt 0.209138 0.938975
vt 0.314975 0.938762
vt 0.364899 0.938762
vt 0.281205 0.938216
vt 0.290655 0.938092
vt 0.288851 0.943647
vt 0.184801 0.938095
vt 0.194297 0.938095
vt 0.192483 0.943677
vt 0.162704 0.950949
vt 0.112779 0.948015
vt 0.162704 0.948015
vt 0.526023 0.935889
vt 0.476099 0.933393
vt 0.526023 0.933393
vt 0.526023 0.938975
vt 0.476099 0.935889
vt 0.526023 0.941471
vt 0.476099 0.938975
vt 0.603651 0.957268
vt 0.606585 0.907835
vt 0.606585 0.957115
vt 0.600716 0.957115
vt 0.603651 0.907987
vt 0.582891 0.939049
vt 0.532966 0.936553
vt 0.582891 0.936553
vt 0.582891 0.942134
vt 0.532966 0.939049
vt 0.582891 0.944631
vt 0.532966 0.942134
vt 0.112779 0.945080
vt 0.162704 0.945080
vt 0.270134 0.934735
vt 0.273054 0.943724
vt 0.267213 0.943647
vt 0.170584 0.938095
vt 0.180080 0.938095
vt 0.178266 0.943677
vt 0.404390 0.637640
vt 0.171476 0.871788
vt 0.561649 0.865219
vt 0.410709 0.946378
vt 0.295894 0.936065
vt 0.203775 0.940059
vt 0.809280 0.626454
vt 0.388594 0.946378
vt 0.567593 0.866561
vt 0.377536 0.946378
vt 0.567593 0.879198
vt 0.399651 0.946378
vt 0.592868 0.882357
vt 0.783253 0.617786
vt 0.578181 0.918438
vt 0.470569 0.936761
vt 0.522440 0.919470
vt 0.417281 0.938312
vt 0.470569 0.928948
vt 0.528758 0.911487
vt 0.777273 0.619336
vt 0.522440 0.928316
vt 0.612874 0.846344
vt 0.777273 0.627150
vt 0.604031 0.846095
vt 0.528758 0.903673
vt 0.524350 0.917919
vt 0.576271 0.928834
vt 0.058783 0.963586
vt 0.051422 0.931057
vt 0.582891 0.877579
vt 0.106710 0.934217
vt 0.003495 0.960427
vt 0.314975 0.944631
vt 0.112779 0.941471
vt 0.591239 0.901516
vt 0.209138 0.941471
vt 0.285930 0.944631
vt 0.283010 0.943724
vt 0.281205 0.941274
vt 0.283010 0.935718
vt 0.285930 0.934735
vt 0.288851 0.935642
vt 0.290655 0.941150
vt 0.189549 0.944630
vt 0.186614 0.943677
vt 0.184801 0.941181
vt 0.186614 0.935599
vt 0.189549 0.934646
vt 0.192483 0.935599
vt 0.194297 0.941181
vt 0.112779 0.950949
vt 0.476099 0.941471
vt 0.600716 0.907835
vt 0.532966 0.944631
vt 0.265408 0.941150
vt 0.265408 0.938092
vt 0.267213 0.935641
vt 0.273054 0.935718
vt 0.274859 0.938216
vt 0.274859 0.941274
vt 0.270134 0.944631
vt 0.175332 0.944631
vt 0.172398 0.943677
vt 0.170584 0.941181
vt 0.172397 0.935599
vt 0.175332 0.934646
vt 0.178266 0.935599
vt 0.180080 0.941181
s 1
f 1/1/1 5/2/2 7/3/3
f 2/4/4 5/5/5 4/6/6
f 3/7/7 5/8/8 6/9/9
f 8/10/10 12/11/11 14/12/12
f 9/13/13 12/14/14 11/15/15
f 10/16/16 12/17/17 13/18/18
f 15/19/19 19/20/20 21/21/21
f 16/22/22 19/23/23 18/24/24
f 17/25/25 19/26/26 20/27/27
f 22/28/28 26/29/29 28/30/30
f 23/31/31 26/32/32 25/33/33
f 24/34/34 26/35/35 27/36/36
f 29/37/37 33/38/38 35/39/39
f 30/40/40 33/41/41 32/42/42
f 31/43/43 33/44/44 34/45/45
f 36/46/46 40/47/47 42/48/48
f 37/49/49 40/50/50 39/51/51
f 38/52/52 40/53/53 41/54/54
f 43/55/55 47/56/56 49/57/57
f 44/58/58 47/59/59 46/60/60
f 45/61/61 47/62/62 48/63/63
f 50/64/64 54/65/65 56/66/66
f 51/67/67 54/68/68 53/69/69
f 52/70/70 54/71/71 55/72/72
f 1/1/1 18/73/73 15/19/19
f 7/74/74 16/22/22 18/24/24
f 8/10/10 6/75/75 2/4/4
f 14/76/76 3/7/7 6/9/9
f 22/28/28 13/77/77 9/13/13
f 28/78/78 10/16/16 13/18/18
f 17/25/25 27/79/79 23/31/31
f 20/80/80 24/34/34 27/36/36
f 15/19/19 46/81/81 43/55/55
f 21/82/82 44/58/58 46/60/60
f 50/64/64 25/83/83 22/28/28
f 56/84/84 23/31/31 25/33/33
f 45/61/61 55/85/85 51/67/67
f 55/72/72 44/58/58 52/70/70
f 43/55/55 32/86/86 29/37/37
f 49/87/87 30/40/40 32/42/42
f 36/46/46 53/88/88 50/64/64
f 42/89/89 51/67/67 53/69/69
f 31/43/43 41/90/90 37/49/49
f 34/91/91 38/52/52 41/54/54
f 29/37/37 4/92/92 1/1/1
f 35/93/93 2/4/4 4/6/6
f 9/13/13 39/94/94 36/46/46
f 11/95/95 37/49/49 39/51/51
f 43/55/55 1/1/1 15/19/19
f 10/16/16 16/22/22 3/7/7
f 37/49/49 2/4/4 31/43/43
f 22/28/28 36/46/46 50/64/64
f 23/31/31 44/58/58 17/25/25
f 51/67/67 30/40/40 45/61/61
f 57/96/1 61/97/2 63/98/3
f 58/99/4 61/100/5 60/101/6
f 59/102/7 61/103/8 62/104/9
f 64/105/10 68/106/11 70/107/12
f 65/108/13 68/109/14 67/110/15
f 66/111/16 68/112/17 69/113/18
f 71/114/19 75/115/20 77/116/21
f 72/117/22 75/118/23 74/119/24
f 73/120/25 75/121/26 76/122/27
f 78/123/28 82/124/29 84/125/30
f 79/126/31 82/127/32 81/128/33
f 80/129/34 82/130/35 83/131/36
f 85/132/37 89/133/38 91/134/39
f 86/135/40 89/136/41 88/137/42
f 87/138/43 89/139/96 90/140/45
f 92/141/46 96/142/47 98/143/48
f 93/144/49 96/145/50 95/146/51
f 94/147/52 96/148/53 97/149/54
f 99/150/55 103/151/56 105/152/57
f 100/153/58 103/154/97 102/155/60
f 101/156/61 103/157/62 104/158/63
f 106/159/64 110/160/65 112/161/66
f 107/162/67 110/163/68 109/164/69
f 108/165/70 110/166/71 111/167/72
f 57/96/1 74/168/73 71/114/19
f 74/119/24 59/102/7 72/117/22
f 64/105/10 62/169/75 58/99/4
f 70/170/76 59/102/7 62/104/9
f 78/123/28 69/171/77 65/108/13
f 84/172/78 66/111/16 69/113/18
f 73/120/25 83/173/79 79/126/31
f 76/174/80 80/129/34 83/131/36
f 99/150/55 77/116/21 102/175/81
f 77/176/82 100/153/58 102/155/60
f 106/159/64 81/177/83 78/123/28
f 112/178/84 79/126/31 81/128/33
f 101/156/61 111/179/85 107/162/67
f 104/180/98 108/165/70 111/167/72
f 99/150/55 88/181/86 85/132/37
f 88/137/42 101/156/61 86/135/40
f 106/159/64 98/143/48 109/182/88
f 98/183/89 107/162/67 109/164/69
f 87/138/43 97/184/90 93/144/49
f 90/185/91 94/147/52 97/149/54
f 57/96/1 91/134/39 60/186/92
f 91/187/99 58/99/4 60/101/6
f 65/108/13 95/188/94 92/141/46
f 67/189/95 93/144/49 95/146/51
f 99/150/55 57/96/1 71/114/19
f 59/102/7 80/129/34 72/117/22
f 93/144/49 58/99/4 87/138/43
f 78/123/28 92/141/46 106/159/64
f 79/126/31 100/153/58 73/120/25
f 107/162/67 86/135/40 101/156/61
f 113/190/1 117/191/2 119/192/3
f 114/193/4 117/194/5 116/195/6
f 115/196/7 117/197/8 118/198/9
f 120/199/10 124/200/11 126/201/12
f 121/202/13 124/203/14 123/204/15
f 122/205/16 124/206/17 125/207/18
f 127/208/19 131/209/20 133/210/21
f 128/211/22 131/212/23 130/213/24
f 129/214/25 131/215/26 132/216/27
f 134/217/28 138/218/29 140/219/30
f 135/220/31 138/221/32 137/222/33
f 136/223/34 138/224/35 139/225/36
f 141/226/37 145/227/38 147/228/39
f 142/229/40 145/230/41 144/231/42
f 143/232/43 145/233/44 146/234/45
f 148/235/46 152/236/47 154/237/48
f 149/238/49 152/239/50 151/240/51
f 150/241/52 152/242/53 153/243/54
f 155/244/55 159/245/56 161/246/57
f 156/247/58 159/248/59 158/249/60
f 157/250/61 159/251/62 160/252/63
f 162/253/64 166/254/65 168/255/66
f 163/256/67 166/257/68 165/258/69
f 164/259/70 166/260/71 167/261/72
f 113/190/1 130/262/73 127/208/19
f 119/263/74 128/211/22 130/213/24
f 120/199/10 118/264/75 114/193/4
f 126/265/76 115/196/7 118/198/9
f 134/217/28 125/266/77 121/202/13
f 140/267/78 122/205/16 125/207/18
f 129/214/25 139/268/79 135/220/31
f 132/269/80 136/223/34 139/225/36
f 127/208/19 158/270/81 155/244/55
f 133/271/82 156/247/58 158/249/60
f 162/253/64 137/272/83 134/217/28
f 168/273/84 135/220/31 137/222/33
f 157/250/61 167/274/85 163/256/67
f 160/275/98 164/259/70 167/261/72
f 155/244/55 144/276/86 141/226/37
f 161/277/87 142/229/40 144/231/42
f 148/235/46 165/278/88 162/253/64
f 154/279/89 163/256/67 165/258/69
f 143/232/43 153/280/90 149/238/49
f 146/281/91 150/241/52 153/243/54
f 141/226/37 116/282/92 113/190/1
f 147/283/93 114/193/4 116/195/6
f 121/202/13 151/284/94 148/235/46
f 123/285/95 149/238/49 151/240/51
f 155/244/55 113/190/1 127/208/19
f 122/205/16 128/211/22 115/196/7
f 149/238/49 114/193/4 143/232/43
f 134/217/28 148/235/46 162/253/64
f 135/220/31 156/247/58 129/214/25
f 163/256/67 142/229/40 157/250/61
f 169/286/1 173/287/2 175/288/100
f 170/289/4 173/290/5 172/291/101
f 171/292/7 173/293/8 174/294/9
f 176/295/10 180/296/11 182/297/12
f 177/298/13 180/299/14 179/300/15
f 178/301/16 180/302/17 181/303/18
f 183/304/19 187/305/20 189/306/21
f 184/307/22 187/308/23 186/309/24
f 185/310/25 187/311/26 188/312/27
f 190/313/28 194/314/29 196/315/102
f 191/316/31 194/317/32 193/318/103
f 192/319/34 194/320/35 195/321/36
f 197/322/37 201/323/38 203/324/39
f 198/325/40 201/326/41 200/327/42
f 199/328/43 201/329/44 202/330/45
f 204/331/46 208/332/47 210/333/104
f 205/334/49 208/335/50 207/336/105
f 206/337/52 208/338/53 209/339/54
f 211/340/55 215/341/56 217/342/106
f 212/343/58 215/344/59 214/345/107
f 213/346/61 215/347/62 216/348/63
f 218/349/64 222/350/65 224/351/66
f 219/352/67 222/353/68 221/354/69
f 220/355/70 222/356/71 223/357/72
f 169/286/1 186/358/108 183/304/19
f 186/309/24 171/292/7 184/307/22
f 176/295/10 174/359/75 170/289/4
f 182/360/76 171/292/7 174/294/9
f 177/298/13 196/315/102 181/361/109
f 196/362/78 178/301/16 181/303/18
f 185/310/25 195/363/79 191/316/31
f 188/364/80 192/319/34 195/321/36
f 183/304/19 214/365/81 211/340/55
f 189/366/110 212/343/58 214/345/107
f 218/349/64 193/367/83 190/313/28
f 224/368/111 191/316/31 193/318/103
f 213/346/61 223/369/85 219/352/67
f 216/370/98 220/355/70 223/357/72
f 197/322/37 217/342/106 200/371/112
f 217/372/87 198/325/40 200/327/42
f 204/331/46 221/373/113 218/349/64
f 221/354/69 206/337/52 219/352/67
f 199/328/43 209/374/90 205/334/49
f 202/375/91 206/337/52 209/339/54
f 197/322/37 172/376/92 169/286/1
f 203/377/99 170/289/4 172/291/101
f 177/298/13 207/378/94 204/331/46
f 179/379/114 205/334/49 207/336/105
f 211/340/55 169/286/1 183/304/19
f 178/301/16 184/307/22 171/292/7
f 205/334/49 170/289/4 199/328/43
f 190/313/28 204/331/46 218/349/64
f 191/316/31 212/343/58 185/310/25
f 219/352/67 198/325/40 213/346/61
f 225/380/1 229/381/2 231/382/3
f 226/383/4 229/384/5 228/385/6
f 227/386/7 229/387/8 230/388/9
f 232/389/10 236/390/11 238/391/12
f 233/392/13 236/393/14 235/394/15
f 234/395/16 236/396/17 237/397/18
f 239/398/19 243/399/20 245/400/21
f 240/401/22 243/402/23 242/403/24
f 241/404/25 243/405/115 244/406/27
f 246/407/28 250/408/29 252/409/30
f 247/410/31 250/411/116 249/412/103
f 248/413/34 250/414/35 251/415/36
f 253/416/37 257/417/38 259/418/39
f 254/419/40 257/420/41 256/421/42
f 255/422/43 257/423/44 258/424/45
f 260/425/46 264/426/47 266/427/48
f 261/428/49 264/429/50 263/430/51
f 262/431/52 264/432/53 265/433/54
f 267/434/55 271/435/56 273/436/57
f 268/437/58 271/438/97 270/439/107
f 269/440/61 271/441/62 272/442/63
f 274/443/64 278/444/65 280/445/66
f 275/446/67 278/447/68 277/448/69
f 276/449/70 278/450/117 279/451/72
f 225/380/1 242/452/73 239/398/19
f 242/403/24 227/386/7 240/401/22
f 232/389/10 230/453/75 226/383/4
f 238/454/76 227/386/7 230/388/9
f 233/392/13 252/409/30 237/455/77
f 252/456/78 234/395/16 237/397/18
f 241/404/25 251/457/79 247/410/31
f 244/458/80 248/413/34 251/415/36
f 239/398/19 270/459/81 267/434/55
f 245/460/110 268/437/58 270/439/107
f 274/443/64 249/461/83 246/407/28
f 280/462/111 247/410/31 249/412/103
f 269/440/61 279/463/85 275/446/67
f 272/464/98 276/449/70 279/451/72
f 253/416/37 273/436/57 256/465/86
f 273/466/87 254/419/40 256/421/42
f 260/425/46 277/467/88 274/443/64
f 277/448/69 262/431/52 275/446/67
f 255/422/43 265/468/90 261/428/49
f 258/469/91 262/431/52 265/433/54
f 253/416/37 228/470/92 225/380/1
f 259/471/93 226/383/4 228/385/6
f 233/392/13 263/472/94 260/425/46
f 235/473/95 261/428/49 263/430/51
f 267/434/55 225/380/1 239/398/19
f 234/395/16 240/401/22 227/386/7
f 261/428/49 226/383/4 255/422/43
f 246/407/28 260/425/46 274/443/64
f 247/410/31 268/437/58 241/404/25
f 275/446/67 254/419/40 269/440/61
f 281/474/1 285/475/118 287/476/100
f 282/477/4 285/478/5 284/479/6
f 283/480/7 285/481/8 286/482/9
f 288/483/10 292/484/119 294/485/12
f 289/486/13 292/487/120 291/488/15
f 290/489/16 292/490/17 293/491/18
f 295/492/19 299/493/121 301/494/21
f 296/495/22 299/496/23 298/497/24
f 297/498/25 299/499/26 300/500/27
f 302/501/28 306/502/122 308/503/102
f 303/504/31 306/505/116 305/506/103
f 304/507/34 306/508/35 307/509/36
f 309/510/37 313/511/123 315/512/39
f 310/513/40 313/514/41 312/515/42
f 311/516/43 313/517/44 314/518/45
f 316/519/46 320/520/124 322/521/104
f 317/522/49 320/523/125 319/524/51
f 318/525/52 320/526/53 321/527/54
f 323/528/55 327/529/126 329/530/106
f 324/531/58 327/532/59 326/533/107
f 325/534/61 327/535/62 328/536/63
f 330/537/64 334/538/127 336/539/66
f 331/540/67 334/541/68 333/542/69
f 332/543/70 334/544/117 335/545/72
f 281/474/1 298/546/108 295/492/19
f 298/497/24 283/480/7 296/495/22
f 288/483/10 286/547/75 282/477/4
f 294/548/76 283/480/7 286/482/9
f 289/486/13 308/503/102 293/549/109
f 308/550/78 290/489/16 293/491/18
f 297/498/25 307/551/79 303/504/31
f 300/552/80 304/507/34 307/509/36
f 295/492/19 326/553/81 323/528/55
f 301/554/110 324/531/58 326/533/107
f 330/537/64 305/555/83 302/501/28
f 336/556/111 303/504/31 305/506/103
f 325/534/61 335/557/85 331/540/67
f 328/558/98 332/543/70 335/545/72
f 309/510/37 329/530/106 312/559/112
f 329/560/87 310/513/40 312/515/42
f 316/519/46 333/561/113 330/537/64
f 333/542/69 318/525/52 331/540/67
f 311/516/43 321/562/90 317/522/49
f 314/563/91 318/525/52 321/527/54
f 309/510/37 284/564/92 281/474/1
f 315/565/93 282/477/4 284/479/6
f 289/486/13 319/566/94 316/519/46
f 291/567/95 317/522/49 319/524/51
f 323/528/55 281/474/1 295/492/19
f 290/489/16 296/495/22 283/480/7
f 317/522/49 282/477/4 311/516/43
f 302/501/28 316/519/46 330/537/64
f 303/504/31 324/531/58 297/498/25
f 331/540/67 310/513/40 325/534/61
f 337/568/1 341/569/118 343/570/100
f 338/571/4 341/572/128 340/573/6
f 339/574/7 341/575/8 342/576/9
f 344/577/10 348/578/11 350/579/12
f 345/580/13 348/581/120 347/582/15
f 346/583/16 348/584/17 349/585/18
f 351/586/19 355/587/121 357/588/21
f 352/589/22 355/590/23 354/591/24
f 353/592/25 355/593/115 356/594/27
f 358/595/28 362/596/122 364/597/102
f 359/598/31 362/599/32 361/600/103
f 360/601/34 362/602/35 363/603/36
f 365/604/37 369/605/123 371/606/39
f 366/607/40 369/608/41 368/609/42
f 367/610/43 369/611/96 370/612/45
f 372/613/46 376/614/124 378/615/104
f 373/616/49 376/617/50 375/618/51
f 374/619/52 376/620/53 377/621/54
f 379/622/55 383/623/126 385/624/106
f 380/625/58 383/626/97 382/627/107
f 381/628/61 383/629/62 384/630/63
f 386/631/64 390/632/127 392/633/66
f 387/634/67 390/635/68 389/636/69
f 388/637/70 390/638/71 391/639/72
f 337/568/1 354/640/108 351/586/19
f 354/591/24 339/574/7 352/589/22
f 344/577/10 342/641/75 338/571/4
f 350/642/76 339/574/7 342/576/9
f 345/580/13 364/597/102 349/643/109
f 364/644/78 346/583/16 349/585/18
f 353/592/25 363/645/79 359/598/31
f 356/646/80 360/601/34 363/603/36
f 351/586/19 382/647/81 379/622/55
f 357/648/110 380/625/58 382/627/107
f 386/631/64 361/649/83 358/595/28
f 392/650/111 359/598/31 361/600/103
f 381/628/61 391/651/85 387/634/67
f 384/652/98 388/637/70 391/639/72
f 365/604/37 385/624/106 368/653/112
f 385/654/87 366/607/40 368/609/42
f 372/613/46 389/655/113 386/631/64
f 389/636/69 374/619/52 387/634/67
f 367/610/43 377/656/90 373/616/49
f 370/657/91 374/619/52 377/621/54
f 365/604/37 340/658/92 337/568/1
f 371/659/93 338/571/4 340/573/6
f 345/580/13 375/660/94 372/613/46
f 347/661/95 373/616/49 375/618/51
f 379/622/55 337/568/1 351/586/19
f 346/583/16 352/589/22 339/574/7
f 373/616/49 338/571/4 367/610/43
f 358/595/28 372/613/46 386/631/64
f 359/598/31 380/625/58 353/592/25
f 387/634/67 366/607/40 381/628/61
f 393/662/1 397/663/2 399/664/3
f 394/665/4 397/666/5 396/667/6
f 395/668/7 397/669/8 398/670/9
f 400/671/10 404/672/11 406/673/12
f 401/674/13 404/675/14 403/676/129
f 402/677/16 404/678/17 405/679/18
f 407/680/19 411/681/20 413/682/21
f 408/683/22 411/684/23 410/685/24
f 409/686/25 411/687/115 412/688/27
f 414/689/28 418/690/29 420/691/30
f 415/692/31 418/693/32 417/694/103
f 416/695/34 418/696/35 419/697/36
f 421/698/37 425/699/38 427/700/130
f 422/701/40 425/702/41 424/703/42
f 423/704/43 425/705/44 426/706/45
f 428/707/46 432/708/47 434/709/48
f 429/710/49 432/711/50 431/712/51
f 430/713/52 432/714/53 433/715/54
f 435/716/55 439/717/56 441/718/57
f 436/719/58 439/720/97 438/721/107
f 437/722/61 439/723/62 440/724/63
f 442/725/64 446/726/65 448/727/66
f 443/728/67 446/729/68 445/730/69
f 444/731/70 446/732/71 447/733/72
f 393/662/1 410/734/73 407/680/19
f 410/685/24 395/668/7 408/683/22
f 400/671/10 398/735/75 394/665/4
f 406/736/76 395/668/7 398/670/9
f 401/674/13 420/691/30 405/737/77
f 420/738/78 402/677/16 405/679/18
f 409/686/25 419/739/79 415/692/31
f 412/740/80 416/695/34 419/697/36
f 407/680/19 438/741/81 435/716/55
f 413/742/110 436/719/58 438/721/107
f 442/725/64 417/743/131 414/689/28
f 448/744/111 415/692/31 417/694/103
f 437/722/61 447/745/85 443/728/67
f 440/746/98 444/731/70 447/733/72
f 421/698/37 441/718/57 424/747/86
f 441/748/87 422/701/40 424/703/42
f 428/707/46 445/749/88 442/725/64
f 445/730/69 430/713/52 443/728/67
f 423/704/43 433/750/90 429/710/49
f 426/751/91 430/713/52 433/715/54
f 421/698/37 396/752/132 393/662/1
f 427/753/93 394/665/4 396/667/6
f 401/674/13 431/754/133 428/707/46
f 403/755/95 429/710/49 431/712/51
f 435/716/55 393/662/1 407/680/19
f 402/677/16 408/683/22 395/668/7
f 429/710/49 394/665/4 423/704/43
f 414/689/28 428/707/46 442/725/64
f 415/692/31 436/719/58 409/686/25
f 443/728/67 422/701/40 437/722/61
f 452/756/134 453/757/135 449/758/136
f 452/756/134 457/759/137 454/760/138
f 455/761/139 456/762/140 450/763/141
f 459/764/142 457/765/137 455/761/139
f 458/766/143 459/767/142 451/768/144
f 453/757/135 460/769/145 458/770/143
f 454/760/138 457/759/137 460/769/145
f 464/771/146 465/772/147 461/773/148
f 464/774/146 469/775/149 466/776/150
f 467/777/151 468/778/152 462/779/153
f 471/780/154 469/781/149 467/782/151
f 470/783/155 471/780/154 463/784/156
f 470/783/155 466/785/150 472/786/157
f 466/785/150 469/781/149 472/786/157
f 476/787/158 477/788/159 473/789/160
f 480/790/161 478/791/162 476/787/158
f 479/792/163 480/793/161 474/794/164
f 479/795/163 484/796/165 481/797/166
f 482/798/167 483/799/168 475/800/169
f 477/788/159 484/801/165 482/802/167
f 478/791/162 481/803/166 484/801/165
f 488/804/170 489/805/171 485/806/172
f 488/804/170 493/807/173 490/808/174
f 491/809/175 492/810/176 486/811/177
f 495/812/178 493/813/173 491/814/175
f 494/815/179 495/812/178 487/816/180
f 489/817/171 496/818/181 494/815/179
f 490/819/174 493/813/173 496/818/181
f 500/820/182 501/821/183 497/822/184
f 504/823/185 502/824/186 500/825/182
f 503/826/187 504/823/185 498/827/188
f 507/828/189 505/829/190 503/826/187
f 506/830/191 507/831/189 499/832/192
f 506/830/191 502/833/186 508/834/193
f 502/824/186 505/829/190 508/835/193
f 512/836/194 513/837/195 509/838/196
f 512/836/194 517/839/197 514/840/198
f 515/841/199 516/842/200 510/843/201
f 519/844/202 517/845/197 515/841/199
f 518/846/203 519/847/202 511/848/204
f 518/849/203 514/840/198 520/850/205
f 514/840/198 517/839/197 520/850/205
f 524/851/206 525/852/207 521/853/208
f 524/854/206 529/855/209 526/856/210
f 527/857/211 528/858/212 522/859/213
f 531/860/214 529/855/209 527/857/211
f 530/861/215 531/862/214 523/863/216
f 530/861/215 526/864/210 532/865/217
f 526/856/210 529/855/209 532/866/217
f 536/867/218 537/868/219 533/869/220
f 536/867/218 541/870/221 538/871/222
f 539/872/223 540/873/224 534/874/225
f 543/875/226 541/876/221 539/872/223
f 542/877/227 543/878/226 535/879/228
f 537/868/219 544/880/229 542/881/227
f 538/871/222 541/870/221 544/880/229
f 449/758/136 476/787/158 473/789/160
f 453/757/135 480/790/161 476/787/158
f 458/766/143 474/794/164 480/793/161
f 461/773/148 455/761/139 450/763/141
f 465/772/147 459/764/142 455/761/139
f 459/767/142 463/784/156 451/768/144
f 485/806/172 467/777/151 462/779/153
f 489/817/171 471/780/154 467/782/151
f 494/815/179 463/784/156 471/780/154
f 486/811/177 483/799/168 491/809/175
f 483/799/168 495/882/178 491/809/175
f 479/792/163 487/816/180 495/812/178
f 473/789/160 524/851/206 521/853/208
f 477/883/159 528/858/212 524/854/206
f 482/798/167 522/859/213 528/858/212
f 485/806/172 537/868/219 488/804/170
f 537/868/219 492/884/176 488/804/170
f 542/877/227 486/811/177 492/810/176
f 534/874/225 531/862/214 539/872/223
f 531/860/214 543/878/226 539/885/223
f 527/857/211 535/879/228 543/878/226
f 521/853/208 500/820/182 497/822/184
f 525/886/207 504/823/185 500/825/182
f 530/861/215 498/827/188 504/823/185
f 509/838/196 536/867/218 533/869/220
f 513/837/195 540/887/224 536/867/218
f 518/846/203 534/874/225 540/873/224
f 510/843/201 507/831/189 515/841/199
f 507/831/189 519/844/202 515/841/199
f 503/826/187 511/848/204 519/847/202
f 449/758/136 501/821/183 452/756/134
f 501/888/183 456/762/140 452/889/134
f 506/830/191 450/763/141 456/762/140
f 462/779/153 512/836/194 509/838/196
f 468/778/152 516/890/200 512/836/194
f 464/771/146 510/843/201 516/842/200
f 521/853/208 449/758/136 473/789/160
f 463/784/156 474/794/164 451/768/144
f 510/843/201 450/763/141 499/832/192
f 485/806/172 509/838/196 533/869/220
f 486/811/177 522/859/213 475/800/169
f 534/874/225 498/827/188 523/863/216
f 545/891/1 549/892/230 551/893/231
f 546/894/4 549/895/5 548/896/6
f 547/897/7 549/898/8 550/899/9
f 552/900/10 556/901/11 558/902/232
f 553/903/13 556/904/233 555/905/15
f 554/906/16 556/907/17 557/908/18
f 559/909/19 563/910/234 565/911/21
f 560/912/22 563/913/23 562/914/235
f 561/915/25 563/916/115 564/917/236
f 566/918/28 570/919/237 572/920/238
f 567/921/31 570/922/116 569/923/103
f 568/924/34 570/925/35 571/926/36
f 573/927/37 577/928/239 579/929/39
f 574/930/40 577/931/41 576/932/240
f 575/933/43 577/934/44 578/935/241
f 580/936/46 584/937/242 586/938/243
f 581/939/49 584/940/50 583/941/105
f 582/942/52 584/943/53 585/944/54
f 587/945/55 591/946/244 593/947/245
f 588/948/58 591/949/97 590/950/60
f 589/951/61 591/952/62 592/953/246
f 594/954/64 598/955/247 600/956/66
f 595/957/67 598/958/68 597/959/69
f 596/960/70 598/961/117 599/962/248
f 545/891/1 562/963/249 559/909/19
f 551/964/74 560/912/22 562/914/235
f 552/900/10 550/965/250 546/894/4
f 558/966/76 547/897/7 550/899/9
f 566/918/28 557/967/251 553/903/13
f 572/968/78 554/906/16 557/908/18
f 561/915/25 571/969/252 567/921/31
f 564/970/253 568/924/34 571/926/36
f 559/909/19 590/971/254 587/945/55
f 590/950/60 561/915/25 588/948/58
f 594/954/64 569/972/83 566/918/28
f 569/923/103 596/960/70 567/921/31
f 595/957/67 592/953/246 599/973/85
f 592/974/255 596/960/70 599/962/248
f 587/945/55 576/975/256 573/927/37
f 593/976/87 574/930/40 576/932/240
f 580/936/46 597/977/257 594/954/64
f 586/978/89 595/957/67 597/959/69
f 581/939/49 578/935/241 585/979/258
f 585/944/54 574/930/40 582/942/52
f 573/927/37 548/980/259 545/891/1
f 548/896/6 575/933/43 546/894/4
f 553/903/13 583/981/94 580/936/46
f 583/941/105 552/900/10 581/939/49
f 587/945/55 545/891/1 559/909/19
f 554/906/16 560/912/22 547/897/7
f 581/939/49 546/894/4 575/933/43
f 566/918/28 580/936/46 594/954/64
f 567/921/31 588/948/58 561/915/25
f 589/951/61 582/942/52 574/930/40
f 602/982/260 611/983/260 601/984/260
f 603/985/261 612/986/261 602/987/261
f 604/988/262 613/989/262 603/985/262
f 605/990/263 614/991/263 604/988/263
f 606/992/264 615/993/264 605/994/264
f 607/995/265 616/996/265 606/992/265
f 608/997/266 617/998/266 607/999/266
f 609/1000/267 618/1001/267 608/997/267
f 610/1002/268 619/1003/268 609/1000/268
f 601/984/269 620/1004/269 610/1005/269
f 607/1006/270 603/1007/270 601/1008/270
f 614/1009/271 618/1010/271 620/1011/271
f 622/1012/260 631/1013/260 621/1014/260
f 623/1015/261 632/1016/261 622/1017/261
f 624/1018/262 633/1019/262 623/1015/262
f 625/1020/263 634/1021/263 624/1018/263
f 626/1022/264 635/1023/264 625/1024/264
f 627/1025/265 636/1026/265 626/1022/265
f 628/1027/266 637/1028/266 627/1029/266
f 629/1030/267 638/1031/267 628/1027/267
f 630/1032/268 639/1033/268 629/1030/268
f 621/1014/269 640/1034/269 630/1035/269
f 627/1036/270 623/1037/270 621/1038/270
f 634/1039/271 638/1040/271 640/1041/271
f 1/1/1 4/92/92 5/2/2
f 2/4/4 6/75/75 5/5/5
f 3/7/7 7/74/74 5/8/8
f 8/10/10 11/95/95 12/11/11
f 9/13/13 13/77/77 12/14/14
f 10/16/16 14/76/76 12/17/17
f 15/19/19 18/73/73 19/20/20
f 16/22/22 20/80/80 19/23/23
f 17/25/25 21/82/82 19/26/26
f 22/28/28 25/83/83 26/29/29
f 23/31/31 27/79/79 26/32/32
f 24/34/34 28/78/78 26/35/35
f 29/37/37 32/86/86 33/38/38
f 30/40/40 34/91/91 33/41/41
f 31/43/43 35/93/93 33/44/44
f 36/46/46 39/94/94 40/47/47
f 37/49/49 41/90/90 40/50/50
f 38/52/52 42/89/89 40/53/53
f 43/55/55 46/81/81 47/56/56
f 44/58/58 48/1042/98 47/59/59
f 45/61/61 49/87/87 47/62/62
f 50/64/64 53/88/88 54/65/65
f 51/67/67 55/85/85 54/68/68
f 52/70/70 56/84/84 54/71/71
f 1/1/1 7/3/3 18/73/73
f 7/74/74 3/7/7 16/22/22
f 8/10/10 14/12/12 6/75/75
f 14/76/76 10/16/16 3/7/7
f 22/28/28 28/30/30 13/77/77
f 28/78/78 24/34/34 10/16/16
f 17/25/25 20/27/27 27/79/79
f 20/80/80 16/22/22 24/34/34
f 15/19/19 21/21/21 46/81/81
f 21/82/82 17/25/25 44/58/58
f 50/64/64 56/66/66 25/83/83
f 56/84/84 52/70/70 23/31/31
f 45/61/61 48/63/63 55/85/85
f 55/72/72 48/1042/98 44/58/58
f 43/55/55 49/57/57 32/86/86
f 49/87/87 45/61/61 30/40/40
f 36/46/46 42/48/48 53/88/88
f 42/89/89 38/52/52 51/67/67
f 31/43/43 34/45/45 41/90/90
f 34/91/91 30/40/40 38/52/52
f 29/37/37 35/39/39 4/92/92
f 35/93/93 31/43/43 2/4/4
f 9/13/13 11/15/15 39/94/94
f 11/95/95 8/10/10 37/49/49
f 43/55/55 29/37/37 1/1/1
f 10/16/16 24/34/34 16/22/22
f 37/49/49 8/10/10 2/4/4
f 22/28/28 9/13/13 36/46/46
f 23/31/31 52/70/70 44/58/58
f 51/67/67 38/52/52 30/40/40
f 57/96/1 60/186/92 61/97/2
f 58/99/4 62/169/75 61/100/5
f 59/102/7 63/1043/74 61/103/8
f 64/105/10 67/189/95 68/106/11
f 65/108/13 69/171/77 68/109/14
f 66/111/16 70/170/76 68/112/17
f 71/114/19 74/168/73 75/115/20
f 72/117/22 76/174/80 75/118/23
f 73/120/25 77/176/82 75/121/26
f 78/123/28 81/177/83 82/124/29
f 79/126/31 83/173/79 82/127/32
f 80/129/34 84/172/78 82/130/35
f 85/132/37 88/181/86 89/133/38
f 86/135/40 90/185/91 89/136/41
f 87/138/43 91/187/99 89/139/96
f 92/141/46 95/188/94 96/142/47
f 93/144/49 97/184/90 96/145/50
f 94/147/52 98/183/89 96/148/53
f 99/150/55 102/175/81 103/151/56
f 100/153/58 104/180/98 103/154/97
f 101/156/61 105/1044/87 103/157/62
f 106/159/64 109/182/88 110/160/65
f 107/162/67 111/179/85 110/163/68
f 108/165/70 112/178/84 110/166/71
f 57/96/1 63/98/3 74/168/73
f 74/119/24 63/1043/74 59/102/7
f 64/105/10 70/107/12 62/169/75
f 70/170/76 66/111/16 59/102/7
f 78/123/28 84/125/30 69/171/77
f 84/172/78 80/129/34 66/111/16
f 73/120/25 76/122/27 83/173/79
f 76/174/80 72/117/22 80/129/34
f 99/150/55 71/114/19 77/116/21
f 77/176/82 73/120/25 100/153/58
f 106/159/64 112/161/66 81/177/83
f 112/178/84 108/165/70 79/126/31
f 101/156/61 104/158/63 111/179/85
f 104/180/98 100/153/58 108/165/70
f 99/150/55 105/152/57 88/181/86
f 88/137/42 105/1044/87 101/156/61
f 106/159/64 92/141/46 98/143/48
f 98/183/89 94/147/52 107/162/67
f 87/138/43 90/140/45 97/184/90
f 90/185/91 86/135/40 94/147/52
f 57/96/1 85/132/37 91/134/39
f 91/187/99 87/138/43 58/99/4
f 65/108/13 67/110/15 95/188/94
f 67/189/95 64/105/10 93/144/49
f 99/150/55 85/132/37 57/96/1
f 59/102/7 66/111/16 80/129/34
f 93/144/49 64/105/10 58/99/4
f 78/123/28 65/108/13 92/141/46
f 79/126/31 108/165/70 100/153/58
f 107/162/67 94/147/52 86/135/40
f 113/190/1 116/282/92 117/191/2
f 114/193/4 118/264/75 117/194/5
f 115/196/7 119/263/74 117/197/8
f 120/199/10 123/285/95 124/200/11
f 121/202/13 125/266/77 124/203/14
f 122/205/16 126/265/76 124/206/17
f 127/208/19 130/262/73 131/209/20
f 128/211/22 132/269/80 131/212/23
f 129/214/25 133/271/82 131/215/26
f 134/217/28 137/272/83 138/218/29
f 135/220/31 139/268/79 138/221/32
f 136/223/34 140/267/78 138/224/35
f 141/226/37 144/276/86 145/227/38
f 142/229/40 146/281/91 145/230/41
f 143/232/43 147/283/93 145/233/44
f 148/235/46 151/284/94 152/236/47
f 149/238/49 153/280/90 152/239/50
f 150/241/52 154/279/89 152/242/53
f 155/244/55 158/270/81 159/245/56
f 156/247/58 160/275/98 159/248/59
f 157/250/61 161/277/87 159/251/62
f 162/253/64 165/278/88 166/254/65
f 163/256/67 167/274/85 166/257/68
f 164/259/70 168/273/84 166/260/71
f 113/190/1 119/192/3 130/262/73
f 119/263/74 115/196/7 128/211/22
f 120/199/10 126/201/12 118/264/75
f 126/265/76 122/205/16 115/196/7
f 134/217/28 140/219/30 125/266/77
f 140/267/78 136/223/34 122/205/16
f 129/214/25 132/216/27 139/268/79
f 132/269/80 128/211/22 136/223/34
f 127/208/19 133/210/21 158/270/81
f 133/271/82 129/214/25 156/247/58
f 162/253/64 168/255/66 137/272/83
f 168/273/84 164/259/70 135/220/31
f 157/250/61 160/252/63 167/274/85
f 160/275/98 156/247/58 164/259/70
f 155/244/55 161/246/57 144/276/86
f 161/277/87 157/250/61 142/229/40
f 148/235/46 154/237/48 165/278/88
f 154/279/89 150/241/52 163/256/67
f 143/232/43 146/234/45 153/280/90
f 146/281/91 142/229/40 150/241/52
f 141/226/37 147/228/39 116/282/92
f 147/283/93 143/232/43 114/193/4
f 121/202/13 123/204/15 151/284/94
f 123/285/95 120/199/10 149/238/49
f 155/244/55 141/226/37 113/190/1
f 122/205/16 136/223/34 128/211/22
f 149/238/49 120/199/10 114/193/4
f 134/217/28 121/202/13 148/235/46
f 135/220/31 164/259/70 156/247/58
f 163/256/67 150/241/52 142/229/40
f 169/286/1 172/376/92 173/287/2
f 170/289/4 174/359/75 173/290/5
f 171/292/7 175/1045/74 173/293/8
f 176/295/10 179/379/114 180/296/11
f 177/298/13 181/361/109 180/299/14
f 178/301/16 182/360/76 180/302/17
f 183/304/19 186/358/108 187/305/20
f 184/307/22 188/364/80 187/308/23
f 185/310/25 189/366/110 187/311/26
f 190/313/28 193/367/83 194/314/29
f 191/316/31 195/363/79 194/317/32
f 192/319/34 196/362/78 194/320/35
f 197/322/37 200/371/112 201/323/38
f 198/325/40 202/375/91 201/326/41
f 199/328/43 203/377/99 201/329/44
f 204/331/46 207/378/94 208/332/47
f 205/334/49 209/374/90 208/335/50
f 206/337/52 210/1046/89 208/338/53
f 211/340/55 214/365/81 215/341/56
f 212/343/58 216/370/98 215/344/59
f 213/346/61 217/372/87 215/347/62
f 218/349/64 221/373/113 222/350/65
f 219/352/67 223/369/85 222/353/68
f 220/355/70 224/368/111 222/356/71
f 169/286/1 175/288/100 186/358/108
f 186/309/24 175/1045/74 171/292/7
f 176/295/10 182/297/12 174/359/75
f 182/360/76 178/301/16 171/292/7
f 177/298/13 190/313/28 196/315/102
f 196/362/78 192/319/34 178/301/16
f 185/310/25 188/312/27 195/363/79
f 188/364/80 184/307/22 192/319/34
f 183/304/19 189/306/21 214/365/81
f 189/366/110 185/310/25 212/343/58
f 218/349/64 224/351/66 193/367/83
f 224/368/111 220/355/70 191/316/31
f 213/346/61 216/348/63 223/369/85
f 216/370/98 212/343/58 220/355/70
f 197/322/37 211/340/55 217/342/106
f 217/372/87 213/346/61 198/325/40
f 204/331/46 210/333/104 221/373/113
f 221/354/69 210/1046/89 206/337/52
f 199/328/43 202/330/45 209/374/90
f 202/375/91 198/325/40 206/337/52
f 197/322/37 203/324/39 172/376/92
f 203/377/99 199/328/43 170/289/4
f 177/298/13 179/300/15 207/378/94
f 179/379/114 176/295/10 205/334/49
f 211/340/55 197/322/37 169/286/1
f 178/301/16 192/319/34 184/307/22
f 205/334/49 176/295/10 170/289/4
f 190/313/28 177/298/13 204/331/46
f 191/316/31 220/355/70 212/343/58
f 219/352/67 206/337/52 198/325/40
f 225/380/1 228/470/92 229/381/2
f 226/383/4 230/453/75 229/384/5
f 227/386/7 231/1047/74 229/387/8
f 232/389/10 235/473/95 236/390/11
f 233/392/13 237/455/77 236/393/14
f 234/395/16 238/454/76 236/396/17
f 239/398/19 242/452/73 243/399/20
f 240/401/22 244/458/80 243/402/23
f 241/404/25 245/460/110 243/405/115
f 246/407/28 249/461/83 250/408/29
f 247/410/31 251/457/79 250/411/116
f 248/413/34 252/456/78 250/414/35
f 253/416/37 256/465/86 257/417/38
f 254/419/40 258/469/91 257/420/41
f 255/422/43 259/471/93 257/423/44
f 260/425/46 263/472/94 264/426/47
f 261/428/49 265/468/90 264/429/50
f 262/431/52 266/1048/89 264/432/53
f 267/434/55 270/459/81 271/435/56
f 268/437/58 272/464/98 271/438/97
f 269/440/61 273/466/87 271/441/62
f 274/443/64 277/467/88 278/444/65
f 275/446/67 279/463/85 278/447/68
f 276/449/70 280/462/111 278/450/117
f 225/380/1 231/382/3 242/452/73
f 242/403/24 231/1047/74 227/386/7
f 232/389/10 238/391/12 230/453/75
f 238/454/76 234/395/16 227/386/7
f 233/392/13 246/407/28 252/409/30
f 252/456/78 248/413/34 234/395/16
f 241/404/25 244/406/27 251/457/79
f 244/458/80 240/401/22 248/413/34
f 239/398/19 245/400/21 270/459/81
f 245/460/110 241/404/25 268/437/58
f 274/443/64 280/445/66 249/461/83
f 280/462/111 276/449/70 247/410/31
f 269/440/61 272/442/63 279/463/85
f 272/464/98 268/437/58 276/449/70
f 253/416/37 267/434/55 273/436/57
f 273/466/87 269/440/61 254/419/40
f 260/425/46 266/427/48 277/467/88
f 277/448/69 266/1048/89 262/431/52
f 255/422/43 258/424/45 265/468/90
f 258/469/91 254/419/40 262/431/52
f 253/416/37 259/418/39 228/470/92
f 259/471/93 255/422/43 226/383/4
f 233/392/13 235/394/15 263/472/94
f 235/473/95 232/389/10 261/428/49
f 267/434/55 253/416/37 225/380/1
f 234/395/16 248/413/34 240/401/22
f 261/428/49 232/389/10 226/383/4
f 246/407/28 233/392/13 260/425/46
f 247/410/31 276/449/70 268/437/58
f 275/446/67 262/431/52 254/419/40
f 281/474/1 284/564/92 285/475/118
f 282/477/4 286/547/75 285/478/5
f 283/480/7 287/1049/74 285/481/8
f 288/483/10 291/567/95 292/484/119
f 289/486/13 293/549/109 292/487/120
f 290/489/16 294/548/76 292/490/17
f 295/492/19 298/546/108 299/493/121
f 296/495/22 300/552/80 299/496/23
f 297/498/25 301/554/110 299/499/26
f 302/501/28 305/555/83 306/502/122
f 303/504/31 307/551/79 306/505/116
f 304/507/34 308/550/78 306/508/35
f 309/510/37 312/559/112 313/511/123
f 310/513/40 314/563/91 313/514/41
f 311/516/43 315/565/93 313/517/44
f 316/519/46 319/566/94 320/520/124
f 317/522/49 321/562/90 320/523/125
f 318/525/52 322/1050/89 320/526/53
f 323/528/55 326/553/81 327/529/126
f 324/531/58 328/558/98 327/532/59
f 325/534/61 329/560/87 327/535/62
f 330/537/64 333/561/113 334/538/127
f 331/540/67 335/557/85 334/541/68
f 332/543/70 336/556/111 334/544/117
f 281/474/1 287/476/100 298/546/108
f 298/497/24 287/1049/74 283/480/7
f 288/483/10 294/485/12 286/547/75
f 294/548/76 290/489/16 283/480/7
f 289/486/13 302/501/28 308/503/102
f 308/550/78 304/507/34 290/489/16
f 297/498/25 300/500/27 307/551/79
f 300/552/80 296/495/22 304/507/34
f 295/492/19 301/494/21 326/553/81
f 301/554/110 297/498/25 324/531/58
f 330/537/64 336/539/66 305/555/83
f 336/556/111 332/543/70 303/504/31
f 325/534/61 328/536/63 335/557/85
f 328/558/98 324/531/58 332/543/70
f 309/510/37 323/528/55 329/530/106
f 329/560/87 325/534/61 310/513/40
f 316/519/46 322/521/104 333/561/113
f 333/542/69 322/1050/89 318/525/52
f 311/516/43 314/518/45 321/562/90
f 314/563/91 310/513/40 318/525/52
f 309/510/37 315/512/39 284/564/92
f 315/565/93 311/516/43 282/477/4
f 289/486/13 291/488/15 319/566/94
f 291/567/95 288/483/10 317/522/49
f 323/528/55 309/510/37 281/474/1
f 290/489/16 304/507/34 296/495/22
f 317/522/49 288/483/10 282/477/4
f 302/501/28 289/486/13 316/519/46
f 303/504/31 332/543/70 324/531/58
f 331/540/67 318/525/52 310/513/40
f 337/568/1 340/658/92 341/569/118
f 338/571/4 342/641/75 341/572/128
f 339/574/7 343/1051/74 341/575/8
f 344/577/10 347/661/95 348/578/11
f 345/580/13 349/643/109 348/581/120
f 346/583/16 350/642/76 348/584/17
f 351/586/19 354/640/108 355/587/121
f 352/589/22 356/646/80 355/590/23
f 353/592/25 357/648/110 355/593/115
f 358/595/28 361/649/83 362/596/122
f 359/598/31 363/645/79 362/599/32
f 360/601/34 364/644/78 362/602/35
f 365/604/37 368/653/112 369/605/123
f 366/607/40 370/657/91 369/608/41
f 367/610/43 371/659/93 369/611/96
f 372/613/46 375/660/94 376/614/124
f 373/616/49 377/656/90 376/617/50
f 374/619/52 378/1052/89 376/620/53
f 379/622/55 382/647/81 383/623/126
f 380/625/58 384/652/98 383/626/97
f 381/628/61 385/654/87 383/629/62
f 386/631/64 389/655/113 390/632/127
f 387/634/67 391/651/85 390/635/68
f 388/637/70 392/650/111 390/638/71
f 337/568/1 343/570/100 354/640/108
f 354/591/24 343/1051/74 339/574/7
f 344/577/10 350/579/12 342/641/75
f 350/642/76 346/583/16 339/574/7
f 345/580/13 358/595/28 364/597/102
f 364/644/78 360/601/34 346/583/16
f 353/592/25 356/594/27 363/645/79
f 356/646/80 352/589/22 360/601/34
f 351/586/19 357/588/21 382/647/81
f 357/648/110 353/592/25 380/625/58
f 386/631/64 392/633/66 361/649/83
f 392/650/111 388/637/70 359/598/31
f 381/628/61 384/630/63 391/651/85
f 384/652/98 380/625/58 388/637/70
f 365/604/37 379/622/55 385/624/106
f 385/654/87 381/628/61 366/607/40
f 372/613/46 378/615/104 389/655/113
f 389/636/69 378/1052/89 374/619/52
f 367/610/43 370/612/45 377/656/90
f 370/657/91 366/607/40 374/619/52
f 365/604/37 371/606/39 340/658/92
f 371/659/93 367/610/43 338/571/4
f 345/580/13 347/582/15 375/660/94
f 347/661/95 344/577/10 373/616/49
f 379/622/55 365/604/37 337/568/1
f 346/583/16 360/601/34 352/589/22
f 373/616/49 344/577/10 338/571/4
f 358/595/28 345/580/13 372/613/46
f 359/598/31 388/637/70 380/625/58
f 387/634/67 374/619/52 366/607/40
f 393/662/1 396/752/132 397/663/2
f 394/665/4 398/735/75 397/666/5
f 395/668/7 399/1053/74 397/669/8
f 400/671/10 403/755/95 404/672/11
f 401/674/13 405/737/77 404/675/14
f 402/677/16 406/736/76 404/678/17
f 407/680/19 410/734/73 411/681/20
f 408/683/22 412/740/80 411/684/23
f 409/686/25 413/742/110 411/687/115
f 414/689/28 417/743/131 418/690/29
f 415/692/31 419/739/79 418/693/32
f 416/695/34 420/738/78 418/696/35
f 421/698/37 424/747/86 425/699/38
f 422/701/40 426/751/91 425/702/41
f 423/704/43 427/753/93 425/705/44
f 428/707/46 431/754/133 432/708/47
f 429/710/49 433/750/90 432/711/50
f 430/713/52 434/1054/89 432/714/53
f 435/716/55 438/741/81 439/717/56
f 436/719/58 440/746/98 439/720/97
f 437/722/61 441/748/87 439/723/62
f 442/725/64 445/749/88 446/726/65
f 443/728/67 447/745/85 446/729/68
f 444/731/70 448/744/111 446/732/71
f 393/662/1 399/664/3 410/734/73
f 410/685/24 399/1053/74 395/668/7
f 400/671/10 406/673/12 398/735/75
f 406/736/76 402/677/16 395/668/7
f 401/674/13 414/689/28 420/691/30
f 420/738/78 416/695/34 402/677/16
f 409/686/25 412/688/27 419/739/79
f 412/740/80 408/683/22 416/695/34
f 407/680/19 413/682/21 438/741/81
f 413/742/110 409/686/25 436/719/58
f 442/725/64 448/727/66 417/743/131
f 448/744/111 444/731/70 415/692/31
f 437/722/61 440/724/63 447/745/85
f 440/746/98 436/719/58 444/731/70
f 421/698/37 435/716/55 441/718/57
f 441/748/87 437/722/61 422/701/40
f 428/707/46 434/709/48 445/749/88
f 445/730/69 434/1054/89 430/713/52
f 423/704/43 426/706/45 433/750/90
f 426/751/91 422/701/40 430/713/52
f 421/698/37 427/700/130 396/752/132
f 427/753/93 423/704/43 394/665/4
f 401/674/13 403/676/129 431/754/133
f 403/755/95 400/671/10 429/710/49
f 435/716/55 421/698/37 393/662/1
f 402/677/16 416/695/34 408/683/22
f 429/710/49 400/671/10 394/665/4
f 414/689/28 401/674/13 428/707/46
f 415/692/31 444/731/70 436/719/58
f 443/728/67 430/713/52 422/701/40
f 452/756/134 454/760/138 453/757/135
f 452/756/134 456/1055/140 457/759/137
f 455/761/139 457/765/137 456/762/140
f 459/764/142 460/1056/145 457/765/137
f 458/766/143 460/1057/145 459/767/142
f 453/757/135 454/760/138 460/769/145
f 464/771/146 466/1058/150 465/772/147
f 464/774/146 468/778/152 469/775/149
f 467/777/151 469/775/149 468/778/152
f 471/780/154 472/786/157 469/781/149
f 470/783/155 472/786/157 471/780/154
f 470/783/155 465/1059/147 466/785/150
f 476/787/158 478/791/162 477/788/159
f 480/790/161 481/803/166 478/791/162
f 479/792/163 481/1060/166 480/793/161
f 479/795/163 483/799/168 484/796/165
f 482/798/167 484/796/165 483/799/168
f 477/788/159 478/791/162 484/801/165
f 488/804/170 490/808/174 489/805/171
f 488/804/170 492/884/176 493/807/173
f 491/809/175 493/1061/173 492/810/176
f 495/812/178 496/818/181 493/813/173
f 494/815/179 496/818/181 495/812/178
f 489/817/171 490/819/174 496/818/181
f 500/820/182 502/1062/186 501/821/183
f 504/823/185 505/829/190 502/824/186
f 503/826/187 505/829/190 504/823/185
f 507/828/189 508/835/193 505/829/190
f 506/830/191 508/834/193 507/831/189
f 506/830/191 501/888/183 502/833/186
f 512/836/194 514/840/198 513/837/195
f 512/836/194 516/890/200 517/839/197
f 515/841/199 517/845/197 516/842/200
f 519/844/202 520/1063/205 517/845/197
f 518/846/203 520/1064/205 519/847/202
f 518/849/203 513/837/195 514/840/198
f 524/851/206 526/1065/210 525/852/207
f 524/854/206 528/858/212 529/855/209
f 527/857/211 529/855/209 528/858/212
f 531/860/214 532/866/217 529/855/209
f 530/861/215 532/865/217 531/862/214
f 530/861/215 525/886/207 526/864/210
f 536/867/218 538/871/222 537/868/219
f 536/867/218 540/887/224 541/870/221
f 539/872/223 541/876/221 540/873/224
f 543/875/226 544/1066/229 541/876/221
f 542/877/227 544/1067/229 543/878/226
f 537/868/219 538/871/222 544/880/229
f 449/758/136 453/757/135 476/787/158
f 453/757/135 458/770/143 480/790/161
f 458/766/143 451/768/144 474/794/164
f 461/773/148 465/772/147 455/761/139
f 465/772/147 470/1068/155 459/764/142
f 459/767/142 470/783/155 463/784/156
f 485/806/172 489/805/171 467/777/151
f 489/817/171 494/815/179 471/780/154
f 494/815/179 487/816/180 463/784/156
f 486/811/177 475/800/169 483/799/168
f 483/799/168 479/795/163 495/882/178
f 479/792/163 474/794/164 487/816/180
f 473/789/160 477/788/159 524/851/206
f 477/883/159 482/798/167 528/858/212
f 482/798/167 475/800/169 522/859/213
f 485/806/172 533/869/220 537/868/219
f 537/868/219 542/881/227 492/884/176
f 542/877/227 535/879/228 486/811/177
f 534/874/225 523/863/216 531/862/214
f 531/860/214 527/857/211 543/878/226
f 527/857/211 522/859/213 535/879/228
f 521/853/208 525/852/207 500/820/182
f 525/886/207 530/861/215 504/823/185
f 530/861/215 523/863/216 498/827/188
f 509/838/196 513/837/195 536/867/218
f 513/837/195 518/849/203 540/887/224
f 518/846/203 511/848/204 534/874/225
f 510/843/201 499/832/192 507/831/189
f 507/831/189 503/1069/187 519/844/202
f 503/826/187 498/827/188 511/848/204
f 449/758/136 497/822/184 501/821/183
f 501/888/183 506/830/191 456/762/140
f 506/830/191 499/832/192 450/763/141
f 462/779/153 468/778/152 512/836/194
f 468/778/152 464/774/146 516/890/200
f 464/771/146 461/773/148 510/843/201
f 521/853/208 497/822/184 449/758/136
f 463/784/156 487/816/180 474/794/164
f 510/843/201 461/773/148 450/763/141
f 485/806/172 462/779/153 509/838/196
f 486/811/177 535/879/228 522/859/213
f 534/874/225 511/848/204 498/827/188
f 545/891/1 548/980/259 549/892/230
f 546/894/4 550/965/250 549/895/5
f 547/897/7 551/964/74 549/898/8
f 552/900/10 555/1070/114 556/901/11
f 553/903/13 557/967/251 556/904/233
f 554/906/16 558/966/76 556/907/17
f 559/909/19 562/963/249 563/910/234
f 560/912/22 564/970/253 563/913/23
f 561/915/25 565/1071/82 563/916/115
f 566/918/28 569/972/83 570/919/237
f 567/921/31 571/969/252 570/922/116
f 568/924/34 572/968/78 570/925/35
f 573/927/37 576/975/256 577/928/239
f 574/930/40 578/1072/91 577/931/41
f 575/933/43 579/1073/93 577/934/44
f 580/936/46 583/981/94 584/937/242
f 581/939/49 585/979/258 584/940/50
f 582/942/52 586/978/89 584/943/53
f 587/945/55 590/971/254 591/946/244
f 588/948/58 592/974/255 591/949/97
f 589/951/61 593/976/87 591/952/62
f 594/954/64 597/977/257 598/955/247
f 595/957/67 599/973/85 598/958/68
f 596/960/70 600/1074/111 598/961/117
f 545/891/1 551/893/231 562/963/249
f 551/964/74 547/897/7 560/912/22
f 552/900/10 558/902/232 550/965/250
f 558/966/76 554/906/16 547/897/7
f 566/918/28 572/920/238 557/967/251
f 572/968/78 568/924/34 554/906/16
f 561/915/25 564/917/236 571/969/252
f 564/970/253 560/912/22 568/924/34
f 559/909/19 565/911/21 590/971/254
f 590/950/60 565/1071/82 561/915/25
f 594/954/64 600/956/66 569/972/83
f 569/923/103 600/1074/111 596/960/70
f 595/957/67 589/951/61 592/953/246
f 592/974/255 588/948/58 596/960/70
f 587/945/55 593/947/245 576/975/256
f 593/976/87 589/951/61 574/930/40
f 580/936/46 586/938/243 597/977/257
f 586/978/89 582/942/52 595/957/67
f 581/939/49 575/933/43 578/935/241
f 585/944/54 578/1072/91 574/930/40
f 573/927/37 579/929/39 548/980/259
f 548/896/6 579/1073/93 575/933/43
f 553/903/13 555/905/15 583/981/94
f 583/941/105 555/1070/114 552/900/10
f 587/945/55 573/927/37 545/891/1
f 554/906/16 568/924/34 560/912/22
f 581/939/49 552/900/10 546/894/4
f 566/918/28 553/903/13 580/936/46
f 567/921/31 596/960/70 588/948/58
f 589/951/61 595/957/67 582/942/52
f 602/982/260 612/1075/260 611/983/260
f 603/985/261 613/989/261 612/986/261
f 604/988/262 614/991/262 613/989/262
f 605/990/263 615/1076/263 614/991/263
f 606/992/264 616/996/264 615/993/264
f 607/995/265 617/1077/265 616/996/265
f 608/997/266 618/1001/266 617/998/266
f 609/1000/267 619/1003/267 618/1001/267
f 610/1002/268 620/1078/268 619/1003/268
f 601/984/269 611/983/269 620/1004/269
f 601/1008/270 610/1079/270 609/1080/270
f 609/1080/270 608/1081/270 607/1006/270
f 607/1006/270 606/1082/270 605/1083/270
f 605/1083/270 604/1084/270 603/1007/270
f 603/1007/270 602/1085/270 601/1008/270
f 601/1008/270 609/1080/270 607/1006/270
f 607/1006/270 605/1083/270 603/1007/270
f 620/1011/271 611/1086/271 612/1087/271
f 612/1087/271 613/1088/271 614/1009/271
f 614/1009/271 615/1089/271 616/1090/271
f 616/1090/271 617/1091/271 618/1010/271
f 618/1010/271 619/1092/271 620/1011/271
f 620/1011/271 612/1087/271 614/1009/271
f 614/1009/271 616/1090/271 618/1010/271
f 622/1012/260 632/1093/260 631/1013/260
f 623/1015/261 633/1019/261 632/1016/261
f 624/1018/262 634/1021/262 633/1019/262
f 625/1020/263 635/1094/263 634/1021/263
f 626/1022/264 636/1026/264 635/1023/264
f 627/1025/265 637/1095/265 636/1026/265
f 628/1027/266 638/1031/266 637/1028/266
f 629/1030/267 639/1033/267 638/1031/267
f 630/1032/268 640/1096/268 639/1033/268
f 621/1014/269 631/1013/269 640/1034/269
f 621/1038/270 630/1097/270 629/1098/270
f 629/1098/270 628/1099/270 627/1036/270
f 627/1036/270 626/1100/270 625/1101/270
f 625/1101/270 624/1102/270 623/1037/270
f 623/1037/270 622/1103/270 621/1038/270
f 621/1038/270 629/1098/270 627/1036/270
f 627/1036/270 625/1101/270 623/1037/270
f 640/1041/271 631/1104/271 632/1105/271
f 632/1105/271 633/1106/271 634/1039/271
f 634/1039/271 635/1107/271 636/1108/271
f 636/1108/271 637/1109/271 638/1040/271
f 638/1040/271 639/1110/271 640/1041/271
f 640/1041/271 632/1105/271 634/1039/271
f 634/1039/271 636/1108/271 638/1040/271
