# Blender 5.2.2 LTS
# www.blender.org
o PictureFrame
v -2.250000 1.470000 -0.000000
v 2.250000 1.470000 -0.000000
v -2.250000 1.750000 -0.000000
v 2.250000 1.750000 -0.000000
v -2.250000 1.750000 -0.180000
v 2.250000 1.750000 -0.180000
v -2.250000 1.700000 -0.300000
v 2.250000 1.700000 -0.300000
v -2.250000 1.630000 -0.330000
v 2.250000 1.630000 -0.330000
v -2.250000 1.550000 -0.300000
v 2.250000 1.550000 -0.300000
v -2.250000 1.500000 -0.270000
v 2.250000 1.500000 -0.270000
v -2.250000 1.470000 -0.270000
v 2.250000 1.470000 -0.270000
v -2.250000 -1.470000 0.000000
v 2.250000 -1.470000 0.000000
v -2.250000 -1.750000 0.000000
v 2.250000 -1.750000 0.000000
v -2.250000 -1.750000 -0.180000
v 2.250000 -1.750000 -0.180000
v -2.250000 -1.700000 -0.300000
v 2.250000 -1.700000 -0.300000
v -2.250000 -1.630000 -0.330000
v 2.250000 -1.630000 -0.330000
v -2.250000 -1.550000 -0.300000
v 2.250000 -1.550000 -0.300000
v -2.250000 -1.500000 -0.270000
v 2.250000 -1.500000 -0.270000
v -2.250000 -1.470000 -0.270000
v 2.250000 -1.470000 -0.270000
v -1.970000 -1.470000 0.000000
v -1.970000 1.470000 -0.000000
v -2.250000 -1.470000 0.000000
v -2.250000 1.470000 -0.000000
v -2.250000 -1.470000 -0.180000
v -2.250000 1.470000 -0.180000
v -2.200000 -1.470000 -0.300000
v -2.200000 1.470000 -0.300000
v -2.130000 -1.470000 -0.330000
v -2.130000 1.470000 -0.330000
v -2.050000 -1.470000 -0.300000
v -2.050000 1.470000 -0.300000
v -2.000000 -1.470000 -0.270000
v -2.000000 1.470000 -0.270000
v -1.970000 -1.470000 -0.270000
v -1.970000 1.470000 -0.270000
v 1.970000 -1.470000 0.000000
v 1.970000 1.470000 -0.000000
v 2.250000 -1.470000 0.000000
v 2.250000 1.470000 -0.000000
v 2.250000 -1.470000 -0.180000
v 2.250000 1.470000 -0.180000
v 2.200000 -1.470000 -0.300000
v 2.200000 1.470000 -0.300000
v 2.130000 -1.470000 -0.330000
v 2.130000 1.470000 -0.330000
v 2.050000 -1.470000 -0.300000
v 2.050000 1.470000 -0.300000
v 2.000000 -1.470000 -0.270000
v 2.000000 1.470000 -0.270000
v 1.970000 -1.470000 -0.270000
v 1.970000 1.470000 -0.270000
vn -0.0000 -0.0000 1.0000
vn -0.0000 1.0000 -0.0000
vn -0.0000 0.9806 -0.1961
vn -0.0000 0.9231 -0.3846
vn -0.0000 0.3939 -0.9191
vn -0.0000 -0.3511 -0.9363
vn -0.0000 -0.4346 -0.9006
vn -0.0000 -0.2669 -0.9637
vn -0.0000 -0.0000 -1.0000
vn -0.0000 -1.0000 -0.0000
vn -1.0000 -0.0000 -0.0000
vn 1.0000 -0.0000 -0.0000
vn -0.0000 -0.9806 -0.1961
vn -0.0000 -0.9231 -0.3846
vn -0.0000 -0.3939 -0.9191
vn -0.0000 0.4346 -0.9006
vn -0.0000 0.3511 -0.9363
vn -0.0000 0.2669 -0.9637
vn -0.9806 -0.0000 -0.1961
vn -0.9231 -0.0000 -0.3846
vn -0.3939 -0.0000 -0.9191
vn 0.3511 -0.0000 -0.9363
vn 0.4346 -0.0000 -0.9006
vn 0.2669 -0.0000 -0.9637
vn 0.9806 -0.0000 -0.1961
vn 0.9231 -0.0000 -0.3846
vn 0.3939 -0.0000 -0.9191
vn -0.4346 -0.0000 -0.9006
vn -0.3511 -0.0000 -0.9363
vn -0.2669 -0.0000 -0.9637
vt 0.202180 0.987632
vt 0.140827 0.001610
vt 0.202180 0.001610
vt 0.071219 0.001610
vt 0.110540 0.987632
vt 0.071219 0.987632
vt 0.110540 0.001610
vt 0.137607 0.987632
vt 0.394376 0.001610
vt 0.409715 0.987632
vt 0.394376 0.987632
vt 0.409715 0.001610
vt 0.427244 0.987632
vt 0.427244 0.001610
vt 0.438200 0.987632
vt 0.438200 0.001610
vt 0.444773 0.987632
vt 0.269973 0.001610
vt 0.328954 0.987632
vt 0.269973 0.987632
vt 0.501610 0.681799
vt 0.527904 0.649031
vt 0.556389 0.662138
vt 0.625998 0.708013
vt 0.582175 0.714566
vt 0.571219 0.649031
vt 0.266753 0.001610
vt 0.205400 0.987632
vt 0.205400 0.001610
vt 0.028677 0.987632
vt 0.067999 0.001610
vt 0.067999 0.987632
vt 0.001610 0.987632
vt 0.028677 0.001610
vt 0.483052 0.987632
vt 0.498390 0.001610
vt 0.498390 0.987632
vt 0.465523 0.987632
vt 0.483052 0.001610
vt 0.454567 0.987632
vt 0.465523 0.001610
vt 0.447993 0.987632
vt 0.454567 0.001610
vt 0.332175 0.987632
vt 0.391156 0.001610
vt 0.391156 0.987632
vt 0.670850 0.649031
vt 0.697144 0.681799
vt 0.635792 0.721120
vt 0.761717 0.724340
vt 0.750761 0.789875
vt 0.706938 0.783321
vt 0.640828 0.001610
vt 0.702180 0.645811
vt 0.640828 0.645811
vt 0.501610 0.001610
vt 0.540931 0.645811
vt 0.501610 0.645811
vt 0.540931 0.001610
vt 0.567999 0.645811
vt 0.947993 0.001610
vt 0.963331 0.645811
vt 0.947993 0.645811
vt 0.980861 0.001610
vt 0.980861 0.645811
vt 0.991816 0.645811
vt 0.991816 0.001610
vt 0.998390 0.645811
vt 0.832175 0.001610
vt 0.891156 0.645811
vt 0.832175 0.645811
vt 0.700364 0.681799
vt 0.726658 0.649031
vt 0.755143 0.662138
vt 0.556389 0.783321
vt 0.512566 0.789875
vt 0.501610 0.724340
vt 0.705400 0.645811
vt 0.766753 0.001610
vt 0.766753 0.645811
vt 0.598286 0.645811
vt 0.637607 0.001610
vt 0.637607 0.645811
vt 0.571219 0.645811
vt 0.598286 0.001610
vt 0.929435 0.645811
vt 0.944773 0.001610
vt 0.944773 0.645811
vt 0.911906 0.645811
vt 0.929435 0.001610
vt 0.900950 0.645811
vt 0.911906 0.001610
vt 0.894376 0.645811
vt 0.900950 0.001610
vt 0.769973 0.645811
vt 0.828954 0.001610
vt 0.828954 0.645811
vt 0.606278 0.724340
vt 0.632571 0.757107
vt 0.571219 0.796429
vt 0.697144 0.724340
vt 0.686188 0.789875
vt 0.642365 0.783321
vt 0.140827 0.987632
vt 0.137607 0.001610
vt 0.444773 0.001610
vt 0.328954 0.001610
vt 0.562963 0.662138
vt 0.562963 0.721120
vt 0.501610 0.721120
vt 0.512566 0.655585
vt 0.545434 0.655585
vt 0.632571 0.649031
vt 0.632571 0.708013
vt 0.615042 0.714566
vt 0.597513 0.721120
vt 0.571219 0.688352
vt 0.266753 0.987632
vt 0.001610 0.001610
vt 0.447993 0.001610
vt 0.332175 0.001610
vt 0.635792 0.662138
vt 0.642365 0.662138
vt 0.653321 0.655585
vt 0.686188 0.655585
vt 0.697144 0.721120
vt 0.700364 0.783321
vt 0.700364 0.724340
vt 0.761717 0.763661
vt 0.735423 0.796429
vt 0.717894 0.789875
vt 0.702180 0.001610
vt 0.567999 0.001610
vt 0.963331 0.001610
vt 0.998390 0.001610
vt 0.891156 0.001610
vt 0.761717 0.662138
vt 0.761717 0.721120
vt 0.700364 0.721120
vt 0.711320 0.655585
vt 0.744188 0.655585
vt 0.562963 0.724340
vt 0.562963 0.783321
vt 0.545434 0.789875
vt 0.527904 0.796429
vt 0.501610 0.763661
vt 0.705400 0.001610
vt 0.571219 0.001610
vt 0.894376 0.001610
vt 0.769973 0.001610
vt 0.571219 0.737447
vt 0.577792 0.737447
vt 0.588748 0.730893
vt 0.621616 0.730893
vt 0.632571 0.796429
vt 0.635792 0.783321
vt 0.635792 0.724340
vt 0.697144 0.763661
vt 0.670850 0.796429
vt 0.653321 0.789875
s 1
f 2/1/1 3/2/1 1/3/1
f 4/4/2 5/5/3 3/6/2
f 6/7/3 7/8/4 5/5/3
f 8/9/5 9/10/5 7/11/5
f 10/12/6 11/13/7 9/10/6
f 12/14/7 13/15/8 11/13/7
f 14/16/8 15/17/9 13/15/8
f 16/18/10 1/19/10 15/20/10
f 5/21/11 9/22/11 13/23/11
f 14/24/12 8/25/12 4/26/12
f 19/27/1 18/28/1 17/29/1
f 21/30/13 20/31/10 19/32/10
f 23/33/14 22/34/13 21/30/13
f 25/35/15 24/36/15 23/37/15
f 27/38/16 26/39/17 25/35/17
f 29/40/18 28/41/16 27/38/16
f 31/42/9 30/43/18 29/40/18
f 17/44/2 32/45/2 31/46/2
f 25/47/11 21/48/11 17/49/11
f 20/50/12 24/51/12 30/52/12
f 34/53/1 35/54/1 33/55/1
f 36/56/11 37/57/19 35/58/11
f 38/59/19 39/60/20 37/57/19
f 40/61/21 41/62/21 39/63/21
f 41/62/22 44/64/23 43/65/23
f 44/64/23 45/66/24 43/65/23
f 46/67/24 47/68/9 45/66/24
f 48/69/12 33/70/12 47/71/12
f 37/72/10 41/73/10 45/74/10
f 46/75/2 40/76/2 36/77/2
f 51/78/1 50/79/1 49/80/1
f 53/81/25 52/82/12 51/83/12
f 55/84/26 54/85/25 53/81/25
f 57/86/27 56/87/27 55/88/27
f 59/89/28 58/90/29 57/86/29
f 61/91/30 60/92/28 59/89/28
f 63/93/9 62/94/30 61/91/30
f 49/95/11 64/96/11 63/97/11
f 57/98/10 53/99/10 49/100/10
f 52/101/2 56/102/2 62/103/2
f 2/1/1 4/104/1 3/2/1
f 4/4/2 6/7/3 5/5/3
f 6/7/3 8/105/4 7/8/4
f 8/9/5 10/12/5 9/10/5
f 10/12/6 12/14/7 11/13/7
f 12/14/7 14/16/8 13/15/8
f 14/16/8 16/106/9 15/17/9
f 16/18/10 2/107/10 1/19/10
f 13/23/11 15/108/11 1/109/11
f 1/109/11 3/110/11 5/21/11
f 5/21/11 7/111/11 9/22/11
f 9/22/11 11/112/11 13/23/11
f 13/23/11 1/109/11 5/21/11
f 4/26/12 2/113/12 16/114/12
f 14/24/12 12/115/12 10/116/12
f 4/26/12 16/114/12 14/24/12
f 8/25/12 6/117/12 4/26/12
f 14/24/12 10/116/12 8/25/12
f 19/27/1 20/118/1 18/28/1
f 21/30/13 22/34/13 20/31/10
f 23/33/14 24/119/14 22/34/13
f 25/35/15 26/39/15 24/36/15
f 27/38/16 28/41/16 26/39/17
f 29/40/18 30/43/18 28/41/16
f 31/42/9 32/120/9 30/43/18
f 17/44/2 18/121/2 32/45/2
f 17/49/11 31/122/11 29/123/11
f 29/123/11 27/124/11 25/47/11
f 25/47/11 23/125/11 21/48/11
f 21/48/11 19/126/11 17/49/11
f 17/49/11 29/123/11 25/47/11
f 32/127/12 18/128/12 20/50/12
f 20/50/12 22/129/12 24/51/12
f 24/51/12 26/130/12 28/131/12
f 30/52/12 32/127/12 20/50/12
f 24/51/12 28/131/12 30/52/12
f 34/53/1 36/132/1 35/54/1
f 36/56/11 38/59/19 37/57/19
f 38/59/19 40/133/20 39/60/20
f 40/61/21 42/134/21 41/62/21
f 41/62/22 42/134/22 44/64/23
f 44/64/23 46/67/24 45/66/24
f 46/67/24 48/135/9 47/68/9
f 48/69/12 34/136/12 33/70/12
f 45/74/10 47/137/10 33/138/10
f 33/138/10 35/139/10 37/72/10
f 37/72/10 39/140/10 41/73/10
f 41/73/10 43/141/10 45/74/10
f 45/74/10 33/138/10 37/72/10
f 36/77/2 34/142/2 48/143/2
f 46/75/2 44/144/2 42/145/2
f 36/77/2 48/143/2 46/75/2
f 40/76/2 38/146/2 36/77/2
f 46/75/2 42/145/2 40/76/2
f 51/78/1 52/147/1 50/79/1
f 53/81/25 54/85/25 52/82/12
f 55/84/26 56/148/26 54/85/25
f 57/86/27 58/90/27 56/87/27
f 59/89/28 60/92/28 58/90/29
f 61/91/30 62/94/30 60/92/28
f 63/93/9 64/149/9 62/94/30
f 49/95/11 50/150/11 64/96/11
f 49/100/10 63/151/10 61/152/10
f 61/152/10 59/153/10 57/98/10
f 57/98/10 55/154/10 53/99/10
f 53/99/10 51/155/10 49/100/10
f 49/100/10 61/152/10 57/98/10
f 64/156/2 50/157/2 52/101/2
f 52/101/2 54/158/2 56/102/2
f 56/102/2 58/159/2 60/160/2
f 62/103/2 64/156/2 52/101/2
f 56/102/2 60/160/2 62/103/2
