# Blender 5.2.2 LTS
# www.blender.org
o WallSconce
v 0.000000 0.000000 0.000000
v 0.330000 0.000000 0.000000
v 0.323659 -0.064380 0.000000
v 0.304880 -0.126286 0.000000
v 0.274385 -0.183338 0.000000
v 0.233345 -0.233345 0.000000
v 0.183338 -0.274385 0.000000
v 0.126286 -0.304880 0.000000
v 0.064380 -0.323659 0.000000
v 0.000000 -0.330000 0.000000
v -0.064380 -0.323659 0.000000
v -0.126286 -0.304880 0.000000
v -0.183338 -0.274385 0.000000
v -0.233345 -0.233345 0.000000
v -0.274385 -0.183338 0.000000
v -0.304880 -0.126286 0.000000
v -0.323659 -0.064380 0.000000
v -0.330000 -0.000000 0.000000
v -0.323659 0.064380 -0.000000
v -0.304880 0.126286 -0.000000
v -0.274385 0.183338 -0.000000
v -0.233345 0.233345 -0.000000
v -0.183338 0.274385 -0.000000
v -0.126286 0.304880 -0.000000
v -0.064380 0.323659 -0.000000
v -0.000000 0.330000 -0.000000
v 0.064380 0.323659 -0.000000
v 0.126286 0.304880 -0.000000
v 0.183338 0.274385 -0.000000
v 0.233345 0.233345 -0.000000
v 0.274385 0.183338 -0.000000
v 0.304880 0.126286 -0.000000
v 0.323659 0.064380 -0.000000
v 0.350000 -0.000000 -0.030000
v 0.343275 -0.068282 -0.030000
v 0.323358 -0.133939 -0.030000
v 0.291014 -0.194450 -0.030000
v 0.247487 -0.247487 -0.030000
v 0.194450 -0.291014 -0.030000
v 0.133939 -0.323358 -0.030000
v 0.068282 -0.343275 -0.030000
v 0.000000 -0.350000 -0.030000
v -0.068282 -0.343275 -0.030000
v -0.133939 -0.323358 -0.030000
v -0.194450 -0.291014 -0.030000
v -0.247487 -0.247487 -0.030000
v -0.291014 -0.194450 -0.030000
v -0.323358 -0.133939 -0.030000
v -0.343275 -0.068282 -0.030000
v -0.350000 -0.000000 -0.030000
v -0.343275 0.068282 -0.030000
v -0.323358 0.133939 -0.030000
v -0.291014 0.194450 -0.030000
v -0.247487 0.247487 -0.030000
v -0.194450 0.291014 -0.030000
v -0.133939 0.323358 -0.030000
v -0.068282 0.343275 -0.030000
v -0.000000 0.350000 -0.030000
v 0.068282 0.343275 -0.030000
v 0.133939 0.323358 -0.030000
v 0.194450 0.291014 -0.030000
v 0.247487 0.247487 -0.030000
v 0.291014 0.194450 -0.030000
v 0.323358 0.133939 -0.030000
v 0.343275 0.068282 -0.030000
v 0.300000 -0.000000 -0.070000
v 0.294236 -0.058527 -0.070000
v 0.277164 -0.114805 -0.070000
v 0.249441 -0.166671 -0.070000
v 0.212132 -0.212132 -0.070000
v 0.166671 -0.249441 -0.070000
v 0.114805 -0.277164 -0.070000
v 0.058527 -0.294236 -0.070000
v 0.000000 -0.300000 -0.070000
v -0.058527 -0.294236 -0.070000
v -0.114805 -0.277164 -0.070000
v -0.166671 -0.249441 -0.070000
v -0.212132 -0.212132 -0.070000
v -0.249441 -0.166671 -0.070000
v -0.277164 -0.114805 -0.070000
v -0.294236 -0.058527 -0.070000
v -0.300000 -0.000000 -0.070000
v -0.294236 0.058527 -0.070000
v -0.277164 0.114805 -0.070000
v -0.249441 0.166671 -0.070000
v -0.212132 0.212132 -0.070000
v -0.166671 0.249441 -0.070000
v -0.114805 0.277164 -0.070000
v -0.058527 0.294236 -0.070000
v -0.000000 0.300000 -0.070000
v 0.058527 0.294236 -0.070000
v 0.114805 0.277164 -0.070000
v 0.166671 0.249441 -0.070000
v 0.212132 0.212132 -0.070000
v 0.249441 0.166671 -0.070000
v 0.277164 0.114805 -0.070000
v 0.294236 0.058527 -0.070000
v 0.150000 -0.000000 -0.090000
v 0.147118 -0.029264 -0.090000
v 0.138582 -0.057403 -0.090000
v 0.124720 -0.083336 -0.090000
v 0.106066 -0.106066 -0.090000
v 0.083336 -0.124720 -0.090000
v 0.057403 -0.138582 -0.090000
v 0.029264 -0.147118 -0.090000
v 0.000000 -0.150000 -0.090000
v -0.029264 -0.147118 -0.090000
v -0.057403 -0.138582 -0.090000
v -0.083336 -0.124720 -0.090000
v -0.106066 -0.106066 -0.090000
v -0.124720 -0.083336 -0.090000
v -0.138582 -0.057403 -0.090000
v -0.147118 -0.029264 -0.090000
v -0.150000 -0.000000 -0.090000
v -0.147118 0.029264 -0.090000
v -0.138582 0.057403 -0.090000
v -0.124720 0.083336 -0.090000
v -0.106066 0.106066 -0.090000
v -0.083336 0.124720 -0.090000
v -0.057403 0.138582 -0.090000
v -0.029264 0.147118 -0.090000
v -0.000000 0.150000 -0.090000
v 0.029264 0.147118 -0.090000
v 0.057403 0.138582 -0.090000
v 0.083336 0.124720 -0.090000
v 0.106066 0.106066 -0.090000
v 0.124720 0.083336 -0.090000
v 0.138582 0.057403 -0.090000
v 0.147118 0.029264 -0.090000
v 0.000000 -0.000000 -0.090000
v 0.045000 -0.050655 -0.070021
v 0.038971 -0.073107 -0.071496
v 0.022500 -0.089543 -0.072575
v 0.000000 -0.095559 -0.072970
v -0.022500 -0.089543 -0.072575
v -0.038971 -0.073107 -0.071496
v -0.045000 -0.050655 -0.070021
v -0.038971 -0.028204 -0.068547
v -0.022500 -0.011768 -0.067468
v -0.000000 -0.005752 -0.067073
v 0.022500 -0.011768 -0.067468
v 0.038971 -0.028204 -0.068547
v 0.045000 -0.041659 -0.207033
v 0.038971 -0.064111 -0.208507
v 0.022500 -0.080546 -0.209586
v 0.000000 -0.086562 -0.209981
v -0.022500 -0.080546 -0.209586
v -0.038971 -0.064111 -0.208507
v -0.045000 -0.041659 -0.207033
v -0.038971 -0.019207 -0.205559
v -0.022500 -0.002772 -0.204479
v -0.000000 0.003244 -0.204084
v 0.022500 -0.002772 -0.204479
v 0.038971 -0.019207 -0.205559
v 0.045000 -0.044296 -0.187253
v 0.038971 -0.066350 -0.191713
v 0.022500 -0.082494 -0.194977
v 0.000000 -0.088403 -0.196172
v -0.022500 -0.082494 -0.194977
v -0.038971 -0.066350 -0.191713
v -0.045000 -0.044296 -0.187253
v -0.038971 -0.022243 -0.182793
v -0.022500 -0.006098 -0.179528
v -0.000000 -0.000189 -0.178333
v 0.022500 -0.006098 -0.179528
v 0.038971 -0.022243 -0.182793
v 0.045000 -0.017570 -0.319412
v 0.038971 -0.039623 -0.323872
v 0.022500 -0.055768 -0.327136
v 0.000000 -0.061677 -0.328331
v -0.022500 -0.055768 -0.327136
v -0.038971 -0.039623 -0.323872
v -0.045000 -0.017570 -0.319412
v -0.038971 0.004484 -0.314952
v -0.022500 0.020628 -0.311687
v -0.000000 0.026537 -0.310492
v 0.022500 0.020628 -0.311687
v 0.038971 0.004484 -0.314952
v 0.045000 -0.022908 -0.300190
v 0.038971 -0.044103 -0.307743
v 0.022500 -0.059619 -0.313272
v 0.000000 -0.065298 -0.315295
v -0.022500 -0.059619 -0.313272
v -0.038971 -0.044103 -0.307743
v -0.045000 -0.022908 -0.300190
v -0.038971 -0.001714 -0.292638
v -0.022500 0.013802 -0.287109
v -0.000000 0.019481 -0.285085
v 0.022500 0.013802 -0.287109
v 0.038971 -0.001714 -0.292638
v 0.045000 0.020769 -0.422762
v 0.038971 -0.000426 -0.430314
v 0.022500 -0.015941 -0.435843
v 0.000000 -0.021620 -0.437867
v -0.022500 -0.015941 -0.435843
v -0.038971 -0.000426 -0.430314
v -0.045000 0.020769 -0.422762
v -0.038971 0.041963 -0.415209
v -0.022500 0.057479 -0.409681
v -0.000000 0.063158 -0.407657
v 0.022500 0.057479 -0.409681
v 0.038971 0.041963 -0.415209
v 0.045000 0.012612 -0.404569
v 0.038971 -0.007126 -0.415369
v 0.022500 -0.021576 -0.423275
v 0.000000 -0.026865 -0.426168
v -0.022500 -0.021576 -0.423275
v -0.038971 -0.007126 -0.415369
v -0.045000 0.012612 -0.404569
v -0.038971 0.032351 -0.393770
v -0.022500 0.046801 -0.385864
v -0.000000 0.052090 -0.382970
v 0.022500 0.046801 -0.385864
v 0.038971 0.032351 -0.393770
v 0.045000 0.071957 -0.513037
v 0.038971 0.052218 -0.523836
v 0.022500 0.037768 -0.531742
v 0.000000 0.032479 -0.534636
v -0.022500 0.037768 -0.531742
v -0.038971 0.052218 -0.523836
v -0.045000 0.071957 -0.513037
v -0.038971 0.091696 -0.502237
v -0.022500 0.106146 -0.494332
v -0.000000 0.111435 -0.491438
v 0.022500 0.106146 -0.494332
v 0.038971 0.091696 -0.502237
v 0.045000 0.060852 -0.496502
v 0.038971 0.043388 -0.510689
v 0.022500 0.030604 -0.521074
v 0.000000 0.025924 -0.524876
v -0.022500 0.030604 -0.521074
v -0.038971 0.043388 -0.510689
v -0.045000 0.060852 -0.496502
v -0.038971 0.078316 -0.482316
v -0.022500 0.091101 -0.471930
v -0.000000 0.095780 -0.468129
v 0.022500 0.091101 -0.471930
v 0.038971 0.078316 -0.482316
v 0.045000 0.134077 -0.586644
v 0.038971 0.116613 -0.600830
v 0.022500 0.103829 -0.611215
v 0.000000 0.099149 -0.615017
v -0.022500 0.103829 -0.611215
v -0.038971 0.116613 -0.600830
v -0.045000 0.134077 -0.586644
v -0.038971 0.151541 -0.572457
v -0.022500 0.164326 -0.562072
v -0.000000 0.169005 -0.558270
v 0.022500 0.164326 -0.562072
v 0.038971 0.151541 -0.572457
v 0.045000 0.119970 -0.572626
v 0.038971 0.105895 -0.590181
v 0.022500 0.095592 -0.603032
v 0.000000 0.091821 -0.607735
v -0.022500 0.095592 -0.603032
v -0.038971 0.105895 -0.590181
v -0.045000 0.119970 -0.572626
v -0.038971 0.134044 -0.555072
v -0.022500 0.144348 -0.542221
v -0.000000 0.148119 -0.537518
v 0.022500 0.144348 -0.542221
v 0.038971 0.134044 -0.555072
v 0.045000 0.204729 -0.640583
v 0.038971 0.190654 -0.658138
v 0.022500 0.180351 -0.670988
v 0.000000 0.176579 -0.675692
v -0.022500 0.180351 -0.670988
v -0.038971 0.190654 -0.658138
v -0.045000 0.204729 -0.640583
v -0.038971 0.218803 -0.623029
v -0.022500 0.229106 -0.610178
v -0.000000 0.232878 -0.605474
v 0.022500 0.229106 -0.610178
v 0.038971 0.218803 -0.623029
v 0.045000 0.187825 -0.630186
v 0.038971 0.178506 -0.650666
v 0.022500 0.171684 -0.665658
v 0.000000 0.169187 -0.671145
v -0.022500 0.171684 -0.665658
v -0.038971 0.178506 -0.650666
v -0.045000 0.187825 -0.630186
v -0.038971 0.197143 -0.609707
v -0.022500 0.203965 -0.594714
v -0.000000 0.206462 -0.589227
v 0.022500 0.203965 -0.594714
v 0.038971 0.197143 -0.609707
v 0.045000 0.281066 -0.672613
v 0.038971 0.271747 -0.693092
v 0.022500 0.264926 -0.708084
v 0.000000 0.262429 -0.713572
v -0.022500 0.264926 -0.708084
v -0.038971 0.271747 -0.693092
v -0.045000 0.281066 -0.672613
v -0.038971 0.290385 -0.652133
v -0.022500 0.297206 -0.637141
v -0.000000 0.299703 -0.631654
v 0.022500 0.297206 -0.637141
v 0.038971 0.290385 -0.652133
v 0.045000 0.262071 -0.667010
v 0.038971 0.258783 -0.689268
v 0.022500 0.256376 -0.705562
v 0.000000 0.255494 -0.711526
v -0.022500 0.256376 -0.705562
v -0.038971 0.258783 -0.689268
v -0.045000 0.262071 -0.667010
v -0.038971 0.265360 -0.644751
v -0.022500 0.267767 -0.628457
v -0.000000 0.268648 -0.622493
v 0.022500 0.267767 -0.628457
v 0.038971 0.265360 -0.644751
v 0.045000 0.359893 -0.681462
v 0.038971 0.356604 -0.703720
v 0.022500 0.354197 -0.720014
v 0.000000 0.353316 -0.725978
v -0.022500 0.354197 -0.720014
v -0.038971 0.356604 -0.703720
v -0.045000 0.359893 -0.681462
v -0.038971 0.363181 -0.659203
v -0.022500 0.365588 -0.642909
v -0.000000 0.366469 -0.636945
v 0.022500 0.365588 -0.642909
v 0.038971 0.363181 -0.659203
v 0.000000 0.300000 -0.680000
v 0.080000 0.300000 -0.680000
v 0.077274 0.300000 -0.700706
v 0.069282 0.300000 -0.720000
v 0.056569 0.300000 -0.736569
v 0.040000 0.300000 -0.749282
v 0.020706 0.300000 -0.757274
v 0.000000 0.300000 -0.760000
v -0.020706 0.300000 -0.757274
v -0.040000 0.300000 -0.749282
v -0.056569 0.300000 -0.736569
v -0.069282 0.300000 -0.720000
v -0.077274 0.300000 -0.700706
v -0.080000 0.300000 -0.680000
v -0.077274 0.300000 -0.659294
v -0.069282 0.300000 -0.640000
v -0.056569 0.300000 -0.623431
v -0.040000 0.300000 -0.610718
v -0.020706 0.300000 -0.602726
v -0.000000 0.300000 -0.600000
v 0.020706 0.300000 -0.602726
v 0.040000 0.300000 -0.610718
v 0.056569 0.300000 -0.623431
v 0.069282 0.300000 -0.640000
v 0.077274 0.300000 -0.659294
v 0.160000 0.360000 -0.680000
v 0.154548 0.360000 -0.721411
v 0.138564 0.360000 -0.760000
v 0.113137 0.360000 -0.793137
v 0.080000 0.360000 -0.818564
v 0.041411 0.360000 -0.834548
v 0.000000 0.360000 -0.840000
v -0.041411 0.360000 -0.834548
v -0.080000 0.360000 -0.818564
v -0.113137 0.360000 -0.793137
v -0.138564 0.360000 -0.760000
v -0.154548 0.360000 -0.721411
v -0.160000 0.360000 -0.680000
v -0.154548 0.360000 -0.638589
v -0.138564 0.360000 -0.600000
v -0.113137 0.360000 -0.566863
v -0.080000 0.360000 -0.541436
v -0.041411 0.360000 -0.525452
v -0.000000 0.360000 -0.520000
v 0.041411 0.360000 -0.525452
v 0.080000 0.360000 -0.541436
v 0.113137 0.360000 -0.566863
v 0.138564 0.360000 -0.600000
v 0.154548 0.360000 -0.638589
v 0.170000 0.420000 -0.680000
v 0.164207 0.420000 -0.723999
v 0.147224 0.420000 -0.765000
v 0.120208 0.420000 -0.800208
v 0.085000 0.420000 -0.827224
v 0.043999 0.420000 -0.844207
v 0.000000 0.420000 -0.850000
v -0.043999 0.420000 -0.844207
v -0.085000 0.420000 -0.827224
v -0.120208 0.420000 -0.800208
v -0.147224 0.420000 -0.765000
v -0.164207 0.420000 -0.723999
v -0.170000 0.420000 -0.680000
v -0.164207 0.420000 -0.636001
v -0.147224 0.420000 -0.595000
v -0.120208 0.420000 -0.559792
v -0.085000 0.420000 -0.532776
v -0.043999 0.420000 -0.515793
v -0.000000 0.420000 -0.510000
v 0.043999 0.420000 -0.515793
v 0.085000 0.420000 -0.532776
v 0.120208 0.420000 -0.559792
v 0.147224 0.420000 -0.595000
v 0.164207 0.420000 -0.636001
v 0.140000 0.440000 -0.680000
v 0.135230 0.440000 -0.716235
v 0.121244 0.440000 -0.750000
v 0.098995 0.440000 -0.778995
v 0.070000 0.440000 -0.801244
v 0.036235 0.440000 -0.815230
v 0.000000 0.440000 -0.820000
v -0.036235 0.440000 -0.815230
v -0.070000 0.440000 -0.801244
v -0.098995 0.440000 -0.778995
v -0.121244 0.440000 -0.750000
v -0.135230 0.440000 -0.716235
v -0.140000 0.440000 -0.680000
v -0.135230 0.440000 -0.643765
v -0.121244 0.440000 -0.610000
v -0.098995 0.440000 -0.581005
v -0.070000 0.440000 -0.558756
v -0.036235 0.440000 -0.544770
v -0.000000 0.440000 -0.540000
v 0.036235 0.440000 -0.544770
v 0.070000 0.440000 -0.558756
v 0.098995 0.440000 -0.581005
v 0.121244 0.440000 -0.610000
v 0.135230 0.440000 -0.643765
v 0.000000 0.440000 -0.680000
vn -0.0000 -0.0000 1.0000
vn 0.8161 -0.1623 0.5547
vn 0.8321 -0.0000 0.5547
vn 0.7687 -0.3184 0.5547
vn 0.6918 -0.4623 0.5547
vn 0.5883 -0.5883 0.5547
vn 0.4623 -0.6918 0.5547
vn 0.3184 -0.7687 0.5547
vn 0.1623 -0.8161 0.5547
vn -0.0000 -0.8321 0.5547
vn -0.1623 -0.8161 0.5547
vn -0.3184 -0.7687 0.5547
vn -0.4623 -0.6918 0.5547
vn -0.5883 -0.5883 0.5547
vn -0.6918 -0.4623 0.5547
vn -0.7687 -0.3184 0.5547
vn -0.8161 -0.1623 0.5547
vn -0.8321 -0.0000 0.5547
vn -0.8161 0.1623 0.5547
vn -0.7687 0.3184 0.5547
vn -0.6918 0.4623 0.5547
vn -0.5883 0.5883 0.5547
vn -0.4623 0.6918 0.5547
vn -0.3184 0.7687 0.5547
vn -0.1623 0.8161 0.5547
vn -0.0000 0.8321 0.5547
vn 0.1623 0.8161 0.5547
vn 0.3184 0.7687 0.5547
vn 0.4623 0.6918 0.5547
vn 0.5883 0.5883 0.5547
vn 0.6918 0.4623 0.5547
vn 0.7687 0.3184 0.5547
vn 0.8161 0.1623 0.5547
vn 0.6247 -0.0000 -0.7809
vn 0.3989 -0.0794 -0.9135
vn 0.4067 -0.0000 -0.9135
vn 0.5771 -0.2391 -0.7809
vn 0.6127 -0.1219 -0.7809
vn 0.5194 -0.3471 -0.7809
vn 0.3758 -0.1557 -0.9135
vn 0.4417 -0.4417 -0.7809
vn 0.3382 -0.2260 -0.9135
vn 0.2260 -0.3382 -0.9135
vn 0.2876 -0.2876 -0.9135
vn 0.2391 -0.5771 -0.7809
vn 0.3471 -0.5194 -0.7809
vn 0.1219 -0.6127 -0.7809
vn 0.1557 -0.3758 -0.9135
vn -0.0000 -0.6247 -0.7809
vn 0.0794 -0.3989 -0.9135
vn -0.0794 -0.3989 -0.9135
vn -0.0000 -0.4067 -0.9135
vn -0.2391 -0.5771 -0.7809
vn -0.1219 -0.6127 -0.7809
vn -0.3471 -0.5194 -0.7809
vn -0.1557 -0.3758 -0.9135
vn -0.4417 -0.4417 -0.7809
vn -0.2260 -0.3382 -0.9135
vn -0.3382 -0.2260 -0.9135
vn -0.2876 -0.2876 -0.9135
vn -0.5194 -0.3471 -0.7809
vn -0.3758 -0.1557 -0.9135
vn -0.6127 -0.1219 -0.7809
vn -0.5771 -0.2391 -0.7809
vn -0.6247 -0.0000 -0.7809
vn -0.3989 -0.0794 -0.9135
vn -0.6127 0.1219 -0.7809
vn -0.4067 -0.0000 -0.9135
vn -0.5771 0.2391 -0.7809
vn -0.3989 0.0794 -0.9135
vn -0.5194 0.3471 -0.7809
vn -0.3758 0.1557 -0.9135
vn -0.4417 0.4417 -0.7809
vn -0.3382 0.2260 -0.9135
vn -0.3471 0.5194 -0.7809
vn -0.2876 0.2876 -0.9135
vn -0.2391 0.5771 -0.7809
vn -0.2260 0.3382 -0.9135
vn -0.1219 0.6127 -0.7809
vn -0.1557 0.3758 -0.9135
vn -0.0000 0.6247 -0.7809
vn -0.0794 0.3989 -0.9135
vn 0.0794 0.3989 -0.9135
vn -0.0000 0.4067 -0.9135
vn 0.2391 0.5771 -0.7809
vn 0.1219 0.6127 -0.7809
vn 0.3471 0.5194 -0.7809
vn 0.1557 0.3758 -0.9135
vn 0.4417 0.4417 -0.7809
vn 0.2260 0.3382 -0.9135
vn 0.5194 0.3471 -0.7809
vn 0.2876 0.2876 -0.9135
vn 0.5771 0.2391 -0.7809
vn 0.3382 0.2260 -0.9135
vn 0.3989 0.0794 -0.9135
vn 0.3758 0.1557 -0.9135
vn 0.6127 0.1219 -0.7809
vn 0.0703 -0.0000 -0.9975
vn 0.0690 -0.0137 -0.9975
vn 0.0650 -0.0269 -0.9975
vn 0.0585 -0.0391 -0.9975
vn 0.0497 -0.0497 -0.9975
vn 0.0391 -0.0585 -0.9975
vn 0.0269 -0.0650 -0.9975
vn -0.0000 -0.0703 -0.9975
vn 0.0137 -0.0690 -0.9975
vn -0.0137 -0.0690 -0.9975
vn -0.0391 -0.0585 -0.9975
vn -0.0269 -0.0650 -0.9975
vn -0.0497 -0.0497 -0.9975
vn -0.0585 -0.0391 -0.9975
vn -0.0690 -0.0137 -0.9975
vn -0.0650 -0.0269 -0.9975
vn -0.0703 -0.0000 -0.9975
vn -0.0650 0.0269 -0.9975
vn -0.0690 0.0137 -0.9975
vn -0.0497 0.0497 -0.9975
vn -0.0585 0.0391 -0.9975
vn -0.0269 0.0650 -0.9975
vn -0.0391 0.0585 -0.9975
vn -0.0137 0.0690 -0.9975
vn -0.0000 0.0703 -0.9975
vn 0.0137 0.0690 -0.9975
vn 0.0269 0.0650 -0.9975
vn 0.0497 0.0497 -0.9975
vn 0.0391 0.0585 -0.9975
vn 0.0585 0.0391 -0.9975
vn 0.0650 0.0269 -0.9975
vn 0.0690 0.0137 -0.9975
vn -0.0000 -0.0000 -1.0000
vn 0.8660 -0.4989 -0.0328
vn 1.0000 -0.0000 -0.0000
vn 0.5000 -0.8642 -0.0567
vn -0.0000 -0.9979 -0.0655
vn -0.5000 -0.8642 -0.0567
vn -0.8660 -0.4989 -0.0328
vn -1.0000 -0.0000 -0.0000
vn -0.8660 0.4989 0.0328
vn -0.5000 0.8642 0.0567
vn -0.0000 0.9979 0.0655
vn 0.5000 0.8642 0.0567
vn 0.8660 0.4989 0.0328
vn -0.0000 -0.0655 0.9979
vn -0.0000 0.0655 -0.9979
vn 0.8660 -0.4901 -0.0991
vn 0.5000 -0.8488 -0.1717
vn -0.0000 -0.9802 -0.1982
vn -0.5000 -0.8488 -0.1717
vn -0.8660 -0.4901 -0.0991
vn -0.8660 0.4901 0.0991
vn -0.5000 0.8488 0.1717
vn -0.0000 0.9802 0.1982
vn 0.5000 0.8488 0.1717
vn 0.8660 0.4901 0.0991
vn -0.0000 -0.1982 0.9802
vn -0.0000 0.1982 -0.9802
vn 0.8660 -0.4710 -0.1678
vn 0.5000 -0.8158 -0.2907
vn -0.0000 -0.9420 -0.3357
vn -0.5000 -0.8158 -0.2907
vn -0.8660 -0.4710 -0.1678
vn -0.8660 0.4710 0.1678
vn -0.5000 0.8158 0.2907
vn -0.0000 0.9420 0.3357
vn 0.5000 0.8158 0.2907
vn 0.8660 0.4710 0.1678
vn -0.0000 -0.3357 0.9420
vn -0.0000 0.3357 -0.9420
vn 0.8660 -0.4386 -0.2400
vn 0.5000 -0.7597 -0.4157
vn -0.0000 -0.8773 -0.4800
vn -0.5000 -0.7597 -0.4157
vn -0.8660 -0.4386 -0.2400
vn -0.8660 0.4386 0.2400
vn -0.5000 0.7597 0.4157
vn -0.0000 0.8773 0.4800
vn 0.5000 0.7597 0.4157
vn 0.8660 0.4386 0.2400
vn -0.0000 -0.4800 0.8773
vn -0.0000 0.4800 -0.8773
vn 0.8660 -0.3881 -0.3153
vn 0.5000 -0.6722 -0.5460
vn -0.0000 -0.7762 -0.6305
vn -0.5000 -0.6722 -0.5460
vn -0.8660 -0.3881 -0.3153
vn -0.8660 0.3881 0.3153
vn -0.5000 0.6722 0.5460
vn -0.0000 0.7762 0.6305
vn 0.5000 0.6722 0.5460
vn 0.8660 0.3881 0.3153
vn -0.0000 -0.6305 0.7762
vn -0.0000 0.6305 -0.7762
vn 0.8660 -0.3128 -0.3901
vn 0.5000 -0.5417 -0.6757
vn -0.0000 -0.6255 -0.7802
vn -0.5000 -0.5417 -0.6757
vn -0.8660 -0.3128 -0.3901
vn -0.8660 0.3128 0.3901
vn -0.5000 0.5417 0.6757
vn -0.0000 0.6255 0.7802
vn 0.5000 0.5417 0.6757
vn 0.8660 0.3128 0.3901
vn -0.0000 -0.7802 0.6255
vn -0.0000 0.7802 -0.6255
vn 0.8660 -0.2071 -0.4551
vn 0.5000 -0.3587 -0.7883
vn -0.0000 -0.4142 -0.9102
vn -0.5000 -0.3587 -0.7883
vn -0.8660 -0.2071 -0.4551
vn -0.8660 0.2071 0.4551
vn -0.5000 0.3587 0.7883
vn -0.0000 0.4142 0.9102
vn 0.5000 0.3587 0.7883
vn 0.8660 0.2071 0.4551
vn -0.0000 -0.9102 0.4142
vn -0.0000 0.9102 -0.4142
vn 0.8660 -0.0731 -0.4946
vn 0.5000 -0.1266 -0.8567
vn -0.0000 -0.1462 -0.9893
vn -0.5000 -0.1266 -0.8567
vn -0.8660 -0.0731 -0.4946
vn -0.8660 0.0731 0.4946
vn -0.5000 0.1266 0.8567
vn -0.0000 0.1462 0.9893
vn 0.5000 0.1266 0.8567
vn 0.8660 0.0731 0.4946
vn -0.0000 -0.9893 0.1462
vn -0.0000 0.9893 -0.1462
vn -0.0000 -1.0000 -0.0000
vn 0.5796 -0.8000 -0.1553
vn 0.6000 -0.8000 -0.0000
vn 0.5196 -0.8000 -0.3000
vn 0.4243 -0.8000 -0.4243
vn 0.3000 -0.8000 -0.5196
vn 0.1553 -0.8000 -0.5796
vn -0.0000 -0.8000 -0.6000
vn -0.1553 -0.8000 -0.5796
vn -0.3000 -0.8000 -0.5196
vn -0.4243 -0.8000 -0.4243
vn -0.5196 -0.8000 -0.3000
vn -0.5796 -0.8000 -0.1553
vn -0.6000 -0.8000 -0.0000
vn -0.5796 -0.8000 0.1553
vn -0.5196 -0.8000 0.3000
vn -0.4243 -0.8000 0.4243
vn -0.3000 -0.8000 0.5196
vn -0.1553 -0.8000 0.5796
vn -0.0000 -0.8000 0.6000
vn 0.1553 -0.8000 0.5796
vn 0.3000 -0.8000 0.5196
vn 0.4243 -0.8000 0.4243
vn 0.5196 -0.8000 0.3000
vn 0.5796 -0.8000 0.1553
vn 0.9528 -0.1644 -0.2553
vn 0.9864 -0.1644 -0.0000
vn 0.8542 -0.1644 -0.4932
vn 0.6975 -0.1644 -0.6975
vn 0.4932 -0.1644 -0.8542
vn 0.2553 -0.1644 -0.9528
vn -0.0000 -0.1644 -0.9864
vn -0.2553 -0.1644 -0.9528
vn -0.4932 -0.1644 -0.8542
vn -0.6975 -0.1644 -0.6975
vn -0.8542 -0.1644 -0.4932
vn -0.9528 -0.1644 -0.2553
vn -0.9864 -0.1644 -0.0000
vn -0.9528 -0.1644 0.2553
vn -0.8542 -0.1644 0.4932
vn -0.6975 -0.1644 0.6975
vn -0.4932 -0.1644 0.8542
vn -0.2553 -0.1644 0.9528
vn -0.0000 -0.1644 0.9864
vn 0.2553 -0.1644 0.9528
vn 0.4932 -0.1644 0.8542
vn 0.6975 -0.1644 0.6975
vn 0.8542 -0.1644 0.4932
vn 0.9528 -0.1644 0.2553
vn 0.5358 0.8321 -0.1436
vn 0.3116 0.9502 -0.0000
vn 0.5547 0.8320 -0.0000
vn 0.4804 0.8321 -0.2773
vn 0.3010 0.9502 -0.0806
vn 0.3922 0.8320 -0.3922
vn 0.2698 0.9502 -0.1558
vn 0.2774 0.8320 -0.4804
vn 0.2203 0.9502 -0.2203
vn 0.0806 0.9502 -0.3010
vn 0.1558 0.9502 -0.2698
vn -0.0000 0.8321 -0.5547
vn 0.1436 0.8321 -0.5358
vn -0.0806 0.9502 -0.3010
vn -0.0000 0.9502 -0.3116
vn -0.2774 0.8321 -0.4804
vn -0.1436 0.8321 -0.5358
vn -0.2203 0.9502 -0.2203
vn -0.1558 0.9502 -0.2698
vn -0.3922 0.8320 -0.3922
vn -0.2698 0.9502 -0.1558
vn -0.4804 0.8321 -0.2773
vn -0.3010 0.9502 -0.0806
vn -0.5547 0.8320 -0.0000
vn -0.5358 0.8321 -0.1436
vn -0.3010 0.9502 0.0806
vn -0.3116 0.9502 -0.0000
vn -0.4804 0.8321 0.2773
vn -0.5358 0.8321 0.1436
vn -0.3922 0.8321 0.3922
vn -0.2698 0.9502 0.1558
vn -0.1558 0.9502 0.2698
vn -0.2203 0.9502 0.2203
vn -0.1436 0.8320 0.5358
vn -0.2774 0.8321 0.4804
vn -0.0806 0.9502 0.3010
vn 0.0806 0.9502 0.3010
vn -0.0000 0.9502 0.3116
vn 0.2773 0.8321 0.4804
vn 0.1436 0.8321 0.5358
vn 0.3922 0.8321 0.3922
vn 0.1558 0.9502 0.2698
vn 0.2698 0.9502 0.1558
vn 0.2203 0.9502 0.2203
vn 0.4804 0.8321 0.2773
vn 0.3010 0.9502 0.0806
vn 0.5358 0.8321 0.1436
vn -0.0000 1.0000 -0.0000
vn -0.0000 -0.9893 0.1461
vn -0.0000 0.9893 -0.1461
vt 0.635229 0.636695
vt 0.610699 0.387564
vt 0.659769 0.387564
vt 0.562573 0.397138
vt 0.517238 0.415918
vt 0.476438 0.443182
vt 0.441740 0.477883
vt 0.414478 0.518687
vt 0.395699 0.564026
vt 0.386125 0.612158
vt 0.386124 0.661233
vt 0.395696 0.709364
vt 0.414473 0.754703
vt 0.441733 0.795507
vt 0.476430 0.830208
vt 0.517229 0.857473
vt 0.562562 0.876253
vt 0.610688 0.885827
vt 0.659758 0.885827
vt 0.707884 0.876253
vt 0.753219 0.857473
vt 0.794019 0.830208
vt 0.828717 0.795507
vt 0.855979 0.754703
vt 0.874758 0.709364
vt 0.884332 0.661233
vt 0.884333 0.612158
vt 0.874761 0.564026
vt 0.855984 0.518687
vt 0.828724 0.477883
vt 0.794027 0.443182
vt 0.753228 0.415918
vt 0.707895 0.397138
vt 0.236386 0.572880
vt 0.186778 0.597522
vt 0.187377 0.573361
vt 0.289213 0.595501
vt 0.238757 0.597012
vt 0.283958 0.571455
vt 0.336207 0.593047
vt 0.367609 0.566027
vt 0.328267 0.569141
vt 0.329270 0.560872
vt 0.377933 0.537731
vt 0.367205 0.560282
vt 0.285990 0.561310
vt 0.337699 0.538357
vt 0.239028 0.561580
vt 0.291796 0.538822
vt 0.190190 0.539205
vt 0.241988 0.539108
vt 0.141351 0.561580
vt 0.190190 0.561671
vt 0.094390 0.561310
vt 0.138391 0.539108
vt 0.051110 0.560872
vt 0.088584 0.538822
vt 0.002446 0.537731
vt 0.042681 0.538357
vt 0.569141 0.328267
vt 0.589744 0.377933
vt 0.566027 0.367609
vt 0.571455 0.283958
vt 0.593047 0.336207
vt 0.597012 0.238757
vt 0.595501 0.289213
vt 0.572880 0.236386
vt 0.597522 0.186778
vt 0.572880 0.138816
vt 0.573361 0.187377
vt 0.571455 0.092568
vt 0.597012 0.135273
vt 0.593047 0.041511
vt 0.595501 0.086223
vt 0.569141 0.050411
vt 0.589744 0.002857
vt 0.537830 0.329269
vt 0.560198 0.377933
vt 0.537241 0.367205
vt 0.561288 0.291796
vt 0.560823 0.337699
vt 0.538539 0.239028
vt 0.538269 0.285990
vt 0.538630 0.190190
vt 0.561574 0.241988
vt 0.538539 0.141351
vt 0.561671 0.190190
vt 0.561288 0.088584
vt 0.561574 0.138391
vt 0.537830 0.051110
vt 0.538269 0.094390
vt 0.560198 0.002446
vt 0.560823 0.042681
vt 0.050411 0.569141
vt 0.002857 0.589744
vt 0.013966 0.566027
vt 0.092568 0.571455
vt 0.041511 0.593047
vt 0.138816 0.572880
vt 0.086223 0.595501
vt 0.135273 0.597012
vt 0.292851 0.531048
vt 0.244785 0.493274
vt 0.289397 0.493275
vt 0.189757 0.520893
vt 0.240804 0.531048
vt 0.141672 0.500974
vt 0.201031 0.484570
vt 0.098396 0.472057
vt 0.159815 0.467497
vt 0.091177 0.411165
vt 0.122722 0.442711
vt 0.032678 0.391975
vt 0.061594 0.435253
vt 0.012760 0.343888
vt 0.066392 0.374070
vt 0.002607 0.292840
vt 0.049320 0.332852
vt 0.040616 0.244483
vt 0.040616 0.289096
vt 0.012760 0.189742
vt 0.002607 0.240791
vt 0.032678 0.141655
vt 0.049320 0.200727
vt 0.061594 0.098378
vt 0.066392 0.159510
vt 0.122722 0.090869
vt 0.091177 0.122415
vt 0.098396 0.061575
vt 0.159815 0.066083
vt 0.189757 0.012740
vt 0.141672 0.032658
vt 0.240804 0.002586
vt 0.201031 0.049011
vt 0.292851 0.002587
vt 0.244785 0.040308
vt 0.343898 0.012741
vt 0.289397 0.040308
vt 0.391983 0.032660
vt 0.333152 0.049012
vt 0.435258 0.061577
vt 0.374367 0.066085
vt 0.472061 0.098382
vt 0.411461 0.090871
vt 0.500977 0.141659
vt 0.443006 0.122418
vt 0.520894 0.189746
vt 0.467791 0.159513
vt 0.531048 0.240795
vt 0.484863 0.200730
vt 0.493566 0.289100
vt 0.493566 0.244486
vt 0.520894 0.343892
vt 0.531048 0.292844
vt 0.500977 0.391979
vt 0.484863 0.332856
vt 0.472061 0.435256
vt 0.467791 0.374073
vt 0.435258 0.472060
vt 0.443006 0.411167
vt 0.391983 0.500976
vt 0.411460 0.442713
vt 0.333151 0.484571
vt 0.374367 0.467499
vt 0.343897 0.520894
vt 0.278376 0.380020
vt 0.256070 0.380020
vt 0.234193 0.375668
vt 0.213585 0.367131
vt 0.195038 0.354738
vt 0.179266 0.338965
vt 0.166873 0.320417
vt 0.153986 0.277931
vt 0.158337 0.299809
vt 0.153986 0.255624
vt 0.166873 0.213137
vt 0.158337 0.233746
vt 0.179266 0.194590
vt 0.195039 0.178817
vt 0.234193 0.157888
vt 0.213585 0.166424
vt 0.256070 0.153536
vt 0.300253 0.157889
vt 0.278376 0.153537
vt 0.339408 0.178818
vt 0.320861 0.166425
vt 0.367573 0.213139
vt 0.355180 0.194592
vt 0.376109 0.233748
vt 0.380461 0.255626
vt 0.380461 0.277932
vt 0.376109 0.299810
vt 0.355180 0.338966
vt 0.367573 0.320419
vt 0.339408 0.354739
vt 0.320861 0.367132
vt 0.300253 0.375668
vt 0.267223 0.266778
vt 0.015186 0.106323
vt 0.032425 0.002315
vt 0.032425 0.105924
vt 0.002198 0.107554
vt 0.015186 0.002714
vt 0.406835 0.020277
vt 0.510668 0.037345
vt 0.406621 0.037345
vt 0.406621 0.003208
vt 0.510882 0.020277
vt 0.015186 0.424800
vt 0.002198 0.527177
vt 0.002198 0.423568
vt 0.032425 0.425198
vt 0.015186 0.528408
vt 0.049296 0.424658
vt 0.032425 0.528807
vt 0.832999 0.107341
vt 0.845494 0.002712
vt 0.845494 0.106759
vt 0.815931 0.107554
vt 0.832999 0.003294
vt 0.798862 0.003294
vt 0.815931 0.003507
vt 0.786367 0.106759
vt 0.798862 0.107341
vt 0.049296 0.002855
vt 0.049296 0.106464
vt 0.997862 0.648092
vt 0.940818 0.663357
vt 0.956103 0.606260
vt 0.708014 0.956094
vt 0.764979 0.940715
vt 0.749715 0.997838
vt 0.458788 0.853590
vt 0.356650 0.836407
vt 0.458346 0.836407
vt 0.460092 0.866407
vt 0.357093 0.853590
vt 0.863420 0.113750
vt 0.761977 0.130818
vt 0.762798 0.113750
vt 0.863420 0.147887
vt 0.862598 0.130818
vt 0.847615 0.454307
vt 0.860432 0.353915
vt 0.860432 0.455611
vt 0.830432 0.453865
vt 0.847615 0.352611
vt 0.813489 0.454403
vt 0.830432 0.352169
vt 0.102994 0.786367
vt 0.004617 0.798862
vt 0.002373 0.786367
vt 0.106060 0.815931
vt 0.105239 0.798862
vt 0.105239 0.832999
vt 0.005439 0.815931
vt 0.102994 0.845494
vt 0.004617 0.832999
vt 0.357188 0.819465
vt 0.458884 0.819465
vt 0.144232 0.952761
vt 0.200438 0.937956
vt 0.185377 0.994875
vt 0.072815 0.970323
vt 0.113779 0.929022
vt 0.128773 0.986216
vt 0.861737 0.251027
vt 0.878852 0.152432
vt 0.878852 0.250545
vt 0.849110 0.154272
vt 0.861737 0.152914
vt 0.198676 0.850196
vt 0.103629 0.867265
vt 0.105083 0.850196
vt 0.198676 0.884333
vt 0.197223 0.867265
vt 0.879176 0.894857
vt 0.891802 0.798102
vt 0.891802 0.896215
vt 0.862060 0.894375
vt 0.879176 0.796745
vt 0.845041 0.894897
vt 0.862060 0.796262
vt 0.832679 0.896284
vt 0.845041 0.796784
vt 0.699101 0.126337
vt 0.604054 0.109269
vt 0.697648 0.109269
vt 0.604054 0.143405
vt 0.605508 0.126337
vt 0.895872 0.251067
vt 0.908234 0.154341
vt 0.908234 0.252453
vt 0.895872 0.152954
vt 0.057332 0.973265
vt 0.003064 0.959495
vt 0.042791 0.916747
vt 0.979937 0.043431
vt 0.926094 0.060369
vt 0.940521 0.003029
vt 0.864504 0.097206
vt 0.881540 0.003466
vt 0.881540 0.096689
vt 0.852096 0.098591
vt 0.864504 0.003983
vt 0.514726 0.126349
vt 0.531795 0.045346
vt 0.531795 0.128467
vt 0.497658 0.045346
vt 0.514726 0.043227
vt 0.097206 0.864504
vt 0.005368 0.852096
vt 0.098591 0.852096
vt 0.096689 0.881540
vt 0.003983 0.864504
vt 0.003956 0.898640
vt 0.003466 0.881540
vt 0.097180 0.898640
vt 0.005322 0.911222
vt 0.899271 0.437060
vt 0.882203 0.356058
vt 0.899271 0.353939
vt 0.882203 0.439179
vt 0.865134 0.353939
vt 0.898640 0.097180
vt 0.911222 0.005322
vt 0.911222 0.098546
vt 0.898640 0.003956
vt 0.877955 0.963382
vt 0.827074 0.951324
vt 0.864322 0.907527
vt 0.906959 0.119809
vt 0.957223 0.101206
vt 0.943754 0.158778
vt 0.879140 0.258969
vt 0.896079 0.346025
vt 0.879140 0.346563
vt 0.908234 0.257058
vt 0.896079 0.258431
vt 0.926160 0.688645
vt 0.909091 0.616408
vt 0.926160 0.619223
vt 0.892023 0.688645
vt 0.909091 0.685829
vt 0.292786 0.864066
vt 0.203819 0.876221
vt 0.205192 0.864066
vt 0.291413 0.876221
vt 0.203281 0.893161
vt 0.291315 0.910346
vt 0.290875 0.893161
vt 0.292616 0.923172
vt 0.203721 0.910346
vt 0.128467 0.020277
vt 0.056230 0.003208
vt 0.125651 0.003208
vt 0.056230 0.037345
vt 0.059046 0.020277
vt 0.849128 0.257228
vt 0.861955 0.346123
vt 0.849128 0.344822
vt 0.861955 0.258529
vt 0.951992 0.391409
vt 0.906541 0.381842
vt 0.939813 0.336518
vt 0.950061 0.823174
vt 0.917394 0.860107
vt 0.905437 0.802202
vt 0.895796 0.526977
vt 0.878972 0.445504
vt 0.895796 0.444969
vt 0.867104 0.528807
vt 0.878972 0.527512
vt 0.964999 0.509546
vt 0.947930 0.447630
vt 0.964999 0.444800
vt 0.930862 0.509546
vt 0.947930 0.512375
vt 0.824581 0.867104
vt 0.741278 0.878972
vt 0.742573 0.867104
vt 0.822750 0.895796
vt 0.823285 0.878972
vt 0.741112 0.913068
vt 0.740743 0.895796
vt 0.824294 0.926160
vt 0.823120 0.913068
vt 0.947930 0.773865
vt 0.964999 0.713262
vt 0.964999 0.776779
vt 0.930862 0.713262
vt 0.947930 0.710348
vt 0.913068 0.527346
vt 0.926160 0.446513
vt 0.926160 0.528521
vt 0.913068 0.445339
vt 0.669763 0.931228
vt 0.678921 0.886739
vt 0.724496 0.919307
vt 0.944085 0.918924
vt 0.899596 0.939950
vt 0.911517 0.882037
vt 0.375318 0.920570
vt 0.297395 0.903874
vt 0.374832 0.903874
vt 0.376439 0.932135
vt 0.297881 0.920570
vt 0.126610 0.497658
vt 0.057456 0.514726
vt 0.055598 0.497658
vt 0.126610 0.531795
vt 0.128467 0.514726
vt 0.460465 0.884726
vt 0.384149 0.873161
vt 0.461586 0.873161
vt 0.459979 0.901422
vt 0.383028 0.884726
vt 0.382822 0.918775
vt 0.382542 0.901422
vt 0.461230 0.932135
vt 0.460259 0.918775
vt 0.622454 0.909091
vt 0.554169 0.892023
vt 0.624411 0.892023
vt 0.624411 0.926160
vt 0.552213 0.909091
vt 0.376083 0.873161
vt 0.297675 0.886521
vt 0.298646 0.873161
vt 0.375112 0.886521
vt 0.922111 0.175501
vt 0.973961 0.188035
vt 0.936004 0.231540
vt 0.914090 0.261331
vt 0.965940 0.243450
vt 0.952047 0.300922
vt 0.895149 0.787861
vt 0.878575 0.713360
vt 0.895149 0.712988
vt 0.542892 0.875996
vt 0.470310 0.888491
vt 0.468592 0.875996
vt 0.544610 0.888491
vt 0.470939 0.905559
vt 0.544610 0.922628
vt 0.545239 0.905559
vt 0.542892 0.935122
vt 0.470310 0.922628
vt 0.921536 0.608604
vt 0.938110 0.534104
vt 0.938110 0.608977
vt 0.904119 0.533912
vt 0.921536 0.533731
vt 0.890525 0.609473
vt 0.904119 0.608786
vt 0.178520 0.906104
vt 0.105223 0.889035
vt 0.179257 0.889035
vt 0.105223 0.923172
vt 0.104486 0.906104
vt 0.926160 0.788729
vt 0.912566 0.713169
vt 0.926160 0.713856
vt 0.912566 0.788042
vt 0.280835 0.970922
vt 0.224453 0.985823
vt 0.239561 0.928867
vt 0.672213 0.970474
vt 0.615831 0.986152
vt 0.630938 0.928987
vt 0.721335 0.266671
vt 0.744558 0.322740
vt 0.729258 0.326840
vt 0.758275 0.314818
vt 0.769475 0.303616
vt 0.777394 0.289896
vt 0.781493 0.274593
vt 0.781492 0.258750
vt 0.777392 0.243447
vt 0.769472 0.229727
vt 0.758271 0.218525
vt 0.744552 0.210603
vt 0.729252 0.206503
vt 0.713412 0.206503
vt 0.698112 0.210603
vt 0.684395 0.218525
vt 0.673195 0.229727
vt 0.665275 0.243447
vt 0.661176 0.258750
vt 0.661177 0.274593
vt 0.665278 0.289896
vt 0.673198 0.303616
vt 0.684399 0.314818
vt 0.698117 0.322739
vt 0.713418 0.326840
vt 0.738035 0.386896
vt 0.796070 0.362852
vt 0.768635 0.378695
vt 0.818470 0.340447
vt 0.834309 0.313007
vt 0.842506 0.282402
vt 0.834304 0.220111
vt 0.842505 0.250716
vt 0.818463 0.192670
vt 0.796061 0.170265
vt 0.768625 0.154423
vt 0.738024 0.146222
vt 0.675744 0.154423
vt 0.706344 0.146222
vt 0.625910 0.192670
vt 0.648310 0.170265
vt 0.610071 0.220110
vt 0.601873 0.250716
vt 0.601874 0.282401
vt 0.610075 0.313007
vt 0.625916 0.340447
vt 0.648318 0.362852
vt 0.706355 0.386896
vt 0.675755 0.378695
vt 0.101597 0.723104
vt 0.055580 0.692803
vt 0.101402 0.692260
vt 0.056392 0.755237
vt 0.055787 0.725575
vt 0.103073 0.774108
vt 0.102166 0.751021
vt 0.049296 0.599764
vt 0.003555 0.621109
vt 0.003735 0.594400
vt 0.049021 0.654175
vt 0.049127 0.624902
vt 0.048985 0.685589
vt 0.003443 0.652212
vt 0.003443 0.718967
vt 0.003404 0.685589
vt 0.049021 0.717004
vt 0.003556 0.750070
vt 0.049296 0.771415
vt 0.049127 0.746277
vt 0.774108 0.103073
vt 0.755237 0.056392
vt 0.779767 0.057355
vt 0.723104 0.101597
vt 0.751021 0.102166
vt 0.692803 0.055580
vt 0.725575 0.055787
vt 0.692260 0.101402
vt 0.659154 0.055787
vt 0.660590 0.101597
vt 0.626921 0.056392
vt 0.603316 0.103073
vt 0.630253 0.102166
vt 0.746277 0.049006
vt 0.776779 0.003704
vt 0.771415 0.049296
vt 0.717004 0.048824
vt 0.750070 0.003397
vt 0.685589 0.048762
vt 0.718967 0.003203
vt 0.652212 0.003203
vt 0.685589 0.003138
vt 0.654175 0.048824
vt 0.621109 0.003397
vt 0.599764 0.049296
vt 0.624902 0.049006
vt 0.103073 0.603316
vt 0.056392 0.626921
vt 0.057355 0.598300
vt 0.101597 0.660590
vt 0.102166 0.630253
vt 0.055787 0.659154
vt 0.209711 0.848731
vt 0.244909 0.834844
vt 0.242223 0.857445
vt 0.180561 0.831898
vt 0.218134 0.827668
vt 0.156761 0.808093
vt 0.194129 0.813806
vt 0.139933 0.778938
vt 0.174529 0.794202
vt 0.153497 0.743411
vt 0.160670 0.770191
vt 0.131224 0.712754
vt 0.131223 0.746419
vt 0.160674 0.688907
vt 0.153498 0.715687
vt 0.156769 0.651080
vt 0.139938 0.680235
vt 0.194137 0.645292
vt 0.174535 0.664897
vt 0.180571 0.627275
vt 0.218144 0.631430
vt 0.209722 0.610442
vt 0.244919 0.624254
vt 0.275895 0.601729
vt 0.242235 0.601729
vt 0.299414 0.631430
vt 0.272639 0.624254
vt 0.337557 0.627275
vt 0.308407 0.610442
vt 0.361357 0.651080
vt 0.323419 0.645292
vt 0.356878 0.688907
vt 0.343019 0.664897
vt 0.386896 0.712754
vt 0.378185 0.680235
vt 0.386894 0.746419
vt 0.364051 0.715687
vt 0.356874 0.770191
vt 0.364050 0.743411
vt 0.361350 0.808093
vt 0.378181 0.778938
vt 0.337547 0.831898
vt 0.343013 0.794202
vt 0.299405 0.827668
vt 0.323412 0.813806
vt 0.308396 0.848731
vt 0.272629 0.834844
vt 0.275883 0.857445
vt 0.258774 0.729549
vt 0.377933 0.589744
vt 0.013174 0.560282
vt 0.566027 0.013966
vt 0.537241 0.013174
vt 0.002198 0.003945
vt 0.510668 0.003208
vt 0.049296 0.528267
vt 0.786367 0.002712
vt 0.973753 0.606271
vt 0.989038 0.615115
vt 0.997862 0.630423
vt 0.989038 0.663388
vt 0.973753 0.672213
vt 0.956103 0.672201
vt 0.931994 0.648050
vt 0.931994 0.630381
vt 0.940818 0.615084
vt 0.732090 0.997862
vt 0.716826 0.989050
vt 0.708014 0.973761
vt 0.716826 0.940782
vt 0.732090 0.931927
vt 0.749715 0.931903
vt 0.773791 0.956004
vt 0.773791 0.973671
vt 0.764979 0.988983
vt 0.358397 0.866407
vt 0.762798 0.147887
vt 0.813489 0.352707
vt 0.002373 0.845494
vt 0.167987 0.994726
vt 0.152927 0.985772
vt 0.144232 0.970411
vt 0.152927 0.937549
vt 0.167987 0.928853
vt 0.185377 0.929002
vt 0.209133 0.953316
vt 0.209133 0.970967
vt 0.200438 0.986178
vt 0.113779 0.994875
vt 0.096466 0.994686
vt 0.081472 0.985699
vt 0.072815 0.952678
vt 0.081472 0.937491
vt 0.096466 0.928833
vt 0.128773 0.938008
vt 0.137430 0.953384
vt 0.137430 0.971029
vt 0.849110 0.252385
vt 0.105083 0.884333
vt 0.832679 0.798171
vt 0.697648 0.143405
vt 0.057332 0.925155
vt 0.065727 0.940176
vt 0.065727 0.957785
vt 0.042791 0.982466
vt 0.026000 0.982924
vt 0.011459 0.974516
vt 0.003064 0.941886
vt 0.011459 0.926407
vt 0.026000 0.917206
vt 0.957180 0.002505
vt 0.971607 0.010851
vt 0.979937 0.025831
vt 0.971607 0.058936
vt 0.957180 0.068190
vt 0.940521 0.068715
vt 0.917764 0.045389
vt 0.917764 0.027788
vt 0.926094 0.012284
vt 0.852096 0.005368
vt 0.497658 0.128467
vt 0.098546 0.911222
vt 0.865134 0.437060
vt 0.877955 0.915458
vt 0.885827 0.930165
vt 0.885827 0.947706
vt 0.864322 0.972992
vt 0.848579 0.973961
vt 0.834945 0.966030
vt 0.827074 0.933783
vt 0.834945 0.918107
vt 0.848579 0.908497
vt 0.928203 0.159837
vt 0.914735 0.151990
vt 0.906959 0.137338
vt 0.914735 0.104099
vt 0.928203 0.094417
vt 0.943755 0.093358
vt 0.964998 0.115857
vt 0.964998 0.133387
vt 0.957223 0.149097
vt 0.908234 0.344652
vt 0.892023 0.619223
vt 0.205022 0.923172
vt 0.125651 0.037345
vt 0.951992 0.343755
vt 0.959023 0.358004
vt 0.959023 0.375446
vt 0.939813 0.401614
vt 0.925751 0.403328
vt 0.913572 0.396090
vt 0.906541 0.364399
vt 0.913572 0.348437
vt 0.925751 0.338231
vt 0.917394 0.795063
vt 0.931200 0.796882
vt 0.943157 0.807171
vt 0.950061 0.840603
vt 0.943157 0.854787
vt 0.931200 0.861926
vt 0.905437 0.849817
vt 0.898533 0.833814
vt 0.898533 0.816386
vt 0.867104 0.446800
vt 0.930862 0.444800
vt 0.742287 0.926160
vt 0.930862 0.776779
vt 0.717373 0.931228
vt 0.703199 0.938110
vt 0.685773 0.938110
vt 0.659460 0.919307
vt 0.657624 0.905542
vt 0.664747 0.893621
vt 0.696347 0.886739
vt 0.712357 0.893621
vt 0.722660 0.905542
vt 0.925282 0.880201
vt 0.937203 0.887324
vt 0.944085 0.901498
vt 0.937203 0.934934
vt 0.925282 0.945237
vt 0.911517 0.947073
vt 0.892714 0.925776
vt 0.892714 0.908350
vt 0.899597 0.892340
vt 0.299002 0.932135
vt 0.055598 0.531795
vt 0.383793 0.932135
vt 0.554169 0.926160
vt 0.922111 0.223476
vt 0.914090 0.208682
vt 0.914090 0.191122
vt 0.936004 0.166005
vt 0.952047 0.165178
vt 0.965940 0.173241
vt 0.973961 0.205595
vt 0.965940 0.221216
vt 0.952047 0.230713
vt 0.936004 0.301749
vt 0.922111 0.293685
vt 0.914090 0.278891
vt 0.922111 0.245710
vt 0.936004 0.236214
vt 0.952047 0.235387
vt 0.973961 0.258244
vt 0.973961 0.275805
vt 0.965940 0.291426
vt 0.878575 0.788234
vt 0.468592 0.935122
vt 0.890525 0.534599
vt 0.179257 0.923172
vt 0.257006 0.928987
vt 0.272113 0.937919
vt 0.280835 0.953268
vt 0.272113 0.986152
vt 0.257005 0.994875
vt 0.239561 0.994755
vt 0.215731 0.970474
vt 0.215731 0.952819
vt 0.224453 0.937590
vt 0.648383 0.928867
vt 0.663490 0.937590
vt 0.672213 0.952820
vt 0.663490 0.985823
vt 0.648383 0.994755
vt 0.630938 0.994875
vt 0.607108 0.970923
vt 0.607108 0.953268
vt 0.615831 0.937919
vt 0.057355 0.779767
vt 0.003735 0.776779
vt 0.598300 0.057355
vt 0.594400 0.003704
s 1
f 1/1/1 3/2/1 2/3/1
f 1/1/1 4/4/1 3/2/1
f 1/1/1 5/5/1 4/4/1
f 1/1/1 6/6/1 5/5/1
f 1/1/1 7/7/1 6/6/1
f 1/1/1 8/8/1 7/7/1
f 1/1/1 9/9/1 8/8/1
f 1/1/1 10/10/1 9/9/1
f 1/1/1 11/11/1 10/10/1
f 1/1/1 12/12/1 11/11/1
f 1/1/1 13/13/1 12/12/1
f 1/1/1 14/14/1 13/13/1
f 1/1/1 15/15/1 14/14/1
f 1/1/1 16/16/1 15/15/1
f 1/1/1 17/17/1 16/16/1
f 1/1/1 18/18/1 17/17/1
f 1/1/1 19/19/1 18/18/1
f 1/1/1 20/20/1 19/19/1
f 1/1/1 21/21/1 20/20/1
f 1/1/1 22/22/1 21/21/1
f 1/1/1 23/23/1 22/22/1
f 1/1/1 24/24/1 23/23/1
f 1/1/1 25/25/1 24/24/1
f 1/1/1 26/26/1 25/25/1
f 1/1/1 27/27/1 26/26/1
f 1/1/1 28/28/1 27/27/1
f 1/1/1 29/29/1 28/28/1
f 1/1/1 30/30/1 29/29/1
f 1/1/1 31/31/1 30/30/1
f 1/1/1 32/32/1 31/31/1
f 1/1/1 33/33/1 32/32/1
f 1/1/1 2/3/1 33/33/1
f 3/34/2 34/35/3 2/36/3
f 3/34/2 36/37/4 35/38/2
f 4/39/4 37/40/5 36/37/4
f 6/41/6 37/40/5 5/42/5
f 7/43/7 38/44/6 6/45/6
f 8/46/8 39/47/7 7/43/7
f 9/48/9 40/49/8 8/46/8
f 9/48/9 42/50/10 41/51/9
f 11/52/11 42/50/10 10/53/10
f 12/54/12 43/55/11 11/52/11
f 13/56/13 44/57/12 12/54/12
f 13/56/13 46/58/14 45/59/13
f 15/60/15 46/61/14 14/62/14
f 16/63/16 47/64/15 15/60/15
f 16/63/16 49/65/17 48/66/16
f 17/67/17 50/68/18 49/65/17
f 19/69/19 50/68/18 18/70/18
f 20/71/20 51/72/19 19/69/19
f 20/71/20 53/73/21 52/74/20
f 21/75/21 54/76/22 53/73/21
f 23/77/23 54/78/22 22/79/22
f 23/77/23 56/80/24 55/81/23
f 25/82/25 56/80/24 24/83/24
f 26/84/26 57/85/25 25/82/25
f 27/86/27 58/87/26 26/84/26
f 27/86/27 60/88/28 59/89/27
f 29/90/29 60/88/28 28/91/28
f 29/90/29 62/92/30 61/93/29
f 31/94/31 62/95/30 30/96/30
f 32/97/32 63/98/31 31/94/31
f 33/99/33 64/100/32 32/97/32
f 33/99/33 34/35/3 65/101/33
f 34/102/34 67/103/35 66/104/36
f 36/105/37 67/103/35 35/106/38
f 37/107/39 68/108/40 36/105/37
f 38/109/41 69/110/42 37/107/39
f 38/109/41 71/111/43 70/112/44
f 40/113/45 71/111/43 39/114/46
f 41/115/47 72/116/48 40/113/45
f 42/117/49 73/118/50 41/115/47
f 42/117/49 75/119/51 74/120/52
f 44/121/53 75/119/51 43/122/54
f 45/123/55 76/124/56 44/121/53
f 46/125/57 77/126/58 45/123/55
f 46/125/57 79/127/59 78/128/60
f 47/129/61 80/130/62 79/127/59
f 49/131/63 80/130/62 48/132/64
f 50/133/65 81/134/66 49/131/63
f 51/135/67 82/136/68 50/133/65
f 52/137/69 83/138/70 51/135/67
f 53/139/71 84/140/72 52/137/69
f 54/141/73 85/142/74 53/139/71
f 55/143/75 86/144/76 54/141/73
f 56/145/77 87/146/78 55/143/75
f 57/147/79 88/148/80 56/145/77
f 58/149/81 89/150/82 57/147/79
f 58/149/81 91/151/83 90/152/84
f 60/153/85 91/151/83 59/154/86
f 61/155/87 92/156/88 60/153/85
f 62/157/89 93/158/90 61/155/87
f 63/159/91 94/160/92 62/157/89
f 64/161/93 95/162/94 63/159/91
f 64/161/93 97/163/95 96/164/96
f 34/102/34 97/163/95 65/165/97
f 67/103/35 98/166/98 66/104/36
f 68/108/40 99/167/99 67/103/35
f 69/110/42 100/168/100 68/108/40
f 70/112/44 101/169/101 69/110/42
f 71/111/43 102/170/102 70/112/44
f 72/116/48 103/171/103 71/111/43
f 73/118/50 104/172/104 72/116/48
f 73/118/50 106/173/105 105/174/106
f 75/119/51 106/173/105 74/120/52
f 76/124/56 107/175/107 75/119/51
f 76/124/56 109/176/108 108/177/109
f 78/128/60 109/176/108 77/126/58
f 79/127/59 110/178/110 78/128/60
f 80/130/62 111/179/111 79/127/59
f 80/130/62 113/180/112 112/181/113
f 81/134/66 114/182/114 113/180/112
f 83/138/70 114/182/114 82/136/68
f 83/138/70 116/183/115 115/184/116
f 85/142/74 116/183/115 84/140/72
f 85/142/74 118/185/117 117/186/118
f 87/146/78 118/185/117 86/144/76
f 87/146/78 120/187/119 119/188/120
f 89/150/82 120/187/119 88/148/80
f 90/152/84 121/189/121 89/150/82
f 91/151/83 122/190/122 90/152/84
f 92/156/88 123/191/123 91/151/83
f 93/158/90 124/192/124 92/156/88
f 93/158/90 126/193/125 125/194/126
f 95/162/94 126/193/125 94/160/92
f 96/164/96 127/195/127 95/162/94
f 97/163/95 128/196/128 96/164/96
f 97/163/95 98/166/98 129/197/129
f 98/166/98 99/167/99 130/198/130
f 99/167/99 100/168/100 130/198/130
f 100/168/100 101/169/101 130/198/130
f 101/169/101 102/170/102 130/198/130
f 102/170/102 103/171/103 130/198/130
f 103/171/103 104/172/104 130/198/130
f 104/172/104 105/174/106 130/198/130
f 105/174/106 106/173/105 130/198/130
f 106/173/105 107/175/107 130/198/130
f 107/175/107 108/177/109 130/198/130
f 108/177/109 109/176/108 130/198/130
f 109/176/108 110/178/110 130/198/130
f 110/178/110 111/179/111 130/198/130
f 111/179/111 112/181/113 130/198/130
f 112/181/113 113/180/112 130/198/130
f 113/180/112 114/182/114 130/198/130
f 114/182/114 115/184/116 130/198/130
f 115/184/116 116/183/115 130/198/130
f 116/183/115 117/186/118 130/198/130
f 117/186/118 118/185/117 130/198/130
f 118/185/117 119/188/120 130/198/130
f 119/188/120 120/187/119 130/198/130
f 120/187/119 121/189/121 130/198/130
f 121/189/121 122/190/122 130/198/130
f 122/190/122 123/191/123 130/198/130
f 123/191/123 124/192/124 130/198/130
f 124/192/124 125/194/126 130/198/130
f 125/194/126 126/193/125 130/198/130
f 126/193/125 127/195/127 130/198/130
f 127/195/127 128/196/128 130/198/130
f 128/196/128 129/197/129 130/198/130
f 129/197/129 98/166/98 130/198/130
f 132/199/131 143/200/132 131/201/132
f 133/202/133 144/203/131 132/199/131
f 134/204/134 145/205/133 133/206/133
f 135/207/135 146/208/134 134/204/134
f 136/209/136 147/210/135 135/211/135
f 137/212/137 148/213/136 136/209/136
f 138/214/138 149/215/137 137/212/137
f 139/216/139 150/217/138 138/218/138
f 140/219/140 151/220/139 139/216/139
f 140/219/140 153/221/141 152/222/140
f 142/223/142 153/221/141 141/224/141
f 131/201/132 154/225/142 142/226/142
f 139/227/143 135/228/143 131/229/143
f 146/230/144 150/231/144 154/232/144
f 156/233/145 167/234/132 155/235/132
f 157/236/146 168/237/145 156/233/145
f 157/238/146 170/239/147 169/240/146
f 159/241/148 170/239/147 158/242/147
f 160/243/149 171/244/148 159/245/148
f 161/246/137 172/247/149 160/243/149
f 162/248/150 173/249/137 161/246/137
f 162/250/150 175/251/151 174/252/150
f 164/253/152 175/251/151 163/254/151
f 165/255/153 176/256/152 164/253/152
f 166/257/154 177/258/153 165/255/153
f 155/235/132 178/259/154 166/260/154
f 163/261/155 159/262/155 155/263/155
f 170/264/156 174/265/156 178/266/156
f 180/267/157 191/268/132 179/269/132
f 180/267/157 193/270/158 192/271/157
f 181/272/158 194/273/159 193/274/158
f 183/275/160 194/273/159 182/276/159
f 184/277/161 195/278/160 183/279/160
f 185/280/137 196/281/161 184/277/161
f 186/282/162 197/283/137 185/280/137
f 187/284/163 198/285/162 186/282/162
f 188/286/164 199/287/163 187/288/163
f 188/286/164 201/289/165 200/290/164
f 190/291/166 201/292/165 189/293/165
f 190/291/166 191/268/132 202/294/166
f 187/295/167 183/296/167 179/297/167
f 194/298/168 198/299/168 202/300/168
f 204/301/169 215/302/132 203/303/132
f 205/304/170 216/305/169 204/301/169
f 206/306/171 217/307/170 205/308/170
f 206/306/171 219/309/172 218/310/171
f 208/311/173 219/312/172 207/313/172
f 209/314/137 220/315/173 208/311/173
f 209/314/137 222/316/174 221/317/137
f 210/318/174 223/319/175 222/316/174
f 211/320/175 224/321/176 223/322/175
f 212/323/176 225/324/177 224/321/176
f 214/325/178 225/326/177 213/327/177
f 203/303/132 226/328/178 214/325/178
f 211/329/179 207/330/179 203/331/179
f 218/332/180 222/333/180 226/334/180
f 227/335/132 240/336/181 239/337/132
f 229/338/182 240/336/181 228/339/181
f 229/340/182 242/341/183 241/342/182
f 231/343/184 242/341/183 230/344/183
f 231/345/184 244/346/185 243/347/184
f 232/348/185 245/349/137 244/346/185
f 234/350/186 245/349/137 233/351/137
f 235/352/187 246/353/186 234/350/186
f 236/354/188 247/355/187 235/356/187
f 236/354/188 249/357/189 248/358/188
f 237/359/189 250/360/190 249/361/189
f 238/362/190 239/337/132 250/360/190
f 235/363/191 231/364/191 227/365/191
f 242/366/192 246/367/192 250/368/192
f 251/369/132 264/370/193 263/371/132
f 253/372/194 264/370/193 252/373/193
f 253/374/194 266/375/195 265/376/194
f 255/377/196 266/375/195 254/378/195
f 255/379/196 268/380/197 267/381/196
f 257/382/137 268/380/197 256/383/197
f 257/382/137 270/384/198 269/385/137
f 259/386/199 270/384/198 258/387/198
f 260/388/200 271/389/199 259/390/199
f 260/388/200 273/391/201 272/392/200
f 262/393/202 273/394/201 261/395/201
f 251/369/132 274/396/202 262/393/202
f 259/397/203 255/398/203 251/399/203
f 266/400/204 270/401/204 274/402/204
f 276/403/205 287/404/132 275/405/132
f 277/406/206 288/407/205 276/403/205
f 277/408/206 290/409/207 289/410/206
f 279/411/208 290/409/207 278/412/207
f 280/413/209 291/414/208 279/415/208
f 281/416/137 292/417/209 280/413/209
f 281/416/137 294/418/210 293/419/137
f 283/420/211 294/418/210 282/421/210
f 284/422/212 295/423/211 283/424/211
f 285/425/213 296/426/212 284/422/212
f 285/427/213 298/428/214 297/429/213
f 275/405/132 298/428/214 286/430/214
f 283/431/215 279/432/215 275/433/215
f 290/434/216 294/435/216 298/436/216
f 299/437/132 312/438/217 311/439/132
f 300/440/217 313/441/218 312/442/217
f 301/443/218 314/444/219 313/441/218
f 303/445/220 314/444/219 302/446/219
f 304/447/221 315/448/220 303/445/220
f 305/449/137 316/450/221 304/451/221
f 305/449/137 318/452/222 317/453/137
f 307/454/223 318/452/222 306/455/222
f 308/456/224 319/457/223 307/458/223
f 308/456/224 321/459/225 320/460/224
f 309/461/225 322/462/226 321/463/225
f 299/437/132 322/462/226 310/464/226
f 307/465/227 303/466/227 299/467/227
f 314/468/228 318/469/228 322/470/228
f 323/471/229 325/472/229 324/473/229
f 323/471/229 326/474/229 325/472/229
f 323/471/229 327/475/229 326/474/229
f 323/471/229 328/476/229 327/475/229
f 323/471/229 329/477/229 328/476/229
f 323/471/229 330/478/229 329/477/229
f 323/471/229 331/479/229 330/478/229
f 323/471/229 332/480/229 331/479/229
f 323/471/229 333/481/229 332/480/229
f 323/471/229 334/482/229 333/481/229
f 323/471/229 335/483/229 334/482/229
f 323/471/229 336/484/229 335/483/229
f 323/471/229 337/485/229 336/484/229
f 323/471/229 338/486/229 337/485/229
f 323/471/229 339/487/229 338/486/229
f 323/471/229 340/488/229 339/487/229
f 323/471/229 341/489/229 340/488/229
f 323/471/229 342/490/229 341/489/229
f 323/471/229 343/491/229 342/490/229
f 323/471/229 344/492/229 343/491/229
f 323/471/229 345/493/229 344/492/229
f 323/471/229 346/494/229 345/493/229
f 323/471/229 347/495/229 346/494/229
f 323/471/229 324/473/229 347/495/229
f 325/472/230 348/496/231 324/473/231
f 325/472/230 350/497/232 349/498/230
f 326/474/232 351/499/233 350/497/232
f 327/475/233 352/500/234 351/499/233
f 329/477/235 352/500/234 328/476/234
f 330/478/236 353/501/235 329/477/235
f 330/478/236 355/502/237 354/503/236
f 331/479/237 356/504/238 355/502/237
f 333/481/239 356/504/238 332/480/238
f 334/482/240 357/505/239 333/481/239
f 335/483/241 358/506/240 334/482/240
f 336/484/242 359/507/241 335/483/241
f 336/484/242 361/508/243 360/509/242
f 338/486/244 361/508/243 337/485/243
f 338/486/244 363/510/245 362/511/244
f 339/487/245 364/512/246 363/510/245
f 341/489/247 364/512/246 340/488/246
f 342/490/248 365/513/247 341/489/247
f 343/491/249 366/514/248 342/490/248
f 344/492/250 367/515/249 343/491/249
f 345/493/251 368/516/250 344/492/250
f 346/494/252 369/517/251 345/493/251
f 346/494/252 371/518/253 370/519/252
f 324/473/231 371/518/253 347/495/253
f 349/520/254 372/521/255 348/522/255
f 349/520/254 374/523/256 373/524/254
f 351/525/257 374/523/256 350/526/256
f 351/527/257 376/528/258 375/529/257
f 353/530/259 376/528/258 352/531/258
f 354/532/260 377/533/259 353/530/259
f 354/532/260 379/534/261 378/535/260
f 355/536/261 380/537/262 379/534/261
f 357/538/263 380/537/262 356/539/262
f 357/540/263 382/541/264 381/542/263
f 359/543/265 382/541/264 358/544/264
f 359/543/265 384/545/266 383/546/265
f 360/547/266 385/548/267 384/545/266
f 361/549/267 386/550/268 385/548/267
f 363/551/269 386/550/268 362/552/268
f 364/553/270 387/554/269 363/555/269
f 365/556/271 388/557/270 364/553/270
f 366/558/272 389/559/271 365/556/271
f 366/558/272 391/560/273 390/561/272
f 367/562/273 392/563/274 391/560/273
f 369/564/275 392/563/274 368/565/274
f 369/566/275 394/567/276 393/568/275
f 371/569/277 394/567/276 370/570/276
f 348/522/255 395/571/277 371/569/277
f 373/572/278 396/573/279 372/574/280
f 374/575/281 397/576/282 373/572/278
f 375/577/283 398/578/284 374/575/281
f 376/579/285 399/580/286 375/577/283
f 376/579/285 401/581/287 400/582/288
f 378/583/289 401/581/287 377/584/290
f 378/583/289 403/585/291 402/586/292
f 380/587/293 403/585/291 379/588/294
f 380/587/293 405/589/295 404/590/296
f 381/591/297 406/592/298 405/589/295
f 382/593/299 407/594/300 406/592/298
f 384/595/301 407/594/300 383/596/302
f 384/595/301 409/597/303 408/598/304
f 386/599/305 409/597/303 385/600/306
f 387/601/307 410/602/308 386/599/305
f 387/601/307 412/603/309 411/604/310
f 389/605/311 412/603/309 388/606/312
f 390/607/26 413/608/313 389/605/311
f 390/607/26 415/609/314 414/610/315
f 392/611/316 415/609/314 391/612/317
f 393/613/318 416/614/319 392/611/316
f 393/613/318 418/615/320 417/616/321
f 394/617/322 419/618/323 418/615/320
f 372/574/280 419/618/323 395/619/324
f 396/573/279 397/576/282 420/620/325
f 397/576/282 398/578/284 420/620/325
f 398/578/284 399/580/286 420/620/325
f 399/580/286 400/582/288 420/620/325
f 400/582/288 401/581/287 420/620/325
f 401/581/287 402/586/292 420/620/325
f 402/586/292 403/585/291 420/620/325
f 403/585/291 404/590/296 420/620/325
f 404/590/296 405/589/295 420/620/325
f 405/589/295 406/592/298 420/620/325
f 406/592/298 407/594/300 420/620/325
f 407/594/300 408/598/304 420/620/325
f 408/598/304 409/597/303 420/620/325
f 409/597/303 410/602/308 420/620/325
f 410/602/308 411/604/310 420/620/325
f 411/604/310 412/603/309 420/620/325
f 412/603/309 413/608/313 420/620/325
f 413/608/313 414/610/315 420/620/325
f 414/610/315 415/609/314 420/620/325
f 415/609/314 416/614/319 420/620/325
f 416/614/319 417/616/321 420/620/325
f 417/616/321 418/615/320 420/620/325
f 418/615/320 419/618/323 420/620/325
f 419/618/323 396/573/279 420/620/325
f 3/34/2 35/38/2 34/35/3
f 3/34/2 4/39/4 36/37/4
f 4/39/4 5/42/5 37/40/5
f 6/41/6 38/621/6 37/40/5
f 7/43/7 39/47/7 38/44/6
f 8/46/8 40/49/8 39/47/7
f 9/48/9 41/51/9 40/49/8
f 9/48/9 10/53/10 42/50/10
f 11/52/11 43/55/11 42/50/10
f 12/54/12 44/57/12 43/55/11
f 13/56/13 45/59/13 44/57/12
f 13/56/13 14/622/14 46/58/14
f 15/60/15 47/64/15 46/61/14
f 16/63/16 48/66/16 47/64/15
f 16/63/16 17/67/17 49/65/17
f 17/67/17 18/70/18 50/68/18
f 19/69/19 51/72/19 50/68/18
f 20/71/20 52/74/20 51/72/19
f 20/71/20 21/75/21 53/73/21
f 21/75/21 22/623/22 54/76/22
f 23/77/23 55/81/23 54/78/22
f 23/77/23 24/83/24 56/80/24
f 25/82/25 57/85/25 56/80/24
f 26/84/26 58/87/26 57/85/25
f 27/86/27 59/89/27 58/87/26
f 27/86/27 28/91/28 60/88/28
f 29/90/29 61/93/29 60/88/28
f 29/90/29 30/624/30 62/92/30
f 31/94/31 63/98/31 62/95/30
f 32/97/32 64/100/32 63/98/31
f 33/99/33 65/101/33 64/100/32
f 33/99/33 2/36/3 34/35/3
f 34/102/34 35/106/38 67/103/35
f 36/105/37 68/108/40 67/103/35
f 37/107/39 69/110/42 68/108/40
f 38/109/41 70/112/44 69/110/42
f 38/109/41 39/114/46 71/111/43
f 40/113/45 72/116/48 71/111/43
f 41/115/47 73/118/50 72/116/48
f 42/117/49 74/120/52 73/118/50
f 42/117/49 43/122/54 75/119/51
f 44/121/53 76/124/56 75/119/51
f 45/123/55 77/126/58 76/124/56
f 46/125/57 78/128/60 77/126/58
f 46/125/57 47/129/61 79/127/59
f 47/129/61 48/132/64 80/130/62
f 49/131/63 81/134/66 80/130/62
f 50/133/65 82/136/68 81/134/66
f 51/135/67 83/138/70 82/136/68
f 52/137/69 84/140/72 83/138/70
f 53/139/71 85/142/74 84/140/72
f 54/141/73 86/144/76 85/142/74
f 55/143/75 87/146/78 86/144/76
f 56/145/77 88/148/80 87/146/78
f 57/147/79 89/150/82 88/148/80
f 58/149/81 90/152/84 89/150/82
f 58/149/81 59/154/86 91/151/83
f 60/153/85 92/156/88 91/151/83
f 61/155/87 93/158/90 92/156/88
f 62/157/89 94/160/92 93/158/90
f 63/159/91 95/162/94 94/160/92
f 64/161/93 96/164/96 95/162/94
f 64/161/93 65/165/97 97/163/95
f 34/102/34 66/104/36 97/163/95
f 67/103/35 99/167/99 98/166/98
f 68/108/40 100/168/100 99/167/99
f 69/110/42 101/169/101 100/168/100
f 70/112/44 102/170/102 101/169/101
f 71/111/43 103/171/103 102/170/102
f 72/116/48 104/172/104 103/171/103
f 73/118/50 105/174/106 104/172/104
f 73/118/50 74/120/52 106/173/105
f 75/119/51 107/175/107 106/173/105
f 76/124/56 108/177/109 107/175/107
f 76/124/56 77/126/58 109/176/108
f 78/128/60 110/178/110 109/176/108
f 79/127/59 111/179/111 110/178/110
f 80/130/62 112/181/113 111/179/111
f 80/130/62 81/134/66 113/180/112
f 81/134/66 82/136/68 114/182/114
f 83/138/70 115/184/116 114/182/114
f 83/138/70 84/140/72 116/183/115
f 85/142/74 117/186/118 116/183/115
f 85/142/74 86/144/76 118/185/117
f 87/146/78 119/188/120 118/185/117
f 87/146/78 88/148/80 120/187/119
f 89/150/82 121/189/121 120/187/119
f 90/152/84 122/190/122 121/189/121
f 91/151/83 123/191/123 122/190/122
f 92/156/88 124/192/124 123/191/123
f 93/158/90 125/194/126 124/192/124
f 93/158/90 94/160/92 126/193/125
f 95/162/94 127/195/127 126/193/125
f 96/164/96 128/196/128 127/195/127
f 97/163/95 129/197/129 128/196/128
f 97/163/95 66/104/36 98/166/98
f 132/199/131 144/203/131 143/200/132
f 133/202/133 145/625/133 144/203/131
f 134/204/134 146/208/134 145/205/133
f 135/207/135 147/626/135 146/208/134
f 136/209/136 148/213/136 147/210/135
f 137/212/137 149/215/137 148/213/136
f 138/214/138 150/627/138 149/215/137
f 139/216/139 151/220/139 150/217/138
f 140/219/140 152/222/140 151/220/139
f 140/219/140 141/224/141 153/221/141
f 142/223/142 154/628/142 153/221/141
f 131/201/132 143/200/132 154/225/142
f 131/229/143 142/629/143 141/630/143
f 141/630/143 140/631/143 139/227/143
f 139/227/143 138/632/143 137/633/143
f 137/633/143 136/634/143 135/228/143
f 135/228/143 134/635/143 133/636/143
f 133/636/143 132/637/143 131/229/143
f 131/229/143 141/630/143 139/227/143
f 139/227/143 137/633/143 135/228/143
f 135/228/143 133/636/143 131/229/143
f 154/232/144 143/638/144 144/639/144
f 144/639/144 145/640/144 146/230/144
f 146/230/144 147/641/144 148/642/144
f 148/642/144 149/643/144 150/231/144
f 150/231/144 151/644/144 152/645/144
f 152/645/144 153/646/144 154/232/144
f 154/232/144 144/639/144 146/230/144
f 146/230/144 148/642/144 150/231/144
f 150/231/144 152/645/144 154/232/144
f 156/233/145 168/237/145 167/234/132
f 157/236/146 169/647/146 168/237/145
f 157/238/146 158/242/147 170/239/147
f 159/241/148 171/648/148 170/239/147
f 160/243/149 172/247/149 171/244/148
f 161/246/137 173/249/137 172/247/149
f 162/248/150 174/649/150 173/249/137
f 162/250/150 163/254/151 175/251/151
f 164/253/152 176/256/152 175/251/151
f 165/255/153 177/258/153 176/256/152
f 166/257/154 178/650/154 177/258/153
f 155/235/132 167/234/132 178/259/154
f 155/263/155 166/651/155 165/652/155
f 165/652/155 164/653/155 163/261/155
f 163/261/155 162/654/155 161/655/155
f 161/655/155 160/656/155 159/262/155
f 159/262/155 158/657/155 157/658/155
f 157/658/155 156/659/155 155/263/155
f 155/263/155 165/652/155 163/261/155
f 163/261/155 161/655/155 159/262/155
f 159/262/155 157/658/155 155/263/155
f 178/266/156 167/660/156 168/661/156
f 168/661/156 169/662/156 170/264/156
f 170/264/156 171/663/156 172/664/156
f 172/664/156 173/665/156 174/265/156
f 174/265/156 175/666/156 176/667/156
f 176/667/156 177/668/156 178/266/156
f 178/266/156 168/661/156 170/264/156
f 170/264/156 172/664/156 174/265/156
f 174/265/156 176/667/156 178/266/156
f 180/267/157 192/271/157 191/268/132
f 180/267/157 181/669/158 193/270/158
f 181/272/158 182/276/159 194/273/159
f 183/275/160 195/670/160 194/273/159
f 184/277/161 196/281/161 195/278/160
f 185/280/137 197/283/137 196/281/161
f 186/282/162 198/285/162 197/283/137
f 187/284/163 199/671/163 198/285/162
f 188/286/164 200/290/164 199/287/163
f 188/286/164 189/672/165 201/289/165
f 190/291/166 202/294/166 201/292/165
f 190/291/166 179/269/132 191/268/132
f 179/297/167 190/673/167 189/674/167
f 189/674/167 188/675/167 187/295/167
f 187/295/167 186/676/167 185/677/167
f 185/677/167 184/678/167 183/296/167
f 183/296/167 182/679/167 181/680/167
f 181/680/167 180/681/167 179/297/167
f 179/297/167 189/674/167 187/295/167
f 187/295/167 185/677/167 183/296/167
f 183/296/167 181/680/167 179/297/167
f 202/300/168 191/682/168 192/683/168
f 192/683/168 193/684/168 194/298/168
f 194/298/168 195/685/168 196/686/168
f 196/686/168 197/687/168 198/299/168
f 198/299/168 199/688/168 200/689/168
f 200/689/168 201/690/168 202/300/168
f 202/300/168 192/683/168 194/298/168
f 194/298/168 196/686/168 198/299/168
f 198/299/168 200/689/168 202/300/168
f 204/301/169 216/305/169 215/302/132
f 205/304/170 217/691/170 216/305/169
f 206/306/171 218/310/171 217/307/170
f 206/306/171 207/692/172 219/309/172
f 208/311/173 220/315/173 219/312/172
f 209/314/137 221/317/137 220/315/173
f 209/314/137 210/318/174 222/316/174
f 210/318/174 211/693/175 223/319/175
f 211/320/175 212/323/176 224/321/176
f 212/323/176 213/694/177 225/324/177
f 214/325/178 226/328/178 225/326/177
f 203/303/132 215/302/132 226/328/178
f 203/331/179 214/695/179 213/696/179
f 213/696/179 212/697/179 211/329/179
f 211/329/179 210/698/179 209/699/179
f 209/699/179 208/700/179 207/330/179
f 207/330/179 206/701/179 205/702/179
f 205/702/179 204/703/179 203/331/179
f 203/331/179 213/696/179 211/329/179
f 211/329/179 209/699/179 207/330/179
f 207/330/179 205/702/179 203/331/179
f 226/334/180 215/704/180 216/705/180
f 216/705/180 217/706/180 218/332/180
f 218/332/180 219/707/180 220/708/180
f 220/708/180 221/709/180 222/333/180
f 222/333/180 223/710/180 224/711/180
f 224/711/180 225/712/180 226/334/180
f 226/334/180 216/705/180 218/332/180
f 218/332/180 220/708/180 222/333/180
f 222/333/180 224/711/180 226/334/180
f 227/335/132 228/339/181 240/336/181
f 229/338/182 241/713/182 240/336/181
f 229/340/182 230/344/183 242/341/183
f 231/343/184 243/714/184 242/341/183
f 231/345/184 232/348/185 244/346/185
f 232/348/185 233/351/137 245/349/137
f 234/350/186 246/353/186 245/349/137
f 235/352/187 247/715/187 246/353/186
f 236/354/188 248/358/188 247/355/187
f 236/354/188 237/716/189 249/357/189
f 237/359/189 238/362/190 250/360/190
f 238/362/190 227/335/132 239/337/132
f 227/365/191 238/717/191 237/718/191
f 237/718/191 236/719/191 235/363/191
f 235/363/191 234/720/191 233/721/191
f 233/721/191 232/722/191 231/364/191
f 231/364/191 230/723/191 229/724/191
f 229/724/191 228/725/191 227/365/191
f 227/365/191 237/718/191 235/363/191
f 235/363/191 233/721/191 231/364/191
f 231/364/191 229/724/191 227/365/191
f 250/368/192 239/726/192 240/727/192
f 240/727/192 241/728/192 242/366/192
f 242/366/192 243/729/192 244/730/192
f 244/730/192 245/731/192 246/367/192
f 246/367/192 247/732/192 248/733/192
f 248/733/192 249/734/192 250/368/192
f 250/368/192 240/727/192 242/366/192
f 242/366/192 244/730/192 246/367/192
f 246/367/192 248/733/192 250/368/192
f 251/369/132 252/373/193 264/370/193
f 253/372/194 265/735/194 264/370/193
f 253/374/194 254/378/195 266/375/195
f 255/377/196 267/736/196 266/375/195
f 255/379/196 256/383/197 268/380/197
f 257/382/137 269/385/137 268/380/197
f 257/382/137 258/387/198 270/384/198
f 259/386/199 271/737/199 270/384/198
f 260/388/200 272/392/200 271/389/199
f 260/388/200 261/738/201 273/391/201
f 262/393/202 274/396/202 273/394/201
f 251/369/132 263/371/132 274/396/202
f 251/399/203 262/739/203 261/740/203
f 261/740/203 260/741/203 259/397/203
f 259/397/203 258/742/203 257/743/203
f 257/743/203 256/744/203 255/398/203
f 255/398/203 254/745/203 253/746/203
f 253/746/203 252/747/203 251/399/203
f 251/399/203 261/740/203 259/397/203
f 259/397/203 257/743/203 255/398/203
f 255/398/203 253/746/203 251/399/203
f 274/402/204 263/748/204 264/749/204
f 264/749/204 265/750/204 266/400/204
f 266/400/204 267/751/204 268/752/204
f 268/752/204 269/753/204 270/401/204
f 270/401/204 271/754/204 272/755/204
f 272/755/204 273/756/204 274/402/204
f 274/402/204 264/749/204 266/400/204
f 266/400/204 268/752/204 270/401/204
f 270/401/204 272/755/204 274/402/204
f 276/403/205 288/407/205 287/404/132
f 277/406/206 289/757/206 288/407/205
f 277/408/206 278/412/207 290/409/207
f 279/411/208 291/758/208 290/409/207
f 280/413/209 292/417/209 291/414/208
f 281/416/137 293/419/137 292/417/209
f 281/416/137 282/421/210 294/418/210
f 283/420/211 295/759/211 294/418/210
f 284/422/212 296/426/212 295/423/211
f 285/425/213 297/760/213 296/426/212
f 285/427/213 286/430/214 298/428/214
f 275/405/132 287/404/132 298/428/214
f 275/433/215 286/761/215 285/762/215
f 285/762/215 284/763/215 283/431/215
f 283/431/215 282/764/215 281/765/215
f 281/765/215 280/766/215 279/432/215
f 279/432/215 278/767/215 277/768/215
f 277/768/215 276/769/215 275/433/215
f 275/433/215 285/762/215 283/431/215
f 283/431/215 281/765/215 279/432/215
f 279/432/215 277/768/215 275/433/215
f 298/436/216 287/770/216 288/771/216
f 288/771/216 289/772/216 290/434/216
f 290/434/216 291/773/216 292/774/216
f 292/774/216 293/775/216 294/435/216
f 294/435/216 295/776/216 296/777/216
f 296/777/216 297/778/216 298/436/216
f 298/436/216 288/771/216 290/434/216
f 290/434/216 292/774/216 294/435/216
f 294/435/216 296/777/216 298/436/216
f 299/437/132 300/779/217 312/438/217
f 300/440/217 301/443/218 313/441/218
f 301/443/218 302/446/219 314/444/219
f 303/445/220 315/448/220 314/444/219
f 304/447/221 316/780/221 315/448/220
f 305/449/137 317/453/137 316/450/221
f 305/449/137 306/455/222 318/452/222
f 307/454/223 319/781/223 318/452/222
f 308/456/224 320/460/224 319/457/223
f 308/456/224 309/782/225 321/459/225
f 309/461/225 310/464/226 322/462/226
f 299/437/132 311/439/132 322/462/226
f 299/467/227 310/783/227 309/784/227
f 309/784/227 308/785/227 307/465/227
f 307/465/227 306/786/227 305/787/227
f 305/787/227 304/788/326 303/466/227
f 303/466/227 302/789/326 301/790/227
f 301/790/227 300/791/227 299/467/227
f 299/467/227 309/784/227 307/465/227
f 307/465/227 305/787/227 303/466/227
f 303/466/227 301/790/227 299/467/227
f 322/470/228 311/792/228 312/793/228
f 312/793/228 313/794/228 314/468/228
f 314/468/228 315/795/228 316/796/228
f 316/796/228 317/797/228 318/469/228
f 318/469/228 319/798/327 320/799/228
f 320/799/228 321/800/327 322/470/228
f 322/470/228 312/793/228 314/468/228
f 314/468/228 316/796/228 318/469/228
f 318/469/228 320/799/228 322/470/228
f 325/472/230 349/498/230 348/496/231
f 325/472/230 326/474/232 350/497/232
f 326/474/232 327/475/233 351/499/233
f 327/475/233 328/476/234 352/500/234
f 329/477/235 353/501/235 352/500/234
f 330/478/236 354/503/236 353/501/235
f 330/478/236 331/479/237 355/502/237
f 331/479/237 332/480/238 356/504/238
f 333/481/239 357/505/239 356/504/238
f 334/482/240 358/506/240 357/505/239
f 335/483/241 359/507/241 358/506/240
f 336/484/242 360/509/242 359/507/241
f 336/484/242 337/485/243 361/508/243
f 338/486/244 362/511/244 361/508/243
f 338/486/244 339/487/245 363/510/245
f 339/487/245 340/488/246 364/512/246
f 341/489/247 365/513/247 364/512/246
f 342/490/248 366/514/248 365/513/247
f 343/491/249 367/515/249 366/514/248
f 344/492/250 368/516/250 367/515/249
f 345/493/251 369/517/251 368/516/250
f 346/494/252 370/519/252 369/517/251
f 346/494/252 347/495/253 371/518/253
f 324/473/231 348/496/231 371/518/253
f 349/520/254 373/524/254 372/521/255
f 349/520/254 350/526/256 374/523/256
f 351/525/257 375/801/257 374/523/256
f 351/527/257 352/531/258 376/528/258
f 353/530/259 377/533/259 376/528/258
f 354/532/260 378/535/260 377/533/259
f 354/532/260 355/536/261 379/534/261
f 355/536/261 356/539/262 380/537/262
f 357/538/263 381/802/263 380/537/262
f 357/540/263 358/544/264 382/541/264
f 359/543/265 383/546/265 382/541/264
f 359/543/265 360/547/266 384/545/266
f 360/547/266 361/549/267 385/548/267
f 361/549/267 362/552/268 386/550/268
f 363/551/269 387/803/269 386/550/268
f 364/553/270 388/557/270 387/554/269
f 365/556/271 389/559/271 388/557/270
f 366/558/272 390/561/272 389/559/271
f 366/558/272 367/562/273 391/560/273
f 367/562/273 368/565/274 392/563/274
f 369/564/275 393/804/275 392/563/274
f 369/566/275 370/570/276 394/567/276
f 371/569/277 395/571/277 394/567/276
f 348/522/255 372/521/255 395/571/277
f 373/572/278 397/576/282 396/573/279
f 374/575/281 398/578/284 397/576/282
f 375/577/283 399/580/286 398/578/284
f 376/579/285 400/582/288 399/580/286
f 376/579/285 377/584/290 401/581/287
f 378/583/289 402/586/292 401/581/287
f 378/583/289 379/588/294 403/585/291
f 380/587/293 404/590/296 403/585/291
f 380/587/293 381/591/297 405/589/295
f 381/591/297 382/593/299 406/592/298
f 382/593/299 383/596/302 407/594/300
f 384/595/301 408/598/304 407/594/300
f 384/595/301 385/600/306 409/597/303
f 386/599/305 410/602/308 409/597/303
f 387/601/307 411/604/310 410/602/308
f 387/601/307 388/606/312 412/603/309
f 389/605/311 413/608/313 412/603/309
f 390/607/26 414/610/315 413/608/313
f 390/607/26 391/612/317 415/609/314
f 392/611/316 416/614/319 415/609/314
f 393/613/318 417/616/321 416/614/319
f 393/613/318 394/617/322 418/615/320
f 394/617/322 395/619/324 419/618/323
f 372/574/280 396/573/279 419/618/323
