# THE OBSERVER - generated by tools/gen_observer.py
v -0.19800 -0.50000 0.27729
v -0.18664 -0.50000 0.27936
v -0.17528 -0.50000 0.28281
v -0.16393 -0.50000 0.28772
v -0.15257 -0.50000 0.29420
v -0.14121 -0.50000 0.30244
v -0.12985 -0.50000 0.31269
v -0.11849 -0.50000 0.32538
v -0.10714 -0.50000 0.34119
v -0.09578 -0.50000 0.36141
v -0.19800 -0.44762 0.23746
v -0.18218 -0.44762 0.23959
v -0.16635 -0.44762 0.24346
v -0.15053 -0.44762 0.24916
v -0.13471 -0.44762 0.25683
v -0.11889 -0.44762 0.26670
v -0.10306 -0.44762 0.27909
v -0.08724 -0.44762 0.29451
v -0.07142 -0.44762 0.31385
v -0.05560 -0.44762 0.33876
v -0.19800 -0.39524 0.19729
v -0.17868 -0.39524 0.19957
v -0.15936 -0.39524 0.20393
v -0.14005 -0.39524 0.21047
v -0.12073 -0.39524 0.21938
v -0.10141 -0.39524 0.23089
v -0.08209 -0.39524 0.24541
v -0.06278 -0.39524 0.26355
v -0.04346 -0.39524 0.28636
v -0.02414 -0.39524 0.31582
v -0.19800 -0.34286 0.16646
v -0.17746 -0.34286 0.16893
v -0.15693 -0.34286 0.17372
v -0.13639 -0.34286 0.18096
v -0.11586 -0.34286 0.19083
v -0.09532 -0.34286 0.20361
v -0.07479 -0.34286 0.21976
v -0.05425 -0.34286 0.23994
v -0.03372 -0.34286 0.26534
v -0.01318 -0.34286 0.29818
v -0.19800 -0.29048 0.15240
v -0.17691 -0.29048 0.15495
v -0.15581 -0.29048 0.15994
v -0.13472 -0.29048 0.16749
v -0.11363 -0.29048 0.17780
v -0.09254 -0.29048 0.19117
v -0.07144 -0.29048 0.20805
v -0.05035 -0.29048 0.22918
v -0.02926 -0.29048 0.25576
v -0.00816 -0.29048 0.29014
v -0.19800 -0.23810 0.14953
v -0.17549 -0.23810 0.15206
v -0.15297 -0.23810 0.15707
v -0.13046 -0.23810 0.16468
v -0.10795 -0.23810 0.17508
v -0.08544 -0.23810 0.18859
v -0.06292 -0.23810 0.20566
v -0.04041 -0.23810 0.22703
v -0.01790 -0.23810 0.25393
v 0.00462 -0.23810 0.28876
v -0.19800 -0.18571 0.14013
v -0.17355 -0.18571 0.14289
v -0.14910 -0.18571 0.14823
v -0.12465 -0.18571 0.15626
v -0.10020 -0.18571 0.16718
v -0.07575 -0.18571 0.18132
v -0.05130 -0.18571 0.19914
v -0.02685 -0.18571 0.22141
v -0.00240 -0.18571 0.24942
v 0.02204 -0.18571 0.28563
v -0.19800 -0.13333 0.12524
v -0.17157 -0.13333 0.12895
v -0.14514 -0.13333 0.13536
v -0.11871 -0.13333 0.14461
v -0.09228 -0.13333 0.15689
v -0.06585 -0.13333 0.17255
v -0.03942 -0.13333 0.19208
v -0.01299 -0.13333 0.21628
v 0.01345 -0.13333 0.24650
v 0.03988 -0.13333 0.28534
v -0.19800 -0.08095 0.10739
v -0.17003 -0.08095 0.11217
v -0.14205 -0.08095 0.11980
v -0.11408 -0.08095 0.13041
v -0.08610 -0.08095 0.14424
v -0.05813 -0.08095 0.16162
v -0.03015 -0.08095 0.18309
v -0.00218 -0.08095 0.20948
v 0.02579 -0.08095 0.24223
v 0.05377 -0.08095 0.28408
v -0.19800 -0.02857 0.08962
v -0.16930 -0.02857 0.09401
v -0.14059 -0.02857 0.10140
v -0.11189 -0.02857 0.11193
v -0.08318 -0.02857 0.12583
v -0.05448 -0.02857 0.14346
v -0.02578 -0.02857 0.16539
v 0.00293 -0.02857 0.19248
v 0.03163 -0.02857 0.22625
v 0.06034 -0.02857 0.26957
v -0.19800 0.02381 0.07494
v -0.16901 0.02381 0.07829
v -0.14002 0.02381 0.08475
v -0.11102 0.02381 0.09447
v -0.08203 0.02381 0.10770
v -0.05304 0.02381 0.12480
v -0.02405 0.02381 0.14635
v 0.00494 0.02381 0.17328
v 0.03394 0.02381 0.20714
v 0.06293 0.02381 0.25093
v -0.19800 0.07619 0.06579
v -0.16795 0.07619 0.06869
v -0.13790 0.07619 0.07477
v -0.10785 0.07619 0.08420
v -0.07780 0.07619 0.09722
v -0.04775 0.07619 0.11421
v -0.01771 0.07619 0.13576
v 0.01234 0.07619 0.16283
v 0.04239 0.07619 0.19699
v 0.07244 0.07619 0.24134
v -0.19800 0.12857 0.06202
v -0.16633 0.12857 0.06480
v -0.13465 0.12857 0.07080
v -0.10298 0.12857 0.08018
v -0.07131 0.12857 0.09318
v -0.03963 0.12857 0.11019
v -0.00796 0.12857 0.13180
v 0.02371 0.12857 0.15897
v 0.05539 0.12857 0.19331
v 0.08706 0.12857 0.23792
v -0.19800 0.18095 0.04625
v -0.16453 0.18095 0.04901
v -0.13106 0.18095 0.05503
v -0.09759 0.18095 0.06448
v -0.06412 0.18095 0.07759
v -0.03065 0.18095 0.09477
v 0.00282 0.18095 0.11662
v 0.03629 0.18095 0.14410
v 0.06975 0.18095 0.17884
v 0.10322 0.18095 0.22400
v -0.19800 0.23333 0.02491
v -0.16300 0.23333 0.02768
v -0.12800 0.23333 0.03381
v -0.09300 0.23333 0.04344
v -0.05800 0.23333 0.05683
v -0.02300 0.23333 0.07438
v 0.01200 0.23333 0.09672
v 0.04700 0.23333 0.12483
v 0.08199 0.23333 0.16038
v 0.11699 0.23333 0.20662
v -0.19800 0.28571 0.02743
v -0.16211 0.28571 0.03026
v -0.12622 0.28571 0.03654
v -0.09033 0.28571 0.04642
v -0.05444 0.28571 0.06018
v -0.01855 0.28571 0.07822
v 0.01735 0.28571 0.10119
v 0.05324 0.28571 0.13009
v 0.08913 0.28571 0.16665
v 0.12502 0.28571 0.21421
v -0.19800 0.33810 0.02545
v -0.16205 0.33810 0.02835
v -0.12609 0.33810 0.03479
v -0.09014 0.33810 0.04493
v -0.05419 0.33810 0.05906
v -0.01823 0.33810 0.07757
v 0.01772 0.33810 0.10115
v 0.05367 0.33810 0.13082
v 0.08963 0.33810 0.16835
v 0.12558 0.33810 0.21717
v -0.19800 0.39048 0.01793
v -0.16262 0.39048 0.02090
v -0.12724 0.39048 0.02747
v -0.09186 0.39048 0.03782
v -0.05648 0.39048 0.05221
v -0.02109 0.39048 0.07108
v 0.01429 0.39048 0.09510
v 0.04967 0.39048 0.12532
v 0.08505 0.39048 0.16355
v 0.12043 0.39048 0.21326
v -0.19800 0.44286 0.01463
v -0.16353 0.44286 0.01764
v -0.12905 0.44286 0.02429
v -0.09458 0.44286 0.03472
v -0.06010 0.44286 0.04923
v -0.02563 0.44286 0.06824
v 0.00885 0.44286 0.09243
v 0.04332 0.44286 0.12286
v 0.07779 0.44286 0.16134
v 0.11227 0.44286 0.21138
v -0.19800 0.49524 0.02173
v -0.16435 0.49524 0.02472
v -0.13070 0.49524 0.03128
v -0.09705 0.49524 0.04157
v -0.06340 0.49524 0.05586
v -0.02974 0.49524 0.07458
v 0.00391 0.49524 0.09839
v 0.03756 0.49524 0.12834
v 0.07121 0.49524 0.16621
v 0.10486 0.49524 0.21544
v -0.19800 0.54762 0.04013
v -0.16471 0.54762 0.04302
v -0.13142 0.54762 0.04932
v -0.09813 0.54762 0.05920
v -0.06484 0.54762 0.07291
v -0.03155 0.54762 0.09087
v 0.00174 0.54762 0.11371
v 0.03504 0.54762 0.14244
v 0.06833 0.54762 0.17876
v 0.10162 0.54762 0.22597
v -0.19800 0.60000 0.05790
v -0.16627 0.60000 0.06071
v -0.13453 0.60000 0.06679
v -0.10280 0.60000 0.07629
v -0.07106 0.60000 0.08946
v -0.03933 0.60000 0.10669
v -0.00759 0.60000 0.12859
v 0.02414 0.60000 0.15613
v 0.05588 0.60000 0.19092
v 0.08761 0.60000 0.23613
v -0.19800 -0.50000 0.31229
v -0.18664 -0.50000 0.31436
v -0.17528 -0.50000 0.31781
v -0.16393 -0.50000 0.32272
v -0.15257 -0.50000 0.32920
v -0.14121 -0.50000 0.33744
v -0.12985 -0.50000 0.34769
v -0.11849 -0.50000 0.36038
v -0.10714 -0.50000 0.37619
v -0.09578 -0.50000 0.39641
v -0.19800 -0.44762 0.27246
v -0.18218 -0.44762 0.27459
v -0.16635 -0.44762 0.27846
v -0.15053 -0.44762 0.28416
v -0.13471 -0.44762 0.29183
v -0.11889 -0.44762 0.30170
v -0.10306 -0.44762 0.31409
v -0.08724 -0.44762 0.32951
v -0.07142 -0.44762 0.34885
v -0.05560 -0.44762 0.37376
v -0.19800 -0.39524 0.23229
v -0.17868 -0.39524 0.23457
v -0.15936 -0.39524 0.23893
v -0.14005 -0.39524 0.24547
v -0.12073 -0.39524 0.25438
v -0.10141 -0.39524 0.26589
v -0.08209 -0.39524 0.28041
v -0.06278 -0.39524 0.29855
v -0.04346 -0.39524 0.32136
v -0.02414 -0.39524 0.35082
v -0.19800 -0.34286 0.20146
v -0.17746 -0.34286 0.20393
v -0.15693 -0.34286 0.20872
v -0.13639 -0.34286 0.21596
v -0.11586 -0.34286 0.22583
v -0.09532 -0.34286 0.23861
v -0.07479 -0.34286 0.25476
v -0.05425 -0.34286 0.27494
v -0.03372 -0.34286 0.30034
v -0.01318 -0.34286 0.33318
v -0.19800 -0.29048 0.18740
v -0.17691 -0.29048 0.18995
v -0.15581 -0.29048 0.19494
v -0.13472 -0.29048 0.20249
v -0.11363 -0.29048 0.21280
v -0.09254 -0.29048 0.22617
v -0.07144 -0.29048 0.24305
v -0.05035 -0.29048 0.26418
v -0.02926 -0.29048 0.29076
v -0.00816 -0.29048 0.32514
v -0.19800 -0.23810 0.18453
v -0.17549 -0.23810 0.18706
v -0.15297 -0.23810 0.19207
v -0.13046 -0.23810 0.19968
v -0.10795 -0.23810 0.21008
v -0.08544 -0.23810 0.22359
v -0.06292 -0.23810 0.24066
v -0.04041 -0.23810 0.26203
v -0.01790 -0.23810 0.28893
v 0.00462 -0.23810 0.32376
v -0.19800 -0.18571 0.17513
v -0.17355 -0.18571 0.17789
v -0.14910 -0.18571 0.18323
v -0.12465 -0.18571 0.19126
v -0.10020 -0.18571 0.20218
v -0.07575 -0.18571 0.21632
v -0.05130 -0.18571 0.23414
v -0.02685 -0.18571 0.25641
v -0.00240 -0.18571 0.28442
v 0.02204 -0.18571 0.32063
v -0.19800 -0.13333 0.16024
v -0.17157 -0.13333 0.16395
v -0.14514 -0.13333 0.17036
v -0.11871 -0.13333 0.17961
v -0.09228 -0.13333 0.19189
v -0.06585 -0.13333 0.20755
v -0.03942 -0.13333 0.22708
v -0.01299 -0.13333 0.25128
v 0.01345 -0.13333 0.28150
v 0.03988 -0.13333 0.32034
v -0.19800 -0.08095 0.14239
v -0.17003 -0.08095 0.14717
v -0.14205 -0.08095 0.15480
v -0.11408 -0.08095 0.16541
v -0.08610 -0.08095 0.17924
v -0.05813 -0.08095 0.19662
v -0.03015 -0.08095 0.21809
v -0.00218 -0.08095 0.24448
v 0.02579 -0.08095 0.27723
v 0.05377 -0.08095 0.31908
v -0.19800 -0.02857 0.12462
v -0.16930 -0.02857 0.12901
v -0.14059 -0.02857 0.13640
v -0.11189 -0.02857 0.14693
v -0.08318 -0.02857 0.16083
v -0.05448 -0.02857 0.17846
v -0.02578 -0.02857 0.20039
v 0.00293 -0.02857 0.22748
v 0.03163 -0.02857 0.26125
v 0.06034 -0.02857 0.30457
v -0.19800 0.02381 0.10994
v -0.16901 0.02381 0.11329
v -0.14002 0.02381 0.11975
v -0.11102 0.02381 0.12947
v -0.08203 0.02381 0.14270
v -0.05304 0.02381 0.15980
v -0.02405 0.02381 0.18135
v 0.00494 0.02381 0.20828
v 0.03394 0.02381 0.24214
v 0.06293 0.02381 0.28593
v -0.19800 0.07619 0.10079
v -0.16795 0.07619 0.10369
v -0.13790 0.07619 0.10977
v -0.10785 0.07619 0.11920
v -0.07780 0.07619 0.13222
v -0.04775 0.07619 0.14921
v -0.01771 0.07619 0.17076
v 0.01234 0.07619 0.19783
v 0.04239 0.07619 0.23199
v 0.07244 0.07619 0.27634
v -0.19800 0.12857 0.09702
v -0.16633 0.12857 0.09980
v -0.13465 0.12857 0.10580
v -0.10298 0.12857 0.11518
v -0.07131 0.12857 0.12818
v -0.03963 0.12857 0.14519
v -0.00796 0.12857 0.16680
v 0.02371 0.12857 0.19397
v 0.05539 0.12857 0.22831
v 0.08706 0.12857 0.27292
v -0.19800 0.18095 0.08125
v -0.16453 0.18095 0.08401
v -0.13106 0.18095 0.09003
v -0.09759 0.18095 0.09948
v -0.06412 0.18095 0.11259
v -0.03065 0.18095 0.12977
v 0.00282 0.18095 0.15162
v 0.03629 0.18095 0.17910
v 0.06975 0.18095 0.21384
v 0.10322 0.18095 0.25900
v -0.19800 0.23333 0.05991
v -0.16300 0.23333 0.06268
v -0.12800 0.23333 0.06881
v -0.09300 0.23333 0.07844
v -0.05800 0.23333 0.09183
v -0.02300 0.23333 0.10938
v 0.01200 0.23333 0.13172
v 0.04700 0.23333 0.15983
v 0.08199 0.23333 0.19538
v 0.11699 0.23333 0.24162
v -0.19800 0.28571 0.06243
v -0.16211 0.28571 0.06526
v -0.12622 0.28571 0.07154
v -0.09033 0.28571 0.08142
v -0.05444 0.28571 0.09518
v -0.01855 0.28571 0.11322
v 0.01735 0.28571 0.13619
v 0.05324 0.28571 0.16509
v 0.08913 0.28571 0.20165
v 0.12502 0.28571 0.24921
v -0.19800 0.33810 0.06045
v -0.16205 0.33810 0.06335
v -0.12609 0.33810 0.06979
v -0.09014 0.33810 0.07993
v -0.05419 0.33810 0.09406
v -0.01823 0.33810 0.11257
v 0.01772 0.33810 0.13615
v 0.05367 0.33810 0.16582
v 0.08963 0.33810 0.20335
v 0.12558 0.33810 0.25217
v -0.19800 0.39048 0.05293
v -0.16262 0.39048 0.05590
v -0.12724 0.39048 0.06247
v -0.09186 0.39048 0.07282
v -0.05648 0.39048 0.08721
v -0.02109 0.39048 0.10608
v 0.01429 0.39048 0.13010
v 0.04967 0.39048 0.16032
v 0.08505 0.39048 0.19855
v 0.12043 0.39048 0.24826
v -0.19800 0.44286 0.04963
v -0.16353 0.44286 0.05264
v -0.12905 0.44286 0.05929
v -0.09458 0.44286 0.06972
v -0.06010 0.44286 0.08423
v -0.02563 0.44286 0.10324
v 0.00885 0.44286 0.12743
v 0.04332 0.44286 0.15786
v 0.07779 0.44286 0.19634
v 0.11227 0.44286 0.24638
v -0.19800 0.49524 0.05673
v -0.16435 0.49524 0.05972
v -0.13070 0.49524 0.06628
v -0.09705 0.49524 0.07657
v -0.06340 0.49524 0.09086
v -0.02974 0.49524 0.10958
v 0.00391 0.49524 0.13339
v 0.03756 0.49524 0.16334
v 0.07121 0.49524 0.20121
v 0.10486 0.49524 0.25044
v -0.19800 0.54762 0.07513
v -0.16471 0.54762 0.07802
v -0.13142 0.54762 0.08432
v -0.09813 0.54762 0.09420
v -0.06484 0.54762 0.10791
v -0.03155 0.54762 0.12587
v 0.00174 0.54762 0.14871
v 0.03504 0.54762 0.17744
v 0.06833 0.54762 0.21376
v 0.10162 0.54762 0.26097
v -0.19800 0.60000 0.09290
v -0.16627 0.60000 0.09571
v -0.13453 0.60000 0.10179
v -0.10280 0.60000 0.11129
v -0.07106 0.60000 0.12446
v -0.03933 0.60000 0.14169
v -0.00759 0.60000 0.16359
v 0.02414 0.60000 0.19113
v 0.05588 0.60000 0.22592
v 0.08761 0.60000 0.27113
vt 0.00000 0.02500
vt 0.05556 0.02500
vt 0.11111 0.02500
vt 0.16667 0.02500
vt 0.22222 0.02500
vt 0.27778 0.02500
vt 0.33333 0.02500
vt 0.38889 0.02500
vt 0.44444 0.02500
vt 0.50000 0.02500
vt 0.00000 0.05119
vt 0.05556 0.05119
vt 0.11111 0.05119
vt 0.16667 0.05119
vt 0.22222 0.05119
vt 0.27778 0.05119
vt 0.33333 0.05119
vt 0.38889 0.05119
vt 0.44444 0.05119
vt 0.50000 0.05119
vt 0.00000 0.07738
vt 0.05556 0.07738
vt 0.11111 0.07738
vt 0.16667 0.07738
vt 0.22222 0.07738
vt 0.27778 0.07738
vt 0.33333 0.07738
vt 0.38889 0.07738
vt 0.44444 0.07738
vt 0.50000 0.07738
vt 0.00000 0.10357
vt 0.05556 0.10357
vt 0.11111 0.10357
vt 0.16667 0.10357
vt 0.22222 0.10357
vt 0.27778 0.10357
vt 0.33333 0.10357
vt 0.38889 0.10357
vt 0.44444 0.10357
vt 0.50000 0.10357
vt 0.00000 0.12976
vt 0.05556 0.12976
vt 0.11111 0.12976
vt 0.16667 0.12976
vt 0.22222 0.12976
vt 0.27778 0.12976
vt 0.33333 0.12976
vt 0.38889 0.12976
vt 0.44444 0.12976
vt 0.50000 0.12976
vt 0.00000 0.15595
vt 0.05556 0.15595
vt 0.11111 0.15595
vt 0.16667 0.15595
vt 0.22222 0.15595
vt 0.27778 0.15595
vt 0.33333 0.15595
vt 0.38889 0.15595
vt 0.44444 0.15595
vt 0.50000 0.15595
vt 0.00000 0.18214
vt 0.05556 0.18214
vt 0.11111 0.18214
vt 0.16667 0.18214
vt 0.22222 0.18214
vt 0.27778 0.18214
vt 0.33333 0.18214
vt 0.38889 0.18214
vt 0.44444 0.18214
vt 0.50000 0.18214
vt 0.00000 0.20833
vt 0.05556 0.20833
vt 0.11111 0.20833
vt 0.16667 0.20833
vt 0.22222 0.20833
vt 0.27778 0.20833
vt 0.33333 0.20833
vt 0.38889 0.20833
vt 0.44444 0.20833
vt 0.50000 0.20833
vt 0.00000 0.23452
vt 0.05556 0.23452
vt 0.11111 0.23452
vt 0.16667 0.23452
vt 0.22222 0.23452
vt 0.27778 0.23452
vt 0.33333 0.23452
vt 0.38889 0.23452
vt 0.44444 0.23452
vt 0.50000 0.23452
vt 0.00000 0.26071
vt 0.05556 0.26071
vt 0.11111 0.26071
vt 0.16667 0.26071
vt 0.22222 0.26071
vt 0.27778 0.26071
vt 0.33333 0.26071
vt 0.38889 0.26071
vt 0.44444 0.26071
vt 0.50000 0.26071
vt 0.00000 0.28690
vt 0.05556 0.28690
vt 0.11111 0.28690
vt 0.16667 0.28690
vt 0.22222 0.28690
vt 0.27778 0.28690
vt 0.33333 0.28690
vt 0.38889 0.28690
vt 0.44444 0.28690
vt 0.50000 0.28690
vt 0.00000 0.31310
vt 0.05556 0.31310
vt 0.11111 0.31310
vt 0.16667 0.31310
vt 0.22222 0.31310
vt 0.27778 0.31310
vt 0.33333 0.31310
vt 0.38889 0.31310
vt 0.44444 0.31310
vt 0.50000 0.31310
vt 0.00000 0.33929
vt 0.05556 0.33929
vt 0.11111 0.33929
vt 0.16667 0.33929
vt 0.22222 0.33929
vt 0.27778 0.33929
vt 0.33333 0.33929
vt 0.38889 0.33929
vt 0.44444 0.33929
vt 0.50000 0.33929
vt 0.00000 0.36548
vt 0.05556 0.36548
vt 0.11111 0.36548
vt 0.16667 0.36548
vt 0.22222 0.36548
vt 0.27778 0.36548
vt 0.33333 0.36548
vt 0.38889 0.36548
vt 0.44444 0.36548
vt 0.50000 0.36548
vt 0.00000 0.39167
vt 0.05556 0.39167
vt 0.11111 0.39167
vt 0.16667 0.39167
vt 0.22222 0.39167
vt 0.27778 0.39167
vt 0.33333 0.39167
vt 0.38889 0.39167
vt 0.44444 0.39167
vt 0.50000 0.39167
vt 0.00000 0.41786
vt 0.05556 0.41786
vt 0.11111 0.41786
vt 0.16667 0.41786
vt 0.22222 0.41786
vt 0.27778 0.41786
vt 0.33333 0.41786
vt 0.38889 0.41786
vt 0.44444 0.41786
vt 0.50000 0.41786
vt 0.00000 0.44405
vt 0.05556 0.44405
vt 0.11111 0.44405
vt 0.16667 0.44405
vt 0.22222 0.44405
vt 0.27778 0.44405
vt 0.33333 0.44405
vt 0.38889 0.44405
vt 0.44444 0.44405
vt 0.50000 0.44405
vt 0.00000 0.47024
vt 0.05556 0.47024
vt 0.11111 0.47024
vt 0.16667 0.47024
vt 0.22222 0.47024
vt 0.27778 0.47024
vt 0.33333 0.47024
vt 0.38889 0.47024
vt 0.44444 0.47024
vt 0.50000 0.47024
vt 0.00000 0.49643
vt 0.05556 0.49643
vt 0.11111 0.49643
vt 0.16667 0.49643
vt 0.22222 0.49643
vt 0.27778 0.49643
vt 0.33333 0.49643
vt 0.38889 0.49643
vt 0.44444 0.49643
vt 0.50000 0.49643
vt 0.00000 0.52262
vt 0.05556 0.52262
vt 0.11111 0.52262
vt 0.16667 0.52262
vt 0.22222 0.52262
vt 0.27778 0.52262
vt 0.33333 0.52262
vt 0.38889 0.52262
vt 0.44444 0.52262
vt 0.50000 0.52262
vt 0.00000 0.54881
vt 0.05556 0.54881
vt 0.11111 0.54881
vt 0.16667 0.54881
vt 0.22222 0.54881
vt 0.27778 0.54881
vt 0.33333 0.54881
vt 0.38889 0.54881
vt 0.44444 0.54881
vt 0.50000 0.54881
vt 0.00000 0.57500
vt 0.05556 0.57500
vt 0.11111 0.57500
vt 0.16667 0.57500
vt 0.22222 0.57500
vt 0.27778 0.57500
vt 0.33333 0.57500
vt 0.38889 0.57500
vt 0.44444 0.57500
vt 0.50000 0.57500
vt 0.00000 0.02500
vt 0.05556 0.02500
vt 0.11111 0.02500
vt 0.16667 0.02500
vt 0.22222 0.02500
vt 0.27778 0.02500
vt 0.33333 0.02500
vt 0.38889 0.02500
vt 0.44444 0.02500
vt 0.50000 0.02500
vt 0.00000 0.05119
vt 0.05556 0.05119
vt 0.11111 0.05119
vt 0.16667 0.05119
vt 0.22222 0.05119
vt 0.27778 0.05119
vt 0.33333 0.05119
vt 0.38889 0.05119
vt 0.44444 0.05119
vt 0.50000 0.05119
vt 0.00000 0.07738
vt 0.05556 0.07738
vt 0.11111 0.07738
vt 0.16667 0.07738
vt 0.22222 0.07738
vt 0.27778 0.07738
vt 0.33333 0.07738
vt 0.38889 0.07738
vt 0.44444 0.07738
vt 0.50000 0.07738
vt 0.00000 0.10357
vt 0.05556 0.10357
vt 0.11111 0.10357
vt 0.16667 0.10357
vt 0.22222 0.10357
vt 0.27778 0.10357
vt 0.33333 0.10357
vt 0.38889 0.10357
vt 0.44444 0.10357
vt 0.50000 0.10357
vt 0.00000 0.12976
vt 0.05556 0.12976
vt 0.11111 0.12976
vt 0.16667 0.12976
vt 0.22222 0.12976
vt 0.27778 0.12976
vt 0.33333 0.12976
vt 0.38889 0.12976
vt 0.44444 0.12976
vt 0.50000 0.12976
vt 0.00000 0.15595
vt 0.05556 0.15595
vt 0.11111 0.15595
vt 0.16667 0.15595
vt 0.22222 0.15595
vt 0.27778 0.15595
vt 0.33333 0.15595
vt 0.38889 0.15595
vt 0.44444 0.15595
vt 0.50000 0.15595
vt 0.00000 0.18214
vt 0.05556 0.18214
vt 0.11111 0.18214
vt 0.16667 0.18214
vt 0.22222 0.18214
vt 0.27778 0.18214
vt 0.33333 0.18214
vt 0.38889 0.18214
vt 0.44444 0.18214
vt 0.50000 0.18214
vt 0.00000 0.20833
vt 0.05556 0.20833
vt 0.11111 0.20833
vt 0.16667 0.20833
vt 0.22222 0.20833
vt 0.27778 0.20833
vt 0.33333 0.20833
vt 0.38889 0.20833
vt 0.44444 0.20833
vt 0.50000 0.20833
vt 0.00000 0.23452
vt 0.05556 0.23452
vt 0.11111 0.23452
vt 0.16667 0.23452
vt 0.22222 0.23452
vt 0.27778 0.23452
vt 0.33333 0.23452
vt 0.38889 0.23452
vt 0.44444 0.23452
vt 0.50000 0.23452
vt 0.00000 0.26071
vt 0.05556 0.26071
vt 0.11111 0.26071
vt 0.16667 0.26071
vt 0.22222 0.26071
vt 0.27778 0.26071
vt 0.33333 0.26071
vt 0.38889 0.26071
vt 0.44444 0.26071
vt 0.50000 0.26071
vt 0.00000 0.28690
vt 0.05556 0.28690
vt 0.11111 0.28690
vt 0.16667 0.28690
vt 0.22222 0.28690
vt 0.27778 0.28690
vt 0.33333 0.28690
vt 0.38889 0.28690
vt 0.44444 0.28690
vt 0.50000 0.28690
vt 0.00000 0.31310
vt 0.05556 0.31310
vt 0.11111 0.31310
vt 0.16667 0.31310
vt 0.22222 0.31310
vt 0.27778 0.31310
vt 0.33333 0.31310
vt 0.38889 0.31310
vt 0.44444 0.31310
vt 0.50000 0.31310
vt 0.00000 0.33929
vt 0.05556 0.33929
vt 0.11111 0.33929
vt 0.16667 0.33929
vt 0.22222 0.33929
vt 0.27778 0.33929
vt 0.33333 0.33929
vt 0.38889 0.33929
vt 0.44444 0.33929
vt 0.50000 0.33929
vt 0.00000 0.36548
vt 0.05556 0.36548
vt 0.11111 0.36548
vt 0.16667 0.36548
vt 0.22222 0.36548
vt 0.27778 0.36548
vt 0.33333 0.36548
vt 0.38889 0.36548
vt 0.44444 0.36548
vt 0.50000 0.36548
vt 0.00000 0.39167
vt 0.05556 0.39167
vt 0.11111 0.39167
vt 0.16667 0.39167
vt 0.22222 0.39167
vt 0.27778 0.39167
vt 0.33333 0.39167
vt 0.38889 0.39167
vt 0.44444 0.39167
vt 0.50000 0.39167
vt 0.00000 0.41786
vt 0.05556 0.41786
vt 0.11111 0.41786
vt 0.16667 0.41786
vt 0.22222 0.41786
vt 0.27778 0.41786
vt 0.33333 0.41786
vt 0.38889 0.41786
vt 0.44444 0.41786
vt 0.50000 0.41786
vt 0.00000 0.44405
vt 0.05556 0.44405
vt 0.11111 0.44405
vt 0.16667 0.44405
vt 0.22222 0.44405
vt 0.27778 0.44405
vt 0.33333 0.44405
vt 0.38889 0.44405
vt 0.44444 0.44405
vt 0.50000 0.44405
vt 0.00000 0.47024
vt 0.05556 0.47024
vt 0.11111 0.47024
vt 0.16667 0.47024
vt 0.22222 0.47024
vt 0.27778 0.47024
vt 0.33333 0.47024
vt 0.38889 0.47024
vt 0.44444 0.47024
vt 0.50000 0.47024
vt 0.00000 0.49643
vt 0.05556 0.49643
vt 0.11111 0.49643
vt 0.16667 0.49643
vt 0.22222 0.49643
vt 0.27778 0.49643
vt 0.33333 0.49643
vt 0.38889 0.49643
vt 0.44444 0.49643
vt 0.50000 0.49643
vt 0.00000 0.52262
vt 0.05556 0.52262
vt 0.11111 0.52262
vt 0.16667 0.52262
vt 0.22222 0.52262
vt 0.27778 0.52262
vt 0.33333 0.52262
vt 0.38889 0.52262
vt 0.44444 0.52262
vt 0.50000 0.52262
vt 0.00000 0.54881
vt 0.05556 0.54881
vt 0.11111 0.54881
vt 0.16667 0.54881
vt 0.22222 0.54881
vt 0.27778 0.54881
vt 0.33333 0.54881
vt 0.38889 0.54881
vt 0.44444 0.54881
vt 0.50000 0.54881
vt 0.00000 0.57500
vt 0.05556 0.57500
vt 0.11111 0.57500
vt 0.16667 0.57500
vt 0.22222 0.57500
vt 0.27778 0.57500
vt 0.33333 0.57500
vt 0.38889 0.57500
vt 0.44444 0.57500
vt 0.50000 0.57500
vn -0.14373 0.59897 0.78777
vn -0.15529 0.60363 0.78199
vn -0.24052 0.60640 0.75791
vn -0.32109 0.61048 0.72403
vn -0.39582 0.61579 0.68127
vn -0.46391 0.62224 0.63056
vn -0.52492 0.62972 0.57264
vn -0.57876 0.63810 0.50780
vn -0.62568 0.64725 0.43542
vn -0.64735 0.65497 0.38981
vn -0.11603 0.60428 0.78828
vn -0.14731 0.60709 0.78086
vn -0.22969 0.60829 0.75975
vn -0.30893 0.60990 0.72978
vn -0.38416 0.61194 0.69134
vn -0.45473 0.61443 0.64474
vn -0.52020 0.61741 0.59008
vn -0.58035 0.62091 0.52694
vn -0.63521 0.62497 0.45378
vn -0.66264 0.61602 0.42594
vn -0.09979 0.57356 0.81306
vn -0.14130 0.55664 0.81865
vn -0.22795 0.55272 0.80159
vn -0.31308 0.54680 0.77652
vn -0.39621 0.53900 0.74330
vn -0.47692 0.52946 0.70158
vn -0.55487 0.51837 0.65070
vn -0.62982 0.50593 0.58937
vn -0.70169 0.49247 0.51489
vn -0.75563 0.43780 0.48720
vn -0.10701 0.42982 0.89655
vn -0.15882 0.38712 0.90825
vn -0.25815 0.37938 0.88850
vn -0.35527 0.36812 0.85923
vn -0.44942 0.35356 0.82038
vn -0.53995 0.33593 0.77175
vn -0.62635 0.31552 0.71283
vn -0.70825 0.29264 0.64246
vn -0.78552 0.26759 0.55798
vn -0.82816 0.22240 0.51447
vn -0.11751 0.19148 0.97444
vn -0.17104 0.15731 0.97263
vn -0.27769 0.15801 0.94759
vn -0.38039 0.15951 0.91097
vn -0.47800 0.16176 0.86334
vn -0.56967 0.16473 0.80520
vn -0.65490 0.16834 0.73672
vn -0.73353 0.17252 0.65739
vn -0.80578 0.17711 0.56512
vn -0.83249 0.19140 0.51992
vn -0.11377 0.09729 0.98873
vn -0.16486 0.12027 0.97896
vn -0.26852 0.12611 0.95498
vn -0.36870 0.13599 0.91955
vn -0.46427 0.14969 0.87295
vn -0.55428 0.16692 0.81543
vn -0.63800 0.18731 0.74691
vn -0.71496 0.21051 0.66672
vn -0.78500 0.23616 0.57271
vn -0.80607 0.26530 0.52902
vn -0.10966 0.20913 0.97172
vn -0.16326 0.22182 0.96132
vn -0.26115 0.21789 0.94038
vn -0.35641 0.21743 0.90868
vn -0.44813 0.22063 0.86632
vn -0.53557 0.22762 0.81323
vn -0.61809 0.23854 0.74904
vn -0.69519 0.25354 0.67263
vn -0.76651 0.27293 0.58135
vn -0.79494 0.28005 0.53819
vn -0.12523 0.28441 0.95049
vn -0.18079 0.28364 0.94173
vn -0.27412 0.27042 0.92289
vn -0.36524 0.25908 0.89414
vn -0.45351 0.25013 0.85543
vn -0.53842 0.24409 0.80655
vn -0.61958 0.24154 0.74685
vn -0.69667 0.24317 0.67492
vn -0.76952 0.25000 0.58766
vn -0.80314 0.24492 0.54312
vn -0.15092 0.31406 0.93733
vn -0.19825 0.31070 0.92960
vn -0.28880 0.30377 0.90792
vn -0.37681 0.29579 0.87779
vn -0.46204 0.28696 0.83915
vn -0.54435 0.27749 0.79163
vn -0.62368 0.26763 0.73444
vn -0.70009 0.25766 0.66595
vn -0.77386 0.24799 0.58278
vn -0.80704 0.24369 0.53786
vn -0.14951 0.30357 0.94101
vn -0.18799 0.30205 0.93457
vn -0.28013 0.30783 0.90927
vn -0.36929 0.30979 0.87616
vn -0.45548 0.30777 0.83535
vn -0.53883 0.30159 0.78658
vn -0.61955 0.29095 0.72904
vn -0.69801 0.27537 0.66102
vn -0.77478 0.25400 0.57896
vn -0.80985 0.23744 0.53644
vn -0.12315 0.24231 0.96235
vn -0.16403 0.23439 0.95820
vn -0.26179 0.24414 0.93374
vn -0.35647 0.25141 0.89984
vn -0.44768 0.25592 0.85679
vn -0.53520 0.25736 0.80457
vn -0.61901 0.25538 0.74270
vn -0.69932 0.24945 0.66987
vn -0.77667 0.23863 0.58295
vn -0.80806 0.23722 0.53923
vn -0.10097 0.14143 0.98479
vn -0.14747 0.13014 0.98047
vn -0.24782 0.13995 0.95864
vn -0.34553 0.15203 0.92601
vn -0.43975 0.16604 0.88264
vn -0.52978 0.18161 0.82846
vn -0.61510 0.19829 0.76311
vn -0.69543 0.21561 0.68549
vn -0.77085 0.23296 0.59289
vn -0.79824 0.24662 0.54954
vn -0.08917 0.14906 0.98480
vn -0.13506 0.18968 0.97251
vn -0.23149 0.19714 0.95265
vn -0.32589 0.20797 0.92225
vn -0.41749 0.22188 0.88118
vn -0.50558 0.23851 0.82916
vn -0.58959 0.25739 0.76560
vn -0.66910 0.27794 0.68924
vn -0.74408 0.29944 0.59723
vn -0.76530 0.33218 0.55134
vn -0.07937 0.31938 0.94430
vn -0.12261 0.33617 0.93379
vn -0.21225 0.33882 0.91660
vn -0.30066 0.34266 0.89005
vn -0.38741 0.34752 0.85390
vn -0.47211 0.35320 0.80769
vn -0.55452 0.35937 0.75057
vn -0.63456 0.36559 0.68094
vn -0.71253 0.37111 0.59546
vn -0.74286 0.37506 0.55452
vn -0.07749 0.24545 0.96631
vn -0.12428 0.17562 0.97658
vn -0.21656 0.17782 0.95994
vn -0.30802 0.18105 0.93400
vn -0.39833 0.18529 0.89833
vn -0.48720 0.19055 0.85225
vn -0.57438 0.19685 0.79457
vn -0.65970 0.20425 0.72324
vn -0.74319 0.21291 0.63430
vn -0.78768 0.15730 0.59567
vn -0.07862 -0.01908 0.99672
vn -0.12592 -0.00462 0.99203
vn -0.22007 -0.00428 0.97547
vn -0.31349 -0.00383 0.94958
vn -0.40590 -0.00312 0.91391
vn -0.49704 -0.00194 0.86773
vn -0.58670 0.00010 0.80980
vn -0.67480 0.00357 0.73799
vn -0.76144 0.00957 0.64817
vn -0.80057 -0.00073 0.59923
vn -0.07952 0.07230 0.99421
vn -0.12827 0.08752 0.98787
vn -0.22411 0.08188 0.97112
vn -0.31909 0.07316 0.94490
vn -0.41284 0.06148 0.90873
vn -0.50498 0.04704 0.86185
vn -0.59515 0.03011 0.80305
vn -0.68307 0.01106 0.73027
vn -0.76865 -0.00949 0.63960
vn -0.80815 -0.02595 0.58841
vn -0.08198 0.11497 0.98998
vn -0.13284 0.09886 0.98620
vn -0.23140 0.09054 0.96864
vn -0.32875 0.07779 0.94121
vn -0.42435 0.06073 0.90346
vn -0.51762 0.03956 0.85470
vn -0.60798 0.01451 0.79382
vn -0.69490 -0.01412 0.71897
vn -0.77802 -0.04600 0.62656
vn -0.81521 -0.07744 0.57396
vn -0.08597 -0.00338 0.99629
vn -0.13819 -0.03822 0.98967
vn -0.23937 -0.04330 0.96996
vn -0.33856 -0.05089 0.93957
vn -0.43499 -0.06085 0.89837
vn -0.52801 -0.07305 0.84609
vn -0.61705 -0.08730 0.78207
vn -0.70172 -0.10343 0.70490
vn -0.78193 -0.12129 0.61145
vn -0.81604 -0.14003 0.56077
vn -0.08633 -0.20218 0.97554
vn -0.13621 -0.23463 0.96249
vn -0.23527 -0.23136 0.94399
vn -0.33269 -0.22616 0.91552
vn -0.42787 -0.21911 0.87688
vn -0.52029 -0.21032 0.82768
vn -0.60953 -0.19992 0.76714
vn -0.69530 -0.18805 0.69368
vn -0.77759 -0.17487 0.60396
vn -0.81132 -0.16691 0.56027
vn -0.08232 -0.32657 0.94158
vn -0.13096 -0.32342 0.93715
vn -0.22591 -0.31876 0.92052
vn -0.31979 -0.31189 0.89468
vn -0.41218 -0.30287 0.85929
vn -0.50269 -0.29173 0.81376
vn -0.59098 -0.27853 0.75707
vn -0.67685 -0.26330 0.68742
vn -0.76031 -0.24590 0.60122
vn -0.78857 -0.26436 0.55522
vn -0.08267 -0.32055 0.94362
vn -0.14695 -0.32081 0.93567
vn -0.24102 -0.32035 0.91613
vn -0.33347 -0.31967 0.88691
vn -0.42376 -0.31879 0.84782
vn -0.51142 -0.31774 0.79843
vn -0.59607 -0.31655 0.73790
vn -0.67751 -0.31524 0.66454
vn -0.75574 -0.31381 0.57479
vn -0.77721 -0.31359 0.54553
vn 0.14373 -0.59897 -0.78777
vn 0.15529 -0.60363 -0.78199
vn 0.24052 -0.60640 -0.75791
vn 0.32109 -0.61048 -0.72403
vn 0.39582 -0.61579 -0.68127
vn 0.46391 -0.62224 -0.63056
vn 0.52492 -0.62972 -0.57264
vn 0.57876 -0.63810 -0.50780
vn 0.62568 -0.64725 -0.43542
vn 0.64735 -0.65497 -0.38981
vn 0.11603 -0.60428 -0.78828
vn 0.14731 -0.60709 -0.78086
vn 0.22969 -0.60829 -0.75975
vn 0.30893 -0.60990 -0.72978
vn 0.38416 -0.61194 -0.69134
vn 0.45473 -0.61443 -0.64474
vn 0.52020 -0.61741 -0.59008
vn 0.58035 -0.62091 -0.52694
vn 0.63521 -0.62497 -0.45378
vn 0.66264 -0.61602 -0.42594
vn 0.09979 -0.57356 -0.81306
vn 0.14130 -0.55664 -0.81865
vn 0.22795 -0.55272 -0.80159
vn 0.31308 -0.54680 -0.77652
vn 0.39621 -0.53900 -0.74330
vn 0.47692 -0.52946 -0.70158
vn 0.55487 -0.51837 -0.65070
vn 0.62982 -0.50593 -0.58937
vn 0.70169 -0.49247 -0.51489
vn 0.75563 -0.43780 -0.48720
vn 0.10701 -0.42982 -0.89655
vn 0.15882 -0.38712 -0.90825
vn 0.25815 -0.37938 -0.88850
vn 0.35527 -0.36812 -0.85923
vn 0.44942 -0.35356 -0.82038
vn 0.53995 -0.33593 -0.77175
vn 0.62635 -0.31552 -0.71283
vn 0.70825 -0.29264 -0.64246
vn 0.78552 -0.26759 -0.55798
vn 0.82816 -0.22240 -0.51447
vn 0.11751 -0.19148 -0.97444
vn 0.17104 -0.15731 -0.97263
vn 0.27769 -0.15801 -0.94759
vn 0.38039 -0.15951 -0.91097
vn 0.47800 -0.16176 -0.86334
vn 0.56967 -0.16473 -0.80520
vn 0.65490 -0.16834 -0.73672
vn 0.73353 -0.17252 -0.65739
vn 0.80578 -0.17711 -0.56512
vn 0.83249 -0.19140 -0.51992
vn 0.11377 -0.09729 -0.98873
vn 0.16486 -0.12027 -0.97896
vn 0.26852 -0.12611 -0.95498
vn 0.36870 -0.13599 -0.91955
vn 0.46427 -0.14969 -0.87295
vn 0.55428 -0.16692 -0.81543
vn 0.63800 -0.18731 -0.74691
vn 0.71496 -0.21051 -0.66672
vn 0.78500 -0.23616 -0.57271
vn 0.80607 -0.26530 -0.52902
vn 0.10966 -0.20913 -0.97172
vn 0.16326 -0.22182 -0.96132
vn 0.26115 -0.21789 -0.94038
vn 0.35641 -0.21743 -0.90868
vn 0.44813 -0.22063 -0.86632
vn 0.53557 -0.22762 -0.81323
vn 0.61809 -0.23854 -0.74904
vn 0.69519 -0.25354 -0.67263
vn 0.76651 -0.27293 -0.58135
vn 0.79494 -0.28005 -0.53819
vn 0.12523 -0.28441 -0.95049
vn 0.18079 -0.28364 -0.94173
vn 0.27412 -0.27042 -0.92289
vn 0.36524 -0.25908 -0.89414
vn 0.45351 -0.25013 -0.85543
vn 0.53842 -0.24409 -0.80655
vn 0.61958 -0.24154 -0.74685
vn 0.69667 -0.24317 -0.67492
vn 0.76952 -0.25000 -0.58766
vn 0.80314 -0.24492 -0.54312
vn 0.15092 -0.31406 -0.93733
vn 0.19825 -0.31070 -0.92960
vn 0.28880 -0.30377 -0.90792
vn 0.37681 -0.29579 -0.87779
vn 0.46204 -0.28696 -0.83915
vn 0.54435 -0.27749 -0.79163
vn 0.62368 -0.26763 -0.73444
vn 0.70009 -0.25766 -0.66595
vn 0.77386 -0.24799 -0.58278
vn 0.80704 -0.24369 -0.53786
vn 0.14951 -0.30357 -0.94101
vn 0.18799 -0.30205 -0.93457
vn 0.28013 -0.30783 -0.90927
vn 0.36929 -0.30979 -0.87616
vn 0.45548 -0.30777 -0.83535
vn 0.53883 -0.30159 -0.78658
vn 0.61955 -0.29095 -0.72904
vn 0.69801 -0.27537 -0.66102
vn 0.77478 -0.25400 -0.57896
vn 0.80985 -0.23744 -0.53644
vn 0.12315 -0.24231 -0.96235
vn 0.16403 -0.23439 -0.95820
vn 0.26179 -0.24414 -0.93374
vn 0.35647 -0.25141 -0.89984
vn 0.44768 -0.25592 -0.85679
vn 0.53520 -0.25736 -0.80457
vn 0.61901 -0.25538 -0.74270
vn 0.69932 -0.24945 -0.66987
vn 0.77667 -0.23863 -0.58295
vn 0.80806 -0.23722 -0.53923
vn 0.10097 -0.14143 -0.98479
vn 0.14747 -0.13014 -0.98047
vn 0.24782 -0.13995 -0.95864
vn 0.34553 -0.15203 -0.92601
vn 0.43975 -0.16604 -0.88264
vn 0.52978 -0.18161 -0.82846
vn 0.61510 -0.19829 -0.76311
vn 0.69543 -0.21561 -0.68549
vn 0.77085 -0.23296 -0.59289
vn 0.79824 -0.24662 -0.54954
vn 0.08917 -0.14906 -0.98480
vn 0.13506 -0.18968 -0.97251
vn 0.23149 -0.19714 -0.95265
vn 0.32589 -0.20797 -0.92225
vn 0.41749 -0.22188 -0.88118
vn 0.50558 -0.23851 -0.82916
vn 0.58959 -0.25739 -0.76560
vn 0.66910 -0.27794 -0.68924
vn 0.74408 -0.29944 -0.59723
vn 0.76530 -0.33218 -0.55134
vn 0.07937 -0.31938 -0.94430
vn 0.12261 -0.33617 -0.93379
vn 0.21225 -0.33882 -0.91660
vn 0.30066 -0.34266 -0.89005
vn 0.38741 -0.34752 -0.85390
vn 0.47211 -0.35320 -0.80769
vn 0.55452 -0.35937 -0.75057
vn 0.63456 -0.36559 -0.68094
vn 0.71253 -0.37111 -0.59546
vn 0.74286 -0.37506 -0.55452
vn 0.07749 -0.24545 -0.96631
vn 0.12428 -0.17562 -0.97658
vn 0.21656 -0.17782 -0.95994
vn 0.30802 -0.18105 -0.93400
vn 0.39833 -0.18529 -0.89833
vn 0.48720 -0.19055 -0.85225
vn 0.57438 -0.19685 -0.79457
vn 0.65970 -0.20425 -0.72324
vn 0.74319 -0.21291 -0.63430
vn 0.78768 -0.15730 -0.59567
vn 0.07862 0.01908 -0.99672
vn 0.12592 0.00462 -0.99203
vn 0.22007 0.00428 -0.97547
vn 0.31349 0.00383 -0.94958
vn 0.40590 0.00312 -0.91391
vn 0.49704 0.00194 -0.86773
vn 0.58670 -0.00010 -0.80980
vn 0.67480 -0.00357 -0.73799
vn 0.76144 -0.00957 -0.64817
vn 0.80057 0.00073 -0.59923
vn 0.07952 -0.07230 -0.99421
vn 0.12827 -0.08752 -0.98787
vn 0.22411 -0.08188 -0.97112
vn 0.31909 -0.07316 -0.94490
vn 0.41284 -0.06148 -0.90873
vn 0.50498 -0.04704 -0.86185
vn 0.59515 -0.03011 -0.80305
vn 0.68307 -0.01106 -0.73027
vn 0.76865 0.00949 -0.63960
vn 0.80815 0.02595 -0.58841
vn 0.08198 -0.11497 -0.98998
vn 0.13284 -0.09886 -0.98620
vn 0.23140 -0.09054 -0.96864
vn 0.32875 -0.07779 -0.94121
vn 0.42435 -0.06073 -0.90346
vn 0.51762 -0.03956 -0.85470
vn 0.60798 -0.01451 -0.79382
vn 0.69490 0.01412 -0.71897
vn 0.77802 0.04600 -0.62656
vn 0.81521 0.07744 -0.57396
vn 0.08597 0.00338 -0.99629
vn 0.13819 0.03822 -0.98967
vn 0.23937 0.04330 -0.96996
vn 0.33856 0.05089 -0.93957
vn 0.43499 0.06085 -0.89837
vn 0.52801 0.07305 -0.84609
vn 0.61705 0.08730 -0.78207
vn 0.70172 0.10343 -0.70490
vn 0.78193 0.12129 -0.61145
vn 0.81604 0.14003 -0.56077
vn 0.08633 0.20218 -0.97554
vn 0.13621 0.23463 -0.96249
vn 0.23527 0.23136 -0.94399
vn 0.33269 0.22616 -0.91552
vn 0.42787 0.21911 -0.87688
vn 0.52029 0.21032 -0.82768
vn 0.60953 0.19992 -0.76714
vn 0.69530 0.18805 -0.69368
vn 0.77759 0.17487 -0.60396
vn 0.81132 0.16691 -0.56027
vn 0.08232 0.32657 -0.94158
vn 0.13096 0.32342 -0.93715
vn 0.22591 0.31876 -0.92052
vn 0.31979 0.31189 -0.89468
vn 0.41218 0.30287 -0.85929
vn 0.50269 0.29173 -0.81376
vn 0.59098 0.27853 -0.75707
vn 0.67685 0.26330 -0.68742
vn 0.76031 0.24590 -0.60122
vn 0.78857 0.26436 -0.55522
vn 0.08267 0.32055 -0.94362
vn 0.14695 0.32081 -0.93567
vn 0.24102 0.32035 -0.91613
vn 0.33347 0.31967 -0.88691
vn 0.42376 0.31879 -0.84782
vn 0.51142 0.31774 -0.79843
vn 0.59607 0.31655 -0.73790
vn 0.67751 0.31524 -0.66454
vn 0.75574 0.31381 -0.57479
vn 0.77721 0.31359 -0.54553
f 1/1/1 2/2/2 11/11/11
f 2/2/2 12/12/12 11/11/11
f 2/2/2 3/3/3 12/12/12
f 3/3/3 13/13/13 12/12/12
f 3/3/3 4/4/4 13/13/13
f 4/4/4 14/14/14 13/13/13
f 4/4/4 5/5/5 14/14/14
f 5/5/5 15/15/15 14/14/14
f 5/5/5 6/6/6 15/15/15
f 6/6/6 16/16/16 15/15/15
f 6/6/6 7/7/7 16/16/16
f 7/7/7 17/17/17 16/16/16
f 7/7/7 8/8/8 17/17/17
f 8/8/8 18/18/18 17/17/17
f 8/8/8 9/9/9 18/18/18
f 9/9/9 19/19/19 18/18/18
f 9/9/9 10/10/10 19/19/19
f 10/10/10 20/20/20 19/19/19
f 11/11/11 12/12/12 21/21/21
f 12/12/12 22/22/22 21/21/21
f 12/12/12 13/13/13 22/22/22
f 13/13/13 23/23/23 22/22/22
f 13/13/13 14/14/14 23/23/23
f 14/14/14 24/24/24 23/23/23
f 14/14/14 15/15/15 24/24/24
f 15/15/15 25/25/25 24/24/24
f 15/15/15 16/16/16 25/25/25
f 16/16/16 26/26/26 25/25/25
f 16/16/16 17/17/17 26/26/26
f 17/17/17 27/27/27 26/26/26
f 17/17/17 18/18/18 27/27/27
f 18/18/18 28/28/28 27/27/27
f 18/18/18 19/19/19 28/28/28
f 19/19/19 29/29/29 28/28/28
f 19/19/19 20/20/20 29/29/29
f 20/20/20 30/30/30 29/29/29
f 21/21/21 22/22/22 31/31/31
f 22/22/22 32/32/32 31/31/31
f 22/22/22 23/23/23 32/32/32
f 23/23/23 33/33/33 32/32/32
f 23/23/23 24/24/24 33/33/33
f 24/24/24 34/34/34 33/33/33
f 24/24/24 25/25/25 34/34/34
f 25/25/25 35/35/35 34/34/34
f 25/25/25 26/26/26 35/35/35
f 26/26/26 36/36/36 35/35/35
f 26/26/26 27/27/27 36/36/36
f 27/27/27 37/37/37 36/36/36
f 27/27/27 28/28/28 37/37/37
f 28/28/28 38/38/38 37/37/37
f 28/28/28 29/29/29 38/38/38
f 29/29/29 39/39/39 38/38/38
f 29/29/29 30/30/30 39/39/39
f 30/30/30 40/40/40 39/39/39
f 31/31/31 32/32/32 41/41/41
f 32/32/32 42/42/42 41/41/41
f 32/32/32 33/33/33 42/42/42
f 33/33/33 43/43/43 42/42/42
f 33/33/33 34/34/34 43/43/43
f 34/34/34 44/44/44 43/43/43
f 34/34/34 35/35/35 44/44/44
f 35/35/35 45/45/45 44/44/44
f 35/35/35 36/36/36 45/45/45
f 36/36/36 46/46/46 45/45/45
f 36/36/36 37/37/37 46/46/46
f 37/37/37 47/47/47 46/46/46
f 37/37/37 38/38/38 47/47/47
f 38/38/38 48/48/48 47/47/47
f 38/38/38 39/39/39 48/48/48
f 39/39/39 49/49/49 48/48/48
f 39/39/39 40/40/40 49/49/49
f 40/40/40 50/50/50 49/49/49
f 41/41/41 42/42/42 51/51/51
f 42/42/42 52/52/52 51/51/51
f 42/42/42 43/43/43 52/52/52
f 43/43/43 53/53/53 52/52/52
f 43/43/43 44/44/44 53/53/53
f 44/44/44 54/54/54 53/53/53
f 44/44/44 45/45/45 54/54/54
f 45/45/45 55/55/55 54/54/54
f 45/45/45 46/46/46 55/55/55
f 46/46/46 56/56/56 55/55/55
f 46/46/46 47/47/47 56/56/56
f 47/47/47 57/57/57 56/56/56
f 47/47/47 48/48/48 57/57/57
f 48/48/48 58/58/58 57/57/57
f 48/48/48 49/49/49 58/58/58
f 49/49/49 59/59/59 58/58/58
f 49/49/49 50/50/50 59/59/59
f 50/50/50 60/60/60 59/59/59
f 51/51/51 52/52/52 61/61/61
f 52/52/52 62/62/62 61/61/61
f 52/52/52 53/53/53 62/62/62
f 53/53/53 63/63/63 62/62/62
f 53/53/53 54/54/54 63/63/63
f 54/54/54 64/64/64 63/63/63
f 54/54/54 55/55/55 64/64/64
f 55/55/55 65/65/65 64/64/64
f 55/55/55 56/56/56 65/65/65
f 56/56/56 66/66/66 65/65/65
f 56/56/56 57/57/57 66/66/66
f 57/57/57 67/67/67 66/66/66
f 57/57/57 58/58/58 67/67/67
f 58/58/58 68/68/68 67/67/67
f 58/58/58 59/59/59 68/68/68
f 59/59/59 69/69/69 68/68/68
f 59/59/59 60/60/60 69/69/69
f 60/60/60 70/70/70 69/69/69
f 61/61/61 62/62/62 71/71/71
f 62/62/62 72/72/72 71/71/71
f 62/62/62 63/63/63 72/72/72
f 63/63/63 73/73/73 72/72/72
f 63/63/63 64/64/64 73/73/73
f 64/64/64 74/74/74 73/73/73
f 64/64/64 65/65/65 74/74/74
f 65/65/65 75/75/75 74/74/74
f 65/65/65 66/66/66 75/75/75
f 66/66/66 76/76/76 75/75/75
f 66/66/66 67/67/67 76/76/76
f 67/67/67 77/77/77 76/76/76
f 67/67/67 68/68/68 77/77/77
f 68/68/68 78/78/78 77/77/77
f 68/68/68 69/69/69 78/78/78
f 69/69/69 79/79/79 78/78/78
f 69/69/69 70/70/70 79/79/79
f 70/70/70 80/80/80 79/79/79
f 71/71/71 72/72/72 81/81/81
f 72/72/72 82/82/82 81/81/81
f 72/72/72 73/73/73 82/82/82
f 73/73/73 83/83/83 82/82/82
f 73/73/73 74/74/74 83/83/83
f 74/74/74 84/84/84 83/83/83
f 74/74/74 75/75/75 84/84/84
f 75/75/75 85/85/85 84/84/84
f 75/75/75 76/76/76 85/85/85
f 76/76/76 86/86/86 85/85/85
f 76/76/76 77/77/77 86/86/86
f 77/77/77 87/87/87 86/86/86
f 77/77/77 78/78/78 87/87/87
f 78/78/78 88/88/88 87/87/87
f 78/78/78 79/79/79 88/88/88
f 79/79/79 89/89/89 88/88/88
f 79/79/79 80/80/80 89/89/89
f 80/80/80 90/90/90 89/89/89
f 81/81/81 82/82/82 91/91/91
f 82/82/82 92/92/92 91/91/91
f 82/82/82 83/83/83 92/92/92
f 83/83/83 93/93/93 92/92/92
f 83/83/83 84/84/84 93/93/93
f 84/84/84 94/94/94 93/93/93
f 84/84/84 85/85/85 94/94/94
f 85/85/85 95/95/95 94/94/94
f 85/85/85 86/86/86 95/95/95
f 86/86/86 96/96/96 95/95/95
f 86/86/86 87/87/87 96/96/96
f 87/87/87 97/97/97 96/96/96
f 87/87/87 88/88/88 97/97/97
f 88/88/88 98/98/98 97/97/97
f 88/88/88 89/89/89 98/98/98
f 89/89/89 99/99/99 98/98/98
f 89/89/89 90/90/90 99/99/99
f 90/90/90 100/100/100 99/99/99
f 91/91/91 92/92/92 101/101/101
f 92/92/92 102/102/102 101/101/101
f 92/92/92 93/93/93 102/102/102
f 93/93/93 103/103/103 102/102/102
f 93/93/93 94/94/94 103/103/103
f 94/94/94 104/104/104 103/103/103
f 94/94/94 95/95/95 104/104/104
f 95/95/95 105/105/105 104/104/104
f 95/95/95 96/96/96 105/105/105
f 96/96/96 106/106/106 105/105/105
f 96/96/96 97/97/97 106/106/106
f 97/97/97 107/107/107 106/106/106
f 97/97/97 98/98/98 107/107/107
f 98/98/98 108/108/108 107/107/107
f 98/98/98 99/99/99 108/108/108
f 99/99/99 109/109/109 108/108/108
f 99/99/99 100/100/100 109/109/109
f 100/100/100 110/110/110 109/109/109
f 101/101/101 102/102/102 111/111/111
f 102/102/102 112/112/112 111/111/111
f 102/102/102 103/103/103 112/112/112
f 103/103/103 113/113/113 112/112/112
f 103/103/103 104/104/104 113/113/113
f 104/104/104 114/114/114 113/113/113
f 104/104/104 105/105/105 114/114/114
f 105/105/105 115/115/115 114/114/114
f 105/105/105 106/106/106 115/115/115
f 106/106/106 116/116/116 115/115/115
f 106/106/106 107/107/107 116/116/116
f 107/107/107 117/117/117 116/116/116
f 107/107/107 108/108/108 117/117/117
f 108/108/108 118/118/118 117/117/117
f 108/108/108 109/109/109 118/118/118
f 109/109/109 119/119/119 118/118/118
f 109/109/109 110/110/110 119/119/119
f 110/110/110 120/120/120 119/119/119
f 111/111/111 112/112/112 121/121/121
f 112/112/112 122/122/122 121/121/121
f 112/112/112 113/113/113 122/122/122
f 113/113/113 123/123/123 122/122/122
f 113/113/113 114/114/114 123/123/123
f 114/114/114 124/124/124 123/123/123
f 114/114/114 115/115/115 124/124/124
f 115/115/115 125/125/125 124/124/124
f 115/115/115 116/116/116 125/125/125
f 116/116/116 126/126/126 125/125/125
f 116/116/116 117/117/117 126/126/126
f 117/117/117 127/127/127 126/126/126
f 117/117/117 118/118/118 127/127/127
f 118/118/118 128/128/128 127/127/127
f 118/118/118 119/119/119 128/128/128
f 119/119/119 129/129/129 128/128/128
f 119/119/119 120/120/120 129/129/129
f 120/120/120 130/130/130 129/129/129
f 121/121/121 122/122/122 131/131/131
f 122/122/122 132/132/132 131/131/131
f 122/122/122 123/123/123 132/132/132
f 123/123/123 133/133/133 132/132/132
f 123/123/123 124/124/124 133/133/133
f 124/124/124 134/134/134 133/133/133
f 124/124/124 125/125/125 134/134/134
f 125/125/125 135/135/135 134/134/134
f 125/125/125 126/126/126 135/135/135
f 126/126/126 136/136/136 135/135/135
f 126/126/126 127/127/127 136/136/136
f 127/127/127 137/137/137 136/136/136
f 127/127/127 128/128/128 137/137/137
f 128/128/128 138/138/138 137/137/137
f 128/128/128 129/129/129 138/138/138
f 129/129/129 139/139/139 138/138/138
f 129/129/129 130/130/130 139/139/139
f 130/130/130 140/140/140 139/139/139
f 131/131/131 132/132/132 141/141/141
f 132/132/132 142/142/142 141/141/141
f 132/132/132 133/133/133 142/142/142
f 133/133/133 143/143/143 142/142/142
f 133/133/133 134/134/134 143/143/143
f 134/134/134 144/144/144 143/143/143
f 134/134/134 135/135/135 144/144/144
f 135/135/135 145/145/145 144/144/144
f 135/135/135 136/136/136 145/145/145
f 136/136/136 146/146/146 145/145/145
f 136/136/136 137/137/137 146/146/146
f 137/137/137 147/147/147 146/146/146
f 137/137/137 138/138/138 147/147/147
f 138/138/138 148/148/148 147/147/147
f 138/138/138 139/139/139 148/148/148
f 139/139/139 149/149/149 148/148/148
f 139/139/139 140/140/140 149/149/149
f 140/140/140 150/150/150 149/149/149
f 141/141/141 142/142/142 151/151/151
f 142/142/142 152/152/152 151/151/151
f 142/142/142 143/143/143 152/152/152
f 143/143/143 153/153/153 152/152/152
f 143/143/143 144/144/144 153/153/153
f 144/144/144 154/154/154 153/153/153
f 144/144/144 145/145/145 154/154/154
f 145/145/145 155/155/155 154/154/154
f 145/145/145 146/146/146 155/155/155
f 146/146/146 156/156/156 155/155/155
f 146/146/146 147/147/147 156/156/156
f 147/147/147 157/157/157 156/156/156
f 147/147/147 148/148/148 157/157/157
f 148/148/148 158/158/158 157/157/157
f 148/148/148 149/149/149 158/158/158
f 149/149/149 159/159/159 158/158/158
f 149/149/149 150/150/150 159/159/159
f 150/150/150 160/160/160 159/159/159
f 151/151/151 152/152/152 161/161/161
f 152/152/152 162/162/162 161/161/161
f 152/152/152 153/153/153 162/162/162
f 153/153/153 163/163/163 162/162/162
f 153/153/153 154/154/154 163/163/163
f 154/154/154 164/164/164 163/163/163
f 154/154/154 155/155/155 164/164/164
f 155/155/155 165/165/165 164/164/164
f 155/155/155 156/156/156 165/165/165
f 156/156/156 166/166/166 165/165/165
f 156/156/156 157/157/157 166/166/166
f 157/157/157 167/167/167 166/166/166
f 157/157/157 158/158/158 167/167/167
f 158/158/158 168/168/168 167/167/167
f 158/158/158 159/159/159 168/168/168
f 159/159/159 169/169/169 168/168/168
f 159/159/159 160/160/160 169/169/169
f 160/160/160 170/170/170 169/169/169
f 161/161/161 162/162/162 171/171/171
f 162/162/162 172/172/172 171/171/171
f 162/162/162 163/163/163 172/172/172
f 163/163/163 173/173/173 172/172/172
f 163/163/163 164/164/164 173/173/173
f 164/164/164 174/174/174 173/173/173
f 164/164/164 165/165/165 174/174/174
f 165/165/165 175/175/175 174/174/174
f 165/165/165 166/166/166 175/175/175
f 166/166/166 176/176/176 175/175/175
f 166/166/166 167/167/167 176/176/176
f 167/167/167 177/177/177 176/176/176
f 167/167/167 168/168/168 177/177/177
f 168/168/168 178/178/178 177/177/177
f 168/168/168 169/169/169 178/178/178
f 169/169/169 179/179/179 178/178/178
f 169/169/169 170/170/170 179/179/179
f 170/170/170 180/180/180 179/179/179
f 171/171/171 172/172/172 181/181/181
f 172/172/172 182/182/182 181/181/181
f 172/172/172 173/173/173 182/182/182
f 173/173/173 183/183/183 182/182/182
f 173/173/173 174/174/174 183/183/183
f 174/174/174 184/184/184 183/183/183
f 174/174/174 175/175/175 184/184/184
f 175/175/175 185/185/185 184/184/184
f 175/175/175 176/176/176 185/185/185
f 176/176/176 186/186/186 185/185/185
f 176/176/176 177/177/177 186/186/186
f 177/177/177 187/187/187 186/186/186
f 177/177/177 178/178/178 187/187/187
f 178/178/178 188/188/188 187/187/187
f 178/178/178 179/179/179 188/188/188
f 179/179/179 189/189/189 188/188/188
f 179/179/179 180/180/180 189/189/189
f 180/180/180 190/190/190 189/189/189
f 181/181/181 182/182/182 191/191/191
f 182/182/182 192/192/192 191/191/191
f 182/182/182 183/183/183 192/192/192
f 183/183/183 193/193/193 192/192/192
f 183/183/183 184/184/184 193/193/193
f 184/184/184 194/194/194 193/193/193
f 184/184/184 185/185/185 194/194/194
f 185/185/185 195/195/195 194/194/194
f 185/185/185 186/186/186 195/195/195
f 186/186/186 196/196/196 195/195/195
f 186/186/186 187/187/187 196/196/196
f 187/187/187 197/197/197 196/196/196
f 187/187/187 188/188/188 197/197/197
f 188/188/188 198/198/198 197/197/197
f 188/188/188 189/189/189 198/198/198
f 189/189/189 199/199/199 198/198/198
f 189/189/189 190/190/190 199/199/199
f 190/190/190 200/200/200 199/199/199
f 191/191/191 192/192/192 201/201/201
f 192/192/192 202/202/202 201/201/201
f 192/192/192 193/193/193 202/202/202
f 193/193/193 203/203/203 202/202/202
f 193/193/193 194/194/194 203/203/203
f 194/194/194 204/204/204 203/203/203
f 194/194/194 195/195/195 204/204/204
f 195/195/195 205/205/205 204/204/204
f 195/195/195 196/196/196 205/205/205
f 196/196/196 206/206/206 205/205/205
f 196/196/196 197/197/197 206/206/206
f 197/197/197 207/207/207 206/206/206
f 197/197/197 198/198/198 207/207/207
f 198/198/198 208/208/208 207/207/207
f 198/198/198 199/199/199 208/208/208
f 199/199/199 209/209/209 208/208/208
f 199/199/199 200/200/200 209/209/209
f 200/200/200 210/210/210 209/209/209
f 201/201/201 202/202/202 211/211/211
f 202/202/202 212/212/212 211/211/211
f 202/202/202 203/203/203 212/212/212
f 203/203/203 213/213/213 212/212/212
f 203/203/203 204/204/204 213/213/213
f 204/204/204 214/214/214 213/213/213
f 204/204/204 205/205/205 214/214/214
f 205/205/205 215/215/215 214/214/214
f 205/205/205 206/206/206 215/215/215
f 206/206/206 216/216/216 215/215/215
f 206/206/206 207/207/207 216/216/216
f 207/207/207 217/217/217 216/216/216
f 207/207/207 208/208/208 217/217/217
f 208/208/208 218/218/218 217/217/217
f 208/208/208 209/209/209 218/218/218
f 209/209/209 219/219/219 218/218/218
f 209/209/209 210/210/210 219/219/219
f 210/210/210 220/220/220 219/219/219
f 221/221/221 231/231/231 222/222/222
f 222/222/222 231/231/231 232/232/232
f 222/222/222 232/232/232 223/223/223
f 223/223/223 232/232/232 233/233/233
f 223/223/223 233/233/233 224/224/224
f 224/224/224 233/233/233 234/234/234
f 224/224/224 234/234/234 225/225/225
f 225/225/225 234/234/234 235/235/235
f 225/225/225 235/235/235 226/226/226
f 226/226/226 235/235/235 236/236/236
f 226/226/226 236/236/236 227/227/227
f 227/227/227 236/236/236 237/237/237
f 227/227/227 237/237/237 228/228/228
f 228/228/228 237/237/237 238/238/238
f 228/228/228 238/238/238 229/229/229
f 229/229/229 238/238/238 239/239/239
f 229/229/229 239/239/239 230/230/230
f 230/230/230 239/239/239 240/240/240
f 231/231/231 241/241/241 232/232/232
f 232/232/232 241/241/241 242/242/242
f 232/232/232 242/242/242 233/233/233
f 233/233/233 242/242/242 243/243/243
f 233/233/233 243/243/243 234/234/234
f 234/234/234 243/243/243 244/244/244
f 234/234/234 244/244/244 235/235/235
f 235/235/235 244/244/244 245/245/245
f 235/235/235 245/245/245 236/236/236
f 236/236/236 245/245/245 246/246/246
f 236/236/236 246/246/246 237/237/237
f 237/237/237 246/246/246 247/247/247
f 237/237/237 247/247/247 238/238/238
f 238/238/238 247/247/247 248/248/248
f 238/238/238 248/248/248 239/239/239
f 239/239/239 248/248/248 249/249/249
f 239/239/239 249/249/249 240/240/240
f 240/240/240 249/249/249 250/250/250
f 241/241/241 251/251/251 242/242/242
f 242/242/242 251/251/251 252/252/252
f 242/242/242 252/252/252 243/243/243
f 243/243/243 252/252/252 253/253/253
f 243/243/243 253/253/253 244/244/244
f 244/244/244 253/253/253 254/254/254
f 244/244/244 254/254/254 245/245/245
f 245/245/245 254/254/254 255/255/255
f 245/245/245 255/255/255 246/246/246
f 246/246/246 255/255/255 256/256/256
f 246/246/246 256/256/256 247/247/247
f 247/247/247 256/256/256 257/257/257
f 247/247/247 257/257/257 248/248/248
f 248/248/248 257/257/257 258/258/258
f 248/248/248 258/258/258 249/249/249
f 249/249/249 258/258/258 259/259/259
f 249/249/249 259/259/259 250/250/250
f 250/250/250 259/259/259 260/260/260
f 251/251/251 261/261/261 252/252/252
f 252/252/252 261/261/261 262/262/262
f 252/252/252 262/262/262 253/253/253
f 253/253/253 262/262/262 263/263/263
f 253/253/253 263/263/263 254/254/254
f 254/254/254 263/263/263 264/264/264
f 254/254/254 264/264/264 255/255/255
f 255/255/255 264/264/264 265/265/265
f 255/255/255 265/265/265 256/256/256
f 256/256/256 265/265/265 266/266/266
f 256/256/256 266/266/266 257/257/257
f 257/257/257 266/266/266 267/267/267
f 257/257/257 267/267/267 258/258/258
f 258/258/258 267/267/267 268/268/268
f 258/258/258 268/268/268 259/259/259
f 259/259/259 268/268/268 269/269/269
f 259/259/259 269/269/269 260/260/260
f 260/260/260 269/269/269 270/270/270
f 261/261/261 271/271/271 262/262/262
f 262/262/262 271/271/271 272/272/272
f 262/262/262 272/272/272 263/263/263
f 263/263/263 272/272/272 273/273/273
f 263/263/263 273/273/273 264/264/264
f 264/264/264 273/273/273 274/274/274
f 264/264/264 274/274/274 265/265/265
f 265/265/265 274/274/274 275/275/275
f 265/265/265 275/275/275 266/266/266
f 266/266/266 275/275/275 276/276/276
f 266/266/266 276/276/276 267/267/267
f 267/267/267 276/276/276 277/277/277
f 267/267/267 277/277/277 268/268/268
f 268/268/268 277/277/277 278/278/278
f 268/268/268 278/278/278 269/269/269
f 269/269/269 278/278/278 279/279/279
f 269/269/269 279/279/279 270/270/270
f 270/270/270 279/279/279 280/280/280
f 271/271/271 281/281/281 272/272/272
f 272/272/272 281/281/281 282/282/282
f 272/272/272 282/282/282 273/273/273
f 273/273/273 282/282/282 283/283/283
f 273/273/273 283/283/283 274/274/274
f 274/274/274 283/283/283 284/284/284
f 274/274/274 284/284/284 275/275/275
f 275/275/275 284/284/284 285/285/285
f 275/275/275 285/285/285 276/276/276
f 276/276/276 285/285/285 286/286/286
f 276/276/276 286/286/286 277/277/277
f 277/277/277 286/286/286 287/287/287
f 277/277/277 287/287/287 278/278/278
f 278/278/278 287/287/287 288/288/288
f 278/278/278 288/288/288 279/279/279
f 279/279/279 288/288/288 289/289/289
f 279/279/279 289/289/289 280/280/280
f 280/280/280 289/289/289 290/290/290
f 281/281/281 291/291/291 282/282/282
f 282/282/282 291/291/291 292/292/292
f 282/282/282 292/292/292 283/283/283
f 283/283/283 292/292/292 293/293/293
f 283/283/283 293/293/293 284/284/284
f 284/284/284 293/293/293 294/294/294
f 284/284/284 294/294/294 285/285/285
f 285/285/285 294/294/294 295/295/295
f 285/285/285 295/295/295 286/286/286
f 286/286/286 295/295/295 296/296/296
f 286/286/286 296/296/296 287/287/287
f 287/287/287 296/296/296 297/297/297
f 287/287/287 297/297/297 288/288/288
f 288/288/288 297/297/297 298/298/298
f 288/288/288 298/298/298 289/289/289
f 289/289/289 298/298/298 299/299/299
f 289/289/289 299/299/299 290/290/290
f 290/290/290 299/299/299 300/300/300
f 291/291/291 301/301/301 292/292/292
f 292/292/292 301/301/301 302/302/302
f 292/292/292 302/302/302 293/293/293
f 293/293/293 302/302/302 303/303/303
f 293/293/293 303/303/303 294/294/294
f 294/294/294 303/303/303 304/304/304
f 294/294/294 304/304/304 295/295/295
f 295/295/295 304/304/304 305/305/305
f 295/295/295 305/305/305 296/296/296
f 296/296/296 305/305/305 306/306/306
f 296/296/296 306/306/306 297/297/297
f 297/297/297 306/306/306 307/307/307
f 297/297/297 307/307/307 298/298/298
f 298/298/298 307/307/307 308/308/308
f 298/298/298 308/308/308 299/299/299
f 299/299/299 308/308/308 309/309/309
f 299/299/299 309/309/309 300/300/300
f 300/300/300 309/309/309 310/310/310
f 301/301/301 311/311/311 302/302/302
f 302/302/302 311/311/311 312/312/312
f 302/302/302 312/312/312 303/303/303
f 303/303/303 312/312/312 313/313/313
f 303/303/303 313/313/313 304/304/304
f 304/304/304 313/313/313 314/314/314
f 304/304/304 314/314/314 305/305/305
f 305/305/305 314/314/314 315/315/315
f 305/305/305 315/315/315 306/306/306
f 306/306/306 315/315/315 316/316/316
f 306/306/306 316/316/316 307/307/307
f 307/307/307 316/316/316 317/317/317
f 307/307/307 317/317/317 308/308/308
f 308/308/308 317/317/317 318/318/318
f 308/308/308 318/318/318 309/309/309
f 309/309/309 318/318/318 319/319/319
f 309/309/309 319/319/319 310/310/310
f 310/310/310 319/319/319 320/320/320
f 311/311/311 321/321/321 312/312/312
f 312/312/312 321/321/321 322/322/322
f 312/312/312 322/322/322 313/313/313
f 313/313/313 322/322/322 323/323/323
f 313/313/313 323/323/323 314/314/314
f 314/314/314 323/323/323 324/324/324
f 314/314/314 324/324/324 315/315/315
f 315/315/315 324/324/324 325/325/325
f 315/315/315 325/325/325 316/316/316
f 316/316/316 325/325/325 326/326/326
f 316/316/316 326/326/326 317/317/317
f 317/317/317 326/326/326 327/327/327
f 317/317/317 327/327/327 318/318/318
f 318/318/318 327/327/327 328/328/328
f 318/318/318 328/328/328 319/319/319
f 319/319/319 328/328/328 329/329/329
f 319/319/319 329/329/329 320/320/320
f 320/320/320 329/329/329 330/330/330
f 321/321/321 331/331/331 322/322/322
f 322/322/322 331/331/331 332/332/332
f 322/322/322 332/332/332 323/323/323
f 323/323/323 332/332/332 333/333/333
f 323/323/323 333/333/333 324/324/324
f 324/324/324 333/333/333 334/334/334
f 324/324/324 334/334/334 325/325/325
f 325/325/325 334/334/334 335/335/335
f 325/325/325 335/335/335 326/326/326
f 326/326/326 335/335/335 336/336/336
f 326/326/326 336/336/336 327/327/327
f 327/327/327 336/336/336 337/337/337
f 327/327/327 337/337/337 328/328/328
f 328/328/328 337/337/337 338/338/338
f 328/328/328 338/338/338 329/329/329
f 329/329/329 338/338/338 339/339/339
f 329/329/329 339/339/339 330/330/330
f 330/330/330 339/339/339 340/340/340
f 331/331/331 341/341/341 332/332/332
f 332/332/332 341/341/341 342/342/342
f 332/332/332 342/342/342 333/333/333
f 333/333/333 342/342/342 343/343/343
f 333/333/333 343/343/343 334/334/334
f 334/334/334 343/343/343 344/344/344
f 334/334/334 344/344/344 335/335/335
f 335/335/335 344/344/344 345/345/345
f 335/335/335 345/345/345 336/336/336
f 336/336/336 345/345/345 346/346/346
f 336/336/336 346/346/346 337/337/337
f 337/337/337 346/346/346 347/347/347
f 337/337/337 347/347/347 338/338/338
f 338/338/338 347/347/347 348/348/348
f 338/338/338 348/348/348 339/339/339
f 339/339/339 348/348/348 349/349/349
f 339/339/339 349/349/349 340/340/340
f 340/340/340 349/349/349 350/350/350
f 341/341/341 351/351/351 342/342/342
f 342/342/342 351/351/351 352/352/352
f 342/342/342 352/352/352 343/343/343
f 343/343/343 352/352/352 353/353/353
f 343/343/343 353/353/353 344/344/344
f 344/344/344 353/353/353 354/354/354
f 344/344/344 354/354/354 345/345/345
f 345/345/345 354/354/354 355/355/355
f 345/345/345 355/355/355 346/346/346
f 346/346/346 355/355/355 356/356/356
f 346/346/346 356/356/356 347/347/347
f 347/347/347 356/356/356 357/357/357
f 347/347/347 357/357/357 348/348/348
f 348/348/348 357/357/357 358/358/358
f 348/348/348 358/358/358 349/349/349
f 349/349/349 358/358/358 359/359/359
f 349/349/349 359/359/359 350/350/350
f 350/350/350 359/359/359 360/360/360
f 351/351/351 361/361/361 352/352/352
f 352/352/352 361/361/361 362/362/362
f 352/352/352 362/362/362 353/353/353
f 353/353/353 362/362/362 363/363/363
f 353/353/353 363/363/363 354/354/354
f 354/354/354 363/363/363 364/364/364
f 354/354/354 364/364/364 355/355/355
f 355/355/355 364/364/364 365/365/365
f 355/355/355 365/365/365 356/356/356
f 356/356/356 365/365/365 366/366/366
f 356/356/356 366/366/366 357/357/357
f 357/357/357 366/366/366 367/367/367
f 357/357/357 367/367/367 358/358/358
f 358/358/358 367/367/367 368/368/368
f 358/358/358 368/368/368 359/359/359
f 359/359/359 368/368/368 369/369/369
f 359/359/359 369/369/369 360/360/360
f 360/360/360 369/369/369 370/370/370
f 361/361/361 371/371/371 362/362/362
f 362/362/362 371/371/371 372/372/372
f 362/362/362 372/372/372 363/363/363
f 363/363/363 372/372/372 373/373/373
f 363/363/363 373/373/373 364/364/364
f 364/364/364 373/373/373 374/374/374
f 364/364/364 374/374/374 365/365/365
f 365/365/365 374/374/374 375/375/375
f 365/365/365 375/375/375 366/366/366
f 366/366/366 375/375/375 376/376/376
f 366/366/366 376/376/376 367/367/367
f 367/367/367 376/376/376 377/377/377
f 367/367/367 377/377/377 368/368/368
f 368/368/368 377/377/377 378/378/378
f 368/368/368 378/378/378 369/369/369
f 369/369/369 378/378/378 379/379/379
f 369/369/369 379/379/379 370/370/370
f 370/370/370 379/379/379 380/380/380
f 371/371/371 381/381/381 372/372/372
f 372/372/372 381/381/381 382/382/382
f 372/372/372 382/382/382 373/373/373
f 373/373/373 382/382/382 383/383/383
f 373/373/373 383/383/383 374/374/374
f 374/374/374 383/383/383 384/384/384
f 374/374/374 384/384/384 375/375/375
f 375/375/375 384/384/384 385/385/385
f 375/375/375 385/385/385 376/376/376
f 376/376/376 385/385/385 386/386/386
f 376/376/376 386/386/386 377/377/377
f 377/377/377 386/386/386 387/387/387
f 377/377/377 387/387/387 378/378/378
f 378/378/378 387/387/387 388/388/388
f 378/378/378 388/388/388 379/379/379
f 379/379/379 388/388/388 389/389/389
f 379/379/379 389/389/389 380/380/380
f 380/380/380 389/389/389 390/390/390
f 381/381/381 391/391/391 382/382/382
f 382/382/382 391/391/391 392/392/392
f 382/382/382 392/392/392 383/383/383
f 383/383/383 392/392/392 393/393/393
f 383/383/383 393/393/393 384/384/384
f 384/384/384 393/393/393 394/394/394
f 384/384/384 394/394/394 385/385/385
f 385/385/385 394/394/394 395/395/395
f 385/385/385 395/395/395 386/386/386
f 386/386/386 395/395/395 396/396/396
f 386/386/386 396/396/396 387/387/387
f 387/387/387 396/396/396 397/397/397
f 387/387/387 397/397/397 388/388/388
f 388/388/388 397/397/397 398/398/398
f 388/388/388 398/398/398 389/389/389
f 389/389/389 398/398/398 399/399/399
f 389/389/389 399/399/399 390/390/390
f 390/390/390 399/399/399 400/400/400
f 391/391/391 401/401/401 392/392/392
f 392/392/392 401/401/401 402/402/402
f 392/392/392 402/402/402 393/393/393
f 393/393/393 402/402/402 403/403/403
f 393/393/393 403/403/403 394/394/394
f 394/394/394 403/403/403 404/404/404
f 394/394/394 404/404/404 395/395/395
f 395/395/395 404/404/404 405/405/405
f 395/395/395 405/405/405 396/396/396
f 396/396/396 405/405/405 406/406/406
f 396/396/396 406/406/406 397/397/397
f 397/397/397 406/406/406 407/407/407
f 397/397/397 407/407/407 398/398/398
f 398/398/398 407/407/407 408/408/408
f 398/398/398 408/408/408 399/399/399
f 399/399/399 408/408/408 409/409/409
f 399/399/399 409/409/409 400/400/400
f 400/400/400 409/409/409 410/410/410
f 401/401/401 411/411/411 402/402/402
f 402/402/402 411/411/411 412/412/412
f 402/402/402 412/412/412 403/403/403
f 403/403/403 412/412/412 413/413/413
f 403/403/403 413/413/413 404/404/404
f 404/404/404 413/413/413 414/414/414
f 404/404/404 414/414/414 405/405/405
f 405/405/405 414/414/414 415/415/415
f 405/405/405 415/415/415 406/406/406
f 406/406/406 415/415/415 416/416/416
f 406/406/406 416/416/416 407/407/407
f 407/407/407 416/416/416 417/417/417
f 407/407/407 417/417/417 408/408/408
f 408/408/408 417/417/417 418/418/418
f 408/408/408 418/418/418 409/409/409
f 409/409/409 418/418/418 419/419/419
f 409/409/409 419/419/419 410/410/410
f 410/410/410 419/419/419 420/420/420
f 411/411/411 421/421/421 412/412/412
f 412/412/412 421/421/421 422/422/422
f 412/412/412 422/422/422 413/413/413
f 413/413/413 422/422/422 423/423/423
f 413/413/413 423/423/423 414/414/414
f 414/414/414 423/423/423 424/424/424
f 414/414/414 424/424/424 415/415/415
f 415/415/415 424/424/424 425/425/425
f 415/415/415 425/425/425 416/416/416
f 416/416/416 425/425/425 426/426/426
f 416/416/416 426/426/426 417/417/417
f 417/417/417 426/426/426 427/427/427
f 417/417/417 427/427/427 418/418/418
f 418/418/418 427/427/427 428/428/428
f 418/418/418 428/428/428 419/419/419
f 419/419/419 428/428/428 429/429/429
f 419/419/419 429/429/429 420/420/420
f 420/420/420 429/429/429 430/430/430
f 421/421/421 431/431/431 422/422/422
f 422/422/422 431/431/431 432/432/432
f 422/422/422 432/432/432 423/423/423
f 423/423/423 432/432/432 433/433/433
f 423/423/423 433/433/433 424/424/424
f 424/424/424 433/433/433 434/434/434
f 424/424/424 434/434/434 425/425/425
f 425/425/425 434/434/434 435/435/435
f 425/425/425 435/435/435 426/426/426
f 426/426/426 435/435/435 436/436/436
f 426/426/426 436/436/436 427/427/427
f 427/427/427 436/436/436 437/437/437
f 427/427/427 437/437/437 428/428/428
f 428/428/428 437/437/437 438/438/438
f 428/428/428 438/438/438 429/429/429
f 429/429/429 438/438/438 439/439/439
f 429/429/429 439/439/439 430/430/430
f 430/430/430 439/439/439 440/440/440
