# THE OBSERVER - generated by tools/gen_observer.py
o Foot
v 0.00000 -0.03041 0.60416
v -0.00031 -0.03036 0.60417
v -0.00059 -0.03022 0.60419
v -0.00081 -0.03000 0.60421
v -0.00095 -0.02972 0.60424
v -0.00100 -0.02941 0.60428
v -0.00095 -0.02911 0.60431
v -0.00081 -0.02883 0.60434
v -0.00059 -0.02861 0.60437
v -0.00031 -0.02847 0.60438
v -0.00000 -0.02842 0.60439
v 0.00031 -0.02847 0.60438
v 0.00059 -0.02861 0.60437
v 0.00081 -0.02883 0.60434
v 0.00095 -0.02911 0.60431
v 0.00100 -0.02941 0.60428
v 0.00095 -0.02972 0.60424
v 0.00081 -0.03000 0.60421
v 0.00059 -0.03022 0.60419
v 0.00031 -0.03036 0.60417
v 0.00000 -0.03041 0.60416
v 0.00000 -0.06749 0.59353
v -0.01301 -0.06559 0.59374
v -0.02474 -0.06008 0.59436
v -0.03406 -0.05150 0.59531
v -0.04003 -0.04068 0.59652
v -0.04210 -0.02870 0.59786
v -0.04003 -0.01671 0.59920
v -0.03406 -0.00589 0.60041
v -0.02474 0.00269 0.60137
v -0.01301 0.00820 0.60198
v -0.00000 0.01010 0.60219
v 0.01301 0.00820 0.60198
v 0.02474 0.00269 0.60137
v 0.03406 -0.00589 0.60041
v 0.04003 -0.01671 0.59920
v 0.04210 -0.02870 0.59786
v 0.04003 -0.04068 0.59652
v 0.03406 -0.05150 0.59531
v 0.02474 -0.06008 0.59436
v 0.01301 -0.06559 0.59374
v 0.00000 -0.06749 0.59353
v 0.00000 -0.09833 0.57159
v -0.02404 -0.09483 0.57198
v -0.04572 -0.08465 0.57312
v -0.06293 -0.06879 0.57489
v -0.07397 -0.04881 0.57712
v -0.07778 -0.02666 0.57959
v -0.07397 -0.00451 0.58207
v -0.06293 0.01548 0.58430
v -0.04572 0.03133 0.58607
v -0.02404 0.04152 0.58721
v -0.00000 0.04502 0.58760
v 0.02404 0.04152 0.58721
v 0.04572 0.03133 0.58607
v 0.06293 0.01548 0.58430
v 0.07397 -0.00451 0.58207
v 0.07778 -0.02666 0.57959
v 0.07397 -0.04881 0.57712
v 0.06293 -0.06879 0.57489
v 0.04572 -0.08465 0.57312
v 0.02404 -0.09483 0.57198
v 0.00000 -0.09833 0.57159
v 0.00000 -0.11726 0.54179
v -0.03140 -0.11267 0.54230
v -0.05973 -0.09937 0.54379
v -0.08222 -0.07865 0.54610
v -0.09665 -0.05254 0.54902
v -0.10163 -0.02360 0.55225
v -0.09665 0.00534 0.55548
v -0.08222 0.03145 0.55840
v -0.05973 0.05217 0.56071
v -0.03140 0.06547 0.56220
v -0.00000 0.07005 0.56271
v 0.03140 0.06547 0.56220
v 0.05973 0.05217 0.56071
v 0.08222 0.03145 0.55840
v 0.09665 0.00534 0.55548
v 0.10163 -0.02360 0.55225
v 0.09665 -0.05254 0.54902
v 0.08222 -0.07865 0.54610
v 0.05973 -0.09937 0.54379
v 0.03140 -0.11267 0.54230
v 0.00000 -0.11726 0.54179
v 0.00000 -0.12137 0.50868
v -0.03399 -0.11641 0.50923
v -0.06466 -0.10201 0.51084
v -0.08899 -0.07958 0.51335
v -0.10462 -0.05132 0.51650
v -0.11000 -0.02000 0.52000
v -0.10462 0.01132 0.52350
v -0.08899 0.03958 0.52665
v -0.06466 0.06201 0.52916
v -0.03399 0.07641 0.53077
v -0.00000 0.08137 0.53132
v 0.03399 0.07641 0.53077
v 0.06466 0.06201 0.52916
v 0.08899 0.03958 0.52665
v 0.10462 0.01132 0.52350
v 0.11000 -0.02000 0.52000
v 0.10462 -0.05132 0.51650
v 0.08899 -0.07958 0.51335
v 0.06466 -0.10201 0.51084
v 0.03399 -0.11641 0.50923
v 0.00000 -0.12137 0.50868
v 0.00000 -0.12090 0.44921
v -0.03300 -0.11564 0.44979
v -0.06278 -0.10037 0.45147
v -0.08641 -0.07660 0.45409
v -0.10158 -0.04663 0.45739
v -0.10681 -0.01342 0.46105
v -0.10158 0.01980 0.46471
v -0.08641 0.04976 0.46801
v -0.06278 0.07354 0.47063
v -0.03300 0.08881 0.47231
v -0.00000 0.09407 0.47289
v 0.03300 0.08881 0.47231
v 0.06278 0.07354 0.47063
v 0.08641 0.04976 0.46801
v 0.10158 0.01980 0.46471
v 0.10681 -0.01342 0.46105
v 0.10158 -0.04663 0.45739
v 0.08641 -0.07660 0.45409
v 0.06278 -0.10037 0.45147
v 0.03300 -0.11564 0.44979
v 0.00000 -0.12090 0.44921
v 0.00000 -0.12030 0.39014
v -0.03202 -0.11476 0.39072
v -0.06090 -0.09866 0.39242
v -0.08382 -0.07360 0.39507
v -0.09854 -0.04202 0.39841
v -0.10361 -0.00701 0.40211
v -0.09854 0.02800 0.40580
v -0.08382 0.05958 0.40914
v -0.06090 0.08464 0.41179
v -0.03202 0.10073 0.41349
v -0.00000 0.10628 0.41407
v 0.03202 0.10073 0.41349
v 0.06090 0.08464 0.41179
v 0.08382 0.05958 0.40914
v 0.09854 0.02800 0.40580
v 0.10361 -0.00701 0.40211
v 0.09854 -0.04202 0.39841
v 0.08382 -0.07360 0.39507
v 0.06090 -0.09866 0.39242
v 0.03202 -0.11476 0.39072
v 0.00000 -0.12030 0.39014
v 0.00000 -0.11964 0.33150
v -0.03103 -0.11383 0.33207
v -0.05903 -0.09698 0.33373
v -0.08124 -0.07072 0.33631
v -0.09551 -0.03764 0.33956
v -0.10042 -0.00096 0.34316
v -0.09551 0.03571 0.34676
v -0.08124 0.06880 0.35001
v -0.05903 0.09505 0.35259
v -0.03103 0.11191 0.35425
v -0.00000 0.11772 0.35482
v 0.03103 0.11191 0.35425
v 0.05903 0.09505 0.35259
v 0.08124 0.06880 0.35001
v 0.09551 0.03571 0.34676
v 0.10042 -0.00096 0.34316
v 0.09551 -0.03764 0.33956
v 0.08124 -0.07072 0.33631
v 0.05903 -0.09698 0.33373
v 0.03103 -0.11383 0.33207
v 0.00000 -0.11964 0.33150
v 0.00000 -0.11900 0.27332
v -0.03005 -0.11296 0.27385
v -0.05715 -0.09540 0.27540
v -0.07866 -0.06807 0.27781
v -0.09247 -0.03362 0.28084
v -0.09723 0.00457 0.28421
v -0.09247 0.04275 0.28758
v -0.07866 0.07720 0.29061
v -0.05715 0.10454 0.29302
v -0.03005 0.12209 0.29457
v -0.00000 0.12814 0.29510
v 0.03005 0.12209 0.29457
v 0.05715 0.10454 0.29302
v 0.07866 0.07720 0.29061
v 0.09247 0.04275 0.28758
v 0.09723 0.00457 0.28421
v 0.09247 -0.03362 0.28084
v 0.07866 -0.06807 0.27781
v 0.05715 -0.09540 0.27540
v 0.03005 -0.11296 0.27385
v 0.00000 -0.11900 0.27332
v 0.00000 -0.11845 0.21559
v -0.02906 -0.11219 0.21606
v -0.05528 -0.09402 0.21744
v -0.07609 -0.06573 0.21958
v -0.08945 -0.03009 0.22227
v -0.09405 0.00943 0.22526
v -0.08945 0.04894 0.22825
v -0.07609 0.08459 0.23095
v -0.05528 0.11288 0.23309
v -0.02906 0.13105 0.23446
v -0.00000 0.13730 0.23494
v 0.02906 0.13105 0.23446
v 0.05528 0.11288 0.23309
v 0.07609 0.08459 0.23095
v 0.08945 0.04894 0.22825
v 0.09405 0.00943 0.22526
v 0.08945 -0.03009 0.22227
v 0.07609 -0.06573 0.21958
v 0.05528 -0.09402 0.21744
v 0.02906 -0.11219 0.21606
v 0.00000 -0.11845 0.21559
v 0.00000 -0.11803 0.15828
v -0.02808 -0.11159 0.15868
v -0.05341 -0.09291 0.15982
v -0.07351 -0.06382 0.16159
v -0.08642 -0.02715 0.16383
v -0.09087 0.01349 0.16632
v -0.08642 0.05413 0.16880
v -0.07351 0.09079 0.17104
v -0.05341 0.11988 0.17282
v -0.02808 0.13856 0.17396
v -0.00000 0.14500 0.17435
v 0.02808 0.13856 0.17396
v 0.05341 0.11988 0.17282
v 0.07351 0.09079 0.17104
v 0.08642 0.05413 0.16880
v 0.09087 0.01349 0.16632
v 0.08642 -0.02715 0.16383
v 0.07351 -0.06382 0.16159
v 0.05341 -0.09291 0.15982
v 0.02808 -0.11159 0.15868
v 0.00000 -0.11803 0.15828
v 0.00000 -0.11779 0.10134
v -0.02710 -0.11121 0.10163
v -0.05154 -0.09212 0.10249
v -0.07094 -0.06238 0.10382
v -0.08340 -0.02491 0.10550
v -0.08769 0.01663 0.10737
v -0.08340 0.05817 0.10923
v -0.07094 0.09564 0.11091
v -0.05154 0.12538 0.11225
v -0.02710 0.14448 0.11310
v -0.00000 0.15106 0.11340
v 0.02710 0.14448 0.11310
v 0.05154 0.12538 0.11225
v 0.07094 0.09564 0.11091
v 0.08340 0.05817 0.10923
v 0.08769 0.01663 0.10737
v 0.08340 -0.02491 0.10550
v 0.07094 -0.06238 0.10382
v 0.05154 -0.09212 0.10249
v 0.02710 -0.11121 0.10163
v 0.00000 -0.11779 0.10134
v 0.00000 -0.11778 0.04468
v -0.02612 -0.11110 0.04486
v -0.04968 -0.09170 0.04539
v -0.06837 -0.06149 0.04622
v -0.08038 -0.02342 0.04726
v -0.08451 0.01878 0.04842
v -0.08038 0.06097 0.04958
v -0.06837 0.09904 0.05062
v -0.04968 0.12925 0.05145
v -0.02612 0.14865 0.05198
v -0.00000 0.15533 0.05217
v 0.02612 0.14865 0.05198
v 0.04968 0.12925 0.05145
v 0.06837 0.09904 0.05062
v 0.08038 0.06097 0.04958
v 0.08451 0.01878 0.04842
v 0.08038 -0.02342 0.04726
v 0.06837 -0.06149 0.04622
v 0.04968 -0.09170 0.04539
v 0.02612 -0.11110 0.04486
v 0.00000 -0.11778 0.04468
v 0.00000 -0.11802 -0.01180
v -0.02514 -0.11127 -0.01174
v -0.04781 -0.09168 -0.01156
v -0.06580 -0.06117 -0.01127
v -0.07736 -0.02274 -0.01092
v -0.08134 0.01986 -0.01053
v -0.07737 0.06247 -0.01013
v -0.06582 0.10091 -0.00978
v -0.04781 0.13141 -0.00950
v -0.02514 0.15098 -0.00932
v -0.00000 0.15772 -0.00925
v 0.02514 0.15098 -0.00932
v 0.04781 0.13141 -0.00950
v 0.06582 0.10091 -0.00978
v 0.07737 0.06247 -0.01013
v 0.08134 0.01986 -0.01053
v 0.07736 -0.02274 -0.01092
v 0.06580 -0.06117 -0.01127
v 0.04781 -0.09168 -0.01156
v 0.02514 -0.11127 -0.01174
v 0.00000 -0.11802 -0.01180
v 0.00000 -0.11860 -0.06820
v -0.02417 -0.11179 -0.06826
v -0.04596 -0.09208 -0.06844
v -0.06324 -0.06145 -0.06872
v -0.07434 -0.02289 -0.06908
v -0.07820 0.01986 -0.06947
v -0.07440 0.06265 -0.06987
v -0.06329 0.10125 -0.07022
v -0.04597 0.13184 -0.07051
v -0.02416 0.15145 -0.07069
v -0.00000 0.15819 -0.07075
v 0.02416 0.15145 -0.07069
v 0.04597 0.13184 -0.07051
v 0.06329 0.10125 -0.07022
v 0.07440 0.06265 -0.06987
v 0.07820 0.01986 -0.06947
v 0.07434 -0.02289 -0.06908
v 0.06324 -0.06145 -0.06872
v 0.04596 -0.09208 -0.06844
v 0.02417 -0.11179 -0.06826
v 0.00000 -0.11860 -0.06820
v 0.00000 -0.11970 -0.12462
v -0.02324 -0.11282 -0.12481
v -0.04413 -0.09298 -0.12536
v -0.06067 -0.06232 -0.12620
v -0.07134 -0.02387 -0.12725
v -0.07513 0.01878 -0.12842
v -0.07156 0.06155 -0.12959
v -0.06089 0.10016 -0.13065
v -0.04419 0.13066 -0.13149
v -0.02319 0.15008 -0.13202
v -0.00000 0.15673 -0.13220
v 0.02319 0.15008 -0.13202
v 0.04419 0.13066 -0.13149
v 0.06089 0.10016 -0.13065
v 0.07156 0.06155 -0.12959
v 0.07513 0.01878 -0.12842
v 0.07134 -0.02387 -0.12725
v 0.06067 -0.06232 -0.12620
v 0.04413 -0.09298 -0.12536
v 0.02324 -0.11282 -0.12481
v 0.00000 -0.11970 -0.12462
v 0.00000 -0.12175 -0.18116
v -0.02240 -0.11466 -0.18148
v -0.04238 -0.09446 -0.18238
v -0.05811 -0.06377 -0.18376
v -0.06837 -0.02568 -0.18547
v -0.07224 0.01663 -0.18737
v -0.06903 0.05935 -0.18928
v -0.05877 0.09795 -0.19102
v -0.04254 0.12813 -0.19237
v -0.02225 0.14701 -0.19322
v -0.00000 0.15338 -0.19350
v 0.02225 0.14701 -0.19322
v 0.04254 0.12813 -0.19237
v 0.05877 0.09795 -0.19102
v 0.06903 0.05935 -0.18928
v 0.07224 0.01663 -0.18737
v 0.06837 -0.02568 -0.18547
v 0.05811 -0.06377 -0.18376
v 0.04238 -0.09446 -0.18238
v 0.02240 -0.11466 -0.18148
v 0.00000 -0.12175 -0.18116
v 0.00000 -0.12521 -0.23784
v -0.02170 -0.11765 -0.23830
v -0.04075 -0.09664 -0.23959
v -0.05556 -0.06578 -0.24147
v -0.06546 -0.02827 -0.24376
v -0.06964 0.01349 -0.24632
v -0.06700 0.05623 -0.24893
v -0.05711 0.09496 -0.25129
v -0.04111 0.12460 -0.25310
v -0.02134 0.14242 -0.25419
v -0.00000 0.14824 -0.25455
v 0.02134 0.14242 -0.25419
v 0.04111 0.12460 -0.25310
v 0.05711 0.09496 -0.25129
v 0.06700 0.05623 -0.24893
v 0.06964 0.01349 -0.24632
v 0.06546 -0.02827 -0.24376
v 0.05556 -0.06578 -0.24147
v 0.04075 -0.09664 -0.23959
v 0.02170 -0.11765 -0.23830
v 0.00000 -0.12521 -0.23784
v 0.00000 -0.13008 -0.29471
v -0.02113 -0.12179 -0.29534
v -0.03922 -0.09950 -0.29702
v -0.05302 -0.06831 -0.29938
v -0.06258 -0.03160 -0.30216
v -0.06729 0.00943 -0.30526
v -0.06542 0.05232 -0.30851
v -0.05586 0.09132 -0.31146
v -0.03989 0.12021 -0.31364
v -0.02046 0.13649 -0.31487
v -0.00000 0.14150 -0.31525
v 0.02046 0.13649 -0.31487
v 0.03989 0.12021 -0.31364
v 0.05586 0.09132 -0.31146
v 0.06542 0.05232 -0.30851
v 0.06729 0.00943 -0.30526
v 0.06258 -0.03160 -0.30216
v 0.05302 -0.06831 -0.29938
v 0.03922 -0.09950 -0.29702
v 0.02113 -0.12179 -0.29534
v 0.00000 -0.13008 -0.29471
v 0.00000 -0.13565 -0.35185
v -0.02054 -0.12664 -0.35265
v -0.03767 -0.10307 -0.35472
v -0.05048 -0.07157 -0.35750
v -0.05970 -0.03570 -0.36066
v -0.06490 0.00457 -0.36421
v -0.06376 0.04757 -0.36800
v -0.05454 0.08683 -0.37146
v -0.03863 0.11494 -0.37394
v -0.01958 0.12965 -0.37524
v -0.00000 0.13383 -0.37560
v 0.01958 0.12965 -0.37524
v 0.03863 0.11494 -0.37394
v 0.05454 0.08683 -0.37146
v 0.06376 0.04757 -0.36800
v 0.06490 0.00457 -0.36421
v 0.05970 -0.03570 -0.36066
v 0.05048 -0.07157 -0.35750
v 0.03767 -0.10307 -0.35472
v 0.02054 -0.12664 -0.35265
v 0.00000 -0.13565 -0.35185
v 0.00000 -0.14004 -0.40950
v -0.01970 -0.13076 -0.41041
v -0.03592 -0.10680 -0.41276
v -0.04791 -0.07548 -0.41584
v -0.05672 -0.04041 -0.41928
v -0.06202 -0.00096 -0.42316
v -0.06125 0.04164 -0.42734
v -0.05244 0.08060 -0.43117
v -0.03699 0.10803 -0.43386
v -0.01863 0.12178 -0.43522
v -0.00000 0.12550 -0.43558
v 0.01863 0.12178 -0.43522
v 0.03699 0.10803 -0.43386
v 0.05244 0.08060 -0.43117
v 0.06125 0.04164 -0.42734
v 0.06202 -0.00096 -0.42316
v 0.05672 -0.04041 -0.41928
v 0.04791 -0.07548 -0.41584
v 0.03592 -0.10680 -0.41276
v 0.01970 -0.13076 -0.41041
v 0.00000 -0.14004 -0.40950
v 0.00000 -0.14204 -0.46784
v -0.01853 -0.13321 -0.46877
v -0.03389 -0.11025 -0.47120
v -0.04531 -0.07988 -0.47441
v -0.05362 -0.04557 -0.47803
v -0.05845 -0.00701 -0.48211
v -0.05756 0.03438 -0.48648
v -0.04925 0.07219 -0.49047
v -0.03482 0.09906 -0.49331
v -0.01760 0.11285 -0.49477
v -0.00000 0.11668 -0.49517
v 0.01760 0.11285 -0.49477
v 0.03482 0.09906 -0.49331
v 0.04925 0.07219 -0.49047
v 0.05756 0.03438 -0.48648
v 0.05845 -0.00701 -0.48211
v 0.05362 -0.04557 -0.47803
v 0.04531 -0.07988 -0.47441
v 0.03389 -0.11025 -0.47120
v 0.01853 -0.13321 -0.46877
v 0.00000 -0.14204 -0.46784
v 0.00000 -0.14232 -0.52685
v -0.01713 -0.13446 -0.52772
v -0.03168 -0.11350 -0.53003
v -0.04270 -0.08463 -0.53321
v -0.05043 -0.05103 -0.53691
v -0.05443 -0.01342 -0.54105
v -0.05309 0.02618 -0.54542
v -0.04536 0.06224 -0.54939
v -0.03230 0.08865 -0.55230
v -0.01650 0.10318 -0.55390
v -0.00000 0.10754 -0.55438
v 0.01650 0.10318 -0.55390
v 0.03230 0.08865 -0.55230
v 0.04536 0.06224 -0.54939
v 0.05309 0.02618 -0.54542
v 0.05443 -0.01342 -0.54105
v 0.05043 -0.05103 -0.53691
v 0.04270 -0.08463 -0.53321
v 0.03168 -0.11350 -0.53003
v 0.01713 -0.13446 -0.52772
v 0.00000 -0.14232 -0.52685
v 0.00000 -0.14262 -0.58631
v -0.01574 -0.13576 -0.58707
v -0.02947 -0.11689 -0.58918
v -0.04008 -0.08958 -0.59223
v -0.04724 -0.05667 -0.59590
v -0.05041 -0.02000 -0.60000
v -0.04864 0.01776 -0.60422
v -0.04148 0.05201 -0.60804
v -0.02980 0.07798 -0.61094
v -0.01541 0.09333 -0.61266
v -0.00000 0.09826 -0.61321
v 0.01541 0.09333 -0.61266
v 0.02980 0.07798 -0.61094
v 0.04148 0.05201 -0.60804
v 0.04864 0.01776 -0.60422
v 0.05041 -0.02000 -0.60000
v 0.04724 -0.05667 -0.59590
v 0.04008 -0.08958 -0.59223
v 0.02947 -0.11689 -0.58918
v 0.01574 -0.13576 -0.58707
v 0.00000 -0.14262 -0.58631
v 0.00000 -0.13614 -0.61298
v -0.01454 -0.12981 -0.61369
v -0.02722 -0.11238 -0.61564
v -0.03703 -0.08714 -0.61845
v -0.04365 -0.05675 -0.62185
v -0.04657 -0.02286 -0.62563
v -0.04494 0.01202 -0.62953
v -0.03833 0.04366 -0.63306
v -0.02753 0.06766 -0.63574
v -0.01424 0.08184 -0.63733
v -0.00000 0.08640 -0.63784
v 0.01424 0.08184 -0.63733
v 0.02753 0.06766 -0.63574
v 0.03833 0.04366 -0.63306
v 0.04494 0.01202 -0.62953
v 0.04657 -0.02286 -0.62563
v 0.04365 -0.05675 -0.62185
v 0.03703 -0.08714 -0.61845
v 0.02722 -0.11238 -0.61564
v 0.01454 -0.12981 -0.61369
v 0.00000 -0.13614 -0.61298
v 0.00000 -0.11199 -0.63768
v -0.01113 -0.10715 -0.63822
v -0.02084 -0.09380 -0.63971
v -0.02834 -0.07449 -0.64187
v -0.03341 -0.05122 -0.64447
v -0.03565 -0.02529 -0.64736
v -0.03440 0.00141 -0.65035
v -0.02933 0.02563 -0.65305
v -0.02107 0.04399 -0.65510
v -0.01090 0.05485 -0.65631
v -0.00000 0.05834 -0.65670
v 0.01090 0.05485 -0.65631
v 0.02107 0.04399 -0.65510
v 0.02933 0.02563 -0.65305
v 0.03440 0.00141 -0.65035
v 0.03565 -0.02529 -0.64736
v 0.03341 -0.05122 -0.64447
v 0.02834 -0.07449 -0.64187
v 0.02084 -0.09380 -0.63971
v 0.01113 -0.10715 -0.63822
v 0.00000 -0.11199 -0.63768
v 0.00000 -0.07383 -0.65664
v -0.00602 -0.07121 -0.65694
v -0.01128 -0.06399 -0.65774
v -0.01534 -0.05354 -0.65891
v -0.01808 -0.04095 -0.66032
v -0.01929 -0.02691 -0.66188
v -0.01862 -0.01246 -0.66350
v -0.01588 0.00064 -0.66496
v -0.01140 0.01058 -0.66607
v -0.00590 0.01646 -0.66673
v -0.00000 0.01835 -0.66694
v 0.00590 0.01646 -0.66673
v 0.01140 0.01058 -0.66607
v 0.01588 0.00064 -0.66496
v 0.01862 -0.01246 -0.66350
v 0.01929 -0.02691 -0.66188
v 0.01808 -0.04095 -0.66032
v 0.01534 -0.05354 -0.65891
v 0.01128 -0.06399 -0.65774
v 0.00602 -0.07121 -0.65694
v 0.00000 -0.07383 -0.65664
v 0.00000 -0.02851 -0.66687
v -0.00032 -0.02845 -0.66687
v -0.00060 -0.02830 -0.66689
v -0.00081 -0.02807 -0.66692
v -0.00095 -0.02779 -0.66695
v -0.00102 -0.02748 -0.66698
v -0.00098 -0.02716 -0.66702
v -0.00084 -0.02688 -0.66705
v -0.00060 -0.02666 -0.66708
v -0.00031 -0.02653 -0.66709
v -0.00000 -0.02649 -0.66709
v 0.00031 -0.02653 -0.66709
v 0.00060 -0.02666 -0.66708
v 0.00084 -0.02688 -0.66705
v 0.00098 -0.02716 -0.66702
v 0.00102 -0.02748 -0.66698
v 0.00095 -0.02779 -0.66695
v 0.00081 -0.02807 -0.66692
v 0.00060 -0.02830 -0.66689
v 0.00032 -0.02845 -0.66687
v 0.00000 -0.02851 -0.66687
vt 0.00000 -0.04240
vt 0.05000 -0.04240
vt 0.10000 -0.04240
vt 0.15000 -0.04240
vt 0.20000 -0.04240
vt 0.25000 -0.04240
vt 0.30000 -0.04240
vt 0.35000 -0.04240
vt 0.40000 -0.04240
vt 0.45000 -0.04240
vt 0.50000 -0.04240
vt 0.55000 -0.04240
vt 0.60000 -0.04240
vt 0.65000 -0.04240
vt 0.70000 -0.04240
vt 0.75000 -0.04240
vt 0.80000 -0.04240
vt 0.85000 -0.04240
vt 0.90000 -0.04240
vt 0.95000 -0.04240
vt 1.00000 -0.04240
vt 0.00000 -0.03917
vt 0.05000 -0.03917
vt 0.10000 -0.03917
vt 0.15000 -0.03917
vt 0.20000 -0.03917
vt 0.25000 -0.03917
vt 0.30000 -0.03917
vt 0.35000 -0.03917
vt 0.40000 -0.03917
vt 0.45000 -0.03917
vt 0.50000 -0.03917
vt 0.55000 -0.03917
vt 0.60000 -0.03917
vt 0.65000 -0.03917
vt 0.70000 -0.03917
vt 0.75000 -0.03917
vt 0.80000 -0.03917
vt 0.85000 -0.03917
vt 0.90000 -0.03917
vt 0.95000 -0.03917
vt 1.00000 -0.03917
vt 0.00000 -0.02998
vt 0.05000 -0.02998
vt 0.10000 -0.02998
vt 0.15000 -0.02998
vt 0.20000 -0.02998
vt 0.25000 -0.02998
vt 0.30000 -0.02998
vt 0.35000 -0.02998
vt 0.40000 -0.02998
vt 0.45000 -0.02998
vt 0.50000 -0.02998
vt 0.55000 -0.02998
vt 0.60000 -0.02998
vt 0.65000 -0.02998
vt 0.70000 -0.02998
vt 0.75000 -0.02998
vt 0.80000 -0.02998
vt 0.85000 -0.02998
vt 0.90000 -0.02998
vt 0.95000 -0.02998
vt 1.00000 -0.02998
vt 0.00000 -0.01623
vt 0.05000 -0.01623
vt 0.10000 -0.01623
vt 0.15000 -0.01623
vt 0.20000 -0.01623
vt 0.25000 -0.01623
vt 0.30000 -0.01623
vt 0.35000 -0.01623
vt 0.40000 -0.01623
vt 0.45000 -0.01623
vt 0.50000 -0.01623
vt 0.55000 -0.01623
vt 0.60000 -0.01623
vt 0.65000 -0.01623
vt 0.70000 -0.01623
vt 0.75000 -0.01623
vt 0.80000 -0.01623
vt 0.85000 -0.01623
vt 0.90000 -0.01623
vt 0.95000 -0.01623
vt 1.00000 -0.01623
vt 0.00000 0.00000
vt 0.05000 0.00000
vt 0.10000 0.00000
vt 0.15000 0.00000
vt 0.20000 0.00000
vt 0.25000 0.00000
vt 0.30000 0.00000
vt 0.35000 0.00000
vt 0.40000 0.00000
vt 0.45000 0.00000
vt 0.50000 0.00000
vt 0.55000 0.00000
vt 0.60000 0.00000
vt 0.65000 0.00000
vt 0.70000 0.00000
vt 0.75000 0.00000
vt 0.80000 0.00000
vt 0.85000 0.00000
vt 0.90000 0.00000
vt 0.95000 0.00000
vt 1.00000 0.00000
vt 0.00000 0.02966
vt 0.05000 0.02966
vt 0.10000 0.02966
vt 0.15000 0.02966
vt 0.20000 0.02966
vt 0.25000 0.02966
vt 0.30000 0.02966
vt 0.35000 0.02966
vt 0.40000 0.02966
vt 0.45000 0.02966
vt 0.50000 0.02966
vt 0.55000 0.02966
vt 0.60000 0.02966
vt 0.65000 0.02966
vt 0.70000 0.02966
vt 0.75000 0.02966
vt 0.80000 0.02966
vt 0.85000 0.02966
vt 0.90000 0.02966
vt 0.95000 0.02966
vt 1.00000 0.02966
vt 0.00000 0.05930
vt 0.05000 0.05930
vt 0.10000 0.05930
vt 0.15000 0.05930
vt 0.20000 0.05930
vt 0.25000 0.05930
vt 0.30000 0.05930
vt 0.35000 0.05930
vt 0.40000 0.05930
vt 0.45000 0.05930
vt 0.50000 0.05930
vt 0.55000 0.05930
vt 0.60000 0.05930
vt 0.65000 0.05930
vt 0.70000 0.05930
vt 0.75000 0.05930
vt 0.80000 0.05930
vt 0.85000 0.05930
vt 0.90000 0.05930
vt 0.95000 0.05930
vt 1.00000 0.05930
vt 0.00000 0.08893
vt 0.05000 0.08893
vt 0.10000 0.08893
vt 0.15000 0.08893
vt 0.20000 0.08893
vt 0.25000 0.08893
vt 0.30000 0.08893
vt 0.35000 0.08893
vt 0.40000 0.08893
vt 0.45000 0.08893
vt 0.50000 0.08893
vt 0.55000 0.08893
vt 0.60000 0.08893
vt 0.65000 0.08893
vt 0.70000 0.08893
vt 0.75000 0.08893
vt 0.80000 0.08893
vt 0.85000 0.08893
vt 0.90000 0.08893
vt 0.95000 0.08893
vt 1.00000 0.08893
vt 0.00000 0.11854
vt 0.05000 0.11854
vt 0.10000 0.11854
vt 0.15000 0.11854
vt 0.20000 0.11854
vt 0.25000 0.11854
vt 0.30000 0.11854
vt 0.35000 0.11854
vt 0.40000 0.11854
vt 0.45000 0.11854
vt 0.50000 0.11854
vt 0.55000 0.11854
vt 0.60000 0.11854
vt 0.65000 0.11854
vt 0.70000 0.11854
vt 0.75000 0.11854
vt 0.80000 0.11854
vt 0.85000 0.11854
vt 0.90000 0.11854
vt 0.95000 0.11854
vt 1.00000 0.11854
vt 0.00000 0.14811
vt 0.05000 0.14811
vt 0.10000 0.14811
vt 0.15000 0.14811
vt 0.20000 0.14811
vt 0.25000 0.14811
vt 0.30000 0.14811
vt 0.35000 0.14811
vt 0.40000 0.14811
vt 0.45000 0.14811
vt 0.50000 0.14811
vt 0.55000 0.14811
vt 0.60000 0.14811
vt 0.65000 0.14811
vt 0.70000 0.14811
vt 0.75000 0.14811
vt 0.80000 0.14811
vt 0.85000 0.14811
vt 0.90000 0.14811
vt 0.95000 0.14811
vt 1.00000 0.14811
vt 0.00000 0.17765
vt 0.05000 0.17765
vt 0.10000 0.17765
vt 0.15000 0.17765
vt 0.20000 0.17765
vt 0.25000 0.17765
vt 0.30000 0.17765
vt 0.35000 0.17765
vt 0.40000 0.17765
vt 0.45000 0.17765
vt 0.50000 0.17765
vt 0.55000 0.17765
vt 0.60000 0.17765
vt 0.65000 0.17765
vt 0.70000 0.17765
vt 0.75000 0.17765
vt 0.80000 0.17765
vt 0.85000 0.17765
vt 0.90000 0.17765
vt 0.95000 0.17765
vt 1.00000 0.17765
vt 0.00000 0.20717
vt 0.05000 0.20717
vt 0.10000 0.20717
vt 0.15000 0.20717
vt 0.20000 0.20717
vt 0.25000 0.20717
vt 0.30000 0.20717
vt 0.35000 0.20717
vt 0.40000 0.20717
vt 0.45000 0.20717
vt 0.50000 0.20717
vt 0.55000 0.20717
vt 0.60000 0.20717
vt 0.65000 0.20717
vt 0.70000 0.20717
vt 0.75000 0.20717
vt 0.80000 0.20717
vt 0.85000 0.20717
vt 0.90000 0.20717
vt 0.95000 0.20717
vt 1.00000 0.20717
vt 0.00000 0.23666
vt 0.05000 0.23666
vt 0.10000 0.23666
vt 0.15000 0.23666
vt 0.20000 0.23666
vt 0.25000 0.23666
vt 0.30000 0.23666
vt 0.35000 0.23666
vt 0.40000 0.23666
vt 0.45000 0.23666
vt 0.50000 0.23666
vt 0.55000 0.23666
vt 0.60000 0.23666
vt 0.65000 0.23666
vt 0.70000 0.23666
vt 0.75000 0.23666
vt 0.80000 0.23666
vt 0.85000 0.23666
vt 0.90000 0.23666
vt 0.95000 0.23666
vt 1.00000 0.23666
vt 0.00000 0.26614
vt 0.05000 0.26614
vt 0.10000 0.26614
vt 0.15000 0.26614
vt 0.20000 0.26614
vt 0.25000 0.26614
vt 0.30000 0.26614
vt 0.35000 0.26614
vt 0.40000 0.26614
vt 0.45000 0.26614
vt 0.50000 0.26614
vt 0.55000 0.26614
vt 0.60000 0.26614
vt 0.65000 0.26614
vt 0.70000 0.26614
vt 0.75000 0.26614
vt 0.80000 0.26614
vt 0.85000 0.26614
vt 0.90000 0.26614
vt 0.95000 0.26614
vt 1.00000 0.26614
vt 0.00000 0.29561
vt 0.05000 0.29561
vt 0.10000 0.29561
vt 0.15000 0.29561
vt 0.20000 0.29561
vt 0.25000 0.29561
vt 0.30000 0.29561
vt 0.35000 0.29561
vt 0.40000 0.29561
vt 0.45000 0.29561
vt 0.50000 0.29561
vt 0.55000 0.29561
vt 0.60000 0.29561
vt 0.65000 0.29561
vt 0.70000 0.29561
vt 0.75000 0.29561
vt 0.80000 0.29561
vt 0.85000 0.29561
vt 0.90000 0.29561
vt 0.95000 0.29561
vt 1.00000 0.29561
vt 0.00000 0.32509
vt 0.05000 0.32509
vt 0.10000 0.32509
vt 0.15000 0.32509
vt 0.20000 0.32509
vt 0.25000 0.32509
vt 0.30000 0.32509
vt 0.35000 0.32509
vt 0.40000 0.32509
vt 0.45000 0.32509
vt 0.50000 0.32509
vt 0.55000 0.32509
vt 0.60000 0.32509
vt 0.65000 0.32509
vt 0.70000 0.32509
vt 0.75000 0.32509
vt 0.80000 0.32509
vt 0.85000 0.32509
vt 0.90000 0.32509
vt 0.95000 0.32509
vt 1.00000 0.32509
vt 0.00000 0.35459
vt 0.05000 0.35459
vt 0.10000 0.35459
vt 0.15000 0.35459
vt 0.20000 0.35459
vt 0.25000 0.35459
vt 0.30000 0.35459
vt 0.35000 0.35459
vt 0.40000 0.35459
vt 0.45000 0.35459
vt 0.50000 0.35459
vt 0.55000 0.35459
vt 0.60000 0.35459
vt 0.65000 0.35459
vt 0.70000 0.35459
vt 0.75000 0.35459
vt 0.80000 0.35459
vt 0.85000 0.35459
vt 0.90000 0.35459
vt 0.95000 0.35459
vt 1.00000 0.35459
vt 0.00000 0.38410
vt 0.05000 0.38410
vt 0.10000 0.38410
vt 0.15000 0.38410
vt 0.20000 0.38410
vt 0.25000 0.38410
vt 0.30000 0.38410
vt 0.35000 0.38410
vt 0.40000 0.38410
vt 0.45000 0.38410
vt 0.50000 0.38410
vt 0.55000 0.38410
vt 0.60000 0.38410
vt 0.65000 0.38410
vt 0.70000 0.38410
vt 0.75000 0.38410
vt 0.80000 0.38410
vt 0.85000 0.38410
vt 0.90000 0.38410
vt 0.95000 0.38410
vt 1.00000 0.38410
vt 0.00000 0.41364
vt 0.05000 0.41364
vt 0.10000 0.41364
vt 0.15000 0.41364
vt 0.20000 0.41364
vt 0.25000 0.41364
vt 0.30000 0.41364
vt 0.35000 0.41364
vt 0.40000 0.41364
vt 0.45000 0.41364
vt 0.50000 0.41364
vt 0.55000 0.41364
vt 0.60000 0.41364
vt 0.65000 0.41364
vt 0.70000 0.41364
vt 0.75000 0.41364
vt 0.80000 0.41364
vt 0.85000 0.41364
vt 0.90000 0.41364
vt 0.95000 0.41364
vt 1.00000 0.41364
vt 0.00000 0.44322
vt 0.05000 0.44322
vt 0.10000 0.44322
vt 0.15000 0.44322
vt 0.20000 0.44322
vt 0.25000 0.44322
vt 0.30000 0.44322
vt 0.35000 0.44322
vt 0.40000 0.44322
vt 0.45000 0.44322
vt 0.50000 0.44322
vt 0.55000 0.44322
vt 0.60000 0.44322
vt 0.65000 0.44322
vt 0.70000 0.44322
vt 0.75000 0.44322
vt 0.80000 0.44322
vt 0.85000 0.44322
vt 0.90000 0.44322
vt 0.95000 0.44322
vt 1.00000 0.44322
vt 0.00000 0.47282
vt 0.05000 0.47282
vt 0.10000 0.47282
vt 0.15000 0.47282
vt 0.20000 0.47282
vt 0.25000 0.47282
vt 0.30000 0.47282
vt 0.35000 0.47282
vt 0.40000 0.47282
vt 0.45000 0.47282
vt 0.50000 0.47282
vt 0.55000 0.47282
vt 0.60000 0.47282
vt 0.65000 0.47282
vt 0.70000 0.47282
vt 0.75000 0.47282
vt 0.80000 0.47282
vt 0.85000 0.47282
vt 0.90000 0.47282
vt 0.95000 0.47282
vt 1.00000 0.47282
vt 0.00000 0.50245
vt 0.05000 0.50245
vt 0.10000 0.50245
vt 0.15000 0.50245
vt 0.20000 0.50245
vt 0.25000 0.50245
vt 0.30000 0.50245
vt 0.35000 0.50245
vt 0.40000 0.50245
vt 0.45000 0.50245
vt 0.50000 0.50245
vt 0.55000 0.50245
vt 0.60000 0.50245
vt 0.65000 0.50245
vt 0.70000 0.50245
vt 0.75000 0.50245
vt 0.80000 0.50245
vt 0.85000 0.50245
vt 0.90000 0.50245
vt 0.95000 0.50245
vt 1.00000 0.50245
vt 0.00000 0.53210
vt 0.05000 0.53210
vt 0.10000 0.53210
vt 0.15000 0.53210
vt 0.20000 0.53210
vt 0.25000 0.53210
vt 0.30000 0.53210
vt 0.35000 0.53210
vt 0.40000 0.53210
vt 0.45000 0.53210
vt 0.50000 0.53210
vt 0.55000 0.53210
vt 0.60000 0.53210
vt 0.65000 0.53210
vt 0.70000 0.53210
vt 0.75000 0.53210
vt 0.80000 0.53210
vt 0.85000 0.53210
vt 0.90000 0.53210
vt 0.95000 0.53210
vt 1.00000 0.53210
vt 0.00000 0.56175
vt 0.05000 0.56175
vt 0.10000 0.56175
vt 0.15000 0.56175
vt 0.20000 0.56175
vt 0.25000 0.56175
vt 0.30000 0.56175
vt 0.35000 0.56175
vt 0.40000 0.56175
vt 0.45000 0.56175
vt 0.50000 0.56175
vt 0.55000 0.56175
vt 0.60000 0.56175
vt 0.65000 0.56175
vt 0.70000 0.56175
vt 0.75000 0.56175
vt 0.80000 0.56175
vt 0.85000 0.56175
vt 0.90000 0.56175
vt 0.95000 0.56175
vt 1.00000 0.56175
vt 0.00000 0.57465
vt 0.05000 0.57465
vt 0.10000 0.57465
vt 0.15000 0.57465
vt 0.20000 0.57465
vt 0.25000 0.57465
vt 0.30000 0.57465
vt 0.35000 0.57465
vt 0.40000 0.57465
vt 0.45000 0.57465
vt 0.50000 0.57465
vt 0.55000 0.57465
vt 0.60000 0.57465
vt 0.65000 0.57465
vt 0.70000 0.57465
vt 0.75000 0.57465
vt 0.80000 0.57465
vt 0.85000 0.57465
vt 0.90000 0.57465
vt 0.95000 0.57465
vt 1.00000 0.57465
vt 0.00000 0.58558
vt 0.05000 0.58558
vt 0.10000 0.58558
vt 0.15000 0.58558
vt 0.20000 0.58558
vt 0.25000 0.58558
vt 0.30000 0.58558
vt 0.35000 0.58558
vt 0.40000 0.58558
vt 0.45000 0.58558
vt 0.50000 0.58558
vt 0.55000 0.58558
vt 0.60000 0.58558
vt 0.65000 0.58558
vt 0.70000 0.58558
vt 0.75000 0.58558
vt 0.80000 0.58558
vt 0.85000 0.58558
vt 0.90000 0.58558
vt 0.95000 0.58558
vt 1.00000 0.58558
vt 0.00000 0.59289
vt 0.05000 0.59289
vt 0.10000 0.59289
vt 0.15000 0.59289
vt 0.20000 0.59289
vt 0.25000 0.59289
vt 0.30000 0.59289
vt 0.35000 0.59289
vt 0.40000 0.59289
vt 0.45000 0.59289
vt 0.50000 0.59289
vt 0.55000 0.59289
vt 0.60000 0.59289
vt 0.65000 0.59289
vt 0.70000 0.59289
vt 0.75000 0.59289
vt 0.80000 0.59289
vt 0.85000 0.59289
vt 0.90000 0.59289
vt 0.95000 0.59289
vt 1.00000 0.59289
vt 0.00000 0.59545
vt 0.05000 0.59545
vt 0.10000 0.59545
vt 0.15000 0.59545
vt 0.20000 0.59545
vt 0.25000 0.59545
vt 0.30000 0.59545
vt 0.35000 0.59545
vt 0.40000 0.59545
vt 0.45000 0.59545
vt 0.50000 0.59545
vt 0.55000 0.59545
vt 0.60000 0.59545
vt 0.65000 0.59545
vt 0.70000 0.59545
vt 0.75000 0.59545
vt 0.80000 0.59545
vt 0.85000 0.59545
vt 0.90000 0.59545
vt 0.95000 0.59545
vt 1.00000 0.59545
vn 0.02649 0.27563 -0.96090
vn 0.02579 0.27523 -0.96103
vn 0.07244 0.25855 -0.96328
vn 0.11191 0.22731 -0.96737
vn 0.14037 0.18463 -0.97273
vn 0.15514 0.13467 -0.97867
vn 0.15480 0.08224 -0.98452
vn 0.13939 0.03238 -0.98971
vn 0.11032 -0.01005 -0.99384
vn 0.07038 -0.04083 -0.99668
vn 0.02345 -0.05683 -0.99811
vn -0.02579 -0.05642 -0.99807
vn -0.07244 -0.03966 -0.99658
vn -0.11191 -0.00829 -0.99368
vn -0.14037 0.03453 -0.98950
vn -0.15514 0.08457 -0.98427
vn -0.15480 0.13700 -0.97840
vn -0.13939 0.18677 -0.97246
vn -0.11032 0.22907 -0.96714
vn -0.07038 0.25971 -0.96312
vn -0.02461 0.27563 -0.96095
vn 0.04811 0.43012 -0.90149
vn 0.08739 0.46892 -0.87891
vn 0.18909 0.42295 -0.88620
vn 0.27288 0.34569 -0.89779
vn 0.33027 0.24412 -0.91177
vn 0.35510 0.12805 -0.92602
vn 0.34457 0.00925 -0.93872
vn 0.29986 -0.10006 -0.94872
vn 0.22586 -0.18889 -0.95567
vn 0.13027 -0.24878 -0.95976
vn 0.02248 -0.27436 -0.96136
vn -0.08739 -0.26346 -0.96070
vn -0.18909 -0.21701 -0.95768
vn -0.27288 -0.13910 -0.95194
vn -0.33027 -0.03695 -0.94316
vn -0.35510 0.07941 -0.93145
vn -0.34457 0.19808 -0.91763
vn -0.29986 0.30690 -0.90327
vn -0.22586 0.39508 -0.89045
vn -0.13027 0.45440 -0.88122
vn -0.05956 0.50426 -0.86150
vn 0.08879 0.68872 -0.71957
vn 0.17179 0.71386 -0.67889
vn 0.34763 0.63074 -0.69377
vn 0.49290 0.49361 -0.71651
vn 0.59145 0.31296 -0.74313
vn 0.63029 0.10635 -0.76905
vn 0.60374 -0.10313 -0.79048
vn 0.51573 -0.29160 -0.80560
vn 0.37814 -0.43967 -0.81468
vn 0.20684 -0.53493 -0.81918
vn 0.01827 -0.57118 -0.82062
vn -0.17179 -0.54649 -0.81966
vn -0.34763 -0.46213 -0.81584
vn -0.49290 -0.32337 -0.80776
vn -0.59145 -0.14130 -0.79386
vn -0.63029 0.06594 -0.77356
vn -0.60374 0.27499 -0.74825
vn -0.51573 0.46215 -0.72142
vn -0.37814 0.60858 -0.69760
vn -0.20684 0.70249 -0.68098
vn -0.10190 0.76866 -0.63149
vn 0.12616 0.90877 -0.39776
vn 0.24920 0.90735 -0.33854
vn 0.49160 0.79405 -0.35753
vn 0.69509 0.60594 -0.38691
vn 0.83444 0.35409 -0.42230
vn 0.88679 0.06331 -0.45781
vn 0.84212 -0.22969 -0.48793
vn 0.70903 -0.48733 -0.50969
vn 0.50975 -0.68300 -0.52313
vn 0.26963 -0.80396 -0.53005
vn 0.01056 -0.84654 -0.53223
vn -0.24920 -0.81030 -0.53039
vn -0.49160 -0.69560 -0.52390
vn -0.69509 -0.50564 -0.51106
vn -0.83444 -0.25220 -0.49001
vn -0.88679 0.03926 -0.46050
vn -0.84212 0.33168 -0.42524
vn -0.70903 0.58778 -0.38961
vn -0.50975 0.78159 -0.35955
vn -0.26963 0.90109 -0.33962
vn -0.13499 0.95455 -0.26571
vn 0.14322 0.98789 -0.05974
vn 0.27378 0.96106 -0.03762
vn 0.54734 0.83630 -0.03196
vn 0.77862 0.62693 -0.02661
vn 0.93776 0.34592 -0.03088
vn 0.99835 0.02301 -0.05264
vn 0.94945 -0.29971 -0.09335
vn 0.80073 -0.58093 -0.14615
vn 0.57709 -0.79214 -0.19870
vn 0.30776 -0.92111 -0.23841
vn 0.01768 -0.96644 -0.25629
vn -0.27368 -0.92923 -0.24825
vn -0.54726 -0.80879 -0.21533
vn -0.77857 -0.60573 -0.16406
vn -0.93774 -0.33066 -0.10635
vn -0.99835 -0.01085 -0.05640
vn -0.94944 0.31295 -0.02497
vn -0.80069 0.59890 -0.01451
vn -0.57703 0.81650 -0.01931
vn -0.30767 0.95103 -0.02974
vn -0.14911 0.98865 -0.01809
vn 0.15317 0.98814 0.01103
vn 0.30902 0.95084 0.02053
vn 0.59073 0.80575 0.04242
vn 0.81241 0.57955 0.06417
vn 0.95184 0.29839 0.07050
vn 0.99869 -0.00723 0.05073
vn 0.95112 -0.30881 0.00311
vn 0.81231 -0.57971 -0.06400
vn 0.59286 -0.79413 -0.13369
vn 0.31373 -0.93112 -0.18600
vn 0.00306 -0.97867 -0.20541
vn -0.30875 -0.93276 -0.18607
vn -0.59050 -0.79591 -0.13354
vn -0.81225 -0.57985 -0.06345
vn -0.95177 -0.30678 0.00382
vn -0.99868 -0.00413 0.05120
vn -0.95111 0.30068 0.07051
vn -0.81226 0.57979 0.06388
vn -0.59273 0.80430 0.04213
vn -0.31349 0.94937 0.02039
vn -0.16192 0.98673 0.01175
vn 0.16635 0.98598 0.01289
vn 0.33322 0.94259 0.02218
vn 0.62268 0.78128 0.04330
vn 0.83434 0.54761 0.06330
vn 0.95859 0.27640 0.06865
vn 0.99868 -0.00702 0.05093
vn 0.95789 -0.28702 0.00843
vn 0.83400 -0.54919 -0.05322
vn 0.62432 -0.77182 -0.12048
vn 0.33753 -0.92515 -0.17369
vn 0.00295 -0.98098 -0.19407
vn -0.33289 -0.92684 -0.17362
vn -0.62236 -0.77346 -0.12009
vn -0.83410 -0.54912 -0.05243
vn -0.95848 -0.28499 0.00931
vn -0.99867 -0.00408 0.05149
vn -0.95791 0.27871 0.06873
vn -0.83403 0.54811 0.06303
vn -0.62425 0.78004 0.04298
vn -0.33731 0.94114 0.02200
vn -0.17521 0.98444 0.01315
vn 0.17967 0.98364 0.01345
vn 0.35714 0.93378 0.02251
vn 0.65217 0.75686 0.04288
vn 0.85311 0.51810 0.06146
vn 0.96406 0.25726 0.06644
vn 0.99867 -0.00667 0.05114
vn 0.96338 -0.26779 0.01397
vn 0.85258 -0.52094 -0.04150
vn 0.65332 -0.74979 -0.10482
vn 0.36096 -0.91917 -0.15758
vn 0.00278 -0.98393 -0.17852
vn -0.35676 -0.92085 -0.15738
vn -0.65177 -0.75123 -0.10419
vn -0.85281 -0.52065 -0.04051
vn -0.96393 -0.26575 0.01495
vn -0.99865 -0.00386 0.05177
vn -0.96343 0.25957 0.06657
vn -0.85267 0.51885 0.06121
vn -0.65333 0.75588 0.04255
vn -0.36078 0.93238 0.02231
vn -0.18856 0.98197 0.01328
vn 0.19299 0.98112 0.01280
vn 0.38053 0.92452 0.02164
vn 0.67908 0.73290 0.04135
vn 0.86909 0.49115 0.05886
vn 0.96850 0.24066 0.06398
vn 0.99866 -0.00618 0.05137
vn 0.96784 -0.25079 0.01957
vn 0.86841 -0.49499 -0.02922
vn 0.67974 -0.72824 -0.08728
vn 0.38376 -0.91304 -0.13817
vn 0.00256 -0.98726 -0.15911
vn -0.38008 -0.91463 -0.13782
vn -0.67860 -0.72940 -0.08645
vn -0.86874 -0.49446 -0.02809
vn -0.96835 -0.24874 0.02063
vn -0.99864 -0.00348 0.05204
vn -0.96791 0.24298 0.06415
vn -0.86855 0.49213 0.05864
vn -0.67985 0.73221 0.04099
vn -0.38365 0.92323 0.02141
vn -0.20182 0.97935 0.01223
vn 0.20619 0.97845 0.01105
vn 0.40314 0.91493 0.01970
vn 0.70338 0.70975 0.03890
vn 0.88264 0.46674 0.05572
vn 0.97212 0.22631 0.06137
vn 0.99865 -0.00556 0.05160
vn 0.97149 -0.23572 0.02515
vn 0.88184 -0.47125 -0.01671
vn 0.70359 -0.70730 -0.06842
vn 0.40572 -0.90661 -0.11598
vn 0.00227 -0.99067 -0.13629
vn -0.40263 -0.90805 -0.11550
vn -0.70284 -0.70815 -0.06743
vn -0.88227 -0.47049 -0.01547
vn -0.97196 -0.23366 0.02625
vn -0.99863 -0.00295 0.05229
vn -0.97157 0.22862 0.06156
vn -0.88202 0.46793 0.05551
vn -0.70379 0.70937 0.03853
vn -0.40571 0.91380 0.01944
vn -0.21487 0.97659 0.01014
vn 0.21915 0.97566 0.00836
vn 0.42476 0.90515 0.01688
vn 0.72513 0.68768 0.03575
vn 0.89410 0.44481 0.05221
vn 0.97509 0.21393 0.05869
vn 0.99864 -0.00482 0.05183
vn 0.97449 -0.22234 0.03061
vn 0.89322 -0.44959 -0.00423
vn 0.72493 -0.68709 -0.04878
vn 0.42665 -0.89976 -0.09161
vn 0.00193 -0.99387 -0.11056
vn -0.42420 -0.90099 -0.09100
vn -0.72455 -0.68757 -0.04766
vn -0.89373 -0.44860 -0.00293
vn -0.97493 -0.22024 0.03171
vn -0.99862 -0.00228 0.05252
vn -0.97456 0.21623 0.05889
vn -0.89343 0.44617 0.05201
vn -0.72521 0.68761 0.03537
vn -0.42675 0.90422 0.01660
vn -0.22760 0.97373 0.00716
vn 0.23174 0.97277 0.00491
vn 0.44523 0.89531 0.01336
vn 0.74446 0.66689 0.03209
vn 0.90380 0.42521 0.04848
vn 0.97752 0.20326 0.05600
vn 0.99864 -0.00398 0.05205
vn 0.97696 -0.21040 0.03587
vn 0.90286 -0.42986 0.00799
vn 0.74389 -0.66768 -0.02885
vn 0.44640 -0.89242 -0.06566
vn 0.00153 -0.99659 -0.08249
vn -0.44463 -0.89336 -0.06495
vn -0.74385 -0.66777 -0.02763
vn -0.90343 -0.42864 0.00931
vn -0.97737 -0.20827 0.03696
vn -0.99861 -0.00149 0.05271
vn -0.97703 0.20557 0.05619
vn -0.90309 0.42674 0.04828
vn -0.74425 0.66714 0.03171
vn -0.44664 0.89462 0.01307
vn -0.23989 0.97079 0.00349
vn 0.24387 0.96981 0.00080
vn 0.46446 0.88555 0.00926
vn 0.76155 0.64749 0.02809
vn 0.91200 0.40776 0.04466
vn 0.97953 0.19410 0.05336
vn 0.99863 -0.00303 0.05221
vn 0.97901 -0.19969 0.04082
vn 0.91102 -0.41190 0.01969
vn 0.76061 -0.64914 -0.00911
vn 0.46479 -0.88457 -0.03880
vn 0.00105 -0.99861 -0.05271
vn -0.46377 -0.88514 -0.03799
vn -0.76088 -0.64884 -0.00783
vn -0.91163 -0.41048 0.02100
vn -0.97940 -0.19754 0.04185
vn -0.99860 -0.00058 0.05283
vn -0.97906 0.19642 0.05352
vn -0.91124 0.40946 0.04447
vn -0.76108 0.64806 0.02773
vn -0.46529 0.88511 0.00898
vn -0.25170 0.96781 -0.00082
vn 0.25552 0.96679 -0.00415
vn 0.48250 0.87589 0.00439
vn 0.77672 0.62940 0.02376
vn 0.91896 0.39223 0.04084
vn 0.98119 0.18627 0.05077
vn 0.99863 -0.00189 0.05220
vn 0.98075 -0.18998 0.04516
vn 0.91793 -0.39557 0.03042
vn 0.77517 -0.63168 0.00977
vn 0.48154 -0.87635 -0.01179
vn 0.00041 -0.99976 -0.02192
vn -0.48136 -0.87646 -0.01082
vn -0.77569 -0.63102 0.01115
vn -0.91854 -0.39405 0.03170
vn -0.98111 -0.18788 0.04608
vn -0.99861 0.00052 0.05269
vn -0.98072 0.18867 0.05086
vn -0.91814 0.39416 0.04067
vn -0.77599 0.63030 0.02350
vn -0.48287 0.87568 0.00422
vn -0.26318 0.96473 -0.00612
vn 0.26699 0.96364 -0.01098
vn 0.49992 0.86607 -0.00220
vn 0.79059 0.61206 0.01879
vn 0.92499 0.37818 0.03702
vn 0.98253 0.17979 0.04817
vn 0.99867 -0.00021 0.05164
vn 0.98233 -0.18086 0.04817
vn 0.92382 -0.38082 0.03918
vn 0.78740 -0.61586 0.02673
vn 0.49574 -0.86835 0.01439
vn -0.00064 -0.99996 0.00909
vn -0.49671 -0.86778 0.01568
vn -0.78803 -0.61498 0.02836
vn -0.92429 -0.37954 0.04046
vn -0.98263 -0.17902 0.04887
vn -0.99865 0.00215 0.05182
vn -0.98204 0.18245 0.04807
vn -0.92400 0.38060 0.03692
vn -0.78956 0.61338 0.01886
vn -0.50024 0.86589 -0.00200
vn -0.27515 0.96130 -0.01382
vn 0.27950 0.95989 -0.02209
vn 0.51851 0.85498 -0.01237
vn 0.80447 0.59387 0.01256
vn 0.93046 0.36490 0.03316
vn 0.98352 0.17499 0.04538
vn 0.99876 0.00295 0.04978
vn 0.98398 -0.17155 0.04852
vn 0.92881 -0.36789 0.04435
vn 0.79651 -0.60328 0.04020
vn 0.50510 -0.86220 0.03857
vn -0.00267 -0.99922 0.03943
vn -0.50790 -0.86046 0.04046
vn -0.79695 -0.60255 0.04239
vn -0.92887 -0.36757 0.04572
vn -0.98414 -0.17053 0.04885
vn -0.99876 0.00520 0.04941
vn -0.98295 0.17832 0.04491
vn -0.92908 0.36838 0.03318
vn -0.80303 0.59579 0.01330
vn -0.51973 0.85426 -0.01140
vn -0.28989 0.95669 -0.02665
vn 0.29596 0.95438 -0.03972
vn 0.54180 0.84007 -0.02717
vn 0.82032 0.57189 0.00501
vn 0.93578 0.35137 0.02933
vn 0.98406 0.17278 0.04212
vn 0.99890 0.00928 0.04587
vn 0.98593 -0.16096 0.04512
vn 0.93287 -0.35741 0.04481
vn 0.80077 -0.59694 0.04934
vn 0.50537 -0.86081 0.06009
vn -0.00621 -0.99765 0.06825
vn -0.51106 -0.85726 0.06258
vn -0.80060 -0.59693 0.05217
vn -0.93214 -0.35911 0.04635
vn -0.98584 -0.16149 0.04512
vn -0.99893 0.01130 0.04491
vn -0.98329 0.17733 0.04121
vn -0.93373 0.35676 0.02942
vn -0.81835 0.57468 0.00646
vn -0.54531 0.83785 -0.02523
vn -0.31118 0.94923 -0.04611
vn 0.32033 0.94531 -0.06141
vn 0.57344 0.81812 -0.04303
vn 0.83945 0.54343 -0.00204
vn 0.94116 0.33698 0.02590
vn 0.98395 0.17426 0.03839
vn 0.99897 0.02033 0.04045
vn 0.98815 -0.14828 0.03956
vn 0.93568 -0.35024 0.04290
vn 0.79805 -0.59994 0.05640
vn 0.49190 -0.86698 0.07990
vn -0.01072 -0.99545 0.09463
vn -0.50124 -0.86142 0.08199
vn -0.79696 -0.60113 0.05905
vn -0.93401 -0.35446 0.04442
vn -0.98779 -0.15063 0.03965
vn -0.99897 0.02206 0.03955
vn -0.98290 0.18029 0.03740
vn -0.93839 0.34462 0.02581
vn -0.83707 0.54710 -0.00073
vn -0.57984 0.81370 -0.04091
vn -0.34170 0.93740 -0.06729
vn 0.35381 0.93204 -0.07819
vn 0.61254 0.78867 -0.05293
vn 0.86037 0.50964 -0.00632
vn 0.94635 0.32233 0.02284
vn 0.98318 0.17932 0.03472
vn 0.99871 0.03534 0.03657
vn 0.99024 -0.13422 0.03755
vn 0.93709 -0.34615 0.04532
vn 0.78846 -0.61151 0.06625
vn 0.46550 -0.87960 0.09799
vn -0.01346 -0.99329 0.11485
vn -0.47721 -0.87335 0.09766
vn -0.78677 -0.61364 0.06662
vn -0.93504 -0.35155 0.04600
vn -0.98980 -0.13725 0.03828
vn -0.99863 0.03695 0.03700
vn -0.98193 0.18608 0.03461
vn -0.94336 0.33101 0.02244
vn -0.85803 0.51355 -0.00641
vn -0.62005 0.78283 -0.05212
vn -0.37833 0.92213 -0.08089
vn 0.39070 0.91724 -0.07760
vn 0.65118 0.75745 -0.04735
vn 0.87866 0.47742 -0.00451
vn 0.95072 0.30933 0.02107
vn 0.98219 0.18499 0.03280
vn 0.99804 0.04949 0.03841
vn 0.99157 -0.12139 0.04540
vn 0.93768 -0.34243 0.05910
vn 0.77763 -0.62303 0.08444
vn 0.43875 -0.89108 0.11609
vn -0.01107 -0.99155 0.12926
vn -0.44894 -0.88644 0.11261
vn -0.77685 -0.62436 0.08171
vn -0.93656 -0.34553 0.05882
vn -0.99135 -0.12251 0.04716
vn -0.99784 0.05149 0.04077
vn -0.98109 0.19054 0.03394
vn -0.94850 0.31615 0.02001
vn -0.87686 0.48069 -0.00716
vn -0.65576 0.75334 -0.04960
vn -0.41116 0.90870 -0.07223
vn 0.41917 0.90636 -0.05299
vn 0.67792 0.73465 -0.02689
vn 0.88981 0.45633 0.00244
vn 0.95364 0.30024 0.02078
vn 0.98189 0.18645 0.03365
vn 0.99732 0.05619 0.04683
vn 0.99159 -0.11310 0.06285
vn 0.93832 -0.33558 0.08331
vn 0.77523 -0.62198 0.11021
vn 0.43206 -0.89164 0.13529
vn -0.00321 -0.98986 0.14202
vn -0.43659 -0.89017 0.13031
vn -0.77738 -0.62010 0.10561
vn -0.93933 -0.33303 0.08216
vn -0.99181 -0.11014 0.06474
vn -0.99701 0.05901 0.04992
vn -0.98134 0.18898 0.03552
vn -0.95289 0.30267 0.01964
vn -0.88863 0.45862 -0.00147
vn -0.67613 0.73612 -0.03123
vn -0.42867 0.90243 -0.04313
vn 0.42956 0.90278 -0.02167
vn 0.68640 0.72720 -0.00685
vn 0.89259 0.45079 0.00823
vn 0.95523 0.29514 0.02072
vn 0.98294 0.18030 0.03625
vn 0.99701 0.05201 0.05707
vn 0.99056 -0.11091 0.08061
vn 0.94022 -0.32386 0.10534
vn 0.78828 -0.60122 0.13092
vn 0.45822 -0.87622 0.14927
vn 0.00598 -0.98829 0.15248
vn -0.45619 -0.87781 0.14605
vn -0.79336 -0.59532 0.12719
vn -0.94327 -0.31539 0.10374
vn -0.99125 -0.10398 0.08126
vn -0.99672 0.05551 0.05888
vn -0.98300 0.17970 0.03768
vn -0.95585 0.29315 0.02027
vn -0.89184 0.45231 0.00555
vn -0.67771 0.73526 -0.01031
vn -0.42673 0.90425 -0.01501
vn 0.42210 0.90653 -0.00602
vn 0.67929 0.73387 -0.00056
vn 0.88956 0.45674 0.00847
vn 0.95637 0.29146 0.02012
vn 0.98513 0.16745 0.03855
vn 0.99723 0.03948 0.06302
vn 0.98958 -0.11331 0.08882
vn 0.94449 -0.30843 0.11319
vn 0.81388 -0.56497 0.13567
vn 0.50912 -0.84705 0.15268
vn 0.01096 -0.98725 0.15880
vn -0.50389 -0.85014 0.15284
vn -0.81968 -0.55682 0.13446
vn -0.94827 -0.29713 0.11176
vn -0.99062 -0.10466 0.08788
vn -0.99710 0.04309 0.06270
vn -0.98545 0.16545 0.03882
vn -0.95755 0.28755 0.02051
vn -0.88895 0.45793 0.00823
vn -0.66633 0.74565 -0.00143
vn -0.41189 0.91121 -0.00642
vn 0.40545 0.91352 0.03305
vn 0.68824 0.72331 0.05614
vn 0.89061 0.45190 0.05095
vn 0.95814 0.28066 0.05656
vn 0.98616 0.14988 0.07093
vn 0.99559 0.02219 0.09111
vn 0.98582 -0.12283 0.11436
vn 0.94208 -0.30418 0.14129
vn 0.82025 -0.54419 0.17620
vn 0.51840 -0.82643 0.21972
vn -0.03552 -0.96865 0.24589
vn -0.57323 -0.78879 0.22185
vn -0.84799 -0.49938 0.17757
vn -0.95333 -0.26755 0.13991
vn -0.98940 -0.09526 0.10960
vn -0.99553 0.04243 0.08438
vn -0.98407 0.16546 0.06507
vn -0.95298 0.29823 0.05374
vn -0.87371 0.48372 0.05136
vn -0.62350 0.77960 0.05894
vn -0.39306 0.91402 0.10032
vn 0.34993 0.84817 0.39768
vn 0.58526 0.69031 0.42538
vn 0.82051 0.45977 0.33967
vn 0.90875 0.29512 0.29508
vn 0.94583 0.16660 0.27865
vn 0.95785 0.04464 0.28378
vn 0.94559 -0.08839 0.31314
vn 0.89383 -0.24645 0.37461
vn 0.76068 -0.44085 0.47647
vn 0.46570 -0.64803 0.60264
vn -0.02099 -0.74631 0.66527
vn -0.49767 -0.63427 0.59162
vn -0.77692 -0.42443 0.46503
vn -0.90045 -0.23235 0.36770
vn -0.94745 -0.07666 0.31058
vn -0.95726 0.05483 0.28398
vn -0.94368 0.17631 0.27998
vn -0.90446 0.30633 0.29685
vn -0.80983 0.47585 0.34313
vn -0.55425 0.71141 0.43208
vn -0.31254 0.77865 0.54409
vn 0.22970 0.61212 0.75667
vn 0.41714 0.51693 0.74752
vn 0.63971 0.39187 0.66121
vn 0.74937 0.27662 0.60161
vn 0.80103 0.17311 0.57305
vn 0.81586 0.06925 0.57409
vn 0.79194 -0.04236 0.60912
vn 0.71287 -0.16327 0.68202
vn 0.55156 -0.28537 0.78381
vn 0.29258 -0.38109 0.87702
vn -0.03116 -0.41370 0.90988
vn -0.34897 -0.36804 0.86184
vn -0.59120 -0.26367 0.76221
vn -0.73390 -0.13948 0.66479
vn -0.79941 -0.01993 0.60046
vn -0.81465 0.08960 0.57299
vn -0.79381 0.19219 0.57700
vn -0.73492 0.29702 0.60965
vn -0.60956 0.41611 0.67475
vn -0.35671 0.53917 0.76293
vn -0.19282 0.53477 0.82271
vn 0.12180 0.38209 0.91606
vn 0.24978 0.33611 0.90810
vn 0.39912 0.28369 0.87191
vn 0.49222 0.22343 0.84131
vn 0.54283 0.15891 0.82467
vn 0.55519 0.08810 0.82704
vn 0.52252 0.01296 0.85253
vn 0.43736 -0.05902 0.89735
vn 0.30280 -0.11690 0.94586
vn 0.13838 -0.15128 0.97876
vn -0.03476 -0.15935 0.98661
vn -0.20695 -0.14080 0.96817
vn -0.36252 -0.09557 0.92706
vn -0.47742 -0.03018 0.87816
vn -0.53998 0.04399 0.84053
vn -0.55390 0.11740 0.82427
vn -0.52764 0.18528 0.82901
vn -0.46306 0.24846 0.85079
vn -0.34842 0.30777 0.88537
vn -0.17208 0.35292 0.91969
vn -0.09536 0.32583 0.94061
vn 0.04698 0.22000 0.97437
vn 0.12780 0.20877 0.96958
vn 0.19443 0.18918 0.96250
vn 0.24117 0.16390 0.95654
vn 0.26819 0.13264 0.95419
vn 0.27003 0.09541 0.95811
vn 0.24000 0.05712 0.96909
vn 0.18154 0.02545 0.98306
vn 0.10902 0.00532 0.99403
vn 0.03647 -0.00352 0.99933
vn -0.03337 -0.00359 0.99944
vn -0.10508 0.00490 0.99445
vn -0.17658 0.02408 0.98399
vn -0.23556 0.05437 0.97034
vn -0.26833 0.09184 0.95894
vn -0.26976 0.12940 0.95419
vn -0.24492 0.16159 0.95598
vn -0.19920 0.18780 0.96180
vn -0.13242 0.20819 0.96908
vn -0.04764 0.21992 0.97435
vn -0.02012 0.22002 0.97529
f 1/1/1 22/22/22 2/2/2
f 2/2/2 22/22/22 23/23/23
f 2/2/2 23/23/23 3/3/3
f 3/3/3 23/23/23 24/24/24
f 3/3/3 24/24/24 4/4/4
f 4/4/4 24/24/24 25/25/25
f 4/4/4 25/25/25 5/5/5
f 5/5/5 25/25/25 26/26/26
f 5/5/5 26/26/26 6/6/6
f 6/6/6 26/26/26 27/27/27
f 6/6/6 27/27/27 7/7/7
f 7/7/7 27/27/27 28/28/28
f 7/7/7 28/28/28 8/8/8
f 8/8/8 28/28/28 29/29/29
f 8/8/8 29/29/29 9/9/9
f 9/9/9 29/29/29 30/30/30
f 9/9/9 30/30/30 10/10/10
f 10/10/10 30/30/30 31/31/31
f 10/10/10 31/31/31 11/11/11
f 11/11/11 31/31/31 32/32/32
f 11/11/11 32/32/32 12/12/12
f 12/12/12 32/32/32 33/33/33
f 12/12/12 33/33/33 13/13/13
f 13/13/13 33/33/33 34/34/34
f 13/13/13 34/34/34 14/14/14
f 14/14/14 34/34/34 35/35/35
f 14/14/14 35/35/35 15/15/15
f 15/15/15 35/35/35 36/36/36
f 15/15/15 36/36/36 16/16/16
f 16/16/16 36/36/36 37/37/37
f 16/16/16 37/37/37 17/17/17
f 17/17/17 37/37/37 38/38/38
f 17/17/17 38/38/38 18/18/18
f 18/18/18 38/38/38 39/39/39
f 18/18/18 39/39/39 19/19/19
f 19/19/19 39/39/39 40/40/40
f 19/19/19 40/40/40 20/20/20
f 20/20/20 40/40/40 41/41/41
f 20/20/20 41/41/41 21/21/21
f 21/21/21 41/41/41 42/42/42
f 22/22/22 43/43/43 23/23/23
f 23/23/23 43/43/43 44/44/44
f 23/23/23 44/44/44 24/24/24
f 24/24/24 44/44/44 45/45/45
f 24/24/24 45/45/45 25/25/25
f 25/25/25 45/45/45 46/46/46
f 25/25/25 46/46/46 26/26/26
f 26/26/26 46/46/46 47/47/47
f 26/26/26 47/47/47 27/27/27
f 27/27/27 47/47/47 48/48/48
f 27/27/27 48/48/48 28/28/28
f 28/28/28 48/48/48 49/49/49
f 28/28/28 49/49/49 29/29/29
f 29/29/29 49/49/49 50/50/50
f 29/29/29 50/50/50 30/30/30
f 30/30/30 50/50/50 51/51/51
f 30/30/30 51/51/51 31/31/31
f 31/31/31 51/51/51 52/52/52
f 31/31/31 52/52/52 32/32/32
f 32/32/32 52/52/52 53/53/53
f 32/32/32 53/53/53 33/33/33
f 33/33/33 53/53/53 54/54/54
f 33/33/33 54/54/54 34/34/34
f 34/34/34 54/54/54 55/55/55
f 34/34/34 55/55/55 35/35/35
f 35/35/35 55/55/55 56/56/56
f 35/35/35 56/56/56 36/36/36
f 36/36/36 56/56/56 57/57/57
f 36/36/36 57/57/57 37/37/37
f 37/37/37 57/57/57 58/58/58
f 37/37/37 58/58/58 38/38/38
f 38/38/38 58/58/58 59/59/59
f 38/38/38 59/59/59 39/39/39
f 39/39/39 59/59/59 60/60/60
f 39/39/39 60/60/60 40/40/40
f 40/40/40 60/60/60 61/61/61
f 40/40/40 61/61/61 41/41/41
f 41/41/41 61/61/61 62/62/62
f 41/41/41 62/62/62 42/42/42
f 42/42/42 62/62/62 63/63/63
f 43/43/43 64/64/64 44/44/44
f 44/44/44 64/64/64 65/65/65
f 44/44/44 65/65/65 45/45/45
f 45/45/45 65/65/65 66/66/66
f 45/45/45 66/66/66 46/46/46
f 46/46/46 66/66/66 67/67/67
f 46/46/46 67/67/67 47/47/47
f 47/47/47 67/67/67 68/68/68
f 47/47/47 68/68/68 48/48/48
f 48/48/48 68/68/68 69/69/69
f 48/48/48 69/69/69 49/49/49
f 49/49/49 69/69/69 70/70/70
f 49/49/49 70/70/70 50/50/50
f 50/50/50 70/70/70 71/71/71
f 50/50/50 71/71/71 51/51/51
f 51/51/51 71/71/71 72/72/72
f 51/51/51 72/72/72 52/52/52
f 52/52/52 72/72/72 73/73/73
f 52/52/52 73/73/73 53/53/53
f 53/53/53 73/73/73 74/74/74
f 53/53/53 74/74/74 54/54/54
f 54/54/54 74/74/74 75/75/75
f 54/54/54 75/75/75 55/55/55
f 55/55/55 75/75/75 76/76/76
f 55/55/55 76/76/76 56/56/56
f 56/56/56 76/76/76 77/77/77
f 56/56/56 77/77/77 57/57/57
f 57/57/57 77/77/77 78/78/78
f 57/57/57 78/78/78 58/58/58
f 58/58/58 78/78/78 79/79/79
f 58/58/58 79/79/79 59/59/59
f 59/59/59 79/79/79 80/80/80
f 59/59/59 80/80/80 60/60/60
f 60/60/60 80/80/80 81/81/81
f 60/60/60 81/81/81 61/61/61
f 61/61/61 81/81/81 82/82/82
f 61/61/61 82/82/82 62/62/62
f 62/62/62 82/82/82 83/83/83
f 62/62/62 83/83/83 63/63/63
f 63/63/63 83/83/83 84/84/84
f 64/64/64 85/85/85 65/65/65
f 65/65/65 85/85/85 86/86/86
f 65/65/65 86/86/86 66/66/66
f 66/66/66 86/86/86 87/87/87
f 66/66/66 87/87/87 67/67/67
f 67/67/67 87/87/87 88/88/88
f 67/67/67 88/88/88 68/68/68
f 68/68/68 88/88/88 89/89/89
f 68/68/68 89/89/89 69/69/69
f 69/69/69 89/89/89 90/90/90
f 69/69/69 90/90/90 70/70/70
f 70/70/70 90/90/90 91/91/91
f 70/70/70 91/91/91 71/71/71
f 71/71/71 91/91/91 92/92/92
f 71/71/71 92/92/92 72/72/72
f 72/72/72 92/92/92 93/93/93
f 72/72/72 93/93/93 73/73/73
f 73/73/73 93/93/93 94/94/94
f 73/73/73 94/94/94 74/74/74
f 74/74/74 94/94/94 95/95/95
f 74/74/74 95/95/95 75/75/75
f 75/75/75 95/95/95 96/96/96
f 75/75/75 96/96/96 76/76/76
f 76/76/76 96/96/96 97/97/97
f 76/76/76 97/97/97 77/77/77
f 77/77/77 97/97/97 98/98/98
f 77/77/77 98/98/98 78/78/78
f 78/78/78 98/98/98 99/99/99
f 78/78/78 99/99/99 79/79/79
f 79/79/79 99/99/99 100/100/100
f 79/79/79 100/100/100 80/80/80
f 80/80/80 100/100/100 101/101/101
f 80/80/80 101/101/101 81/81/81
f 81/81/81 101/101/101 102/102/102
f 81/81/81 102/102/102 82/82/82
f 82/82/82 102/102/102 103/103/103
f 82/82/82 103/103/103 83/83/83
f 83/83/83 103/103/103 104/104/104
f 83/83/83 104/104/104 84/84/84
f 84/84/84 104/104/104 105/105/105
f 85/85/85 106/106/106 86/86/86
f 86/86/86 106/106/106 107/107/107
f 86/86/86 107/107/107 87/87/87
f 87/87/87 107/107/107 108/108/108
f 87/87/87 108/108/108 88/88/88
f 88/88/88 108/108/108 109/109/109
f 88/88/88 109/109/109 89/89/89
f 89/89/89 109/109/109 110/110/110
f 89/89/89 110/110/110 90/90/90
f 90/90/90 110/110/110 111/111/111
f 90/90/90 111/111/111 91/91/91
f 91/91/91 111/111/111 112/112/112
f 91/91/91 112/112/112 92/92/92
f 92/92/92 112/112/112 113/113/113
f 92/92/92 113/113/113 93/93/93
f 93/93/93 113/113/113 114/114/114
f 93/93/93 114/114/114 94/94/94
f 94/94/94 114/114/114 115/115/115
f 94/94/94 115/115/115 95/95/95
f 95/95/95 115/115/115 116/116/116
f 95/95/95 116/116/116 96/96/96
f 96/96/96 116/116/116 117/117/117
f 96/96/96 117/117/117 97/97/97
f 97/97/97 117/117/117 118/118/118
f 97/97/97 118/118/118 98/98/98
f 98/98/98 118/118/118 119/119/119
f 98/98/98 119/119/119 99/99/99
f 99/99/99 119/119/119 120/120/120
f 99/99/99 120/120/120 100/100/100
f 100/100/100 120/120/120 121/121/121
f 100/100/100 121/121/121 101/101/101
f 101/101/101 121/121/121 122/122/122
f 101/101/101 122/122/122 102/102/102
f 102/102/102 122/122/122 123/123/123
f 102/102/102 123/123/123 103/103/103
f 103/103/103 123/123/123 124/124/124
f 103/103/103 124/124/124 104/104/104
f 104/104/104 124/124/124 125/125/125
f 104/104/104 125/125/125 105/105/105
f 105/105/105 125/125/125 126/126/126
f 106/106/106 127/127/127 107/107/107
f 107/107/107 127/127/127 128/128/128
f 107/107/107 128/128/128 108/108/108
f 108/108/108 128/128/128 129/129/129
f 108/108/108 129/129/129 109/109/109
f 109/109/109 129/129/129 130/130/130
f 109/109/109 130/130/130 110/110/110
f 110/110/110 130/130/130 131/131/131
f 110/110/110 131/131/131 111/111/111
f 111/111/111 131/131/131 132/132/132
f 111/111/111 132/132/132 112/112/112
f 112/112/112 132/132/132 133/133/133
f 112/112/112 133/133/133 113/113/113
f 113/113/113 133/133/133 134/134/134
f 113/113/113 134/134/134 114/114/114
f 114/114/114 134/134/134 135/135/135
f 114/114/114 135/135/135 115/115/115
f 115/115/115 135/135/135 136/136/136
f 115/115/115 136/136/136 116/116/116
f 116/116/116 136/136/136 137/137/137
f 116/116/116 137/137/137 117/117/117
f 117/117/117 137/137/137 138/138/138
f 117/117/117 138/138/138 118/118/118
f 118/118/118 138/138/138 139/139/139
f 118/118/118 139/139/139 119/119/119
f 119/119/119 139/139/139 140/140/140
f 119/119/119 140/140/140 120/120/120
f 120/120/120 140/140/140 141/141/141
f 120/120/120 141/141/141 121/121/121
f 121/121/121 141/141/141 142/142/142
f 121/121/121 142/142/142 122/122/122
f 122/122/122 142/142/142 143/143/143
f 122/122/122 143/143/143 123/123/123
f 123/123/123 143/143/143 144/144/144
f 123/123/123 144/144/144 124/124/124
f 124/124/124 144/144/144 145/145/145
f 124/124/124 145/145/145 125/125/125
f 125/125/125 145/145/145 146/146/146
f 125/125/125 146/146/146 126/126/126
f 126/126/126 146/146/146 147/147/147
f 127/127/127 148/148/148 128/128/128
f 128/128/128 148/148/148 149/149/149
f 128/128/128 149/149/149 129/129/129
f 129/129/129 149/149/149 150/150/150
f 129/129/129 150/150/150 130/130/130
f 130/130/130 150/150/150 151/151/151
f 130/130/130 151/151/151 131/131/131
f 131/131/131 151/151/151 152/152/152
f 131/131/131 152/152/152 132/132/132
f 132/132/132 152/152/152 153/153/153
f 132/132/132 153/153/153 133/133/133
f 133/133/133 153/153/153 154/154/154
f 133/133/133 154/154/154 134/134/134
f 134/134/134 154/154/154 155/155/155
f 134/134/134 155/155/155 135/135/135
f 135/135/135 155/155/155 156/156/156
f 135/135/135 156/156/156 136/136/136
f 136/136/136 156/156/156 157/157/157
f 136/136/136 157/157/157 137/137/137
f 137/137/137 157/157/157 158/158/158
f 137/137/137 158/158/158 138/138/138
f 138/138/138 158/158/158 159/159/159
f 138/138/138 159/159/159 139/139/139
f 139/139/139 159/159/159 160/160/160
f 139/139/139 160/160/160 140/140/140
f 140/140/140 160/160/160 161/161/161
f 140/140/140 161/161/161 141/141/141
f 141/141/141 161/161/161 162/162/162
f 141/141/141 162/162/162 142/142/142
f 142/142/142 162/162/162 163/163/163
f 142/142/142 163/163/163 143/143/143
f 143/143/143 163/163/163 164/164/164
f 143/143/143 164/164/164 144/144/144
f 144/144/144 164/164/164 165/165/165
f 144/144/144 165/165/165 145/145/145
f 145/145/145 165/165/165 166/166/166
f 145/145/145 166/166/166 146/146/146
f 146/146/146 166/166/166 167/167/167
f 146/146/146 167/167/167 147/147/147
f 147/147/147 167/167/167 168/168/168
f 148/148/148 169/169/169 149/149/149
f 149/149/149 169/169/169 170/170/170
f 149/149/149 170/170/170 150/150/150
f 150/150/150 170/170/170 171/171/171
f 150/150/150 171/171/171 151/151/151
f 151/151/151 171/171/171 172/172/172
f 151/151/151 172/172/172 152/152/152
f 152/152/152 172/172/172 173/173/173
f 152/152/152 173/173/173 153/153/153
f 153/153/153 173/173/173 174/174/174
f 153/153/153 174/174/174 154/154/154
f 154/154/154 174/174/174 175/175/175
f 154/154/154 175/175/175 155/155/155
f 155/155/155 175/175/175 176/176/176
f 155/155/155 176/176/176 156/156/156
f 156/156/156 176/176/176 177/177/177
f 156/156/156 177/177/177 157/157/157
f 157/157/157 177/177/177 178/178/178
f 157/157/157 178/178/178 158/158/158
f 158/158/158 178/178/178 179/179/179
f 158/158/158 179/179/179 159/159/159
f 159/159/159 179/179/179 180/180/180
f 159/159/159 180/180/180 160/160/160
f 160/160/160 180/180/180 181/181/181
f 160/160/160 181/181/181 161/161/161
f 161/161/161 181/181/181 182/182/182
f 161/161/161 182/182/182 162/162/162
f 162/162/162 182/182/182 183/183/183
f 162/162/162 183/183/183 163/163/163
f 163/163/163 183/183/183 184/184/184
f 163/163/163 184/184/184 164/164/164
f 164/164/164 184/184/184 185/185/185
f 164/164/164 185/185/185 165/165/165
f 165/165/165 185/185/185 186/186/186
f 165/165/165 186/186/186 166/166/166
f 166/166/166 186/186/186 187/187/187
f 166/166/166 187/187/187 167/167/167
f 167/167/167 187/187/187 188/188/188
f 167/167/167 188/188/188 168/168/168
f 168/168/168 188/188/188 189/189/189
f 169/169/169 190/190/190 170/170/170
f 170/170/170 190/190/190 191/191/191
f 170/170/170 191/191/191 171/171/171
f 171/171/171 191/191/191 192/192/192
f 171/171/171 192/192/192 172/172/172
f 172/172/172 192/192/192 193/193/193
f 172/172/172 193/193/193 173/173/173
f 173/173/173 193/193/193 194/194/194
f 173/173/173 194/194/194 174/174/174
f 174/174/174 194/194/194 195/195/195
f 174/174/174 195/195/195 175/175/175
f 175/175/175 195/195/195 196/196/196
f 175/175/175 196/196/196 176/176/176
f 176/176/176 196/196/196 197/197/197
f 176/176/176 197/197/197 177/177/177
f 177/177/177 197/197/197 198/198/198
f 177/177/177 198/198/198 178/178/178
f 178/178/178 198/198/198 199/199/199
f 178/178/178 199/199/199 179/179/179
f 179/179/179 199/199/199 200/200/200
f 179/179/179 200/200/200 180/180/180
f 180/180/180 200/200/200 201/201/201
f 180/180/180 201/201/201 181/181/181
f 181/181/181 201/201/201 202/202/202
f 181/181/181 202/202/202 182/182/182
f 182/182/182 202/202/202 203/203/203
f 182/182/182 203/203/203 183/183/183
f 183/183/183 203/203/203 204/204/204
f 183/183/183 204/204/204 184/184/184
f 184/184/184 204/204/204 205/205/205
f 184/184/184 205/205/205 185/185/185
f 185/185/185 205/205/205 206/206/206
f 185/185/185 206/206/206 186/186/186
f 186/186/186 206/206/206 207/207/207
f 186/186/186 207/207/207 187/187/187
f 187/187/187 207/207/207 208/208/208
f 187/187/187 208/208/208 188/188/188
f 188/188/188 208/208/208 209/209/209
f 188/188/188 209/209/209 189/189/189
f 189/189/189 209/209/209 210/210/210
f 190/190/190 211/211/211 191/191/191
f 191/191/191 211/211/211 212/212/212
f 191/191/191 212/212/212 192/192/192
f 192/192/192 212/212/212 213/213/213
f 192/192/192 213/213/213 193/193/193
f 193/193/193 213/213/213 214/214/214
f 193/193/193 214/214/214 194/194/194
f 194/194/194 214/214/214 215/215/215
f 194/194/194 215/215/215 195/195/195
f 195/195/195 215/215/215 216/216/216
f 195/195/195 216/216/216 196/196/196
f 196/196/196 216/216/216 217/217/217
f 196/196/196 217/217/217 197/197/197
f 197/197/197 217/217/217 218/218/218
f 197/197/197 218/218/218 198/198/198
f 198/198/198 218/218/218 219/219/219
f 198/198/198 219/219/219 199/199/199
f 199/199/199 219/219/219 220/220/220
f 199/199/199 220/220/220 200/200/200
f 200/200/200 220/220/220 221/221/221
f 200/200/200 221/221/221 201/201/201
f 201/201/201 221/221/221 222/222/222
f 201/201/201 222/222/222 202/202/202
f 202/202/202 222/222/222 223/223/223
f 202/202/202 223/223/223 203/203/203
f 203/203/203 223/223/223 224/224/224
f 203/203/203 224/224/224 204/204/204
f 204/204/204 224/224/224 225/225/225
f 204/204/204 225/225/225 205/205/205
f 205/205/205 225/225/225 226/226/226
f 205/205/205 226/226/226 206/206/206
f 206/206/206 226/226/226 227/227/227
f 206/206/206 227/227/227 207/207/207
f 207/207/207 227/227/227 228/228/228
f 207/207/207 228/228/228 208/208/208
f 208/208/208 228/228/228 229/229/229
f 208/208/208 229/229/229 209/209/209
f 209/209/209 229/229/229 230/230/230
f 209/209/209 230/230/230 210/210/210
f 210/210/210 230/230/230 231/231/231
f 211/211/211 232/232/232 212/212/212
f 212/212/212 232/232/232 233/233/233
f 212/212/212 233/233/233 213/213/213
f 213/213/213 233/233/233 234/234/234
f 213/213/213 234/234/234 214/214/214
f 214/214/214 234/234/234 235/235/235
f 214/214/214 235/235/235 215/215/215
f 215/215/215 235/235/235 236/236/236
f 215/215/215 236/236/236 216/216/216
f 216/216/216 236/236/236 237/237/237
f 216/216/216 237/237/237 217/217/217
f 217/217/217 237/237/237 238/238/238
f 217/217/217 238/238/238 218/218/218
f 218/218/218 238/238/238 239/239/239
f 218/218/218 239/239/239 219/219/219
f 219/219/219 239/239/239 240/240/240
f 219/219/219 240/240/240 220/220/220
f 220/220/220 240/240/240 241/241/241
f 220/220/220 241/241/241 221/221/221
f 221/221/221 241/241/241 242/242/242
f 221/221/221 242/242/242 222/222/222
f 222/222/222 242/242/242 243/243/243
f 222/222/222 243/243/243 223/223/223
f 223/223/223 243/243/243 244/244/244
f 223/223/223 244/244/244 224/224/224
f 224/224/224 244/244/244 245/245/245
f 224/224/224 245/245/245 225/225/225
f 225/225/225 245/245/245 246/246/246
f 225/225/225 246/246/246 226/226/226
f 226/226/226 246/246/246 247/247/247
f 226/226/226 247/247/247 227/227/227
f 227/227/227 247/247/247 248/248/248
f 227/227/227 248/248/248 228/228/228
f 228/228/228 248/248/248 249/249/249
f 228/228/228 249/249/249 229/229/229
f 229/229/229 249/249/249 250/250/250
f 229/229/229 250/250/250 230/230/230
f 230/230/230 250/250/250 251/251/251
f 230/230/230 251/251/251 231/231/231
f 231/231/231 251/251/251 252/252/252
f 232/232/232 253/253/253 233/233/233
f 233/233/233 253/253/253 254/254/254
f 233/233/233 254/254/254 234/234/234
f 234/234/234 254/254/254 255/255/255
f 234/234/234 255/255/255 235/235/235
f 235/235/235 255/255/255 256/256/256
f 235/235/235 256/256/256 236/236/236
f 236/236/236 256/256/256 257/257/257
f 236/236/236 257/257/257 237/237/237
f 237/237/237 257/257/257 258/258/258
f 237/237/237 258/258/258 238/238/238
f 238/238/238 258/258/258 259/259/259
f 238/238/238 259/259/259 239/239/239
f 239/239/239 259/259/259 260/260/260
f 239/239/239 260/260/260 240/240/240
f 240/240/240 260/260/260 261/261/261
f 240/240/240 261/261/261 241/241/241
f 241/241/241 261/261/261 262/262/262
f 241/241/241 262/262/262 242/242/242
f 242/242/242 262/262/262 263/263/263
f 242/242/242 263/263/263 243/243/243
f 243/243/243 263/263/263 264/264/264
f 243/243/243 264/264/264 244/244/244
f 244/244/244 264/264/264 265/265/265
f 244/244/244 265/265/265 245/245/245
f 245/245/245 265/265/265 266/266/266
f 245/245/245 266/266/266 246/246/246
f 246/246/246 266/266/266 267/267/267
f 246/246/246 267/267/267 247/247/247
f 247/247/247 267/267/267 268/268/268
f 247/247/247 268/268/268 248/248/248
f 248/248/248 268/268/268 269/269/269
f 248/248/248 269/269/269 249/249/249
f 249/249/249 269/269/269 270/270/270
f 249/249/249 270/270/270 250/250/250
f 250/250/250 270/270/270 271/271/271
f 250/250/250 271/271/271 251/251/251
f 251/251/251 271/271/271 272/272/272
f 251/251/251 272/272/272 252/252/252
f 252/252/252 272/272/272 273/273/273
f 253/253/253 274/274/274 254/254/254
f 254/254/254 274/274/274 275/275/275
f 254/254/254 275/275/275 255/255/255
f 255/255/255 275/275/275 276/276/276
f 255/255/255 276/276/276 256/256/256
f 256/256/256 276/276/276 277/277/277
f 256/256/256 277/277/277 257/257/257
f 257/257/257 277/277/277 278/278/278
f 257/257/257 278/278/278 258/258/258
f 258/258/258 278/278/278 279/279/279
f 258/258/258 279/279/279 259/259/259
f 259/259/259 279/279/279 280/280/280
f 259/259/259 280/280/280 260/260/260
f 260/260/260 280/280/280 281/281/281
f 260/260/260 281/281/281 261/261/261
f 261/261/261 281/281/281 282/282/282
f 261/261/261 282/282/282 262/262/262
f 262/262/262 282/282/282 283/283/283
f 262/262/262 283/283/283 263/263/263
f 263/263/263 283/283/283 284/284/284
f 263/263/263 284/284/284 264/264/264
f 264/264/264 284/284/284 285/285/285
f 264/264/264 285/285/285 265/265/265
f 265/265/265 285/285/285 286/286/286
f 265/265/265 286/286/286 266/266/266
f 266/266/266 286/286/286 287/287/287
f 266/266/266 287/287/287 267/267/267
f 267/267/267 287/287/287 288/288/288
f 267/267/267 288/288/288 268/268/268
f 268/268/268 288/288/288 289/289/289
f 268/268/268 289/289/289 269/269/269
f 269/269/269 289/289/289 290/290/290
f 269/269/269 290/290/290 270/270/270
f 270/270/270 290/290/290 291/291/291
f 270/270/270 291/291/291 271/271/271
f 271/271/271 291/291/291 292/292/292
f 271/271/271 292/292/292 272/272/272
f 272/272/272 292/292/292 293/293/293
f 272/272/272 293/293/293 273/273/273
f 273/273/273 293/293/293 294/294/294
f 274/274/274 295/295/295 275/275/275
f 275/275/275 295/295/295 296/296/296
f 275/275/275 296/296/296 276/276/276
f 276/276/276 296/296/296 297/297/297
f 276/276/276 297/297/297 277/277/277
f 277/277/277 297/297/297 298/298/298
f 277/277/277 298/298/298 278/278/278
f 278/278/278 298/298/298 299/299/299
f 278/278/278 299/299/299 279/279/279
f 279/279/279 299/299/299 300/300/300
f 279/279/279 300/300/300 280/280/280
f 280/280/280 300/300/300 301/301/301
f 280/280/280 301/301/301 281/281/281
f 281/281/281 301/301/301 302/302/302
f 281/281/281 302/302/302 282/282/282
f 282/282/282 302/302/302 303/303/303
f 282/282/282 303/303/303 283/283/283
f 283/283/283 303/303/303 304/304/304
f 283/283/283 304/304/304 284/284/284
f 284/284/284 304/304/304 305/305/305
f 284/284/284 305/305/305 285/285/285
f 285/285/285 305/305/305 306/306/306
f 285/285/285 306/306/306 286/286/286
f 286/286/286 306/306/306 307/307/307
f 286/286/286 307/307/307 287/287/287
f 287/287/287 307/307/307 308/308/308
f 287/287/287 308/308/308 288/288/288
f 288/288/288 308/308/308 309/309/309
f 288/288/288 309/309/309 289/289/289
f 289/289/289 309/309/309 310/310/310
f 289/289/289 310/310/310 290/290/290
f 290/290/290 310/310/310 311/311/311
f 290/290/290 311/311/311 291/291/291
f 291/291/291 311/311/311 312/312/312
f 291/291/291 312/312/312 292/292/292
f 292/292/292 312/312/312 313/313/313
f 292/292/292 313/313/313 293/293/293
f 293/293/293 313/313/313 314/314/314
f 293/293/293 314/314/314 294/294/294
f 294/294/294 314/314/314 315/315/315
f 295/295/295 316/316/316 296/296/296
f 296/296/296 316/316/316 317/317/317
f 296/296/296 317/317/317 297/297/297
f 297/297/297 317/317/317 318/318/318
f 297/297/297 318/318/318 298/298/298
f 298/298/298 318/318/318 319/319/319
f 298/298/298 319/319/319 299/299/299
f 299/299/299 319/319/319 320/320/320
f 299/299/299 320/320/320 300/300/300
f 300/300/300 320/320/320 321/321/321
f 300/300/300 321/321/321 301/301/301
f 301/301/301 321/321/321 322/322/322
f 301/301/301 322/322/322 302/302/302
f 302/302/302 322/322/322 323/323/323
f 302/302/302 323/323/323 303/303/303
f 303/303/303 323/323/323 324/324/324
f 303/303/303 324/324/324 304/304/304
f 304/304/304 324/324/324 325/325/325
f 304/304/304 325/325/325 305/305/305
f 305/305/305 325/325/325 326/326/326
f 305/305/305 326/326/326 306/306/306
f 306/306/306 326/326/326 327/327/327
f 306/306/306 327/327/327 307/307/307
f 307/307/307 327/327/327 328/328/328
f 307/307/307 328/328/328 308/308/308
f 308/308/308 328/328/328 329/329/329
f 308/308/308 329/329/329 309/309/309
f 309/309/309 329/329/329 330/330/330
f 309/309/309 330/330/330 310/310/310
f 310/310/310 330/330/330 331/331/331
f 310/310/310 331/331/331 311/311/311
f 311/311/311 331/331/331 332/332/332
f 311/311/311 332/332/332 312/312/312
f 312/312/312 332/332/332 333/333/333
f 312/312/312 333/333/333 313/313/313
f 313/313/313 333/333/333 334/334/334
f 313/313/313 334/334/334 314/314/314
f 314/314/314 334/334/334 335/335/335
f 314/314/314 335/335/335 315/315/315
f 315/315/315 335/335/335 336/336/336
f 316/316/316 337/337/337 317/317/317
f 317/317/317 337/337/337 338/338/338
f 317/317/317 338/338/338 318/318/318
f 318/318/318 338/338/338 339/339/339
f 318/318/318 339/339/339 319/319/319
f 319/319/319 339/339/339 340/340/340
f 319/319/319 340/340/340 320/320/320
f 320/320/320 340/340/340 341/341/341
f 320/320/320 341/341/341 321/321/321
f 321/321/321 341/341/341 342/342/342
f 321/321/321 342/342/342 322/322/322
f 322/322/322 342/342/342 343/343/343
f 322/322/322 343/343/343 323/323/323
f 323/323/323 343/343/343 344/344/344
f 323/323/323 344/344/344 324/324/324
f 324/324/324 344/344/344 345/345/345
f 324/324/324 345/345/345 325/325/325
f 325/325/325 345/345/345 346/346/346
f 325/325/325 346/346/346 326/326/326
f 326/326/326 346/346/346 347/347/347
f 326/326/326 347/347/347 327/327/327
f 327/327/327 347/347/347 348/348/348
f 327/327/327 348/348/348 328/328/328
f 328/328/328 348/348/348 349/349/349
f 328/328/328 349/349/349 329/329/329
f 329/329/329 349/349/349 350/350/350
f 329/329/329 350/350/350 330/330/330
f 330/330/330 350/350/350 351/351/351
f 330/330/330 351/351/351 331/331/331
f 331/331/331 351/351/351 352/352/352
f 331/331/331 352/352/352 332/332/332
f 332/332/332 352/352/352 353/353/353
f 332/332/332 353/353/353 333/333/333
f 333/333/333 353/353/353 354/354/354
f 333/333/333 354/354/354 334/334/334
f 334/334/334 354/354/354 355/355/355
f 334/334/334 355/355/355 335/335/335
f 335/335/335 355/355/355 356/356/356
f 335/335/335 356/356/356 336/336/336
f 336/336/336 356/356/356 357/357/357
f 337/337/337 358/358/358 338/338/338
f 338/338/338 358/358/358 359/359/359
f 338/338/338 359/359/359 339/339/339
f 339/339/339 359/359/359 360/360/360
f 339/339/339 360/360/360 340/340/340
f 340/340/340 360/360/360 361/361/361
f 340/340/340 361/361/361 341/341/341
f 341/341/341 361/361/361 362/362/362
f 341/341/341 362/362/362 342/342/342
f 342/342/342 362/362/362 363/363/363
f 342/342/342 363/363/363 343/343/343
f 343/343/343 363/363/363 364/364/364
f 343/343/343 364/364/364 344/344/344
f 344/344/344 364/364/364 365/365/365
f 344/344/344 365/365/365 345/345/345
f 345/345/345 365/365/365 366/366/366
f 345/345/345 366/366/366 346/346/346
f 346/346/346 366/366/366 367/367/367
f 346/346/346 367/367/367 347/347/347
f 347/347/347 367/367/367 368/368/368
f 347/347/347 368/368/368 348/348/348
f 348/348/348 368/368/368 369/369/369
f 348/348/348 369/369/369 349/349/349
f 349/349/349 369/369/369 370/370/370
f 349/349/349 370/370/370 350/350/350
f 350/350/350 370/370/370 371/371/371
f 350/350/350 371/371/371 351/351/351
f 351/351/351 371/371/371 372/372/372
f 351/351/351 372/372/372 352/352/352
f 352/352/352 372/372/372 373/373/373
f 352/352/352 373/373/373 353/353/353
f 353/353/353 373/373/373 374/374/374
f 353/353/353 374/374/374 354/354/354
f 354/354/354 374/374/374 375/375/375
f 354/354/354 375/375/375 355/355/355
f 355/355/355 375/375/375 376/376/376
f 355/355/355 376/376/376 356/356/356
f 356/356/356 376/376/376 377/377/377
f 356/356/356 377/377/377 357/357/357
f 357/357/357 377/377/377 378/378/378
f 358/358/358 379/379/379 359/359/359
f 359/359/359 379/379/379 380/380/380
f 359/359/359 380/380/380 360/360/360
f 360/360/360 380/380/380 381/381/381
f 360/360/360 381/381/381 361/361/361
f 361/361/361 381/381/381 382/382/382
f 361/361/361 382/382/382 362/362/362
f 362/362/362 382/382/382 383/383/383
f 362/362/362 383/383/383 363/363/363
f 363/363/363 383/383/383 384/384/384
f 363/363/363 384/384/384 364/364/364
f 364/364/364 384/384/384 385/385/385
f 364/364/364 385/385/385 365/365/365
f 365/365/365 385/385/385 386/386/386
f 365/365/365 386/386/386 366/366/366
f 366/366/366 386/386/386 387/387/387
f 366/366/366 387/387/387 367/367/367
f 367/367/367 387/387/387 388/388/388
f 367/367/367 388/388/388 368/368/368
f 368/368/368 388/388/388 389/389/389
f 368/368/368 389/389/389 369/369/369
f 369/369/369 389/389/389 390/390/390
f 369/369/369 390/390/390 370/370/370
f 370/370/370 390/390/390 391/391/391
f 370/370/370 391/391/391 371/371/371
f 371/371/371 391/391/391 392/392/392
f 371/371/371 392/392/392 372/372/372
f 372/372/372 392/392/392 393/393/393
f 372/372/372 393/393/393 373/373/373
f 373/373/373 393/393/393 394/394/394
f 373/373/373 394/394/394 374/374/374
f 374/374/374 394/394/394 395/395/395
f 374/374/374 395/395/395 375/375/375
f 375/375/375 395/395/395 396/396/396
f 375/375/375 396/396/396 376/376/376
f 376/376/376 396/396/396 397/397/397
f 376/376/376 397/397/397 377/377/377
f 377/377/377 397/397/397 398/398/398
f 377/377/377 398/398/398 378/378/378
f 378/378/378 398/398/398 399/399/399
f 379/379/379 400/400/400 380/380/380
f 380/380/380 400/400/400 401/401/401
f 380/380/380 401/401/401 381/381/381
f 381/381/381 401/401/401 402/402/402
f 381/381/381 402/402/402 382/382/382
f 382/382/382 402/402/402 403/403/403
f 382/382/382 403/403/403 383/383/383
f 383/383/383 403/403/403 404/404/404
f 383/383/383 404/404/404 384/384/384
f 384/384/384 404/404/404 405/405/405
f 384/384/384 405/405/405 385/385/385
f 385/385/385 405/405/405 406/406/406
f 385/385/385 406/406/406 386/386/386
f 386/386/386 406/406/406 407/407/407
f 386/386/386 407/407/407 387/387/387
f 387/387/387 407/407/407 408/408/408
f 387/387/387 408/408/408 388/388/388
f 388/388/388 408/408/408 409/409/409
f 388/388/388 409/409/409 389/389/389
f 389/389/389 409/409/409 410/410/410
f 389/389/389 410/410/410 390/390/390
f 390/390/390 410/410/410 411/411/411
f 390/390/390 411/411/411 391/391/391
f 391/391/391 411/411/411 412/412/412
f 391/391/391 412/412/412 392/392/392
f 392/392/392 412/412/412 413/413/413
f 392/392/392 413/413/413 393/393/393
f 393/393/393 413/413/413 414/414/414
f 393/393/393 414/414/414 394/394/394
f 394/394/394 414/414/414 415/415/415
f 394/394/394 415/415/415 395/395/395
f 395/395/395 415/415/415 416/416/416
f 395/395/395 416/416/416 396/396/396
f 396/396/396 416/416/416 417/417/417
f 396/396/396 417/417/417 397/397/397
f 397/397/397 417/417/417 418/418/418
f 397/397/397 418/418/418 398/398/398
f 398/398/398 418/418/418 419/419/419
f 398/398/398 419/419/419 399/399/399
f 399/399/399 419/419/419 420/420/420
f 400/400/400 421/421/421 401/401/401
f 401/401/401 421/421/421 422/422/422
f 401/401/401 422/422/422 402/402/402
f 402/402/402 422/422/422 423/423/423
f 402/402/402 423/423/423 403/403/403
f 403/403/403 423/423/423 424/424/424
f 403/403/403 424/424/424 404/404/404
f 404/404/404 424/424/424 425/425/425
f 404/404/404 425/425/425 405/405/405
f 405/405/405 425/425/425 426/426/426
f 405/405/405 426/426/426 406/406/406
f 406/406/406 426/426/426 427/427/427
f 406/406/406 427/427/427 407/407/407
f 407/407/407 427/427/427 428/428/428
f 407/407/407 428/428/428 408/408/408
f 408/408/408 428/428/428 429/429/429
f 408/408/408 429/429/429 409/409/409
f 409/409/409 429/429/429 430/430/430
f 409/409/409 430/430/430 410/410/410
f 410/410/410 430/430/430 431/431/431
f 410/410/410 431/431/431 411/411/411
f 411/411/411 431/431/431 432/432/432
f 411/411/411 432/432/432 412/412/412
f 412/412/412 432/432/432 433/433/433
f 412/412/412 433/433/433 413/413/413
f 413/413/413 433/433/433 434/434/434
f 413/413/413 434/434/434 414/414/414
f 414/414/414 434/434/434 435/435/435
f 414/414/414 435/435/435 415/415/415
f 415/415/415 435/435/435 436/436/436
f 415/415/415 436/436/436 416/416/416
f 416/416/416 436/436/436 437/437/437
f 416/416/416 437/437/437 417/417/417
f 417/417/417 437/437/437 438/438/438
f 417/417/417 438/438/438 418/418/418
f 418/418/418 438/438/438 439/439/439
f 418/418/418 439/439/439 419/419/419
f 419/419/419 439/439/439 440/440/440
f 419/419/419 440/440/440 420/420/420
f 420/420/420 440/440/440 441/441/441
f 421/421/421 442/442/442 422/422/422
f 422/422/422 442/442/442 443/443/443
f 422/422/422 443/443/443 423/423/423
f 423/423/423 443/443/443 444/444/444
f 423/423/423 444/444/444 424/424/424
f 424/424/424 444/444/444 445/445/445
f 424/424/424 445/445/445 425/425/425
f 425/425/425 445/445/445 446/446/446
f 425/425/425 446/446/446 426/426/426
f 426/426/426 446/446/446 447/447/447
f 426/426/426 447/447/447 427/427/427
f 427/427/427 447/447/447 448/448/448
f 427/427/427 448/448/448 428/428/428
f 428/428/428 448/448/448 449/449/449
f 428/428/428 449/449/449 429/429/429
f 429/429/429 449/449/449 450/450/450
f 429/429/429 450/450/450 430/430/430
f 430/430/430 450/450/450 451/451/451
f 430/430/430 451/451/451 431/431/431
f 431/431/431 451/451/451 452/452/452
f 431/431/431 452/452/452 432/432/432
f 432/432/432 452/452/452 453/453/453
f 432/432/432 453/453/453 433/433/433
f 433/433/433 453/453/453 454/454/454
f 433/433/433 454/454/454 434/434/434
f 434/434/434 454/454/454 455/455/455
f 434/434/434 455/455/455 435/435/435
f 435/435/435 455/455/455 456/456/456
f 435/435/435 456/456/456 436/436/436
f 436/436/436 456/456/456 457/457/457
f 436/436/436 457/457/457 437/437/437
f 437/437/437 457/457/457 458/458/458
f 437/437/437 458/458/458 438/438/438
f 438/438/438 458/458/458 459/459/459
f 438/438/438 459/459/459 439/439/439
f 439/439/439 459/459/459 460/460/460
f 439/439/439 460/460/460 440/440/440
f 440/440/440 460/460/460 461/461/461
f 440/440/440 461/461/461 441/441/441
f 441/441/441 461/461/461 462/462/462
f 442/442/442 463/463/463 443/443/443
f 443/443/443 463/463/463 464/464/464
f 443/443/443 464/464/464 444/444/444
f 444/444/444 464/464/464 465/465/465
f 444/444/444 465/465/465 445/445/445
f 445/445/445 465/465/465 466/466/466
f 445/445/445 466/466/466 446/446/446
f 446/446/446 466/466/466 467/467/467
f 446/446/446 467/467/467 447/447/447
f 447/447/447 467/467/467 468/468/468
f 447/447/447 468/468/468 448/448/448
f 448/448/448 468/468/468 469/469/469
f 448/448/448 469/469/469 449/449/449
f 449/449/449 469/469/469 470/470/470
f 449/449/449 470/470/470 450/450/450
f 450/450/450 470/470/470 471/471/471
f 450/450/450 471/471/471 451/451/451
f 451/451/451 471/471/471 472/472/472
f 451/451/451 472/472/472 452/452/452
f 452/452/452 472/472/472 473/473/473
f 452/452/452 473/473/473 453/453/453
f 453/453/453 473/473/473 474/474/474
f 453/453/453 474/474/474 454/454/454
f 454/454/454 474/474/474 475/475/475
f 454/454/454 475/475/475 455/455/455
f 455/455/455 475/475/475 476/476/476
f 455/455/455 476/476/476 456/456/456
f 456/456/456 476/476/476 477/477/477
f 456/456/456 477/477/477 457/457/457
f 457/457/457 477/477/477 478/478/478
f 457/457/457 478/478/478 458/458/458
f 458/458/458 478/478/478 479/479/479
f 458/458/458 479/479/479 459/459/459
f 459/459/459 479/479/479 480/480/480
f 459/459/459 480/480/480 460/460/460
f 460/460/460 480/480/480 481/481/481
f 460/460/460 481/481/481 461/461/461
f 461/461/461 481/481/481 482/482/482
f 461/461/461 482/482/482 462/462/462
f 462/462/462 482/482/482 483/483/483
f 463/463/463 484/484/484 464/464/464
f 464/464/464 484/484/484 485/485/485
f 464/464/464 485/485/485 465/465/465
f 465/465/465 485/485/485 486/486/486
f 465/465/465 486/486/486 466/466/466
f 466/466/466 486/486/486 487/487/487
f 466/466/466 487/487/487 467/467/467
f 467/467/467 487/487/487 488/488/488
f 467/467/467 488/488/488 468/468/468
f 468/468/468 488/488/488 489/489/489
f 468/468/468 489/489/489 469/469/469
f 469/469/469 489/489/489 490/490/490
f 469/469/469 490/490/490 470/470/470
f 470/470/470 490/490/490 491/491/491
f 470/470/470 491/491/491 471/471/471
f 471/471/471 491/491/491 492/492/492
f 471/471/471 492/492/492 472/472/472
f 472/472/472 492/492/492 493/493/493
f 472/472/472 493/493/493 473/473/473
f 473/473/473 493/493/493 494/494/494
f 473/473/473 494/494/494 474/474/474
f 474/474/474 494/494/494 495/495/495
f 474/474/474 495/495/495 475/475/475
f 475/475/475 495/495/495 496/496/496
f 475/475/475 496/496/496 476/476/476
f 476/476/476 496/496/496 497/497/497
f 476/476/476 497/497/497 477/477/477
f 477/477/477 497/497/497 498/498/498
f 477/477/477 498/498/498 478/478/478
f 478/478/478 498/498/498 499/499/499
f 478/478/478 499/499/499 479/479/479
f 479/479/479 499/499/499 500/500/500
f 479/479/479 500/500/500 480/480/480
f 480/480/480 500/500/500 501/501/501
f 480/480/480 501/501/501 481/481/481
f 481/481/481 501/501/501 502/502/502
f 481/481/481 502/502/502 482/482/482
f 482/482/482 502/502/502 503/503/503
f 482/482/482 503/503/503 483/483/483
f 483/483/483 503/503/503 504/504/504
f 484/484/484 505/505/505 485/485/485
f 485/485/485 505/505/505 506/506/506
f 485/485/485 506/506/506 486/486/486
f 486/486/486 506/506/506 507/507/507
f 486/486/486 507/507/507 487/487/487
f 487/487/487 507/507/507 508/508/508
f 487/487/487 508/508/508 488/488/488
f 488/488/488 508/508/508 509/509/509
f 488/488/488 509/509/509 489/489/489
f 489/489/489 509/509/509 510/510/510
f 489/489/489 510/510/510 490/490/490
f 490/490/490 510/510/510 511/511/511
f 490/490/490 511/511/511 491/491/491
f 491/491/491 511/511/511 512/512/512
f 491/491/491 512/512/512 492/492/492
f 492/492/492 512/512/512 513/513/513
f 492/492/492 513/513/513 493/493/493
f 493/493/493 513/513/513 514/514/514
f 493/493/493 514/514/514 494/494/494
f 494/494/494 514/514/514 515/515/515
f 494/494/494 515/515/515 495/495/495
f 495/495/495 515/515/515 516/516/516
f 495/495/495 516/516/516 496/496/496
f 496/496/496 516/516/516 517/517/517
f 496/496/496 517/517/517 497/497/497
f 497/497/497 517/517/517 518/518/518
f 497/497/497 518/518/518 498/498/498
f 498/498/498 518/518/518 519/519/519
f 498/498/498 519/519/519 499/499/499
f 499/499/499 519/519/519 520/520/520
f 499/499/499 520/520/520 500/500/500
f 500/500/500 520/520/520 521/521/521
f 500/500/500 521/521/521 501/501/501
f 501/501/501 521/521/521 522/522/522
f 501/501/501 522/522/522 502/502/502
f 502/502/502 522/522/522 523/523/523
f 502/502/502 523/523/523 503/503/503
f 503/503/503 523/523/523 524/524/524
f 503/503/503 524/524/524 504/504/504
f 504/504/504 524/524/524 525/525/525
f 505/505/505 526/526/526 506/506/506
f 506/506/506 526/526/526 527/527/527
f 506/506/506 527/527/527 507/507/507
f 507/507/507 527/527/527 528/528/528
f 507/507/507 528/528/528 508/508/508
f 508/508/508 528/528/528 529/529/529
f 508/508/508 529/529/529 509/509/509
f 509/509/509 529/529/529 530/530/530
f 509/509/509 530/530/530 510/510/510
f 510/510/510 530/530/530 531/531/531
f 510/510/510 531/531/531 511/511/511
f 511/511/511 531/531/531 532/532/532
f 511/511/511 532/532/532 512/512/512
f 512/512/512 532/532/532 533/533/533
f 512/512/512 533/533/533 513/513/513
f 513/513/513 533/533/533 534/534/534
f 513/513/513 534/534/534 514/514/514
f 514/514/514 534/534/534 535/535/535
f 514/514/514 535/535/535 515/515/515
f 515/515/515 535/535/535 536/536/536
f 515/515/515 536/536/536 516/516/516
f 516/516/516 536/536/536 537/537/537
f 516/516/516 537/537/537 517/517/517
f 517/517/517 537/537/537 538/538/538
f 517/517/517 538/538/538 518/518/518
f 518/518/518 538/538/538 539/539/539
f 518/518/518 539/539/539 519/519/519
f 519/519/519 539/539/539 540/540/540
f 519/519/519 540/540/540 520/520/520
f 520/520/520 540/540/540 541/541/541
f 520/520/520 541/541/541 521/521/521
f 521/521/521 541/541/541 542/542/542
f 521/521/521 542/542/542 522/522/522
f 522/522/522 542/542/542 543/543/543
f 522/522/522 543/543/543 523/523/523
f 523/523/523 543/543/543 544/544/544
f 523/523/523 544/544/544 524/524/524
f 524/524/524 544/544/544 545/545/545
f 524/524/524 545/545/545 525/525/525
f 525/525/525 545/545/545 546/546/546
f 526/526/526 547/547/547 527/527/527
f 527/527/527 547/547/547 548/548/548
f 527/527/527 548/548/548 528/528/528
f 528/528/528 548/548/548 549/549/549
f 528/528/528 549/549/549 529/529/529
f 529/529/529 549/549/549 550/550/550
f 529/529/529 550/550/550 530/530/530
f 530/530/530 550/550/550 551/551/551
f 530/530/530 551/551/551 531/531/531
f 531/531/531 551/551/551 552/552/552
f 531/531/531 552/552/552 532/532/532
f 532/532/532 552/552/552 553/553/553
f 532/532/532 553/553/553 533/533/533
f 533/533/533 553/553/553 554/554/554
f 533/533/533 554/554/554 534/534/534
f 534/534/534 554/554/554 555/555/555
f 534/534/534 555/555/555 535/535/535
f 535/535/535 555/555/555 556/556/556
f 535/535/535 556/556/556 536/536/536
f 536/536/536 556/556/556 557/557/557
f 536/536/536 557/557/557 537/537/537
f 537/537/537 557/557/557 558/558/558
f 537/537/537 558/558/558 538/538/538
f 538/538/538 558/558/558 559/559/559
f 538/538/538 559/559/559 539/539/539
f 539/539/539 559/559/559 560/560/560
f 539/539/539 560/560/560 540/540/540
f 540/540/540 560/560/560 561/561/561
f 540/540/540 561/561/561 541/541/541
f 541/541/541 561/561/561 562/562/562
f 541/541/541 562/562/562 542/542/542
f 542/542/542 562/562/562 563/563/563
f 542/542/542 563/563/563 543/543/543
f 543/543/543 563/563/563 564/564/564
f 543/543/543 564/564/564 544/544/544
f 544/544/544 564/564/564 565/565/565
f 544/544/544 565/565/565 545/545/545
f 545/545/545 565/565/565 566/566/566
f 545/545/545 566/566/566 546/546/546
f 546/546/546 566/566/566 567/567/567
f 547/547/547 568/568/568 548/548/548
f 548/548/548 568/568/568 569/569/569
f 548/548/548 569/569/569 549/549/549
f 549/549/549 569/569/569 570/570/570
f 549/549/549 570/570/570 550/550/550
f 550/550/550 570/570/570 571/571/571
f 550/550/550 571/571/571 551/551/551
f 551/551/551 571/571/571 572/572/572
f 551/551/551 572/572/572 552/552/552
f 552/552/552 572/572/572 573/573/573
f 552/552/552 573/573/573 553/553/553
f 553/553/553 573/573/573 574/574/574
f 553/553/553 574/574/574 554/554/554
f 554/554/554 574/574/574 575/575/575
f 554/554/554 575/575/575 555/555/555
f 555/555/555 575/575/575 576/576/576
f 555/555/555 576/576/576 556/556/556
f 556/556/556 576/576/576 577/577/577
f 556/556/556 577/577/577 557/557/557
f 557/557/557 577/577/577 578/578/578
f 557/557/557 578/578/578 558/558/558
f 558/558/558 578/578/578 579/579/579
f 558/558/558 579/579/579 559/559/559
f 559/559/559 579/579/579 580/580/580
f 559/559/559 580/580/580 560/560/560
f 560/560/560 580/580/580 581/581/581
f 560/560/560 581/581/581 561/561/561
f 561/561/561 581/581/581 582/582/582
f 561/561/561 582/582/582 562/562/562
f 562/562/562 582/582/582 583/583/583
f 562/562/562 583/583/583 563/563/563
f 563/563/563 583/583/583 584/584/584
f 563/563/563 584/584/584 564/564/564
f 564/564/564 584/584/584 585/585/585
f 564/564/564 585/585/585 565/565/565
f 565/565/565 585/585/585 586/586/586
f 565/565/565 586/586/586 566/566/566
f 566/566/566 586/586/586 587/587/587
f 566/566/566 587/587/587 567/567/567
f 567/567/567 587/587/587 588/588/588
